<svg xmlns="http://www.w3.org/2000/svg" xmlns:xlink="http://www.w3.org/1999/xlink" viewBox="0 0 176.15 184.08"><defs><style>.cls-1{fill:none;}.cls-2{clip-path:url(#clip-path);}.cls-3{fill:#7cbb48;}.cls-4{fill:#e54216;}.cls-5{fill:#c3c200;}.cls-6{fill:#ea941c;}.cls-7{fill:#00679e;}.cls-8{clip-path:url(#clip-path-2);}.cls-9{fill:#7eba46;}</style><clipPath id="clip-path" transform="translate(-1.1 0)"><rect class="cls-1" x="1.1" width="176.15" height="184.08"/></clipPath><clipPath id="clip-path-2" transform="translate(-1.1 0)"><rect class="cls-1" width="176.15" height="184.08"/></clipPath></defs><title>bf_alpari_heart</title><g id="Слой_2" data-name="Слой 2"><g id="Слой_2-2" data-name="Слой 2"><g class="cls-2"><path class="cls-3" d="M95.56,10.66c0-2.09,23.87-11.63,47.4.14,23.3,11.66,36.41,41,34,65.81-4.27,44.17-57.21,71.32-75.95,76.23-4.35,1.14-12.07,3.75-27.51,9-8.57,2.89-14.18,4.88-20.24,9.5a50.41,50.41,0,0,0-11.74,12.78,81.62,81.62,0,0,1,15-35.33c3.39-4.51,7.09-9.33,13.59-13.29,8.72-5.32,14-3.93,27.57-6.79,6-1.26,20.07-4.34,34.1-13,6-3.73,14.81-9.31,22-20.15,2.52-3.79,8.51-13,9.66-25.94a55.23,55.23,0,0,0-18.7-45.71C123.35,5.71,95.61,12.89,95.56,10.66" transform="translate(-1.1 0)"/><path class="cls-4" d="M76.73,14C77.48,12.7,67.18.79,48.49,0,30-.73,11.74,13,4.69,29.29c-12.54,29,11.07,64.07,21,73.57,2.31,2.2,6.22,6.48,14,15,4.34,4.75,7.14,7.91,9.33,12.88a35.81,35.81,0,0,1,2.91,12,58,58,0,0,0,2.83-27.14c-.56-4-1.2-8.25-3.88-12.95C47.37,96.37,43.6,95.42,36.14,89A74.5,74.5,0,0,1,19.41,69.13c-2.47-4.4-6-10.9-6.77-20.11a39.44,39.44,0,0,1,2.9-19.47,39.29,39.29,0,0,1,27.37-22c19.54-3.92,33,7.83,33.82,6.46" transform="translate(-1.1 0)"/><path class="cls-5" d="M95.56,10.66c0-1.54,19.89-8.41,37.06.38,17,8.72,26.43,30.29,24.5,48.51-3.43,32.37-42.45,51.92-56.22,55.39-3.2.81-8.88,2.67-20.25,6.39-6.3,2.06-10.43,3.48-14.91,6.83a36.69,36.69,0,0,0-8.69,9.29,59.82,59.82,0,0,1,11.22-25.81c2.52-3.28,5.26-6.8,10.06-9.66,6.43-3.84,10.3-2.78,20.27-4.79a76.75,76.75,0,0,0,25.09-9.33c4.45-2.7,10.93-6.73,16.29-14.63a40.73,40.73,0,0,0,7.26-19,40.55,40.55,0,0,0-13.4-33.66C118.28,7.18,95.58,12.3,95.56,10.66" transform="translate(-1.1 0)"/><path class="cls-6" d="M76.73,14c.58-.93-5.5-8.47-19.2-9.35S30.36,13.52,24.91,25.35c-9.69,21,7,47.17,14.18,54.31,1.66,1.66,4.46,4.86,10,11.27,3.1,3.55,5.1,5.92,6.62,9.6a26.45,26.45,0,0,1,1.93,8.84,42.54,42.54,0,0,0,2.54-19.85A24.78,24.78,0,0,0,57.6,80c-2.53-4.68-5.28-5.44-10.64-10.3A54.69,54.69,0,0,1,35,54.82,34.48,34.48,0,0,1,30.41,40a28.92,28.92,0,0,1,2.46-14.23A28.86,28.86,0,0,1,53.31,10C67.71,7.5,76.13,15,76.73,14" transform="translate(-1.1 0)"/><path class="cls-7" d="M122,53.56l0-.73,1,0-.08-2.75-.95,0,0-.73,1.69-.05v.37a3.94,3.94,0,0,0,1.31.32,15.4,15.4,0,0,0,1.88,0l.46,0,.08,3-3.64.1,0,.38Zm4.37-9,.18.87-1.68.35.34,1.69,1.69-.34.18.86-4.29.88-.18-.86,1.88-.39-.35-1.69-1.87.38-.18-.87Zm-5.16-1.78a2.07,2.07,0,0,1,0-1.66A2.28,2.28,0,0,1,122.6,40a2.83,2.83,0,0,1,1.12-.19,2.13,2.13,0,0,1,.7.18,1.82,1.82,0,0,1,.56.4,2.48,2.48,0,0,1,.48.83,2.07,2.07,0,0,1,0,1.66A2.32,2.32,0,0,1,124,44a2.25,2.25,0,0,1-1.75,0,2,2,0,0,1-1.08-1.25M90.12,80.41a27.8,27.8,0,1,1,29.81-25.64A27.8,27.8,0,0,1,90.12,80.41M107.57,85l-2.91-5.33,1.65-.9,2.91,5.33Zm-3.85,1.71-1.5-1.49a1.41,1.41,0,0,0-.46-.35.79.79,0,0,0-.48,0l-.16,0,.71,2.36-1.81.54L98.28,82l3-.9a4.4,4.4,0,0,1,1.32-.24,1.41,1.41,0,0,1,.87.32,1.63,1.63,0,0,1,.55.86,1.6,1.6,0,0,1-.35,1.64,2.26,2.26,0,0,1-.56.42,1.74,1.74,0,0,1,.53.07,1.88,1.88,0,0,1,.38.22,2.2,2.2,0,0,1,.36.29l1.38,1.42ZM96.09,88.6l-.4-1-2.12.22-.2,1-1.91.2,1.67-6.28,2-.2,2.88,5.82Zm-5.93-2.48a2.45,2.45,0,0,1-1.74.33l-1-.12-.25,2.25-1.87-.21.67-6,3.1.34a2.15,2.15,0,0,1,1.46.65,1.86,1.86,0,0,1,.36,1.43,1.92,1.92,0,0,1-.71,1.37M83,87.86,78.4,86.51l1.71-5.83,1.8.53L80.62,85.6l2.82.83Zm-6.47-2.19-1.7-1,.25-1-1.85-1.08-.76.72-1.65-1,5-4.1,1.76,1ZM63.88,41.32l-3.16-3.47.42-.84,4.7.37-.43.87-1.06-.1-.78,1.56.73.77Zm-.39,1.32L60,41.49l-.41,1.25,1.77.59a7.9,7.9,0,0,1,1.05.41.8.8,0,0,1,.39.4,1.06,1.06,0,0,1,0,.67,5.39,5.39,0,0,1-.21.53l-.65-.22.07-.18a.73.73,0,0,0,.05-.38c0-.08-.14-.15-.32-.21L61,44.12l-2.37-.79,1-2.91,4.15,1.38Zm-1.15,4.48-.41,2-4.29-.86.65-3.21.72.15-.47,2.34,1,.2.24-1.16a2.23,2.23,0,0,1,.27-.77,1.08,1.08,0,0,1,.55-.45,1.22,1.22,0,0,1,.78-.08,1.24,1.24,0,0,1,.7.38,1.11,1.11,0,0,1,.32.6,2.32,2.32,0,0,1,0,.84m1.68-15,.62.4-1.11,1.75,3.07,1.95-.47.75-3.7-2.34Zm1.43-1.59a2.21,2.21,0,0,1,.5-.81A2.07,2.07,0,0,1,67.44,29a2.28,2.28,0,0,1,1.62.7,2.31,2.31,0,0,1,.84,1.54,2,2,0,0,1-.6,1.54,2.08,2.08,0,0,1-1.48.75,2.26,2.26,0,0,1-1.6-.68,2.93,2.93,0,0,1-.7-.91,2.39,2.39,0,0,1-.17-.7,1.73,1.73,0,0,1,.1-.69m5.22-5.29.48.56-1,.84,2.37,2.76-.67.58L69.5,27.23l-1,.84L68,27.51Zm2.42-1.7a6,6,0,0,1,.68-.38,1,1,0,0,1,.48-.09,1.07,1.07,0,0,1,.48.12,1,1,0,0,1,.39.36,1,1,0,0,1,.16.57,1,1,0,0,1-.17.56,1.2,1.2,0,0,1,.73,0,1,1,0,0,1,.54.44,1.3,1.3,0,0,1,.2.56,1.24,1.24,0,0,1-.08.58,1.2,1.2,0,0,1-.39.5c-.11.09-.41.29-.88.6l-1.25.8-2.36-3.69Zm3.28-1.47a1.78,1.78,0,0,1,.36-.58,2.35,2.35,0,0,1,.8-.54,2.06,2.06,0,0,1,1.66-.07,2.31,2.31,0,0,1,1.2,1.3,2.31,2.31,0,0,1,.13,1.75,2.31,2.31,0,0,1-2.83,1.24,2.24,2.24,0,0,1-1.18-1.28,2.72,2.72,0,0,1-.27-1.1,2.18,2.18,0,0,1,.13-.72M82,19.28A4.51,4.51,0,0,1,83,19a1.15,1.15,0,0,1,.73.23,1.33,1.33,0,0,1,.49.74,1.53,1.53,0,0,1,0,.69,1.18,1.18,0,0,1-.23.52,1.16,1.16,0,0,1-.38.33,5.61,5.61,0,0,1-.86.33l-.55.16.47,1.58-.85.25-1.25-4.19Zm3.87-.92.54,2.87L87.57,18l.86-.16.81,4.3-.81.15-.53-2.81-1.21,3.13-.87.17L85,18.52Zm7.33-.63,0,.74-1.3,0L92,22.14l-.89,0L91,18.53l-1.3,0,0-.74Zm1.13,0,3.23.3-.07.74-2.35-.22-.09,1,2.19.2-.07.73-2.19-.2-.11,1.18,2.43.23-.07.74-3.31-.31Zm3.44,4.11.19,0a.61.61,0,0,0,.38,0c.08,0,.13-.15.17-.34l.16-.73.54-2.44,3,.65-.94,4.28-.86-.19.78-3.55-1.29-.28-.4,1.82a7.38,7.38,0,0,1-.29,1.08.78.78,0,0,1-.36.43.92.92,0,0,1-.67,0l-.55-.15Zm5.94-2.31.82.32-.63,1.63,1.1.43a1.61,1.61,0,0,1,1,.8,1.31,1.31,0,0,1,0,1,1.26,1.26,0,0,1-.49.63,1.18,1.18,0,0,1-.64.21,2.58,2.58,0,0,1-.82-.21l-1.92-.75Zm4.58,2L109,22l-.84,1.5,1.51.85.84-1.5.77.43-2.15,3.81-.76-.43.93-1.67-1.5-.85-.94,1.67-.77-.44Zm5.21,3.22-1.11,1.35.92.75a2.3,2.3,0,0,1,.54.61,1.33,1.33,0,0,1-.83,1.87,1.09,1.09,0,0,1-.67,0,2.23,2.23,0,0,1-.71-.45L110,27.57l2.78-3.38Zm3.22,2.64-2.78,3.38-.68-.56L116,26.83Zm1.62,1.87-2.18,1.93,3.36-.61.58.66-3.27,2.9-.55-.61,2.14-1.9-3.31.57-.59-.66,3.27-2.9Zm.81-.74.27.31a.41.41,0,0,0-.14.32.55.55,0,0,0,.16.36.54.54,0,0,0,.33.2.45.45,0,0,0,.34-.1l.27.31a1,1,0,0,1-.66.21,1,1,0,0,1-.61-.33.89.89,0,0,1,0-1.28m2.27,6.32a2.12,2.12,0,0,1,1.13,1l.38-.2.42.76-.38.2a2,2,0,0,1,.25,1.55,1.68,1.68,0,0,1-.84,1,1.74,1.74,0,0,1-1.26.2,2,2,0,0,1-1.16-1.05l-.45.24-.41-.76.44-.24a2,2,0,0,1-.25-1.55,1.7,1.7,0,0,1,.85-.95,1.65,1.65,0,0,1,1.28-.19M95.15,15.14a37.66,37.66,0,1,0,34.73,40.38A37.67,37.67,0,0,0,95.15,15.14M75.43,82.32,76,80.1l-1.68,1.55Zm26.51.07a1.09,1.09,0,0,0-.72,0l-.79.23.36,1.19.76-.23a4.06,4.06,0,0,0,.45-.22.53.53,0,0,0,.24-.27.62.62,0,0,0,0-.38.56.56,0,0,0-.31-.37m21.81-39.23a1.68,1.68,0,0,0,1-.68,1.09,1.09,0,0,0,0-.95,1.11,1.11,0,0,0-.64-.71,1.7,1.7,0,0,0-1.18.07,1.64,1.64,0,0,0-1,.7,1.13,1.13,0,0,0-.06.95,1.1,1.1,0,0,0,.64.69,1.72,1.72,0,0,0,1.19-.07m2.77,7.71a8.85,8.85,0,0,1-2.92-.28l.05,1.66,2.9-.08ZM93.84,86.5l1.33-.13-.88-2.11Zm-5.62-2.68-.53-.06-.15,1.35.45,0a1.18,1.18,0,0,0,.78-.1A.6.6,0,0,0,89,84.6a.67.67,0,0,0-.13-.5,1,1,0,0,0-.69-.28M75,26.64a3.76,3.76,0,0,0,.5-.35.51.51,0,0,0,.17-.32.55.55,0,0,0-.09-.38.63.63,0,0,0-.26-.23.56.56,0,0,0-.34,0,3.21,3.21,0,0,0-.7.37l-.6.39.63,1Zm-.69-1.83a.57.57,0,0,0,.22-.32.55.55,0,0,0-.35-.58.52.52,0,0,0-.36.05c-.08,0-.3.17-.65.4l-.42.27.54.85.49-.31a4.16,4.16,0,0,0,.53-.36m30.53-1.13a.51.51,0,0,0,.24-.28.47.47,0,0,0,0-.49,1.45,1.45,0,0,0-.63-.4l-.84-.33-.42,1.08.8.31a3.63,3.63,0,0,0,.55.18.61.61,0,0,0,.34-.07m-26.76.73a1.15,1.15,0,0,0,1,0,1.11,1.11,0,0,0,.64-.7,1.72,1.72,0,0,0-.15-1.18,1.63,1.63,0,0,0-.75-.89,1.09,1.09,0,0,0-1,0,1.12,1.12,0,0,0-.66.69,1.69,1.69,0,0,0,.15,1.17,1.63,1.63,0,0,0,.76.9m5-3.49a.56.56,0,0,0,.2-.28.55.55,0,0,0,0-.36.57.57,0,0,0-.25-.33.6.6,0,0,0-.39-.09,4.3,4.3,0,0,0-.62.16l-.41.12L82,21.33l.47-.14a2.25,2.25,0,0,0,.65-.27M120.94,38.4a.75.75,0,0,0,.45.16,1.24,1.24,0,0,0,.55-.18.89.89,0,0,0,.33-1.38l-1.71.93a1.31,1.31,0,0,0,.38.47m.92-2.16a1.07,1.07,0,0,0-.61-.59,1,1,0,0,0-.78.14.89.89,0,0,0-.33,1.38Zm-10-8.13a2.63,2.63,0,0,0,.47.34.63.63,0,0,0,.34,0,.56.56,0,0,0,.32-.19.53.53,0,0,0,.12-.47,1.39,1.39,0,0,0-.49-.59l-.69-.57-.74.9ZM61.51,46.39a.52.52,0,0,0-.32-.19.48.48,0,0,0-.48.13,1.41,1.41,0,0,0-.28.69l-.18.88,1.14.23.17-.84a2.62,2.62,0,0,0,.07-.57.52.52,0,0,0-.12-.33m5.3-14.25a1.59,1.59,0,0,0,1.06.51,1.2,1.2,0,0,0,1.18-1.28,2.12,2.12,0,0,0-1.67-1.54,1.11,1.11,0,0,0-.86.4,1.13,1.13,0,0,0-.32.91,1.64,1.64,0,0,0,.61,1m-3.78,7,.53-1.07-1.72-.18Z" transform="translate(-1.1 0)"/></g><polygon class="cls-7" points="75.99 37.34 72.6 33.97 71.76 34.75 75.15 38.12 75.99 37.34"/><polygon class="cls-7" points="109.43 69.26 106.1 65.95 105.26 66.8 108.59 70.11 109.43 69.26"/><g class="cls-8"><path class="cls-7" d="M106.78,68.9l-.84.78-.9.71-1,.65-1,.64-1,.58-1,.51-1.08.5L99,73.65,97.88,74l-1.07.31-1.19.3-1.12.17-1.18.11-1.24.1-1.17,0-1.23,0-2.26-.3-2.17-.49-2.09-.74-2-.86-1.86-1.12-1.8-1.24L75.9,68.79l-1.51-1.54-1.3-1.73-1.16-1.84-1-1.89-.82-2-.56-2.12-.42-2.18L69,53.19l0-2.28.19-1.74.4-1.79.52-1.78.65-1.71.77-1.63.9-1.56,1-1.35L74.72,38c-.78-.9-1.7-1.67-2.5-2.56l-1.4,1.39-1.3,1.66-1,1.81-.93,2-.75,2.09-.61,2.16-.43,2.18-.22,2.13-.07,2.66.2,2.55.46,2.51L66.79,61l.93,2.34,1.14,2.24,1.27,2,1.55,1.94,1.68,1.82L75.2,73l2,1.46,2.18,1.27,2.27,1,2.41.83,2.49.58,2.64.33,1.43,0,1.36,0,1.44-.09,1.31-.16L96.15,78l1.32-.29,1.33-.35,1.26-.43,1.21-.49,1.28-.62,1.16-.63,1.15-.63,1.1-.76,1-.83,1-.83,1-.91Z" transform="translate(-1.1 0)"/><path class="cls-9" d="M99,70.57a4.12,4.12,0,0,1-.53.18c-.24,0-.52.2-.75.07s-.24-.39-.38-.59a1.61,1.61,0,0,0-.53-.51,1.88,1.88,0,0,0-1.36-.08,6.34,6.34,0,0,0-1.43.41,1.36,1.36,0,0,0-.5.48c-.17.21-.38.4-.56.61s-.14.17-.22.25l-.48.48-.18.32a18.32,18.32,0,0,1-2.34,0,19.52,19.52,0,0,1-11-34.47l.18-.08.36-.22.54-.29.43-.27.54-.29.75-.31.33.11.18.32.32.34.45.24.39.06.6-.11.85-.31.64-.3.4-.32.21-.4.43-.65.18-.3.4-.56.22-.63-.06-.1a19.57,19.57,0,0,1,11.17.86l-.91.2-.68.07-.8.14-.41.11-.37-.77-1,.39-.75.24-.74.19-.58.21-.29,0-.16-.09-1-.14-.33.06-.16.32-.24.6-.2.17-.19.11H89.2L89,36.19l-.41.1-.7.29-.29.28,0,.41-.14.4-.1.43-.2.39-.27.39-.15-.31-.42.77-.22.74-.06.26h-.15L85.21,40,85,39.77l-.12-.06h-.1l-.08.08-.06.32-.16.32-.1.48-.06.48.09.48.08.61a6.46,6.46,0,0,1-.15,1.17c-.06.23-.23.51-.17.76a4.19,4.19,0,0,0,.79-.12c.26-.09.23-.41.25-.64s0-.32,0-.48c.06.06.23.29.34.27s.25-.1.28-.33a1,1,0,0,1,.16.55,2.09,2.09,0,0,0,0,.61c-.23.16-.67.2-.75.48s-.15.66-.26,1a4.6,4.6,0,0,0-.19.91c0,.13-.08.32,0,.43s.11.09.15.14a1.09,1.09,0,0,1,.14.23c.15.26.25.54,0,.79a2.82,2.82,0,0,1-.46.38l-.1.24-.06.93,0,.32.1.07.25,0,.33-.23a2.5,2.5,0,0,0,.39-.46,6,6,0,0,0,.81-1.35c0-.2.09-.51.34-.55s.31.29.45.44.2.26.33.37a.4.4,0,0,0,.2.11c.64,0-.24-.82-.38-1l-.07-.19.09-.06c.34.23.65.48,1.09.29a.4.4,0,0,0,.19-.45c0-.23.38-.61.38-.85s-.35-.23-.26-.39.14-.33.24-.47.25-.17.43-.21l.13-.18.12,0,.19.37.13,0,.15.21,0,.36-.29.16-.34.38-.36.1-.11.17.59.87.26,0,.1.07,0-.1.54-.08,0-.14L90.46,47l.09-.09.12,0,.24.34.26.45.55.74-.16.12-.1.29.07.69-.66.17-.32.18-.17.2-.28.06-1.32.21-.78.16-.44,0-.37.18-.14,0-.11-.14v-.27l.14-.31-.3.13-.23.22-.21.4-.34.35-.61.72-.48.74-.35.86-.39.74-.31.85-.22.79-.14.55.13.18.18.08.25.36c.07.18.15.35.22.54s-.07.64,0,.93c0,.13.16.17.29.25l.23,0,.3.22.44.36.75.26.46,0,.88-.32.07-.25.22-.14.54-.07.26.13.7-.34.47-.11.73.13.57.28-.16.89.52.44.29.55.17.54.09.2.33.08a5,5,0,0,1,1.12,1.53c.11.22.23.43.32.66a2.3,2.3,0,0,0,.32.67,5.68,5.68,0,0,0,.59.49,4.72,4.72,0,0,1,.5.59,6.36,6.36,0,0,0,1.79,1.34c.1-.13.16-.29.26-.43a1.71,1.71,0,0,1,.39-.32c.34-.22.43-.61.64-.94l.39-.59.08-.33,0-.61.06-1.51-.06-.52-.15-.36-.47-1-.07-.35-.12-.35-.58-1.3-.31-.8L97,57.2v-.26l.15-.38.19-.76,0-1-.16-.47,0-.31.06-1.32-.21.21-.32.33-.33.47-.17.44-.45-.5L95.19,53l-.46-.47-.46-.4-.61-.33-.39-.15-.28-.1-.17-.25,0-.23.09-.22.22,0,.16.07.26.35.34.36.6.44.43.5.43.3.37.33.43-.47.51-.73.37-.82.39-.86a1.22,1.22,0,0,0,.17-.83.33.33,0,0,0-.35-.2c-.08,0-.17,0-.26,0s-.27-.17-.41-.18l-.12-.18-.17-.11-.18.06-.13.23h-.22L95.59,49l-.27-.37-.76-.52.82.35H96l.44,0,.8-.15.28.06.4,0a2.45,2.45,0,0,1,.38.24c.16.13.28.29.43.42l.53.41a6.67,6.67,0,0,1,.92.92c.11.13.21.28.32.42a3.32,3.32,0,0,0,.43.41,3,3,0,0,0,.33.29l1.07.68.27.11h.23l.12-.15-.09-.25a11.91,11.91,0,0,1-.68-2.12,2.37,2.37,0,0,1,0-.88c0-.25.13-.49.19-.74,0,0-.17-1.44-.18-1.45a.94.94,0,0,1,.06-.24.57.57,0,0,1,.38.06l.36.12a4.12,4.12,0,0,1,.63.39,19.14,19.14,0,0,0,2.09.6,1.54,1.54,0,0,1,.47.33c.14.14.44.57.68.34s0-.31,0-.43l.36.3.54.46.77.61.38.15.32.12.26.23.12,0,.27-.34L110,49l-.21-.88-.1-.67-.13-.36-.22-.21-.4-.12-1-.65.18-.38.08-.32.16-.61.27-.63.06-.21a19.35,19.35,0,0,1,1.52,13.21A3.31,3.31,0,0,1,110,58a3.21,3.21,0,0,1-.42-.48c-.14-.17-.18-.43-.33-.59s-.16-.12-.21-.22l-.18-.34a.86.86,0,0,0-.46-.44.74.74,0,0,0-.36,0,2.2,2.2,0,0,1-1.41-.45c-.16-.11-.34-.18-.51-.28l-.36-.24c0,.12,0,.15,0,.24a3.18,3.18,0,0,1,.32.91c.06.25-.19.25-.36.24s-.47.15-.71.11-.17-.13-.26-.14-.31.32-.39.47a.5.5,0,0,1-.23.2c-.18.06-.29,0-.37.24.17.2.45.3.55.56s0,.15,0,.26.16.32.22.47a.8.8,0,0,1,0,.61,2,2,0,0,0-.09.58,1.9,1.9,0,0,0,0,.63,3.38,3.38,0,0,1-.12,1,1,1,0,0,1,.46,0l.45.05c.21,0,.42.08.63.1s.37,0,.56,0a3.2,3.2,0,0,1,.62.09c.21,0,.4.15.61,0a.51.51,0,0,0,.21-.27c.21-.41-.19-.82-.16-1.22a.75.75,0,0,1,.23-.48c.28-.27.71-.23,1.08-.26a1.91,1.91,0,0,0,.53-.1c-.4,1-.81,1.91-1.3,2.83a17.29,17.29,0,0,1-1.69,2.6,19.61,19.61,0,0,1-2.1,2.27,18.41,18.41,0,0,1-2.43,1.89,29.35,29.35,0,0,1-2.69,1.5,3.49,3.49,0,0,1-.34.15m5.35-31,.47.09.28-.11.38.2.4.09a22.66,22.66,0,0,1,1.48,1.91l-.18-.16-.51-.47-.29-.32-.75-.36-.62-.3-.64-.22-.13-.12,0-.14Zm1.75-1.39v-.08l-1.11-1h0a20.86,20.86,0,1,0,1.11,1.06" transform="translate(-1.1 0)"/></g></g></g></svg>