<?xml version="1.0" encoding="utf-8"?>
<!-- Generator: Adobe Illustrator 25.4.1, SVG Export Plug-In . SVG Version: 6.00 Build 0)  -->
<svg version="1.1" id="Слой_1" xmlns="http://www.w3.org/2000/svg" xmlns:xlink="http://www.w3.org/1999/xlink" x="0px" y="0px"
	 viewBox="0 0 746.1 441.4" style="enable-background:new 0 0 746.1 441.4;" xml:space="preserve">
<style type="text/css">
	.st0{fill:#ECF7FE;}
	.st1{fill:url(#SVGID_1_);}
	.st2{fill:url(#SVGID_00000133499707482218671920000004734973069676349628_);}
	.st3{fill:#3C9968;}
	.st4{fill:#22665C;}
	.st5{fill:#B5C44D;}
	.st6{fill:#4F7C2C;}
	.st7{fill:#46577F;}
	.st8{fill:#7BA0C3;}
	.st9{fill:#FAD2C8;}
	.st10{fill:#EFB3B1;}
	.st11{fill:#54110A;}
	.st12{fill:#698DB7;}
	.st13{fill:none;stroke:#467D9B;stroke-linecap:round;stroke-linejoin:round;}
	.st14{fill:#F04848;}
	.st15{fill:#DB3A46;}
	.st16{fill:#FC8172;}
	.st17{fill:none;stroke:#54110A;stroke-linecap:round;stroke-linejoin:round;}
	.st18{fill:#76563F;}
	.st19{fill:#937E54;}
	.st20{fill:none;stroke:#54110A;stroke-width:2;stroke-linecap:round;stroke-linejoin:round;}
	.st21{fill:#D66454;}
	.st22{fill:#FFFFFF;}
	.st23{fill:none;stroke:#108E90;stroke-width:2.0064;stroke-miterlimit:10.0319;}
	.st24{fill:none;stroke:#108E90;stroke-width:2;stroke-miterlimit:10;}
	.st25{fill:#F7B9B6;}
	.st26{fill:#467D9B;}
	.st27{fill:#CE3C66;}
	.st28{fill:#F794AA;}
	.st29{fill:#F8931D;}
	.st30{fill:#FE68A5;}
	.st31{fill:#E55CA3;}
	.st32{fill:#FFD9E2;}
	.st33{fill:#FFB43B;}
	.st34{fill:#FFF8FA;}
	.st35{fill:#84C95E;}
	.st36{fill:#4D9947;}
	.st37{fill:#301F22;}
	.st38{fill:#876F71;}
	.st39{fill:#AF686E;}
	.st40{fill:#84C95F;}
	.st41{fill:none;stroke:#301F22;stroke-linecap:round;stroke-linejoin:round;}
	.st42{fill:#C17878;}
	.st43{fill:#BA3E35;}
	.st44{fill:none;stroke:#301F22;stroke-width:2;stroke-linecap:round;stroke-linejoin:round;}
	.st45{fill:#B55462;}
	.st46{fill:#493438;}
	.st47{fill:#5B6C64;}
	.st48{fill:none;stroke:#7D8E89;stroke-linecap:round;stroke-linejoin:round;}
	.st49{fill:#7D8E89;}
	.st50{fill:#FFD5C7;}
	.st51{fill:#42697A;}
	.st52{fill:none;stroke:#5B9299;stroke-linecap:round;stroke-linejoin:round;}
	.st53{fill:#F6B93B;}
	.st54{fill:#E25B24;}
	.st55{fill:#E87D34;}
	.st56{fill:none;}
	.st57{fill:#EF9D30;}
	.st58{fill:#E15C21;}
	.st59{fill:#7CA0C4;}
</style>
<rect x="0.3" class="st0" width="745.8" height="440.2"/>
<linearGradient id="SVGID_1_" gradientUnits="userSpaceOnUse" x1="447.7505" y1="-17012.5996" x2="602.1005" y2="-16379.5508" gradientTransform="matrix(1 0 0 -1 109.7 -16483.4004)">
	<stop  offset="0.35" style="stop-color:#FFFFFF"/>
	<stop  offset="0.54" style="stop-color:#E4F9F8"/>
</linearGradient>
<path class="st1" d="M465,348.7v91.5h281.1V3.4h-9c-0.8,4.9-1.3,9.9-1.3,14.9c0,12.4,2.6,24.7,7.7,36c-9.9,2.4-18.1,6.1-23.9,10.6
	C709.1,56,695.8,51.1,682,51c-35.8,0-64.7,33-64.7,73.7c0,30.5,16.3,56.7,39.5,68c5,1.1,9.9,2.7,14.6,4.8c3.5,0.7,7,1,10.6,1h0.2
	l-0.1,4.6c-3.4-2.1-7-4-10.6-5.6c-5.1-0.9-10-2.6-14.6-4.8c-6.2-1.4-12.6-2.1-19-2.1c-19.6-0.1-38.7,6.8-53.7,19.5
	c-12.5-11-28.6-17.1-45.2-17.1c-38,0-68.9,31.1-68.9,69.6c0,4.9,0.5,9.9,1.5,14.7c-15.8,4.2-27.5,19.1-27.5,37
	C443.9,328.8,452,342.1,465,348.7z"/>
<linearGradient id="SVGID_00000092448580738080779150000015448026048953880765_" gradientUnits="userSpaceOnUse" x1="64.0987" y1="-16906.4473" x2="-9.9212" y2="-16368.3389" gradientTransform="matrix(1 0 0 -1 109.7 -16483.4004)">
	<stop  offset="0.35" style="stop-color:#FFFFFF"/>
	<stop  offset="0.76" style="stop-color:#E4F9F8"/>
</linearGradient>
<path style="fill:url(#SVGID_00000092448580738080779150000015448026048953880765_);" d="M288.7,440.4l3.9-116
	c21.4-8.4,36.3-27.1,36.3-48.8c0-29.6-27.5-53.5-61.5-53.5c-4.3,0-8.6,0.4-12.9,1.2c4.9-8.8,7.4-18.6,7.4-28.6
	c0-34.6-29.9-62.6-66.8-62.6c-26.6,0-49.5,14.5-60.3,35.5c-14.2-13.3-37.4-21.9-63.5-21.9c-11.4,0-22.7,1.7-33.5,5.1l-0.2-6.9
	c26-3.4,46.2-30,46.2-62.2c0-34.6-23.3-62.6-52-62.6c-10.4,0.1-20.4,3.7-28.4,10.2c-0.8-2.6-1.8-5.2-3-7.6v418.9H288.7z"/>
<path class="st3" d="M0,312v65.6l217.9-28.2c-1.1-18.4-8.9-66.4-18.7-82.1c-5-8.1-11.6-15.9-20.5-19.4s-20.4-1.4-25.4,6.7
	c-4.1,6.7-2.9,15.4-1.6,23.2c-3.6-7.2-8.2-14.1-14.5-18.9s-14.8-7.4-22.5-5.3s-14,9.8-13.2,17.8c-6.3-10.7-15.2-20.4-26.8-24.8
	s-26.1-2-33.9,7.7c-8.3,10.3-7.2,25-5.6,38.2c-6.7-4.8-15.7-4.6-22.1,0.5c-6.2,5.5-8.1,14.4-4.6,21.9C5.7,313.8,2.9,312.8,0,312z"/>
<path class="st4" d="M174.7,270.4c-0.9-2.6-1.7-5.2-2.3-7.9c-0.4-1.5-2.9-1.3-2.8,0.4c0.2,3,0.8,6,1.8,8.9c0.8,2.4,1.6,5.2,3.9,6.6
	c0.6,0.3,1.3,0.1,1.6-0.4c0,0,0,0,0,0c0.1-0.2,0.2-0.4,0.1-0.6C177.2,275,175.6,272.7,174.7,270.4z"/>
<path class="st4" d="M166.7,307.7c-0.7-2-1.3-4-2-6.1c-0.5-1.7-3.2-1-2.7,0.7l1.9,6.1c0.5,1.7,0.7,3.8,2.1,4.9
	c0.4,0.4,1.1,0.4,1.5,0c0,0,0,0,0,0c0.1-0.1,0.2-0.3,0.2-0.4C168.2,311.1,167.3,309.4,166.7,307.7z"/>
<path class="st4" d="M193.5,318.4l-2.6-7.2c-0.7-2.1-4.1-1.2-3.4,0.9l2.2,7c0.4,1.3,1.1,3.9,3,3.4S193.9,319.6,193.5,318.4z"/>
<path class="st4" d="M146.6,330c-0.5-2.9-2.1-5.8-3.1-8.5s-1.9-5.8-2.7-8.7c-0.4-1.6-2.7-0.9-2.5,0.7c0.8,5.6,1.7,13.1,5.2,17.9
	c0.5,0.8,1.5,1,2.3,0.5C146.5,331.5,146.8,330.7,146.6,330L146.6,330z"/>
<path class="st4" d="M63.7,277.3l-3.9-8.4c-0.8-1.8-3.5-0.2-2.7,1.6l3.6,8c0.9,2.1,1.6,4.7,3.7,6c0.4,0.3,1,0.1,1.3-0.3c0,0,0,0,0,0
	c0-0.1,0.1-0.1,0.1-0.2C66.1,281.6,64.7,279.4,63.7,277.3z"/>
<path class="st4" d="M58,319.8l-3.9-8.6c-0.8-1.8-3.4-0.2-2.7,1.5l3.5,8.1c1,2.4,1.7,5.2,3.7,7c0.5,0.4,1.3,0.4,1.7-0.1
	c0.2-0.2,0.3-0.5,0.3-0.7C60.6,324.5,59.1,322.2,58,319.8z"/>
<path class="st4" d="M33.4,355.6c-0.7-2.5-2.5-4.7-3.8-7c-1.4-2.5-2.8-4.9-4.1-7.4c-0.8-1.6-3.8-0.5-3,1.3c1.1,2.6,2.2,5.2,3.5,7.7
	s2.5,5.3,4.5,7.2c0.8,0.7,1.9,0.6,2.6-0.2C33.4,356.8,33.5,356.2,33.4,355.6z"/>
<path class="st4" d="M26,315.9c-1.3-2.7-2.6-5.4-3.8-8.1c-0.7-1.6-3.3-1-2.7,0.7c1,2.7,2,5.4,3.2,8.1c1,2.4,1.9,5.1,4,6.7
	c0.6,0.3,1.3,0.1,1.7-0.5c0.1-0.2,0.2-0.4,0.2-0.6C28.5,319.9,27,318,26,315.9z"/>
<path class="st3" d="M746.1,233.4c-1.5,0.9-2.9,1.8-4.2,2.9c-13.3,10.3-20,27.9-18.5,44.6c-0.4-8.8-11.6-14.2-19.8-10.9
	s-12.8,12.4-13.2,21.2c-0.7-8.9-1.4-17.9-4.8-26.2s-10.1-15.6-18.9-17.5c-7.2-1.6-14.8,0.7-21.2,4.5c-15,9-24.2,25.1-24.5,42.5
	c-19.1-11-43.6-4.5-54.6,14.6c-3.4,6-5.3,12.7-5.4,19.6l185.1,34.6L746.1,233.4z"/>
<path class="st4" d="M744.9,276.4l-0.1-6.8c-0.1-0.7-0.6-1.2-1.3-1.1c-0.6,0.1-1,0.5-1.1,1.1c0,2.3-0.1,4.5-0.1,6.8
	c0,1.8-0.4,3.4,0.8,4.8c0.3,0.3,0.8,0.3,1.1,0C745.3,279.7,745,278.1,744.9,276.4z"/>
<path class="st4" d="M667.4,279.1c0-1.8-0.2-3.6-0.3-5.4c-0.1-0.7-0.8-1.3-1.5-1.2c-0.6,0.1-1.1,0.6-1.2,1.2
	c-0.1,1.8-0.3,3.6-0.3,5.4c0,1.6-0.3,3.2,0.5,4.6c0.4,0.6,1.2,0.9,1.9,0.5c0.2-0.1,0.4-0.3,0.5-0.5
	C667.7,282.3,667.4,280.7,667.4,279.1z"/>
<path class="st4" d="M704.2,301.4c-0.3-1.3-2-1-2.4,0c-0.6,1.9-0.9,3.8-1,5.8c-0.2,1.8-0.9,3.7,0.1,5.3c0.4,0.6,1.2,0.8,1.8,0.5
	c0,0,0,0,0,0c0.1-0.1,0.2-0.1,0.2-0.2c1.3-1.4,1-3.3,1.2-5.2C704.5,305.5,704.5,303.5,704.2,301.4z"/>
<path class="st4" d="M739.2,326.7c0-2.5,0.1-4.9,0.1-7.4c-0.1-0.8-0.7-1.3-1.5-1.3c-0.7,0.1-1.2,0.6-1.3,1.3l-0.4,7.4
	c-0.1,2.1-0.6,4.1,0.4,6c0.3,0.5,0.9,0.6,1.4,0.3c0.1-0.1,0.3-0.2,0.3-0.4C739.5,330.9,739.2,328.7,739.2,326.7z"/>
<path class="st4" d="M668.7,317c-0.2-2-0.2-3.9-0.2-5.9s-2.8-1.9-3,0c-0.2,2.1-0.3,4.2-0.3,6.2c0,1.8-0.1,3.5,1.2,4.8
	c0.5,0.5,1.4,0.5,1.9,0c0.1-0.1,0.1-0.2,0.2-0.2C669.4,320.4,668.8,318.7,668.7,317z"/>
<path class="st4" d="M598.2,308.2c-0.2-2.1-0.6-4.2-0.9-6.3c-0.2-1.1-2-0.8-2,0.3c0,2.3,0,4.6,0.1,7c0.1,2,0,3.9,0.8,5.7
	c0.4,1,2,0.6,2.2-0.3C598.9,312.5,598.4,310.3,598.2,308.2z"/>
<path class="st4" d="M578.3,315.3c-0.4-2.2-0.8-4.3-1.2-6.5c-0.3-1.8-3.1-1-2.8,0.8l1,6.1c0.2,1.9,0.6,3.7,1.4,5.4
	c0.3,0.5,1,0.7,1.5,0.3c0.2-0.1,0.4-0.3,0.5-0.6C578.8,318.9,578.7,317,578.3,315.3z"/>
<path class="st3" d="M348.7,323.3c-5.6-8.9-6.9-19.9-3.4-29.9c2-5.7,6-11.2,11.9-12.9c9.3-2.7,18.2,4.8,25,11.7
	c-3.8-14.9,1.7-30.7,13.9-40c6.9-5.1,15.9-7.8,24.4-6.2s16.2,7.7,18.7,15.9c2.2,7.5,0.2,15.8,2.7,23.1c5.8-7.2,17-8,25.5-4.3
	s15,10.8,21.1,17.8c7.6-8.3,17.1-17.4,28.4-16.1c9.5,1.1,16.7,9.7,19.2,18.9s1.2,18.9-0.1,28.3"/>
<path class="st4" d="M358.9,312c-0.8-1.9-1.8-3.7-3-5.5c-0.2-0.3-0.6-0.4-0.9-0.2c-0.2,0.2-0.4,0.4-0.3,0.7c0.4,2,1,4.1,1.7,6
	c0.6,1.6,1,3.5,2.3,4.8c0.4,0.4,1.1,0.4,1.6,0c0.2-0.2,0.3-0.5,0.3-0.8C360.7,315.3,359.6,313.6,358.9,312z"/>
<path class="st4" d="M398.8,263.7c-0.2-0.6-0.9-0.9-1.5-0.6c-0.5,0.2-0.8,0.7-0.7,1.2c0.5,3.2,0.6,7.5,2.4,10.3
	c0.3,0.5,1,0.7,1.6,0.4c0.3-0.2,0.5-0.5,0.5-0.9C401.6,270.7,399.7,266.8,398.8,263.7z"/>
<path class="st4" d="M391.1,307.9c-0.6-2-1-4-1.6-6c-0.2-0.6-0.8-1-1.5-0.8c-0.5,0.1-0.8,0.6-0.8,1.1c0,2.1,0.3,4.2,0.8,6.2
	c0.4,1.7,0.5,3.8,2.2,4.8c0.5,0.3,1.2,0.1,1.5-0.4l0,0C392.4,311,391.6,309.5,391.1,307.9z"/>
<path class="st4" d="M469.7,301.3c-0.1-2.1-0.2-4.1-0.2-6.2s-2.8-1.9-3,0c-0.2,2.1-0.3,4.1-0.4,6.2c0,1.8-0.3,3.8,0.8,5.3
	c0.4,0.7,1.3,0.9,2,0.5c0,0,0,0,0,0c0.2-0.1,0.4-0.3,0.5-0.5C470.3,304.9,469.8,303.2,469.7,301.3z"/>
<path class="st4" d="M502.4,305.1c-0.1-0.9-0.8-1.5-1.7-1.4c-0.8,0.1-1.4,0.7-1.4,1.4c-0.2,2.1-0.5,4.1-0.8,6.1
	c-0.4,1.8-0.7,3.5-0.7,5.3c0.1,1.6,2.6,2.7,3.4,0.9C502.8,313.9,502.6,309,502.4,305.1z"/>
<path class="st4" d="M520.9,303c0-2.5-0.1-5-0.1-7.5c-0.1-0.7-0.6-1.2-1.3-1.1c-0.6,0.1-1,0.5-1.1,1.1c-0.2,2.5-0.5,5-0.7,7.5
	c-0.1,1.9-0.6,3.8,0.8,5.4c0.4,0.4,1,0.4,1.3,0c0,0,0,0,0,0l0,0C521.2,307,520.9,304.9,520.9,303z"/>
<path class="st5" d="M746.1,440.2V326.8c-250.7-31-499.4-21-746.1,30v83.4L746.1,440.2z"/>
<path class="st6" d="M224.2,439.1c0.3,0.3,0.6,0.7,0.8,1.1h3.8c-0.2-1.3-1.3-2.2-2.2-3.2l-2.9-3.3c-1.4-1.6-3.6,0.7-2.3,2.3
	L224.2,439.1z"/>
<path class="st6" d="M234.8,436.4v-4.6c-0.1-0.8-0.9-1.4-1.8-1.2c-0.6,0.1-1.2,0.6-1.3,1.2v4.6c0,1.4-0.3,2.6,1,3.4
	c0.4,0.2,0.8,0.2,1.1,0C235.1,439,234.8,437.8,234.8,436.4z"/>
<path class="st6" d="M240.4,440.2c0.4-0.6,0.7-1.2,1.1-1.8c0.5-0.7,1-1.3,1.6-1.9c0.5-0.7,0.5-1.6,0-2.3c-0.6-0.6-1.7-0.6-2.3,0
	c-1.8,1.3-3.1,3-3.9,5.1c-0.1,0.3-0.1,0.6,0,0.9L240.4,440.2z"/>
<path class="st6" d="M359.5,361.4c-0.8-2.3-2.4-4.4-3.7-6.5c-0.4-0.4-1-0.5-1.4-0.1c0,0,0,0,0,0c-0.3,0.3-0.4,0.7-0.3,1.1
	c1.2,2.1,2.3,4.5,3.9,6.3c0.3,0.3,0.9,0.3,1.2,0C359.5,362.1,359.6,361.7,359.5,361.4z"/>
<path class="st6" d="M363.7,354.3l-1.3,3.5c-0.4,1.2-0.9,2.2-0.5,3.3c0.2,0.6,0.8,0.9,1.4,0.7c0,0,0,0,0,0c0.2-0.1,0.3-0.1,0.4-0.2
	c0.9-0.7,1-2,1.2-3.1l0.6-3.7c0-0.5-0.4-1-1-1C364.3,353.7,363.9,353.9,363.7,354.3z"/>
<path class="st6" d="M370.1,356.1c-1.4,1.5-4,3.5-3.4,5.8c0.1,0.4,0.5,0.6,0.8,0.6c2.4,0.2,3.8-2.9,4.9-4.6
	C373.5,356.5,371.3,354.9,370.1,356.1z"/>
<path class="st6" d="M174.7,352.7c-1.4-1.8-2.7-3.6-4.2-5.4c-0.8-1-2.6,0.3-1.9,1.4c1.2,1.9,2.5,3.8,3.8,5.7c1.1,1.5,2,3.8,3.8,4.5
	c0.6,0.3,1.7,0,1.6-0.9C177.7,356,175.9,354.4,174.7,352.7z"/>
<path class="st6" d="M180.5,351.6c-0.5-1.7-0.7-3.4-0.8-5.1c0-0.6-0.5-1.2-1.2-1.2c0,0,0,0,0,0c-0.6,0-1.2,0.5-1.2,1.2
	c-0.3,2-0.2,4,0.3,5.9c0.4,1.5,0.9,3.4,2.5,3.9c0.5,0.1,1-0.2,1.1-0.6C181.7,354.3,180.8,352.9,180.5,351.6z"/>
<path class="st6" d="M192.3,348c-0.6-0.6-1.7-0.6-2.3,0c-1.6,1.8-3.5,3.6-4.6,5.8c-0.6,1.2,0.8,3.1,2.1,2.1c1-0.7,1.8-1.6,2.6-2.6
	l2.3-2.9C192.9,349.7,192.9,348.7,192.3,348z"/>
<path class="st6" d="M31.1,366.8c-0.4-0.9-1-1.8-1.8-2.4c-0.7-0.7-1.5-1.3-2.3-1.9c-1.2-0.8-2.4,1.1-1.1,2c0.7,0.5,1.3,1,1.8,1.5
	c0.5,0.6,1,1.3,1.6,1.9C30,368.6,31.5,367.9,31.1,366.8z"/>
<path class="st6" d="M35.9,362.5c-0.1-0.9-0.1-1.8-0.1-2.8c0.1-1.3-1.8-1.5-2.2-0.3c-0.6,1.9-1,5.1,0.8,6.4c0.6,0.3,1.3,0.1,1.7-0.4
	c0-0.1,0.1-0.2,0.1-0.3C36.3,364.3,36.2,363.4,35.9,362.5z"/>
<path class="st6" d="M42.1,358.8c-0.2-0.7-0.9-1-1.6-0.8c-0.5,0.2-0.8,0.6-0.9,1.1c0.1,1,0,2.1-0.3,3.1c-0.4,0.9-0.6,2-0.5,3
	c0.2,1.2,1.7,1.3,2.5,0.6C43,364.3,42.5,360.8,42.1,358.8z"/>
<path class="st6" d="M518.1,333.6c-1.7-1.8-3.5-3.5-5.3-5.2c-0.5-0.5-1.3-0.5-1.8,0c-0.5,0.5-0.5,1.3,0,1.8c0,0,0,0,0,0
	c1.7,1.8,3.4,3.6,5.2,5.3c0.5,0.5,1.4,0.5,1.9,0C518.6,335,518.6,334.1,518.1,333.6L518.1,333.6L518.1,333.6z"/>
<path class="st6" d="M523.1,331.6c0-0.8-0.1-1.5-0.2-2.3c-0.1-0.8-0.8-1.4-1.6-1.3c-0.7,0.1-1.3,0.6-1.3,1.3
	c-0.1,0.8-0.2,1.5-0.2,2.3c-0.2,0.8,0.1,1.7,0.6,2.4c0.6,0.5,1.4,0.5,2,0C523,333.3,523.2,332.4,523.1,331.6z"/>
<path class="st6" d="M528.1,330.8c-0.7,1.3-1.3,2.6-1.8,4c-0.7,1.9,2.4,3.3,3.3,1.4c0.6-1.3,1.1-2.7,1.6-4.1
	C531.7,330.4,528.9,329.1,528.1,330.8z"/>
<path class="st6" d="M711.8,341.8c-0.8-1.7-2.1-3.1-3.7-4.1c-1.5-1-2.8,1.4-1.4,2.4c1.1,0.8,1.9,1.9,2.4,3.1
	c0.4,1.1,0.2,2.6,0.9,3.6c0.4,0.6,1.2,0.8,1.8,0.4c0.1-0.1,0.2-0.1,0.2-0.2C713.2,345.5,712.5,343.4,711.8,341.8z"/>
<path class="st6" d="M717.8,338.8c-0.1-0.7-0.7-1.3-1.5-1.2c-0.6,0.1-1.2,0.6-1.2,1.2l-0.5,6.2c0.1,1,1,1.8,2,1.7
	c0.9-0.1,1.6-0.8,1.7-1.7L717.8,338.8z"/>
<path class="st6" d="M721.6,341.5c-0.9,1.2-1.8,2.5-2.6,3.8c-1.5,2.3,2.4,4.5,3.7,2.1c0.7-1.3,1.4-2.7,2-4.1
	c0.4-0.9,0.1-1.9-0.8-2.4C723.1,340.5,722.1,340.8,721.6,341.5L721.6,341.5z"/>
<path class="st6" d="M629.9,382.4c-0.5-2.4-1.7-4.6-3.4-6.3c-1.5-1.7-4,0.8-2.5,2.5c1.1,1.4,1.9,3,2.4,4.8c0.3,1,1.4,1.5,2.3,1.1
	C629.6,384.2,630.1,383.3,629.9,382.4z"/>
<path class="st6" d="M637.3,377.5c-0.2-0.8-1-1.2-1.8-1c0,0,0,0,0,0c-0.3,0.1-0.6,0.3-0.8,0.6c-0.5,0.8-0.6,1.7-1,2.5
	c-0.4,0.8-0.9,1.6-1.5,2.4c-1.3,1.8,1.7,4.1,3.1,2.4S638.1,379.8,637.3,377.5z"/>
<path class="st6" d="M641.8,380.4c-1.5,1.5-3.2,3-4,5c-0.6,1.5,1.4,2.8,2.7,2c1.8-1.1,3-3.2,4.2-4.9S643.2,378.9,641.8,380.4z"/>
<path class="st6" d="M471.4,404.7c-0.7-2.4-1.6-4.8-2.6-7.1c-0.7-1.8-3.5-1.1-2.9,0.8c0.7,2.6,1.6,5.1,2.7,7.5
	C469.3,407.5,471.7,406.4,471.4,404.7z"/>
<path class="st6" d="M477.3,396.5c-1.6,2.2-3.1,5.7-2,8.4c0.6,1.4,3,1.9,3.3,0c0.5-2.4,0.1-4.6,1.2-6.9c0.4-0.7,0.1-1.6-0.6-1.9
	c0,0,0,0,0,0C478.5,395.6,477.7,395.8,477.3,396.5z"/>
<path class="st6" d="M489.2,398.3c-1.8,1.9-3.8,3.8-5.5,5.8s1,4.8,2.9,2.9s3.5-4.1,5.2-6.1C493.3,399,490.8,396.5,489.2,398.3z"/>
<path class="st7" d="M688.8,395c5.1-1.9,28.8-19.8,27.2-26c-0.1-0.6-0.5-1-0.9-1.4c-2.1-1.6-7.8-0.1-13,1.8s-9.8,4.1-9.8,4.1
	l-9.2,10.9c0,0,0.4,6.9,2.7,9.6C686.4,395,687.7,395.4,688.8,395z"/>
<path class="st8" d="M688.8,395c5.1-1.9,28.8-19.8,27.2-26c-0.1-0.6-0.5-1-0.9-1.4c-3.2,5.1-12.1,17.1-29.3,26.4
	C686.4,395,687.7,395.4,688.8,395z"/>
<path class="st8" d="M695.5,377.5c-0.5-1.9-0.4-4,0.3-5.9c0.1-0.5,0.6-0.8,1.1-0.6c0.4,0.1,0.7,0.6,0.7,1c-0.4,1.6-0.5,3.2-0.2,4.8
	C697.8,378,695.9,378.8,695.5,377.5z"/>
<path class="st8" d="M698.7,375.9c-0.1-1.9,0-3.7,0.5-5.5c0.3-0.5,0.9-0.7,1.3-0.4c0.3,0.2,0.5,0.4,0.5,0.8c-0.4,1.6-0.5,3.3-0.3,5
	c0.1,0.5-0.3,1-0.9,1.1c0,0,0,0,0,0C699.2,376.9,698.7,376.5,698.7,375.9C698.7,375.9,698.7,375.9,698.7,375.9z"/>
<path class="st8" d="M702.1,374.9c-0.3-2-0.1-4.1,0.5-6c0.2-0.4,0.6-0.5,0.9-0.4c0,0,0,0,0,0c0.2,0.1,0.4,0.3,0.4,0.6
	c0.1,1.9-0.1,3.7,0,5.6c0.2,0.5,0,1.1-0.5,1.3s-1.1,0-1.3-0.5C702,375.3,702,375.1,702.1,374.9z"/>
<path class="st9" d="M694,372.7c-3.3,5.4-6.3,9-11,12c0,0-5.9-7.3-11.8-14.6s-12-14.5-12-14.5l-2-2.3l0,0l-9.7-11.5l15.7-13.8
	l9.1,12.8l0.1,0.1l1.8,2.5l10,14.6L694,372.7z"/>
<path class="st10" d="M672.3,341c-4.7,4.5-9.8,8.6-15.1,12.4l0,0l-9.7-11.5l15.7-13.8L672.3,341L672.3,341z"/>
<path class="st7" d="M603.8,394.6c-5.3,2.9-37.8,9.6-41.7,3.7c-0.4-0.5-0.5-1.2-0.5-1.8c0.2-2.9,5.7-6.6,11.1-9.6s10.7-5.2,10.7-5.2
	l15.9,0.3c0,0,5.5,5.4,6,9.3C605.5,392.7,604.9,394,603.8,394.6z"/>
<path class="st8" d="M603.8,394.6c-5.3,2.9-37.8,9.6-41.7,3.7c-0.4-0.5-0.5-1.2-0.5-1.8c6.6,1.1,23.2,2.4,43.7-5.1
	C605.6,392.7,605,394,603.8,394.6z"/>
<path class="st8" d="M584.2,387.4c-1.3-1.9-3.1-3.3-5.2-4.1c-0.4-0.3-1.1-0.2-1.4,0.2s-0.2,1.1,0.2,1.4c0.1,0,0.1,0.1,0.2,0.1
	c1.6,0.8,3.1,2,4.2,3.4C583,389.7,585,388.7,584.2,387.4z"/>
<path class="st8" d="M580.6,388.9c-1.5-1.5-3.1-2.7-5-3.7c-1.2-0.6-2.3,1.1-1.1,1.8c1.6,0.9,3.1,2.1,4.4,3.4
	c0.4,0.5,1.1,0.6,1.6,0.2c0.5-0.4,0.6-1.1,0.2-1.6C580.7,389,580.7,389,580.6,388.9L580.6,388.9z"/>
<path class="st8" d="M577.2,391c-1.5-1.5-3.4-3.3-5.4-4c-0.4-0.1-0.9,0.2-1,0.6c-0.1,0.3,0,0.6,0.2,0.8c1.5,1.5,3.2,2.6,4.7,4.2
	c0.4,0.4,1.1,0.4,1.5,0C577.6,392.1,577.6,391.4,577.2,391z"/>
<path class="st9" d="M581.3,382.6c4.5,0.9,9,1.1,13.5,0.6c1.1-0.1,2.1-0.3,3.2-0.6c0.2,0,1.3-0.2,1.5-0.4c0,0,0-0.2,0-0.3
	c0-0.5-0.1-1-0.3-1.5c-0.2-1-0.3-2-0.5-3.1c-0.8-4.7-1.6-9.3-2.3-14c-0.4-2.4-0.8-4.8-1.1-7.2c-0.1-0.4-0.1-0.9,0-1.3
	c0.2-0.4,0.5-0.7,0.8-1c1.4-1.3,2.6-2.8,4-4.1c1.6-1.4,3.3-2.8,5-4.1c-4.7-6.2-9.3-12.4-13.6-18.8c-5.8,5-11.4,10.8-14.9,17.6
	c-1.1,2-1.8,4.1-2.2,6.3c-0.4,2.5,0.2,5,0.8,7.5c1.2,5.2,2.5,10.4,3.8,15.5C579.8,376.8,580.5,379.7,581.3,382.6z"/>
<path class="st10" d="M579.1,340.4c5.3,5,11.2,9.2,17,13.5l0,0c0,0,0.4-0.4,1.1-1.2s1.7-1.8,2.9-2.8s2.4-2.1,3.4-2.9
	s1.6-1.2,1.6-1.2s-3.5-4.6-6.9-9.3c-1.7-2.4-3.4-4.7-4.6-6.5s-2.1-3-2.1-3l-0.6,0.5c-0.4,0.3-0.9,0.8-1.5,1.4
	c-1.2,1.2-2.9,2.7-4.4,4.4s-3,3.4-4.1,4.7S579.1,340.3,579.1,340.4L579.1,340.4z"/>
<path class="st9" d="M543.9,237.3c0,0,1.2-2.6,2.3-5.1s2.1-5,1-5.4s-2.5,0.6-3.6,1.9c-0.7,0.8-1.4,1.7-1.9,2.6c0,0-0.5-2.9-1.1-5.8
	s-1.5-5.9-3.1-6c-1.1-0.1-1.5,1.9-1.5,4.1c0,1.4,0.1,2.9,0.3,4.3c0,0-1.1-2.1-2.3-4.1s-2.7-4-4-3.7s-1.1,2.8-0.5,5.1
	c0.4,1.6,1,3.1,1.6,4.6c0,0-1.6-1.7-3.4-3.3s-3.6-3.2-4.4-2.6c-1.4,1.1-0.6,3.6,0.6,5.7c0.8,1.4,1.8,2.7,2.8,3.8
	c-0.9-0.8-1.9-1.5-2.9-2.2c-1.5-1-3.2-1.9-4.1-1s0.5,3.4,2.2,5.6c1.1,1.4,2.3,2.8,3.7,4c0.2,1.1,0.6,2.1,1.1,3.1
	c0.9,1.9,2.5,3.4,4.5,4c2.2,0.5,5.2-0.9,7.6-3S543.4,239.3,543.9,237.3z"/>
<path class="st11" d="M540.8,231.4c-1.4-0.2-2.8,0-4,0.7c-0.3,0.2-0.6,0.4-0.9,0.6c-0.8,0.7-1.4,1.6-1.7,2.6
	c-0.1,0.3,0.1,0.5,0.3,0.6c0.2,0.1,0.5-0.1,0.6-0.3l0,0c0.2-0.8,0.7-1.6,1.4-2.2c0.2-0.2,0.5-0.4,0.7-0.5c1-0.6,2.2-0.8,3.4-0.6
	c0.3,0,0.5-0.1,0.6-0.4C541.2,231.7,541.1,231.5,540.8,231.4L540.8,231.4z"/>
<path class="st9" d="M582.8,252.7l4.5,14.8l0.6,2.1c-9.4,2.4-19.5,3-29,1.1c-11.9-2.5-20.9-12.4-26.8-22.4c-0.2-0.3-0.8-1.1-0.7-1.4
	s0.7-0.5,1-0.6l4-2.7c2.2-1.4,4.4-2.8,6.6-4.3c3.4,5.3,7.7,10.5,13.3,13.6c1.3,0.8,2.7,1.4,4.2,1.8c1.5,0.4,3,0.5,4.6,0.5
	c3,0.1,6.1-0.1,9.1-0.5C577.1,254.3,580,253.6,582.8,252.7z"/>
<path class="st10" d="M582.8,252.7l5.1,16.8l-2,0.5c-1.2,0.3-2.7,0.6-4.3,0.8c-3.1,0.5-6.2,0.7-6.2,0.7l-1.6-16.8
	c0,0,2.3-0.3,4.6-0.8c1.1-0.2,2.2-0.6,3-0.8L582.8,252.7z"/>
<path class="st9" d="M710,210.7c0,0-0.1-3,0-5.9s0.4-5.8,1.6-5.8s2.1,1.7,2.6,3.4c0.3,1.1,0.5,2.2,0.6,3.4l1.1-1.6
	c0.7-1,1.7-2.2,2.7-3.5c2-2.5,4.2-4.9,5.8-4.3c1.1,0.4,0.5,2.5-0.5,4.5c-0.5,0.9-1,1.8-1.5,2.7c-0.5,0.7-0.8,1.2-0.8,1.2
	s0.5-0.4,1.2-0.9s1.8-1.2,2.8-1.9c2.1-1.3,4.5-2.5,5.5-1.6s-0.3,3.1-2,5c-0.8,0.9-1.6,1.7-2.4,2.4c-0.7,0.6-1.2,1-1.2,1l1.4-0.5
	c0.9-0.3,2-0.6,3.2-1c2.4-0.7,4.9-1.3,5.3-0.3c0.3,0.9,0.1,1.9-0.5,2.6c-0.7,0.9-1.6,1.7-2.7,2.4c-0.9,0.6-1.9,1.1-2.9,1.6
	c-0.8,0.4-1.4,0.6-1.4,0.6s0.4-0.1,1.1-0.2c0.8-0.2,1.7-0.3,2.5-0.4c1.9-0.2,3.8-0.2,4.2,1s-2,2.9-4.5,4.1c-1.2,0.6-2.5,1.1-3.4,1.5
	s-1.6,0.6-1.6,0.6c-0.6,0.9-1.4,1.7-2.2,2.4c-1.5,1.4-3.6,2-5.7,1.8c-2.3-0.4-4.6-2.9-6.2-5.8S709.6,212.9,710,210.7z"/>
<path class="st11" d="M715.6,206.2c1.8,0.4,3.3,1.7,4.1,3.4c0.4,1,0.6,2.1,0.4,3.2c0,0.3-0.3,0.5-0.6,0.4c-0.3,0-0.5-0.3-0.4-0.6
	l0,0c0.1-0.9,0-1.8-0.3-2.7c-0.1-0.3-0.3-0.6-0.5-0.8c-0.7-1-1.8-1.7-3-2c-0.3-0.1-0.4-0.3-0.4-0.6c0-0.2,0.2-0.4,0.5-0.4
	C715.5,206.2,715.5,206.2,715.6,206.2z"/>
<path class="st9" d="M662,235.3l4.7,17.7l5.6-1.9l2.1-0.7c0.7-0.2,1.2-0.5,1.8-0.7l1.7-0.7l1.9-0.8l2.2-0.9c0.8-0.4,1.8-0.8,2.8-1.3
	c2-1,4.4-2,6.9-3.4l3.8-2c1.3-0.7,2.5-1.5,3.8-2.2s2.5-1.5,3.8-2.3l3.5-2.4l1.7-1.1l1.6-1.1l2.9-2.1c1.8-1.3,3.2-2.5,4.2-3.2
	l1.6-1.2L710,213c0,0-0.5,0.4-1.5,1.1s-2.4,1.6-4.1,2.7c-3.4,2.2-8,5-12.9,7.4c-1.2,0.6-2.4,1.3-3.6,1.8l-3.5,1.6
	c-2.3,1.1-4.5,1.9-6.3,2.6c-0.9,0.4-1.8,0.7-2.5,1l-2,0.6l-1.7,0.6l-1.5,0.5c-0.5,0.1-1,0.4-1.6,0.5l-1.8,0.5L662,235.3z"/>
<path class="st10" d="M662,235.3l4.7,17.7l5.6-1.9l2.1-0.7c0.7-0.2,1.2-0.5,1.8-0.7l1.7-0.7l-6-16.5l-1.5,0.5
	c-0.5,0.1-1,0.4-1.6,0.5L667,234L662,235.3z"/>
<path class="st8" d="M673.7,333.5c-7.2,7.6-17.4,12.9-29.6,16.6L627.9,335l-13.5,14.5l-2.8,3c-9.7-2.1-20.6-10.4-31.7-19.9l3.4-3.6
	l15.6-16.5l1.8-1.9l54.7-4.2l0.5,0.7L673.7,333.5z"/>
<path class="st12" d="M655.9,307.1c-6.7,3-34.2,14.3-57,5.5l1.8-1.9l54.7-4.2L655.9,307.1z"/>
<line class="st13" x1="625.9" y1="306.4" x2="627.8" y2="334"/>
<path class="st13" d="M627.3,325.3c0,0,3.9,0.4,4.3-3.1s-1.4-16.5-1.4-16.5"/>
<path class="st13" d="M650.2,304.6c0,0,3.9,12.2,9.7,9.8"/>
<path class="st13" d="M605.1,307.9c0.1,0.4-4.4,12.1-10,9.7"/>
<path class="st14" d="M653.9,295l1.5,11.4c-15.7,5.4-34.2,6.4-54.7,4.2l2-23.2l0.9-10.6l-20.3,3.7l-5.3-29.4l15-3.5l67.2-15.8
	l8.9-2.1l4.7,28.4l-23.6,7.7L653.9,295z"/>
<path class="st15" d="M660.2,231.7c-4.2,6.8-16.1,17.8-34.4,22.5c-11.4,3.1-23.6,0.7-32.8-6.7L660.2,231.7z"/>
<path class="st16" d="M624.4,252.7c0.5-0.7-12.3-0.8-14.1,3.7c0,0-3.3-13.8,1.4-16.8s8.3,1.7,8.3,1.7L624.4,252.7z"/>
<path class="st16" d="M625.9,252.3c0,0,1.4-13.8,2.2-14.2s7.4-1.3,9.1,0.6s3.9,12,3.9,12C636.1,249.2,630.6,249.8,625.9,252.3z"/>
<path class="st10" d="M612.8,242.4c0,0,6.2,10.3,11.6,10.2s9.8-11.9,9.8-11.9L612.8,242.4z"/>
<path class="st10" d="M670.4,211.8c0.6,4.7-3,9.6-8.2,10.9s-9.8-1.5-10.4-6.3s3-9.6,8.2-10.9S669.8,207,670.4,211.8z"/>
<path class="st17" d="M655.9,218.1c0.3-0.7,1.8-9,10.3-5.5"/>
<path class="st17" d="M663.6,217.8c0,0-1.7-4.9-5.6-4"/>
<path class="st9" d="M659.6,190.1c-2.8-23.4-24-40-47.4-37.2s-40,24-37.2,47.4c0.6,5,2.1,9.9,4.4,14.4c2,4.1,3.3,8.6,3.6,13.1
	c0.8,8.2,8,20.8,40.2,17c32.8-3.9,37.1-16.4,35.9-24.6c-1-5.6-1-11.4,0-17.1C659.9,198.8,660.1,194.4,659.6,190.1z"/>
<path class="st10" d="M582.7,221c0,0,8.8-23.3,6.1-34.1c0,0,36.2,3.3,56.9-6.5c0,0,11.1,14.9,13.5,22.6c0,0,2.9-32.6-8.8-37.3
	s-61.7-1.8-65.1,3.5S573.8,209.7,582.7,221z"/>
<path class="st18" d="M658.7,206.2c-0.4-6.2-10.5-31.3-10.5-31.3c-43.5,11.1-64.8,6.4-64.8,6.4c6.2,17.6-1.2,41.3-1.2,41.3
	c-26-31.3-6.1-46.6-6.1-46.6c-0.7-4.7,0.1-9.5,2.1-13.8c4.2-8.7,15.5-17.8,45.4-14.4c29.6,3.4,37.2,20.7,38.2,35.6
	C662.1,191.1,661.1,198.8,658.7,206.2z"/>
<path class="st19" d="M661.8,183.3c-5.3-11.6-16.8-22.6-43.5-28.1c-22-4.5-34,1.5-40,6.9c4.2-8.7,15.5-17.8,45.4-14.4
	C653.1,151.2,660.8,168.4,661.8,183.3z"/>
<path class="st11" d="M608.4,219.4c0.3,1.8-0.4,3.3-1.5,3.5s-2.3-1.1-2.6-2.8s0.4-3.3,1.5-3.5S608.1,217.6,608.4,219.4z"/>
<path class="st11" d="M642.8,214.1c-0.1,1.8-1.1,3.2-2.2,3.2s-2.1-1.5-2-3.3s1.1-3.2,2.2-3.1S642.8,212.3,642.8,214.1z"/>
<path class="st20" d="M635.6,192.9c0,0,5.2-6,13.6,0.1"/>
<path class="st20" d="M605,199.4c0,0-6.3-4.9-13.3,2.8"/>
<path class="st11" d="M634.5,236.2c-1.4,2.1-4,3.8-8.6,4c-5,0.3-7.7-1.4-9-3.7c-1.4-2.4-1.5-5.4-0.4-7.9c0.4-0.8,0.8-1.2,1.3-1.1
	c1.9,0.3,14.5,0,16-0.6c0.3-0.1,0.6,0,0.8,0.2C635.8,228.2,636.8,232.8,634.5,236.2z"/>
<path class="st21" d="M634.5,236.2c-1.4,2.1-4,3.8-8.6,4c-5,0.3-7.7-1.4-9-3.7c2-1.9,4.5-3.2,7.2-3.9
	C628,231.7,632.1,233,634.5,236.2L634.5,236.2z"/>
<path class="st22" d="M634.5,227.2c-0.5,0.6-1.1,1.1-1.7,1.4c-1.4,0.7-3,1.2-4.5,1.4c-2.5,0.6-5.1,0.8-7.6,0.4
	c-1.5-0.3-2.9-0.9-4.2-1.8c0.4-0.8,0.8-1.2,1.3-1.1c1.9,0.3,14.5,0,16-0.6C634,226.9,634.3,226.9,634.5,227.2z"/>
<ellipse transform="matrix(0.9968 -7.974521e-02 7.974521e-02 0.9968 -15.0478 52.1387)" class="st23" cx="645.3" cy="214.5" rx="14.8" ry="14.8"/>
<ellipse transform="matrix(0.9983 -5.826101e-02 5.826101e-02 0.9983 -11.6738 35.5736)" class="st24" cx="604.2" cy="218" rx="14.8" ry="14.8"/>
<path class="st24" d="M617.5,210.3c0,0,3.9-5.2,11.6-1.3"/>
<line class="st24" x1="589.5" y1="216.3" x2="579.7" y2="220.8"/>
<path class="st9" d="M569.9,231.5c2.3,4.2,8.2,5.9,13,3.8s6.9-7.1,4.6-11.2s-8.2-5.9-13-3.8S567.6,227.3,569.9,231.5z"/>
<path class="st17" d="M583.8,227.1c-0.7-0.3-6.5-4.4-10.6,2.2"/>
<path class="st17" d="M578.4,231.9c0,0-1.7-4.6,1.9-6.2"/>
<path class="st25" d="M655,216.5c0.5,1.9-1.8,4.1-5.1,5s-6.4-0.1-6.8-2s1.8-4.1,5.1-5S654.5,214.5,655,216.5z"/>
<path class="st25" d="M608.3,226.2c0.2,2-2.5,3.8-5.9,4s-6.3-1.1-6.4-3.1s2.5-3.8,5.9-4S608.2,224.2,608.3,226.2z"/>
<path class="st17" d="M625.6,216.3l1.2,4.7c0,0,3.1-1.1,3.8,0.3s-2.2,2.8-2.2,2.8"/>
<path class="st26" d="M641.1,347.4l3,2.8c0,0,12.6,0.2,29.6-16.6l-2.4-3.5C670,333,651,346.6,641.1,347.4z"/>
<path class="st26" d="M614.4,349.5l-2.8,3c-9.7-2.1-20.6-10.4-31.7-19.9l3.4-3.6C588.8,334,603.3,346.2,614.4,349.5z"/>
<path class="st15" d="M650.2,264.7c-1.7-5.5-3.4-10.8-2.8-16.6c0-0.2-0.4-0.3-0.4-0.1c-0.9,5.8,0,11.7,2.4,17
	C649.5,265.4,650.4,265.2,650.2,264.7z"/>
<path class="st15" d="M652.3,247.4c-1,4.6-1.4,9.3-1.2,14c0,0.2,0.2,0.4,0.4,0.4c0.2,0,0.4-0.2,0.4-0.4c0.2-4.7,0.4-9.3,0.8-14
	C652.7,247.2,652.3,247.1,652.3,247.4z"/>
<path class="st15" d="M599.6,254.5c-0.2-0.4-0.8-0.1-0.7,0.3c2,6,3.7,11.6,3.5,18c0,0.3,0.3,0.6,0.6,0.6c0,0,0,0,0,0
	c0.3,0,0.6-0.3,0.6-0.6C603.7,266.5,602.3,260.3,599.6,254.5z"/>
<path class="st15" d="M606.6,260.9c0-0.1-0.2-0.1-0.2,0c-0.4,4-1,7.9-1.8,11.8c-0.1,0.2,0.1,0.5,0.3,0.6c0,0,0,0,0,0
	c0.2,0.1,0.5-0.1,0.6-0.3C606.8,269,607.2,264.9,606.6,260.9z"/>
<path class="st15" d="M653.9,295c-7.9,2.4-16.3,3.3-24.5,2.6c-9.6-0.8-19.6-3.6-26.8-10.1l-2,23.2c20.5,2.1,39,1.2,54.7-4.2
	L653.9,295z"/>
<path class="st27" d="M473.5,391.1c-0.7,0.1-1.4,0-2-0.3c-2.8-1.5-4.1-7.6-4.4-13.5c0-0.6-0.1-1.3-0.1-1.9c-0.1-3.1,0-6.2,0.3-9.3
	c0,0,1.8-3.3,3.6-6.6s3.3-6.6,3.3-6.6l0.2-0.1c0.5-0.2,1.7-0.7,3.1-1.1c1-0.3,2-0.5,3-0.7c0.9-0.2,1.9-0.1,2.8,0.1
	c1.1,0.2,2,1.2,2,2.4C485.9,359,480.8,389.9,473.5,391.1z"/>
<path class="st28" d="M485.3,353.3c0.5,5.7-4.5,36.5-11.9,37.7c-0.7,0.1-1.4,0-2-0.3c3-4.4,5.4-9.1,7.1-14.1
	c2.8-8.3,4.4-16.9,4.8-25.7C484.4,351.2,485.3,352.2,485.3,353.3z"/>
<path class="st9" d="M474,354.7c-0.2,0.6-0.4,1.3-0.5,2c-0.4,1.4-0.9,2.7-1.5,4c-1.3,2.7-2.9,5.2-4.8,7.5c-4.1-0.9-8.2-2.3-12.1-4
	c-7.6-3.4-14-8.9-18.6-15.8c-1.3-1.9-2.5-3.9-3.5-6c-2.1-4.1-3.8-8.4-5.5-12.6c5.8-1.6,11.6-3.2,17.4-4.8l3.1-0.9
	c0.6-0.2,0.6-0.3,0.9,0.3c0.9,2.8,1.7,5.6,2.8,8.4c1.2,3.3,2.8,6.4,4.9,9.3c0.7,1,1.6,1.9,2.5,2.8c2.4,2.2,5.1,3.9,8.1,5.2
	c1.4,0.6,2.8,1.1,4.2,1.6c0.7,0.2,1.4,0.4,2,0.6c0.2,0.1,1.1,0.2,1.2,0.4C474.3,353.4,474.2,354,474,354.7z"/>
<path class="st10" d="M456.4,342c-7.5,3-15.9,3.1-23.5,0.3c-2.1-4.1-3.8-8.4-5.5-12.6c5.8-1.6,11.6-3.2,17.4-4.8l3.1-0.9
	c0.6-0.2,0.6-0.3,0.9,0.3c0.9,2.8,1.7,5.6,2.8,8.4C452.7,336,454.3,339.1,456.4,342z"/>
<path class="st29" d="M408.3,204c-20.5-2.5-31,2.2-40,9.9l1.8,2.4c3.5-2.3,7.1-4.2,11-5.6c-3,2.6-6.6,5.3-8.9,8.7l2.8,4
	c2.1-2.1,4.5-3.9,7-5.5c-2.1,2.4-3.8,5-5.2,7.9l3,4.1c2.2-3,2.9-3.7,7.1-6.4c-1.7,3.4-3.1,7.1-4,10.8l3.5,4.7
	C390.5,228.4,399.3,216.5,408.3,204z"/>
<path class="st29" d="M466,215.9c19.8,3.7,28.1,11.1,34.1,20.9l-2.4,1.7c-2.5-3.1-5.4-6-8.6-8.5c2,3.3,4.6,6.8,5.7,10.7l-3.8,2.9
	c-1.4-2.5-3-4.9-4.9-7.1c1.2,2.8,2.1,5.8,2.5,8.8l-4,2.9c-1.2-3.4-1.6-4.3-4.7-8c0.6,3.7,0.8,7.4,0.6,11.2l-4.7,3.3
	C475.3,243.7,470.7,230,466,215.9z"/>
<path class="st27" d="M433.5,392.3c-4.7,2.2-33.1,5.7-36.1,0.5c-0.3-0.5-0.4-1-0.3-1.6c0.4-2.5,5.3-5.3,10.1-7.5s9.5-3.8,9.5-3.8
	l13.6,1.3c0.1,0.1,0.1,0.1,0.2,0.2l0,0c0.8,1,4.3,5.2,4.4,8.2C435.1,390.8,434.5,391.9,433.5,392.3z"/>
<path class="st9" d="M430.5,381.4c-0.8,0.4-15.8,7.5-23.3,2.3c4.8-2.2,9.5-3.8,9.5-3.8l13.6,1.3
	C430.4,381.3,430.5,381.3,430.5,381.4z"/>
<path class="st28" d="M433.5,392.3c-4.7,2.2-33.1,5.7-36.1,0.5c-0.3-0.5-0.4-1-0.3-1.6c5.6,1.3,19.8,3.5,37.9-1.6
	C435.1,390.8,434.5,391.9,433.5,392.3z"/>
<path class="st9" d="M430.6,381.4c-5.4,1.1-9.8,0.7-15.7-0.8c0,0-1.6-8.3-3.1-16.7s-2.6-16.8-2.6-16.8l-0.4-2.9V344
	c0-0.2,0-0.4-0.1-0.6c-0.1-1.2-0.5-4.1-0.9-6.9c-0.4-3.8-0.8-7.5-0.8-7.5l20-0.1c0,0,0.1,3.5,0.2,7.1c0,1,0.1,2.1,0.1,3
	c0.1,2.3,0.2,4.1,0.2,4.1v0l0.1,2.9c0,0,0.4,8.8,1.2,17.6S430.6,381.4,430.6,381.4z"/>
<path class="st10" d="M427.3,338.9c-2.7,0-5.4,1.3-8,2.3c-3.4,1.3-7,2-10.6,2.2c-0.1-1.2-0.5-4.1-0.9-6.9c-0.4-3.8-0.8-7.5-0.8-7.5
	l20-0.1c0,0,0.1,3.5,0.2,7.1C427.3,336.9,427.3,337.9,427.3,338.9z"/>
<path class="st9" d="M492,252.9c0,0,0.2-2.9,0.8-5.7s1.3-5.6,2.6-5.4c2.5,0.4,2.1,6.9,2.1,6.9s2.1-2.3,4.6-4.4s5.2-4,6.6-3.2
	c0.9,0.6-0.2,2.5-1.5,4.2c-0.9,1.2-1.9,2.3-3,3.4c1.4-0.8,2.9-1.4,4.4-2c2.3-0.9,4.8-1.5,5.5-0.4s-1,2.8-2.8,4.3
	c-1.3,1-2.6,1.8-4,2.6c0,0,2.3-0.4,4.6-0.6c2.3-0.2,4.7-0.1,4.9,0.8c0.4,1.7-1.6,3-3.7,3.9c-1.4,0.6-2.8,1-4.3,1.3
	c0,0,6.8-0.6,7.2,1.7c0.2,1.2-2.2,2.2-4.6,2.9c-1.6,0.5-3.2,0.8-4.9,1.1c-0.7,0.8-1.4,1.4-2.3,2c-1.6,1.1-3.6,1.5-5.5,1
	C494.4,266,490.7,257,492,252.9z"/>
<path class="st11" d="M498,249.2c2.8,1,4.3,4,3.5,6.9c-0.1,0.2-0.3,0.4-0.6,0.3c-0.3-0.1-0.4-0.3-0.3-0.6c0,0,0,0,0,0l0,0
	c0.2-0.8,0.2-1.7,0-2.6c-0.1-0.3-0.2-0.6-0.3-0.9c-0.5-1.1-1.5-1.9-2.6-2.3c-0.2-0.1-0.4-0.3-0.3-0.6
	C497.4,249.2,497.7,249.1,498,249.2C497.9,249.1,497.9,249.1,498,249.2L498,249.2L498,249.2z"/>
<path class="st9" d="M457.9,240.6l-14.8,9.8c1.8,2.7,3.7,5.2,5.9,7.6c1.9,2.3,3.9,4.6,5.9,6.8c5.2,5.5,11.5,11.5,19.3,12.8
	c6.1,1,11.7-2.2,16.7-5.3c1-0.6,2.1-1.3,3.1-1.9l2.6-1.6c0.3-0.2,2-1,2-1.3c-0.1-0.3-0.3-0.6-0.5-0.9l-1.1-2l-5.2-9.3
	c-3.6,2-7.2,4.1-10.9,5.8c-2,0.9-3.6,1.6-5.6,0.5c-1.7-1-3.2-2.2-4.4-3.7C465.9,252.5,461.6,246.8,457.9,240.6z"/>
<path class="st10" d="M457.9,240.6l-14.8,9.8c0.1,0.1,1.7,2.4,3.4,4.6c1.7,2.2,3.5,4.4,3.5,4.4l13.3-10.5c0,0-1.5-2-2.9-4.1
	c-0.7-1-1.4-2.1-1.9-2.9L457.9,240.6z"/>
<path class="st9" d="M375,197.5c0,0,0.8-2.9,1.4-5.9s1-5.9-0.3-6.2s-2.5,1.2-3.4,2.8c-0.6,1-1.1,2.1-1.4,3.2c0,0-0.3-0.8-0.8-1.9
	s-1.1-2.6-1.8-4.1c-1.5-3-3.1-5.9-4.8-5.7c-1.1,0.1-1,2.4-0.5,4.7c0.4,1.5,0.9,3,1.4,4.5c0,0-1.6-1.9-3.4-3.7s-3.9-3.5-5.1-2.9
	s-0.4,3.2,0.8,5.4c0.8,1.5,1.8,2.9,2.8,4.3c0,0-2.1-1.3-4.3-2.6s-4.6-2.4-5.2-1.5c-1.1,1.5,0.3,3.8,2,5.7c1.2,1.2,2.4,2.2,3.8,3.2
	c-1.1-0.6-2.3-1.1-3.4-1.5c-1.8-0.6-3.8-1.1-4.4,0s1.3,3.3,3.5,5.1c1.1,0.9,2.2,1.7,3.1,2.3s1.4,0.9,1.4,0.9c0.4,1,0.9,2,1.6,2.9
	c1.2,1.8,3.1,2.9,5.2,3.1C368,209.9,374.8,201.9,375,197.5z"/>
<path class="st11" d="M370.6,191.7c-1.5,0-3,0.6-4.1,1.6c-0.3,0.3-0.6,0.5-0.8,0.9c-0.7,0.9-1.1,2-1.2,3.1c0,0.3,0.2,0.5,0.5,0.6
	c0.3,0,0.5-0.2,0.5-0.5l0,0c0.1-0.9,0.4-1.8,1-2.6c0.2-0.3,0.4-0.5,0.7-0.7c0.9-0.8,2.2-1.3,3.4-1.3c0.3,0,0.5-0.2,0.5-0.5
	C371.1,191.9,370.9,191.7,370.6,191.7C370.6,191.7,370.6,191.7,370.6,191.7L370.6,191.7z"/>
<path class="st9" d="M417.2,232.1c-2.1,5.1-4.2,10.1-6.4,15.2c-0.3,0.7-0.6,1.4-0.9,2.2c-1.8-0.9-3.6-1.8-5.4-2.7
	c-0.7-0.4-1.3-0.7-2-1.1c-2-1.2-4-2.5-6-3.7c-6-3.8-11.5-8.7-16.6-13.6c-5.2-5-10-10.3-14.5-16c-0.4-0.5-0.8-1-1.2-1.5
	c-0.1-0.1-0.9-1-0.9-1.2s0.4-0.4,0.5-0.4l3.4-3c2.4-2.2,4.9-4.3,7.4-6.4c9.3,10.7,20.1,20.7,32.5,27.5c0.3,0.2,0.6,0.3,0.9,0.5
	C411,229.4,414.1,230.8,417.2,232.1z"/>
<path class="st10" d="M417.2,232.1c-2.1,5.1-4.2,10.1-6.4,15.2c-0.3,0.7-0.6,1.4-0.9,2.2c-1.8-0.9-3.6-1.8-5.4-2.7
	c-0.2-2.5-0.2-4.9,0.1-7.4c0.5-4.1,1.3-8.1,2.5-12c0.3,0.2,0.6,0.3,0.9,0.5C411,229.4,414.1,230.8,417.2,232.1z"/>
<path class="st30" d="M467.4,333.5l-8.9,3.9c-6.9,3-14.8,2.8-21.5-0.6c-2-1-4.2-1.8-6.4-2.2c-3.5-0.7-7.1-0.7-10.6,0.1l-8.7,2
	c-4.1,0.9-8.3,0.8-12.3-0.3l0,0c-1.7-0.4-3.3-1.1-4.8-1.9l-5.1-3.9l-3.6-2.7l4.9-12l12.3-30c0,0,0.1-0.4,0.2-1
	c0.2-0.9,0.4-2.3,0.8-4.1c1.3-6.8,3.6-19.3,5.7-30.2c-3.2-5.5-1-24.2-1-24.2l1.3,0.6c4.9,2.4,10.1,4,15.5,4.8c0,0,16.2,2.5,21.6,3.2
	c9.8,1.3,15.3,9.2,15.3,9.2l-10,11.1c0.4,10.7,1.7,22.7,2.4,29.1c0.2,2,0.4,3.5,0.4,4.2v0.4l3.1,11L467.4,333.5z"/>
<path class="st31" d="M467.4,333.5l-8.9,3.9c-6.9,3-14.8,2.8-21.5-0.6c-2-1-4.2-1.8-6.4-2.2c-3.5-0.7-7.1-0.7-10.6,0.1l-8.7,2
	c-4.1,0.9-8.3,0.8-12.3-0.3l0,0c-1.7-0.4-3.3-1.1-4.8-1.9l-5.1-3.9l-3.6-2.7l4.9-12c39.2,21.3,59.2,0,67.7-15.8L467.4,333.5z"/>
<path class="st32" d="M433.3,240.3c0,0,7.4,0.1,12.1,3.6c1,0.7,6.3-11.1-2.4-13.5s-21.3-4.7-24.5,2.4c-3.4,7.7-2.5,8.1-1.4,7.6
	c1.7-0.8,10.5-1.4,12.3-0.7C430.7,240.1,432,240.3,433.3,240.3z"/>
<path class="st10" d="M425.5,221.9c0.1,1.2-2,11.4-2,11.4l5.1,5.8c1.8,1.6,4.3,1.8,6.3,0.6l7.2-4.4l0.7-12.5L425.5,221.9z"/>
<path class="st10" d="M389.1,192.6c-2,4.4,0.2,10.1,4.7,12.8s9.8,1.3,11.7-3s-0.2-10.1-4.7-12.8S391,188.3,389.1,192.6z"/>
<path class="st17" d="M400.8,201.1c-0.1-0.7-0.4-7.8-8.1-7.2"/>
<path class="st17" d="M393.8,199.7c0,0,2.6-4.1,6.1-2.2"/>
<ellipse transform="matrix(0.9283 -0.3719 0.3719 0.9283 -44.085 193.156)" class="st10" cx="478.8" cy="210.9" rx="9.8" ry="8.4"/>
<path class="st17" d="M473.9,212.3c0.5-0.6,4.2-6.6,10.6-2.2"/>
<path class="st17" d="M480.7,214.5c0,0-0.2-4.9-4.2-4.9"/>
<path class="st9" d="M484.3,184.9c3.8-23.2-11.9-45.1-35.1-49s-45.1,11.9-49,35.1c-0.8,5.1-0.8,10.2,0.2,15.3
	c0.8,4.4,0.7,8.9-0.2,13.3c-1.6,8.1,1.6,22.4,33.8,27.7c34.5,5.7,41.1-6.7,41.5-15c0.2-4.8,1.6-9.4,3.9-13.5
	C481.9,194.4,483.5,189.7,484.3,184.9z"/>
<path class="st10" d="M475.4,204.7c-0.2-1.4-5.7-18.7-3.7-30.1c0,0-30.1-3.9-39.8-15.3c0,0-11.8,7.6-18.9,7.4
	c0,0-3.8,17.3-12.2,27.5c0,0-7.4-42.3,23-46.4s53.3,4.2,56.9,20.6S475.4,204.7,475.4,204.7z"/>
<path class="st29" d="M436.5,148.7c-5.7,11.1-27.4,15.4-27.4,15.4c0.2,14.2-8.3,30.1-8.3,30.1s-9.3-19-2.1-38.8l0.2-0.7
	c5.6-14.5,18.7-18.1,28-16.4C434.1,139.6,438.9,143.9,436.5,148.7z"/>
<path class="st29" d="M487.8,184.6c-1.9,8.1-6.1,15.5-12.1,21.2c-2.1-12-1.8-24.3,0.9-36.2c0,0-47.1-7.5-52.3-24.9
	c-0.2-0.7-0.3-1.4-0.4-2.1c-0.8-15.4,42.9-17.3,56.8,7C488.4,163.1,489.9,174.8,487.8,184.6z"/>
<path class="st33" d="M487.8,184.6c-2-12.1-8-31-26.2-42.2s-31.7-4.4-37.6,0.2c-0.8-15.4,42.9-17.3,56.8,7
	C488.4,163.1,489.9,174.8,487.8,184.6z"/>
<path class="st33" d="M427,138.3l-3,4.5c-9.8-0.5-19.3,4-25,12C404.6,140.2,417.7,136.7,427,138.3z"/>
<path class="st11" d="M423.1,198.6c-0.2,1.9-1.1,3.2-2.1,3.1s-1.5-1.8-1.3-3.7s1.2-3.2,2.1-3.1S423.3,196.8,423.1,198.6z"/>
<path class="st11" d="M456.6,203.2c-0.5,1.8-1.6,2.9-2.5,2.6s-1.2-2.1-0.7-3.9s1.6-2.9,2.5-2.6S457.1,201.4,456.6,203.2z"/>
<path class="st20" d="M427,182.6c0,0-5.6-5-11.2,0.7"/>
<path class="st20" d="M456.8,185.1c0,0,6.6-3.7,10.7,3.2"/>
<path class="st17" d="M439.8,199.6l-0.6,4.8c0,0,3.2,0.1,3.5,1.7s-3,1.9-3,1.9"/>
<path class="st17" d="M445.6,213.8c0,0-9.6,3.4-16.8-3.4"/>
<path class="st25" d="M469.1,214.8c-0.5,4.1-4.7,7-9.4,6.4s-8-4.4-7.5-8.5s4.7-7,9.4-6.4S469.6,210.7,469.1,214.8z"/>
<ellipse transform="matrix(0.3128 -0.9498 0.9498 0.3128 86.5269 534.9786)" class="st25" cx="413" cy="207.7" rx="7.5" ry="8.5"/>
<path class="st32" d="M455,288.9c-17.4,0.6-34.9-0.7-52.1-3.8c0.2-0.9,0.4-2.3,0.8-4.1c16.8,3.1,33.8,4.3,50.9,3.7
	C454.7,286.8,454.9,288.2,455,288.9z"/>
<path class="st34" d="M433.3,246.5c0,1.1-0.9,2-2,2s-2-0.9-2-2s0.9-2,2-2S433.3,245.4,433.3,246.5z"/>
<path class="st34" d="M432.8,254.7c0,1.1-0.9,2-2,2s-2-0.9-2-2s0.9-2,2-2S432.8,253.6,432.8,254.7z"/>
<path class="st9" d="M467,375.3c-0.1-3.1,0-6.2,0.3-9.3c0,0,1.8-3.3,3.6-6.6s3.3-6.6,3.3-6.6l0.2-0.1
	C477.8,356.5,473.5,371.7,467,375.3z"/>
<path class="st35" d="M326.8,285.4l-12.2-8.5c0,0,3-7,2.6-8.5c-1.2-5-19.1-8-19.5-8l10.4,35.9l-54.6,7l-0.6-34
	c-0.2,0.1-13.4,7.3-14,9.7s1.8,4.5,1.8,4.5l-10.2,12.5c0,0-11.5-10.9-11.3-19.1c0.2-7.5,11.8-15.7,21.1-22.5
	c6.5-4.6,13.8-7.8,21.5-9.5l14.3-3.4c5.2-1.2,10.5-1.9,15.8-1.9c8.4,0,31.5,5.7,40.8,19.8C337.6,266.8,326.8,285.4,326.8,285.4z"/>
<path class="st36" d="M291.6,242.4c-0.1-0.1-0.2-0.2-0.4-0.1c-0.1,0.1-0.2,0.2-0.2,0.3c1.6,5.4,2.7,11.4,5.1,16.5
	c0.1,0.2,0.4,0,0.4-0.1C295.7,253.3,293.3,247.7,291.6,242.4z"/>
<path class="st36" d="M300.7,247.3c-1.8,3.7-3,7.7-3.7,11.8c0,0.2,0.3,0.3,0.3,0.1c0.8-4,2.1-7.9,4-11.6
	C301.5,247.2,300.9,246.9,300.7,247.3z"/>
<path class="st36" d="M252.6,250.5c-0.1-0.5-0.8-0.3-0.7,0.2c1.2,5.2,1.6,10.6,1.3,15.9c-1.7-3.8-4.1-7.3-7.1-10.4
	c-0.2-0.2-0.6,0.1-0.4,0.4c2.9,3.3,5.3,7.1,7,11.2c0.1,0.1,0.2,0.2,0.4,0.2c0.1,0.2,0.3,0.3,0.5,0.2c0.1-0.1,0.2-0.2,0.2-0.3
	C254.4,262.1,253.9,256.2,252.6,250.5z"/>
<path class="st37" d="M269.2,393c-5.3,2.9-37.8,9.6-41.7,3.7c-0.4-0.5-0.5-1.2-0.5-1.8c0.2-2.9,5.7-6.6,11.1-9.6s10.7-5.2,10.7-5.2
	l15.9,0.4c0,0,5.5,5.4,6,9.3C270.9,391.1,270.3,392.4,269.2,393z"/>
<path class="st38" d="M249,385.8c-2.6-2.4-6.8-2-10-1.4c-1.4,0.2-0.8,2.3,0.6,2.1c2.3-0.4,6-0.9,7.9,0.9
	C248.5,388.2,250,386.7,249,385.8z"/>
<path class="st38" d="M244.8,388.8c-3.3-1.6-7.1-2-10.7-1.2c-1.4,0.3-0.8,2.4,0.6,2.1c3-0.7,6.2-0.3,9,1
	C245,391.2,246.1,389.3,244.8,388.8z"/>
<path class="st38" d="M269.2,393c-5.3,2.9-37.8,9.6-41.7,3.7c-0.4-0.5-0.5-1.2-0.5-1.8c6.6,1.1,23.2,2.4,43.7-5.1
	C271,391.1,270.4,392.4,269.2,393z"/>
<path class="st37" d="M305.4,391.1c5.3,3,37.8,9.6,41.7,3.7c0.4-0.5,0.5-1.2,0.5-1.8c-0.2-2.9-5.7-6.6-11.1-9.6s-10.7-5.2-10.7-5.2
	l-15.9,0.4c0,0-5.5,5.4-6,9.3C303.7,389.2,304.3,390.5,305.4,391.1z"/>
<path class="st38" d="M336,382.6c-3.4,0.1-6.7,0.8-9.2,3.2c-0.4,0.4-0.4,1.1,0,1.5c0,0,0,0,0,0c0.4,0.4,1.1,0.4,1.5,0
	c2-2.1,4.8-2.5,7.6-2.6C337.3,384.8,337.3,382.5,336,382.6z"/>
<path class="st38" d="M332.3,380.2c-3.7,0-7.3,1.3-10.1,3.7c-1.1,0.9,0.5,2.4,1.5,1.5c2.4-2,5.5-3.1,8.6-3c0.6,0,1.1-0.5,1.1-1.1
	S332.9,380.2,332.3,380.2z"/>
<path class="st38" d="M305.4,391.1c5.3,3,37.8,9.6,41.7,3.7c0.4-0.5,0.5-1.2,0.5-1.8c-6.6,1.1-23.2,2.4-43.7-5.1
	C303.6,389.2,304.3,390.5,305.4,391.1z"/>
<path class="st39" d="M260.2,235.1c0.5,1.1,1.9,11.4,1.9,11.4l6.7,3.8c2.2,0.9,4.7,0.3,6.2-1.5l5.4-6.5l-3.4-12L260.2,235.1z"/>
<path class="st37" d="M234.8,239.5c-3.2,4.3-11.6,3.5-11.6,3.5s-3.3-7.8-0.1-12.1s11.6-3.5,11.6-3.5S238,235.2,234.8,239.5z"/>
<path class="st37" d="M227.7,250c-2.6,4.7-11.1,5-11.1,5s-4.2-7.3-1.6-12s11.1-5,11.1-5S230.3,245.3,227.7,250z"/>
<path class="st37" d="M219.1,268.6c-2.1,4.9-15.5-0.9-13.3-5.8s13-11,13-11S221.2,263.7,219.1,268.6z"/>
<path class="st40" d="M221.5,256.1c-0.8,1.9-2.5,2.1-5.1,0.9s-3.7-2.3-2.9-4.3s2.2-1.3,4.9-0.1S222.3,254.1,221.5,256.1z"/>
<path class="st37" d="M301.3,225.9c4.8,2.2,11.4-2.6,11.4-2.6s-1.2-8.4-6.1-10.5s-11.4,2.6-11.4,2.6S296.5,223.7,301.3,225.9z"/>
<path class="st37" d="M312.5,231.5c4.5,2.8,11.7-1.1,11.7-1.1s-0.2-8.4-4.7-11.2s-11.7,1.1-11.7,1.1S308,228.7,312.5,231.5z"/>
<path class="st37" d="M329.1,243.3c4.3,3.2,12.4-8.3,8.1-11.5s-16.4-3.2-16.4-3.2S324.8,240.1,329.1,243.3z"/>
<path class="st40" d="M320.8,233.7c1.7,1.3,3.1,0.6,4.7-1.7s1.9-3.8,0.2-5.1s-2.5,0-4.1,2.2S319.1,232.4,320.8,233.7z"/>
<path class="st39" d="M212.9,219.8c-0.3,4.8,3.6,9.4,8.8,10.4s9.7-2.1,10-6.9s-3.6-9.4-8.8-10.4S213.2,215,212.9,219.8z"/>
<path class="st41" d="M226.8,223.8c-0.4-0.6-3-7.2-10.1-4"/>
<path class="st41" d="M219.7,224.8c0,0,1.1-4.8,5-4.1"/>
<path class="st39" d="M312.3,202.9c1.2,4.6-1.9,9.9-6.8,11.7s-9.9-0.4-11-5s1.9-9.9,6.9-11.7S311.2,198.3,312.3,202.9z"/>
<path class="st41" d="M299.3,209.3c0.3-0.7,1.7-7.6,9.2-5.7"/>
<path class="st37" d="M306.5,209.1c0,0-1.9-4.5-5.7-3.2"/>
<path class="st42" d="M299.7,180c-4.3-23.1-26.6-38.4-49.7-34c-23.1,4.3-38.4,26.6-34,49.7c0.9,5,2.8,9.9,5.5,14.3
	c2.3,3.9,3.7,8.1,4.4,12.5c1.3,8.2,9.1,20.5,41.2,14.5c34.4-6.4,36.3-20.4,33.8-28.3c-1.4-4.5-1.7-9.4-0.9-14.1
	C300.7,189.7,300.6,184.8,299.7,180z"/>
<path class="st37" d="M271.2,226.6c-1.4,1.3-3.2,2.2-5.1,2.5c-4.3,0.7-7.1-0.7-8.5-2.5c-1.3-1.6-1.4-3.6-0.4-4.6
	c0.5-0.5,1.3-0.8,2-0.7c5,0.2,11.8-2.3,11.8-2.3c0.3-0.1,0.6-0.2,0.9-0.1C273.9,219.1,274.2,223.6,271.2,226.6z"/>
<path class="st22" d="M271.8,218.9c-0.6,0.9-1.4,1.6-2.3,2.1c-3.8,2.1-8.3,2.5-12.3,1c0.5-0.5,1.3-0.8,2-0.7
	c5,0.2,11.8-2.3,11.8-2.3C271.2,218.9,271.5,218.8,271.8,218.9z"/>
<path class="st43" d="M271.2,226.6c-1.4,1.3-3.2,2.2-5.1,2.5c-4.3,0.7-7.1-0.7-8.5-2.5c0.9-0.7,1.9-1.3,3-1.6c2-0.6,4.2-0.8,6.3-0.3
	c1,0.2,2,0.5,2.9,1C270.3,225.9,270.8,226.2,271.2,226.6z"/>
<path class="st39" d="M299.5,200.5c0,0-7.5-11.3-10.5-12.5c0,0-23.5,0.5-32.7-9.3c0,0-8,18.9-27.5,23.3l-4,13.6
	c0,0-18.2-46.7,24.2-51.5S298.4,182.4,299.5,200.5z"/>
<path class="st44" d="M245.1,197.4c0,0-7-2.8-10.2,4.5"/>
<path class="st44" d="M272.6,191.8c0,0,4.9-5.7,11.2-0.7"/>
<path class="st41" d="M263,209l1.1,4.7c0,0,3.1-1,3.8,0.4s-2.2,2.8-2.2,2.8"/>
<path class="st41" d="M275.9,209.1c0,0,3-5,10.5-4.2"/>
<path class="st41" d="M239.4,214.9c0,0,4.5-3.7,11.3-0.5"/>
<path class="st45" d="M297.9,214.9c0.9,4-2,8.2-6.6,9.2s-9-1.4-10-5.4s2-8.2,6.6-9.2S297,210.8,297.9,214.9z"/>
<path class="st45" d="M248.5,226.5c0.1,4.1-3.6,7.6-8.3,7.8s-8.6-3.1-8.8-7.2s3.6-7.6,8.3-7.8S248.3,222.3,248.5,226.5z"/>
<path class="st37" d="M303,185.2c-0.1,6.1-1.2,12.2-3.3,18c-2-5.3-5.1-13.9-8.1-17.6c-13.3-1.5-32.8-5.4-37.6-14.5
	c-2.1,13.5-13.5,22.7-27.1,30.2c-1.4,4.6-1.9,11.3-1.8,17c0,0-16-16.3-12.8-37.8c1.1-6.6,3.6-12.8,7.5-18.3
	c17.3-25.2,26.9-20.2,29.6-17.8c1.4-3.1,8.1-12.6,34.3,4.8C299.4,159.7,303.1,174,303,185.2z"/>
<path class="st46" d="M303,185.2c-6.9-26.3-27.7-35.4-37.5-39.4c-10.3-4.2-15.1,4.5-15.1,4.5c-14-6.5-30.2,16.8-38,30.1
	c1.1-6.6,3.6-12.8,7.5-18.3c17.3-25.2,26.9-20.2,29.6-17.8c1.4-3.1,8.1-12.6,34.3,4.8C299.4,159.7,303.1,174,303,185.2z"/>
<path class="st47" d="M303,380.5l-19.4-51.6l-13.3,53l-28.6-2l11.8-76.7l4.2-28.2c0.3-2.7,2.3-4.9,4.9-5.6l27.1-5.4
	c2.8-0.5,5.5,1.1,6.5,3.7l11.9,28.4c0,0,20.5,76.7,21.5,79.1S303,380.5,303,380.5z"/>
<path class="st47" d="M281.1,239l6.4,30.3l5.3-0.9l-6-30.3C284.9,237.8,282.9,238.1,281.1,239z"/>
<path class="st33" d="M291.6,266.8c0,0.9-0.7,1.6-1.6,1.6s-1.6-0.7-1.6-1.6s0.7-1.6,1.6-1.6h0l0,0
	C290.8,265.1,291.6,265.9,291.6,266.8z"/>
<path class="st47" d="M266.6,273.3c0-0.5-5.8-29.4-5.8-29.4c-1.9,0.1-3.7,0.7-5.2,1.9l5.5,28.7L266.6,273.3z"/>
<path class="st33" d="M265.2,272.1c0,0.9-0.7,1.6-1.6,1.6c-0.9,0-1.6-0.7-1.6-1.6c0-0.9,0.7-1.6,1.6-1.6l0,0l0,0
	C264.5,270.5,265.2,271.2,265.2,272.1C265.2,272.1,265.2,272.1,265.2,272.1L265.2,272.1z"/>
<path class="st48" d="M254.5,303.1c17.7-0.3,35.3-2.5,52.5-6.7"/>
<path class="st48" d="M253.8,306.5c18.3,0.5,36.6-1.7,54.3-6.7"/>
<path class="st48" d="M265.2,279.2l25.4-4.7c2,10,3,18.2-8.9,20.4C268.5,297.3,266.2,288.4,265.2,279.2z"/>
<path class="st49" d="M300.3,375.3l3,9.1c7.8-0.1,17.9-1.9,29.1-4.5l-3.9-11.8C318.2,372,308.6,374.7,300.3,375.3z"/>
<path class="st49" d="M272.9,374.7c-8.9-0.2-19.5-1.9-30.9-4.2l-3.2,12.3c12.6,1.7,24.5,3.2,31.8,2.9L272.9,374.7z"/>
<path class="st42" d="M319.9,283.9c-1.5-2.3-8.6-7.8-14.4-3.2c-2.4,1.9-2.5,3.6-1.1,5c-1.3,1.1-2.3,2.6-2.7,4.3
	c-0.3,1.6,0.5,4.1,2.3,3.9c-0.2,0.7-0.1,1.4,0.1,2c0.6,1.4,2.5,2.5,4,1.8l0,0c0,1.1,0.7,2.1,1.7,2.5c1.2,0.6,2.6,0.4,3.6-0.4
	c0,0.8,0.5,1.5,1.3,1.6c2.9,1.1,6.9-3.7,7.8-5.7C324.3,291.6,322.1,287.4,319.9,283.9z"/>
<path class="st37" d="M310.3,281.4c-1.2,0.5-2.4,1.2-3.5,1.9c0-0.6,0.1-1.2,0.5-1.8c0.1-0.1,0-0.3-0.1-0.3c0,0,0,0,0,0
	c-0.1,0-0.2,0-0.3,0.1c-0.4,0.7-0.6,1.5-0.5,2.2c-0.7,0.5-1.4,1.1-1.9,1.8c-0.1,0.1,0,0.2,0.1,0.1c1.8-1.5,3.8-2.7,6-3.5
	C310.9,281.8,310.6,281.3,310.3,281.4z"/>
<polygon class="st42" points="314.9,280.8 316.1,277.9 325.2,284.3 321.7,291 "/>
<path class="st42" d="M238.7,303.3c1.4,1.6,6.6,5.1,9.1,3.3c0.7-0.4,1-1.2,0.8-1.9c1.2,0.5,2.6,0.3,3.5-0.6c0.9-0.6,1.3-1.8,1-2.9
	l0,0c1.6,0.3,3.2-1.3,3.3-2.9c0.1-0.7-0.1-1.4-0.4-1.9c1.8-0.3,1.9-2.9,1.1-4.4c-0.9-1.5-2.2-2.7-3.8-3.4c0.9-1.7,0.4-3.4-2.5-4.5
	c-6.9-2.7-12.2,4.5-13,7.1C236.8,295.2,235.8,299.9,238.7,303.3z"/>
<path class="st37" d="M246.4,286.1c1.3,0.2,2.6,0.5,3.8,0.8c-0.2-0.6-0.5-1.1-0.9-1.5c-0.1-0.1-0.1-0.2,0-0.3c0.1-0.1,0.2-0.1,0.3,0
	c0.6,0.5,1,1.2,1.1,2c0.8,0.3,1.6,0.7,2.4,1.1c0.1,0,0,0.2-0.1,0.1c-2.1-1-4.4-1.6-6.7-1.7C246,286.6,246.1,286.1,246.4,286.1z"/>
<polygon class="st42" points="241.8,286.9 239.9,284.5 232.9,293.1 238.1,298.5 "/>
<path class="st50" d="M79.9,233.4c0,0-6.9,1.3-16.5-1.5c-8.6-2.6-16.3-7.4-22.5-13.9c0.8-2.7,1.4-5.4,1.8-8.2
	c0.3-1.8,1.3-5.2-0.1-6.7c-2.9-3.2-5.2,5.1-5.9,7.6c-1.5-3.1-3.9-5.2-5.7-8.1c-1.2-1.9-3.5-5.7-6.1-5.9c-5-0.4,0.5,7,2.9,10.7
	c-1.9-1.5-3.9-2.9-6-4c-1.1-0.6-4.4-2.9-5.5-1.4s1.1,4.1,2,5.1c1.8,1.8,3.7,3.5,5.7,5.1c-1.7-0.8-3.4-1.5-5.2-2
	c-1.5-0.4-4.4-1.1-5.4,0.4c-1.8,2.5,5.3,5.5,8.3,6.9c-1.4-0.4-5.3-0.8-6.4-0.3c-0.8,0.3-1.2,1.3-0.9,2.1c0.1,0.1,0.1,0.3,0.2,0.4
	c1.3,2,6.4,3.9,8.6,4.5c2.5,0.7,5.5,1.4,7.4,1.7c1.8,2.1,11.4,13.6,24,21.1c7.8,4.7,16.8,7.8,25.9,6.2L79.9,233.4z"/>
<path class="st41" d="M35.7,212.1c-1.2,0-2.3,0.6-3,1.6c-0.6,1-1,2.1-1,3.3"/>
<path class="st10" d="M80.5,253.3c-9.1,1.6-18-1.6-25.9-6.2c1.2-1.1,2.3-2.3,3.3-3.6c2.6-3.5,4.4-7.4,5.4-11.6
	c9.6,2.9,16.5,1.5,16.5,1.5L80.5,253.3z"/>
<path class="st50" d="M140,251.8c9.2,0.5,17.7-3.7,24.9-9.2c11.6-9,19.8-21.5,21.3-23.8c1.8-0.6,4.7-1.6,7.2-2.6
	c2.1-0.9,7-3.4,8-5.5c0.5-0.8,0.3-1.8-0.5-2.3c-0.1-0.1-0.3-0.2-0.4-0.2c-1.1-0.4-5,0.4-6.3,1c2.8-1.7,9.5-5.6,7.4-7.8
	c-1.2-1.3-4-0.3-5.4,0.3c-1.7,0.7-3.3,1.6-4.9,2.6c1.8-1.8,3.5-3.7,5.1-5.7c0.8-1.1,2.7-4,1.4-5.3s-4.3,1.3-5.3,2
	c-2,1.4-3.8,3-5.4,4.7c1.9-4,6.4-11.9,1.6-11c-2.5,0.5-4.4,4.5-5.4,6.6c-1.5,3.1-3.6,5.4-4.7,8.7c-1-2.4-4.2-10.4-6.8-6.9
	c-1.2,1.7,0.2,5,0.7,6.7c0.7,2.7,1.6,5.4,2.8,7.9c-5.4,7.1-12.6,12.8-20.7,16.4c-9.2,4-16.2,3.5-16.2,3.5L140,251.8z"/>
<path class="st41" d="M179.6,205.5c1.2-0.1,2.3,0.3,3.1,1.2c0.7,0.9,1.2,2,1.4,3.1"/>
<path class="st10" d="M140,251.8c9.2,0.5,17.7-3.7,24.9-9.2c-1.4-0.9-2.6-2-3.8-3.2c-3-3.1-5.3-6.9-6.7-10.9
	c-9.2,4-16.2,3.5-16.2,3.5L140,251.8z"/>
<path class="st37" d="M104,390.5c0,1-0.6,1.9-1.5,2.4c-3.5,2.1-17.8,6.1-28.1,6.9h-0.2c-4.6,0.3-8.4,0-10.1-1.5
	c-0.2-0.1-0.3-0.3-0.5-0.5c-0.4-0.5-0.6-1.1-0.5-1.8c0.2-3,5.5-6.8,10.7-10c3.4-2,6.9-3.8,10.5-5.4l15.9-0.2c0,0,3.1,5.4,3.7,9.2
	C104,390,104,390.3,104,390.5z"/>
<path class="st38" d="M84.7,386.2c-2.7-2.4-6.8-1.8-10-1.1c-1.4,0.3-0.7,2.4,0.6,2.1c2.3-0.5,5.9-1.1,7.9,0.6
	C84.3,388.7,85.7,387.1,84.7,386.2z"/>
<path class="st38" d="M80.6,389.3c-3.4-1.5-7.2-1.8-10.7-0.8c-1.3,0.4-0.7,2.4,0.6,2.1c3-0.8,6.2-0.6,9,0.7
	C80.8,391.8,81.9,389.9,80.6,389.3z"/>
<path class="st38" d="M104,390.5c0,1-0.6,1.9-1.5,2.4c-3.5,2.1-17.8,6.1-28.1,6.9h-0.2c-4.7,0.3-8.4-0.1-10.1-1.5
	c-0.2-0.1-0.3-0.3-0.5-0.5c-0.4-0.5-0.6-1.1-0.5-1.8C69.4,397,84.9,397.7,104,390.5z"/>
<path class="st37" d="M152.4,395.5c-0.2,0.3-0.4,0.5-0.6,0.7c-1.8,1.5-5.8,2.1-10.5,2.1c-10.4,0-24.7-2.9-28.3-4.7
	c-1-0.4-1.6-1.3-1.7-2.4c0-0.2,0-0.5,0-0.7c0.3-4,3.2-9.6,3.2-9.6l15.8-1c0,0,5.4,2,10.9,4.7s11.1,6.2,11.5,9.1
	C152.8,394.4,152.7,395,152.4,395.5z"/>
<path class="st38" d="M130.4,385.5c2.5-2.5,6.7-2.3,9.9-1.9c1.4,0.2,0.9,2.3-0.5,2.1c-2.3-0.3-6-0.7-7.8,1.2
	C131.1,387.9,129.4,386.5,130.4,385.5z"/>
<path class="st38" d="M134.7,388.3c3.2-1.7,7-2.3,10.6-1.6c1.4,0.2,0.9,2.4-0.5,2.1c-3.1-0.6-6.2-0.1-9,1.4
	C134.7,390.7,133.5,388.9,134.7,388.3z"/>
<path class="st38" d="M152.4,395.5c-0.2,0.3-0.4,0.5-0.6,0.7c-1.7,1.5-5.7,2.1-10.5,2.1c-10.4,0-24.7-2.9-28.3-4.7
	c-1-0.4-1.6-1.3-1.7-2.4c19.7,5.8,35.2,3.8,41.5,2.5C152.9,394.3,152.7,395,152.4,395.5z"/>
<path class="st51" d="M77.7,298.3l1.8,84.7c8.8,1.2,15.6,2,22.7,1.5l5.7-60.5l5,60.9c7.7,0,15.3-1,22.7-2.9l0.8-84.2L77.7,298.3z"/>
<line class="st52" x1="108.3" y1="296.9" x2="108.3" y2="322.7"/>
<path class="st52" d="M108.3,317.1c0,0,7.7,5.6,6.1-18.2"/>
<path class="st52" d="M129.9,295c0,0-0.7,15.9,5,15.5"/>
<path class="st52" d="M83.3,295c0.3,1.1,2.7,17.3-4,16.5"/>
<path class="st53" d="M135.3,287.1l1.1,11.5c-18.2,4.1-37.8,3.9-58.7-0.3l2.6-22.4l1.6-13.6c-8.8-0.6-12.3-2.1-20.8-4.2l2.9-28.4
	c0,0,51.4,11.4,89.1-2.9l5.3,27.8c0,0-5.6,3.3-25.6,5.9L135.3,287.1z"/>
<path class="st10" d="M100.9,226.7c0,0-1.4,6-2.7,7.1s6.2,12.5,9.4,12.7s9.4-10.2,9.5-11.3s-2-4.3-1.7-6S100.9,226.7,100.9,226.7z"
	/>
<path class="st10" d="M63.2,198.4c-1.8,4.4,0.4,10.1,5,12.6s9.8,1.1,11.7-3.3s-0.4-10.1-5-12.6S65.1,194,63.2,198.4z"/>
<path class="st41" d="M75.1,206.7c-0.2-0.7-0.5-7.8-8.2-7"/>
<path class="st41" d="M68.1,205.4c0,0,2.6-4.2,6.1-2.3"/>
<path class="st10" d="M162.8,214.5c-0.4,4.8-5,8.7-10.3,8.9s-9.2-3.6-8.8-8.3s5-8.7,10.3-8.9S163.2,209.8,162.8,214.5z"/>
<path class="st41" d="M148.4,216.4c0.5-0.6,4.1-6.7,10.6-2.4"/>
<path class="st41" d="M155.3,218.5c0,0-0.3-4.9-4.3-4.9"/>
<path class="st50" d="M158.2,188.8c3.4-23.3-12.7-44.9-36-48.3c-1.1-0.1-2.1-0.3-3.2-0.3c-21-1.5-42.8,12.6-44.6,33.6
	c-0.7,5.9-0.4,12,0.7,17.8c1,4.4,0.2,9.1-0.6,13.4c-1.4,8.1,2,22.3,34.3,27c34.6,5,40.9-7.6,41.1-15.9c0.2-4.8,1.4-9.4,3.7-13.6
	C156,198.3,157.6,193.6,158.2,188.8z"/>
<path class="st10" d="M149.8,207.2l-2.8-27.9l-58.8-8.8l-11.6,25.8c0,0-5.9-54.1,44.4-39.7S153.3,200.4,149.8,207.2z"/>
<path class="st44" d="M100.9,187.6c0,0-5.7-4.9-11.2,0.9"/>
<path class="st44" d="M128.8,191.2c3.8-2.2,8.6-0.9,10.7,2.9c0,0,0,0.1,0.1,0.1"/>
<path class="st41" d="M114.1,204.4l-0.5,4.8c0,0,3.2,0.1,3.5,1.6s-3,1.9-3,1.9"/>
<path class="st25" d="M145.3,221.2c-0.4,4.1-4.6,7.1-9.2,6.6s-8.1-4.2-7.7-8.3c0.4-4.1,4.6-7.1,9.2-6.6S145.7,217.1,145.3,221.2z"/>
<path class="st25" d="M94.8,216.2c-1.2,4-5.8,6-10.3,4.7s-7.2-5.7-5.9-9.7s5.8-6,10.3-4.7S96,212.3,94.8,216.2z"/>
<path class="st37" d="M98.5,204.1c-0.1,1.6-1,2.8-1.8,2.7s-1.5-1.4-1.3-3s1-2.8,1.8-2.7S98.6,202.5,98.5,204.1z"/>
<path class="st37" d="M130.9,207.5c-0.3,1.5-1.2,2.7-2,2.5s-1.3-1.5-1-3.1c0.3-1.5,1.2-2.7,2-2.5S131.2,205.9,130.9,207.5z"/>
<path class="st37" d="M119.7,216.4c-0.8,2.8-2.1,5.4-3.8,7.8c-1.9,2.5-4.5,4.6-7.8,3.7s-4.5-3.8-4.8-6.8c-0.2-2.5,0-5.1,0.6-7.5
	c0.1-0.6,0.2-0.9,0.2-0.9c4.6,2.7,9.9,4.1,15.3,3.8L119.7,216.4z"/>
<path class="st21" d="M115.9,224.1c-1.9,2.5-4.5,4.6-7.8,3.7s-4.5-3.8-4.8-6.8c0.4-0.3,0.8-0.5,1.2-0.6c3.4-1.2,7.1-0.4,9.7,2
	C114.9,222.9,115.4,223.5,115.9,224.1z"/>
<path class="st22" d="M119.5,216.4c-1.4,1.2-3.3,1.8-5.2,1.8c-2.6,0-5.1-0.6-7.3-1.9c-1.2-0.7-2.2-1.6-3-2.7
	c0.1-0.6,0.2-0.9,0.2-0.9C108.9,215.3,114.2,216.6,119.5,216.4z"/>
<path class="st54" d="M166.9,163c-1.7,4.4-4,8.5-6.7,12.3c2.2,19.1-9.7,37.1-9.7,37.1c-0.5-11.3,0.3-31.4,0.4-35.4v-0.7l-64.3-9.8
	c0,0.2-0.1,0.5-0.2,0.7c-1.8,8.1-11.3,33.1-11.3,33.1c-3.6-29.3,1.3-38,1.3-38s-10.8-10-8.3-17.2s15.2-2.1,15.6-1.9
	c-0.2-0.3-3.6-6.1-4.1-11.1c-0.2-2.5,0.2-4.8,2.1-6.1c8.9-6.2,22.3,7.2,22.3,7.2s-5.2-16.6,5.2-20.4s27.7,20.4,27.7,20.4
	s-1.1-17,6.9-13.3s15,32.4,15,32.4s3.6-8.4,7.7-3.7C169.6,152.3,168.8,157.9,166.9,163z"/>
<path class="st55" d="M86.6,166.5c0,0.2-0.1,0.5-0.2,0.7c-1.8,8.1-11.3,33.1-11.3,33.1c-3.6-29.3,1.3-38,1.3-38
	C79.8,164.2,83.3,165.1,86.6,166.5z"/>
<path class="st55" d="M150.4,212.3c-0.5-11.3,0.3-32.1,0.5-36.1c5.9-0.8,9.3-1,9.3-1C162.3,194.4,150.4,212.3,150.4,212.3z"/>
<path class="st55" d="M166.9,163c-0.2-1.6-0.6-3.2-1.2-4.7c-0.6-1.6-1.9-3.3-3.5-2.9c-0.8,0.2-1.4,0.7-1.9,1.4
	c-1.5,1.8-2.8,3.8-3.9,6c-1.7-11-5.8-21.5-12.1-30.8c-0.5-0.7-1.2-1.4-2-1.2s-1,0.9-1.1,1.6c-1,3.9-1.5,8-1.2,12.1
	c-3.7-4.9-7.8-9.5-12.3-13.8c-4.4-4.2-9.7-8.1-15.7-8.4c-1.3-0.1-2.6,0.2-3.7,0.9c-1.5,1.1-1.8,3.1-1.9,5c-0.2,4.8,0.6,9.5,2.5,13.9
	c-5.6-6.4-13.3-10.6-21.7-11.9c-1.3-0.3-2.7-0.3-4,0c-1.3,0.3-2.4,0.9-3.4,1.8c-0.2-2.5,0.2-4.8,2.1-6.1c8.9-6.2,22.3,7.2,22.3,7.2
	s-5.2-16.6,5.2-20.4s27.7,20.4,27.7,20.4s-1.1-17,6.9-13.3s15,32.4,15,32.4s3.6-8.4,7.7-3.7C169.6,152.3,168.8,157.9,166.9,163z"/>
<line class="st56" x1="118.6" y1="226.5" x2="98.3" y2="224.7"/>
<path class="st57" d="M134.5,246.5c0-0.2-0.1-0.3-0.3-0.3c0,0,0,0,0,0c-0.1,0-0.2,0.1-0.2,0.1c-0.8,1.4-1.3,2.8-1.5,4.4
	c-0.3,1.1-0.6,2.3-0.8,3.4c-0.9-5.5-1.8-11.1-4.3-16c-0.1-0.1-0.2-0.2-0.4-0.1c-0.1,0.1-0.1,0.2-0.1,0.3c2.2,6.4,2.9,13.3,4.2,20
	c0.1,0.8,1.4,0.5,1.2-0.3s-0.3-1.7-0.5-2.6c0.6-1.5,1-2.9,1.5-4.4C134,249.6,134.4,248.1,134.5,246.5z"/>
<path class="st57" d="M87.1,240.8c-2.2,5.2-3.9,10.5-5.2,16c-1.3-3-2-6.1-3.1-9.3c-0.1-0.4-0.7-0.3-0.7,0.1
	c0.2,3.6,1.8,7.3,3.5,10.5c-0.1,0.6-0.2,1.2-0.3,1.8c0,0.4,0.6,0.5,0.7,0.1c2.3-6.1,3.7-12.8,5.6-19
	C87.9,240.5,87.3,240.4,87.1,240.8z"/>
<path class="st57" d="M136.4,298.6c-18.2,4.1-37.8,3.9-58.7-0.3l2.6-22.4c2.2,2.3,4.7,4.3,7.4,5.9c6.4,3.9,13.6,6.3,21,7.2
	c8.9,1.2,17.9,0.5,26.6-2L136.4,298.6z"/>
<path class="st58" d="M103.2,45.8l2.2-0.1h2.2c1.3,0,2.5,0.1,3.8,0.2c1.2,0.2,2.4,0.5,3.5,1c1,0.5,1.9,1.2,2.6,2.1
	c0.7,1.1,1.1,2.4,1,3.7c0,1.2-0.3,2.3-1,3.3c-0.7,1-1.6,1.7-2.7,2.3c-1.1,0.6-2.3,1.1-3.5,1.4c-1.2,0.3-2.4,0.5-3.6,0.5
	c-1.5,0-2.9-0.2-4.3-0.5c-0.1,0.7-0.8,1.3-1.5,1.3c-1.3,0-2-0.5-2-1.6c0-0.3,0-0.5,0-0.8s0-0.2-0.1-0.2c-0.3-0.2-0.7-0.3-1-0.5
	c-0.3-0.2-0.5-0.6-0.5-1c-0.1-0.7,0.5-1.4,1.2-1.5v-6.8c-0.5-0.2-0.8-0.7-0.9-1.2c0-0.6,0.3-1.1,0.9-1.3c0.1-2.2,0.1-4,0.2-5.4
	s0.1-2.2,0.1-2.5c0-0.3,0-0.6-0.1-0.8c0-0.3-0.1-0.5-0.1-0.8c-0.1-1.2,0.8-2.1,2-2.2l3.6-0.6c1.2-0.2,2.4-0.4,3.6-0.5
	s2.2-0.3,3.1-0.4c0.7-0.1,1.5-0.1,2.2-0.1c0.8,0,1.6,0.2,2.3,0.5c0.6,0.3,1,0.8,1,1.5c0,1-0.7,1.5-2,1.5c-0.3,0-0.5,0-0.8-0.1
	s-0.6-0.1-0.8-0.1c-1.1,0-2.4,0-3.9,0.1c-1.7,0.1-3.5,0.4-5.1,0.8c-0.2,0-0.4,0.1-0.6,0.2c-0.2,0.2-0.4,0.4-0.4,0.7
	c-0.2,0.9-0.3,1.8-0.3,2.8C103.2,42,103.2,43.7,103.2,45.8z M114.6,52.5c0-0.8-0.3-1.5-0.8-2c-0.6-0.5-1.3-0.9-2-1.2
	c-0.9-0.3-1.7-0.4-2.6-0.5c-0.9-0.1-1.7-0.1-2.5-0.1c-1.2,0-2.4,0-3.7,0.1v7.5c1.4,0.5,2.9,0.8,4.4,0.8c0.7,0,1.4-0.1,2.1-0.3
	c0.8-0.2,1.6-0.5,2.4-0.8c0.7-0.4,1.4-0.9,1.9-1.5C114.4,54,114.6,53.3,114.6,52.5z"/>
<path class="st58" d="M125.3,45.2c0-0.3,0.1-0.7,0.2-1c0.3-0.3,0.6-0.5,1.1-0.6c0.4-0.1,0.7-0.3,1.1-0.5c0.4-0.2,0.8-0.3,1.3-0.3
	c0.2,0,0.3,0,0.5,0.1h0.4c0.3,0,0.7,0,1-0.1l1.2-0.1c0.4,0,0.8-0.1,1.2-0.1l0.8-0.1l0.9-0.1l0.8-0.1h0.4c0.2,0,0.4,0.1,0.6,0.2
	c0.2,0.1,0.5,0.3,0.7,0.5c0.2,0.2,0.4,0.4,0.5,0.6c0.1,0.2,0.2,0.4,0.2,0.6c0,0.1,0,0.2-0.1,0.3l-0.2,0.3c-0.1,0.1-0.2,0.3-0.2,0.4
	c-0.1,0.2-0.1,0.4-0.2,0.7c-0.2,1.6-0.3,3.1-0.4,4.7s-0.1,3-0.1,4.4c0,0.9,0.1,1.8,0.3,2.7c0.2,0.7,0.4,1.3,0.8,1.9
	c-0.2,0.4-0.6,0.7-0.9,0.9c-0.3,0.2-0.7,0.2-1,0.2c-0.4,0-0.9-0.1-1.3-0.2c-0.4-0.2-0.7-0.5-0.9-0.8c-0.3-0.5-0.5-1.1-0.5-1.7
	c-0.1-0.9-0.2-1.8-0.2-2.7c0-1,0-1.9,0.1-2.8s0.1-1.7,0.2-2.4s0.1-1.5,0.2-2.2s0.1-1.4,0.1-2c0-0.1-0.1-0.2-0.3-0.2h-1.3
	c-0.5,0-0.9,0-1.4,0.1c-0.4,0.1-0.7,0.1-0.7,0.2c0.1,1.3,0.1,2.5,0.1,3.5s0.1,1.9,0.1,2.8c0,1.1,0,2.1-0.1,3.2
	c-0.1,0.9-0.2,1.8-0.4,2.7c-0.1,0.6-0.3,1.2-0.7,1.7c-0.3,0.4-0.7,0.7-1.2,1c-0.4,0.3-0.9,0.4-1.4,0.5c-0.5,0.1-1,0.1-1.4,0.2
	c-0.5,0-1-0.1-1.4-0.2c-0.5-0.1-1-0.4-1.5-0.7c-0.5-0.3-0.9-0.7-1.2-1.2c-0.3-0.5-0.5-1.1-0.5-1.8c0-0.5,0.1-0.9,0.4-1.3
	c0.3-0.3,0.7-0.5,1.2-0.5c0.4,0,0.8,0.2,1,0.5c0.2,0.4,0.4,0.7,0.6,1.1c0.2,0.4,0.3,0.8,0.4,1.2c0.1,0.3,0.4,0.5,0.7,0.5
	c0.5,0,0.9-0.7,1.3-2.2c0.5-2.1,0.7-4.3,0.6-6.5v-3.3h-0.2c-0.4,0-0.8-0.3-1-0.7C125.5,46.2,125.3,45.7,125.3,45.2z"/>
<path class="st58" d="M156.6,53.5c0,2.5-0.1,5-0.3,7.5c-0.1,0.8-0.7,1.3-1.7,1.3c-1.5,0-2.2-0.8-2-2.3c-1.3,0.6-2.8,1-4.3,1
	c-1.4,0-2.8-0.4-4-1.1c-1.5-0.8-2.3-1.9-2.3-3.2s0.9-2.5,2.6-3.6c1.3-0.9,2.9-1.5,4.5-1.5h3.5v-1c0-2.9-0.8-4.3-2.5-4.3
	c-2.2,0-3.2,1-3.2,3c0,0.7-0.4,1-1.1,1c-0.5,0-1.1-0.3-1.4-0.6c-0.4-0.3-0.7-0.8-0.8-1.3c-0.1-1.4,0.5-2.8,1.5-3.7
	c1.1-1,2.5-1.5,3.9-1.5C154,43,156.6,46.5,156.6,53.5z M152.4,54.9c0-0.5-0.4-0.8-1.2-0.8c-3.4,0-5.1,0.8-5.1,2.4
	c0,0.9,0.8,1.3,2.2,1.3c0.9,0,1.8-0.3,2.6-0.8C151.8,56.7,152.4,55.9,152.4,54.9L152.4,54.9z"/>
<path class="st58" d="M171.3,44.8c0,0.5,0,1-0.3,1.5c-0.3,0.3-0.7,0.4-1.1,0.3c-0.6,0-1.1-0.2-1.6-0.4c-0.8-0.3-1.7-0.4-2.5-0.4h-2
	c-0.5,0-0.9,0.1-0.9,0.3c-0.1,0.5-0.1,1-0.2,1.5c-0.1,0.5-0.1,1-0.1,1.6c0,0.6,0,1.2,0,2V54c0,0.9,0,1.8,0.1,2.8c0,1,0.2,2,0.4,3
	c-0.1,0.2-0.3,0.4-0.5,0.7c-0.2,0.2-0.4,0.2-0.7,0.2c-0.7,0.1-1.4-0.2-1.9-0.6c-0.4-0.5-0.7-1.2-0.7-1.8c-0.1-1-0.1-2.1-0.1-3.4
	s0-2.3,0-3.3c0-2,0-4,0.1-6c-0.1-0.3-0.2-0.6-0.2-0.9v-0.7c0-0.2,0.1-0.4,0.3-0.5c0.4-0.3,0.8-0.4,1.2-0.5c0.9-0.2,1.9-0.3,2.8-0.4
	c1.2-0.1,2.9-0.2,5-0.2S171.3,43.2,171.3,44.8z"/>
<path class="st58" d="M188,52.3c0.1,2.2-0.6,4.5-1.8,6.3c-1.2,1.9-3.4,3-5.6,3c-2.1,0.1-4.2-0.8-5.4-2.5c-1.2-1.7-1.8-3.8-1.7-5.9
	c0-2.5,0.6-4.9,1.8-7c1.4-2.6,3.3-3.9,5.5-3.9c1,0.1,1.9,0.4,2.7,0.9C186.5,45.2,188,48.2,188,52.3z M184.4,52.3c0-4.2-1-6.3-3-6.3
	c-1.4,0-2.5,0.9-3.3,2.7c-0.6,1.4-0.8,3-0.8,4.5c0,3.6,1.1,5.4,3.2,5.5c1.4,0,2.7-0.9,3.1-2.2C184.2,55.1,184.4,53.7,184.4,52.3z"/>
<path class="st58" d="M205.1,44.2c-0.1,0.3-0.2,0.5-0.4,0.7c-0.3,0.3-0.7,0.5-1.2,0.7c-0.8,0.2-1.6,0.4-2.4,0.4
	c-0.9,0.1-1.7,0.1-2.3,0.2v7.1c0,0.3,0,0.8,0.1,1.5s0.1,1.3,0.2,1.9s0.2,1,0.2,1.4s0.1,0.7,0.1,1c0,0.5-0.3,0.9-0.7,1.2
	c-0.4,0.3-0.8,0.5-1.3,0.5c-0.7,0-1.3-0.6-1.7-1.8c-0.2-0.7-0.4-1.4-0.5-2.1c-0.2-1.2-0.2-2.5-0.2-3.8v-4.8c0-0.7,0-1.4,0.1-2
	l-2.9,0.2c-0.7,0-1.5,0-2.2-0.3c-0.6-0.2-0.9-0.5-0.9-1c0-0.6,0.4-1.1,0.9-1.3c0.7-0.3,1.4-0.4,2.2-0.5l9.6-0.7
	c0.8-0.1,1.7,0,2.5,0.3C204.9,43.1,205.2,43.6,205.1,44.2z"/>
<path class="st58" d="M221.4,55.5c0,0.9-0.3,1.8-0.9,2.5c-0.6,0.7-1.3,1.2-2.1,1.6c-0.8,0.4-1.7,0.7-2.6,0.9
	c-0.8,0.1-1.6,0.2-2.3,0.2c-1,0-2.1-0.1-3.1-0.2c-0.1,0.2-0.3,0.4-0.6,0.5c-0.3,0.1-0.6,0.2-0.9,0.1c-0.4,0-0.9-0.1-1.2-0.3
	c-0.3-0.4-0.5-0.9-0.5-1.4c-0.6-0.2-1.1-0.8-1.1-1.4c-0.1-0.6,0.2-1.1,0.7-1.3c0-0.4,0-0.8,0.1-1.2c0-0.3,0-0.6,0-0.9
	c0-0.1,0-0.2-0.1-0.3l-0.2-0.2c-0.1-0.1-0.1-0.1-0.2-0.2c-0.1-0.1-0.1-0.2-0.1-0.4c0-0.2,0.1-0.5,0.3-0.6c0.1-0.1,0.2-0.3,0.3-0.5
	v-7c0-0.2,0.1-0.5,0.2-0.6c0.1-0.2,0.3-0.5,0.5-0.6c0.2-0.2,0.4-0.3,0.7-0.5c0.7-0.3,1.5-0.2,2.1,0.2c0.2,0.4,0.4,1,0.4,1.5
	c0.4-0.6,1-1.2,1.6-1.6c0.7-0.5,1.5-0.8,2.4-0.8c0.7,0,1.3,0.1,1.9,0.4c0.6,0.3,1.1,0.6,1.6,1c0.8,0.5,1.4,1.2,2,1.9
	c0.5,0.7,0.7,1.5,0.6,2.3c0,0.8-0.2,1.5-0.6,2.2c-0.5,0.8-1.1,1.4-1.9,1.8c0.8,0.2,1.6,0.6,2.3,1.2C221.1,54,221.4,54.7,221.4,55.5z
	 M217.8,55.3c0-0.1,0-0.3-0.1-0.4c-0.1-0.2-0.3-0.3-0.5-0.4c-0.4-0.1-0.8-0.2-1.1-0.3c-0.7-0.1-1.3-0.1-2-0.1
	c-1.1,0-2.3,0.1-3.4,0.2v2.8c0.4,0.2,0.9,0.3,1.4,0.4c0.5,0.1,1,0.1,1.5,0.1c0.7,0,1.4,0,2.1-0.2c0.5-0.1,0.9-0.3,1.3-0.5
	c0.3-0.2,0.5-0.4,0.7-0.7C217.7,55.9,217.7,55.6,217.8,55.3z M217.5,48.3c0-0.7-0.3-1.4-0.9-1.8c-0.6-0.5-1.3-0.7-2-0.7
	c-0.6,0-1.3,0.2-1.7,0.7c-0.5,0.5-0.9,1-1.2,1.6c-0.6,1.2-1,2.5-1,3.8c1.2,0,2.4-0.1,3.6-0.3c0.7-0.1,1.4-0.3,2.1-0.7
	c0.4-0.2,0.8-0.6,0.9-1.1C217.4,49.3,217.5,48.8,217.5,48.3z"/>
<path class="st58" d="M238.3,52.3c0.1,2.2-0.6,4.5-1.8,6.3c-1.2,1.9-3.4,3-5.6,3c-2.1,0.1-4.2-0.8-5.4-2.5c-1.2-1.7-1.8-3.8-1.7-5.9
	c0-2.5,0.6-4.9,1.9-7c1.4-2.6,3.3-3.9,5.5-3.9c1,0.1,1.9,0.4,2.7,0.9C236.8,45.2,238.3,48.2,238.3,52.3z M234.7,52.3
	c0-4.2-1-6.3-3-6.3c-1.4,0-2.5,0.9-3.3,2.7c-0.6,1.4-0.8,3-0.8,4.5c0,3.6,1.1,5.4,3.2,5.5c1.4,0,2.7-0.9,3.1-2.2
	C234.5,55.1,234.8,53.7,234.7,52.3L234.7,52.3z"/>
<path class="st58" d="M254.9,50.7c0.1,2.4-0.4,4.9-1.5,7.1c-1.2,2.5-3.1,3.8-5.6,3.8c-1.2,0-2.5-0.4-3.4-1.2v2.5
	c-0.1,2.1,0.2,4.2,0.9,6.2c0.2,0.4,0.3,0.7,0.4,1.2c0,0.9-0.5,1.4-1.6,1.4c-0.6,0-1.3-0.1-1.8-0.4c-0.5-0.6-0.8-1.3-0.9-2
	c-0.2-0.8-0.3-1.6-0.4-2.4v-9.9c0-0.9,0.1-2.1,0.2-3.7c0.1-1.8,0.2-3,0.2-3.6s0-1.6,0-2.7V44c0-2.3,0.8-3.5,2.3-3.5
	c0.4,0,0.8,0.1,1.1,0.4c0.3,0.2,0.5,0.6,0.5,0.9c0,0.6-0.1,1.7-0.2,3.3c0.8-1.4,2.3-2.2,3.9-2.2c1.9-0.1,3.7,0.9,4.7,2.5
	C254.4,46.9,254.9,48.8,254.9,50.7z M251.2,50.3c0-2.9-0.6-4.4-1.9-4.4c-0.6,0-1.3,0.5-2.1,1.6c-1.7,2-2.6,4.9-2.8,8.5
	c0.6,0.5,1.2,1.1,1.6,1.7c0.4,0.6,1.1,1,1.8,1.1C250.1,58.8,251.2,56,251.2,50.3z"/>
<path class="st58" d="M257.7,56.7v-3.6c0-1.2,0-2.4,0.1-3.5s0.1-2.1,0.1-3s0.1-1.7,0.2-2.2c0.1-0.2,0.2-0.4,0.3-0.6
	c0.2-0.2,0.4-0.4,0.7-0.6c0.3-0.2,0.5-0.3,0.8-0.5c0.2-0.1,0.5-0.2,0.8-0.2c0.2,0,0.4,0.1,0.6,0.2c0.2,0.1,0.4,0.2,0.6,0.4
	c0.2,0.2,0.3,0.3,0.5,0.5c0.1,0.1,0.2,0.3,0.2,0.5c0,0.2,0,0.4-0.1,0.6c0,0.3-0.1,0.6-0.2,0.9c-0.2,0.6-0.4,1.2-0.5,1.8
	c-0.2,0.8-0.4,1.9-0.5,3.2c-0.1,1-0.3,2-0.4,3c-0.1,1-0.2,2.1-0.2,3.2c0,0.2,0.1,0.4,0.3,0.4c0.2,0,0.3-0.1,0.5-0.1
	c0.3-0.2,0.5-0.4,0.6-0.7c0.5-0.9,0.9-1.7,1.3-2.4c0.4-0.7,0.7-1.4,1-2.1c0.3-0.7,0.5-1.4,0.8-2.1c0.2-0.7,0.5-1.5,0.7-2.3
	c0.2-0.8,0.5-1.6,0.8-2.3c0.2-0.5,0.5-1,0.8-1.4c0.3-0.3,0.6-0.6,1-0.7c0.5-0.1,0.9-0.2,1.4-0.2c1.7,0,2.5,0.5,2.5,1.4
	c0,0.1,0,0.3-0.1,0.4c-0.1,0.2-0.2,0.4-0.2,0.6c-0.3,1.8-0.5,3.6-0.5,5.5c0,1.6-0.1,3.2-0.1,4.8c0,2.2,0.4,3.9,1.3,4.9
	c-0.3,0.3-0.6,0.6-0.9,0.8c-0.3,0.1-0.7,0.2-1.1,0.2c-0.6,0-1.1-0.2-1.5-0.6c-0.4-0.4-0.7-0.9-0.9-1.4c-0.2-0.6-0.4-1.3-0.4-2
	c-0.1-0.7-0.1-1.4-0.1-2c0-0.7,0-1.3,0.1-2c0.1-0.7,0.2-1.4,0.3-2.1s0.2-1.2,0.3-1.8c0.1-0.3,0.1-0.7,0.1-1c0-0.1,0-0.2-0.1-0.2
	s-0.3,0.3-0.6,0.8s-0.5,1.2-0.8,1.9s-0.5,1.4-0.8,2s-0.4,1-0.5,1.2c-0.6,1.5-1.2,2.6-1.6,3.5c-0.4,0.7-0.8,1.4-1.3,2
	c-0.3,0.4-0.7,0.8-1.2,1c-0.4,0.2-0.9,0.3-1.4,0.2c-0.9,0.1-1.8-0.3-2.3-1C257.8,58.9,257.6,57.8,257.7,56.7z"/>
<path class="st58" d="M290,44.2c-0.1,0.3-0.2,0.5-0.4,0.7c-0.3,0.3-0.7,0.5-1.2,0.7c-0.8,0.2-1.6,0.4-2.4,0.4
	c-0.9,0.1-1.7,0.1-2.3,0.2v7.1c0,0.3,0,0.8,0.1,1.5s0.1,1.3,0.2,1.9s0.2,1,0.2,1.4s0,0.7,0.1,1c0,0.5-0.3,0.9-0.6,1.2
	c-0.4,0.3-0.8,0.5-1.3,0.5c-0.7,0-1.3-0.6-1.7-1.8c-0.2-0.7-0.4-1.4-0.5-2.1c-0.2-1.2-0.2-2.5-0.2-3.8v-6.8l-2.9,0.2
	c-0.7,0-1.5,0-2.2-0.3c-0.6-0.2-0.9-0.5-0.9-1c0-0.6,0.4-1.1,0.9-1.3c0.7-0.3,1.4-0.4,2.2-0.5l9.6-0.7c0.8-0.1,1.7,0,2.5,0.3
	C289.7,43.1,290,43.6,290,44.2z"/>
<path class="st58" d="M304.2,56.8c0,1.4-0.9,2.4-2.8,3.2c-1.4,0.6-3,0.9-4.5,0.9c-4.2,0-6.3-2.4-6.3-7.2c0-2.3,0.5-4.5,1.4-6.6
	c1.2-2.9,2.6-4.4,4.3-4.4c1.8,0.1,3.5,0.8,4.9,2c1.7,1.3,2.6,2.7,2.6,4.2c0,1.8-0.9,3.4-2.4,4.3c-1.5,1-3.3,1.5-5.1,1.4
	c-0.7-0.1-1.3-0.3-1.8-0.7c0.1,2.6,0.9,3.9,2.3,3.9c1.2,0,2.5-0.4,3.5-1c0.7-0.5,1.4-0.8,2.2-1C303.7,55.8,304.2,56.2,304.2,56.8z
	 M299.8,49.1c0-0.7-0.2-1.4-0.6-2c-0.3-0.6-0.9-0.9-1.6-0.9c-0.9,0-1.7,0.4-2.1,1.2c-0.4,0.7-0.6,1.6-0.6,2.4c0,0.5,0.2,0.9,0.5,1.3
	c0.4,0.3,0.9,0.5,1.4,0.5C298.8,51.5,299.8,50.7,299.8,49.1z"/>
<path class="st58" d="M310.6,45.2c0-0.3,0.1-0.7,0.2-1c0.3-0.3,0.6-0.5,1.1-0.6c0.4-0.1,0.7-0.3,1.1-0.5c0.4-0.2,0.8-0.3,1.3-0.3
	c0.2,0,0.3,0,0.5,0.1h0.5c0.3,0,0.7,0,1-0.1l1.2-0.1c0.4,0,0.8-0.1,1.2-0.1l0.8-0.1l0.9-0.1l0.8-0.1h0.5c0.2,0,0.4,0.1,0.6,0.2
	c0.2,0.1,0.5,0.3,0.7,0.5c0.2,0.2,0.4,0.3,0.6,0.5c0.1,0.2,0.2,0.4,0.2,0.6c0,0.1,0,0.2-0.1,0.3l-0.2,0.3c-0.1,0.1-0.2,0.3-0.2,0.4
	c-0.1,0.2-0.1,0.4-0.2,0.7c-0.2,1.6-0.3,3.1-0.4,4.7s-0.1,3-0.1,4.4c0,0.9,0.1,1.9,0.3,2.8c0.2,0.7,0.4,1.3,0.8,1.9
	c-0.2,0.4-0.6,0.7-0.9,0.9c-0.3,0.2-0.7,0.2-1,0.2c-0.4,0-0.9,0-1.3-0.2c-0.4-0.2-0.7-0.5-0.9-0.8c-0.3-0.5-0.4-1.1-0.5-1.7
	c-0.1-0.9-0.2-1.8-0.2-2.7c0-1,0-1.9,0.1-2.8s0.1-1.7,0.2-2.4s0.2-1.5,0.2-2.2s0.1-1.4,0.1-2c0-0.1-0.1-0.2-0.3-0.2s-0.6,0-1.3,0
	c-0.5,0-0.9,0-1.4,0.1c-0.5,0.1-0.7,0.1-0.7,0.2c0.1,1.3,0.1,2.5,0.1,3.5s0.1,1.9,0.1,2.8c0,1.1,0,2.1-0.1,3.2
	c-0.1,0.9-0.2,1.8-0.4,2.7c-0.1,0.6-0.3,1.2-0.7,1.7c-0.3,0.4-0.7,0.7-1.2,1c-0.4,0.3-0.9,0.4-1.4,0.5c-0.5,0.1-1,0.2-1.5,0.2
	c-1,0-2.1-0.3-3-0.9c-0.5-0.3-0.9-0.7-1.2-1.2c-0.3-0.5-0.5-1.1-0.5-1.8c0-0.5,0.1-0.9,0.5-1.3c0.3-0.3,0.7-0.5,1.2-0.4
	c0.4,0,0.8,0.2,1,0.5c0.2,0.4,0.4,0.7,0.5,1.1c0.1,0.4,0.3,0.8,0.5,1.2c0.1,0.3,0.4,0.5,0.7,0.5c0.5,0,0.9-0.7,1.3-2.2
	c0.4-2.1,0.6-4.3,0.6-6.5v-3.3H312c-0.4,0-0.8-0.3-1-0.7C310.7,46.2,310.6,45.7,310.6,45.2z"/>
<path class="st58" d="M331.9,45.1c-0.2,0.7-0.3,1.3-0.4,2c-0.1,1.1-0.2,2.2-0.2,3.4c0.4,0,0.8,0,1.2-0.1c0.4,0,0.9,0,1.3,0
	c1,0,1.9,0.1,2.8,0.4c0.9,0.3,1.8,0.7,2.7,1.2c0.5,0.3,0.9,0.6,1.2,0.8c0.3,0.2,0.5,0.4,0.8,0.7c0.2,0.2,0.3,0.5,0.4,0.8
	c0.1,0.4,0.1,0.7,0.1,1.1c0,0.8-0.3,1.6-0.8,2.2c-0.5,0.7-1.2,1.2-1.9,1.6c-0.8,0.5-1.7,0.8-2.6,1c-0.9,0.2-1.8,0.3-2.7,0.3
	c-0.4,0-0.7,0-1.1-0.1c-0.4-0.1-0.9-0.2-1.3-0.3c-0.2,0.2-0.4,0.4-0.7,0.5c-0.4,0.2-0.9,0.3-1.3,0.3c-0.4,0-0.8,0-1.1-0.2
	c-0.2-0.4-0.4-0.8-0.4-1.2c0-0.2-0.1-0.3-0.2-0.4c-0.1-0.1-0.3-0.2-0.4-0.3c-0.1-0.1-0.3-0.2-0.4-0.3c-0.1-0.2-0.2-0.4-0.2-0.6
	c0-0.2,0-0.4,0.1-0.6c0.1-0.1,0.2-0.3,0.3-0.4c0.1-0.1,0.2-0.2,0.3-0.3c0.1-0.2,0.1-0.3,0.1-0.5v-2.9c0-0.2-0.1-0.5-0.3-0.6
	c-0.2-0.2-0.3-0.4-0.3-0.7c0-0.3,0.1-0.6,0.3-0.8c0.2-0.2,0.3-0.5,0.3-0.8c0-1.4,0-2.8,0.2-4.1c0.1-0.8,0.2-1.6,0.4-2.3
	c0.1-0.5,0.3-0.9,0.6-1.3c0.3-0.4,0.8-0.6,1.4-0.6c0.3,0,0.5,0,0.8,0.1c0.3,0.1,0.6,0.2,0.9,0.3c0.3,0.1,0.5,0.3,0.7,0.5
	c0.2,0.2,0.3,0.4,0.3,0.7c0,0.1-0.1,0.3-0.4,0.4C332.2,44.4,332,44.8,331.9,45.1z M338.4,55.3c0-0.7-0.5-1.4-1.2-1.6
	c-1-0.4-2.2-0.6-3.3-0.5h-1c-0.3,0-0.6,0-0.9,0.1c-0.2,0-0.5,0.1-0.7,0.2c-0.2,0.1-0.3,0.2-0.3,0.4v3.3c0,0.1,0.1,0.2,0.3,0.3
	c0.2,0.1,0.4,0.2,0.6,0.2c0.3,0.1,0.6,0.1,0.9,0.2c0.3,0,0.6,0.1,0.9,0.1c0.5,0,1.1-0.1,1.6-0.2c0.5-0.1,1-0.3,1.5-0.5
	c0.4-0.2,0.8-0.5,1.1-0.8C338.3,56.1,338.4,55.7,338.4,55.3z"/>
<path class="st58" d="M358.5,45.7c-0.3,0.5-0.5,1-0.5,1.6c-0.1,1.1-0.2,2.3-0.2,3.5c0,0.1,0.1,0.2,0.2,0.3l0.3,0.2
	c0.1,0.1,0.2,0.2,0.3,0.3c0.1,0.2,0.2,0.4,0.1,0.7c0,0.3-0.1,0.5-0.2,0.8c-0.1,0.2-0.2,0.3-0.4,0.5l-0.3,0.3
	c-0.1,0.1-0.2,0.2-0.1,0.3v0.9c0,0.4,0.1,0.8,0.1,1.2c0.1,0.4,0.1,0.8,0.2,1.2c0,0.3,0.1,0.6,0.2,0.9c0,0.2,0.1,0.3,0.2,0.5
	c0.1,0.1,0.1,0.3,0.1,0.4c0,0.5-0.2,0.9-0.5,1.3c-0.3,0.4-0.7,0.6-1.2,0.6c-0.4,0-0.8-0.2-1-0.5c-0.3-0.4-0.5-0.8-0.6-1.2
	c-0.2-0.5-0.3-1-0.4-1.6c-0.1-0.6-0.2-1.1-0.2-1.6s-0.1-0.8-0.2-1.2s-0.2-0.5-0.4-0.5c-0.6,0-1.1,0.1-1.7,0.2
	c-0.7,0.1-1.3,0.3-1.9,0.5c-0.5,0.1-1.1,0.3-1.6,0.6c-0.4,0.2-0.6,0.4-0.6,0.6c0,0.6,0,1.1,0.1,1.7c0,0.5,0.2,1,0.6,1.4
	c-0.1,0.6-0.4,1.2-1,1.5c-0.4,0.2-0.9,0.3-1.3,0.4c-0.6,0-1.1-0.7-1.4-2c-0.4-2.1-0.5-4.3-0.5-6.5v-4.5c0-1.1,0.1-2.2,0.3-3.2
	c0.1-0.7,0.3-1.4,0.8-1.9c0.4-0.5,1-0.7,1.6-0.6c0.2,0,0.5,0.1,0.7,0.2c0.2,0.1,0.5,0.2,0.7,0.4c0.2,0.2,0.4,0.4,0.5,0.6
	c0.1,0.2,0.2,0.5,0.2,0.7c0,0.3-0.1,0.6-0.2,0.9c-0.1,0.3-0.2,0.6-0.3,0.9c-0.2,0.8-0.3,1.6-0.4,2.5c-0.2,1.3-0.2,2.7-0.3,4
	c0,0.3,0.1,0.5,0.5,0.5c0.3-0.1,0.5-0.1,0.8-0.2c0.6-0.1,1.2-0.3,2-0.5s1.4-0.4,2-0.6s1-0.4,1-0.7c0.1-1,0.1-2,0.1-3
	c0-0.9,0-1.8,0.1-2.8c0-0.7,0.2-1.4,0.5-2c0.3-0.5,0.9-0.8,1.5-0.8c0.7-0.1,1.4,0.1,1.9,0.6c0.3,0.2,0.5,0.6,0.6,0.9
	c0,0.3,0,0.5-0.1,0.8C358.9,45.2,358.7,45.4,358.5,45.7z"/>
<path class="st58" d="M366.6,45.1c-0.2,0.7-0.3,1.3-0.4,2c-0.1,1.1-0.2,2.2-0.2,3.4c0.4,0,0.8,0,1.2-0.1c1.4-0.1,2.8,0.1,4.1,0.4
	c0.9,0.3,1.8,0.7,2.7,1.2c0.5,0.3,0.9,0.6,1.2,0.8c0.3,0.2,0.5,0.4,0.8,0.7c0.2,0.3,0.3,0.5,0.4,0.8c0.1,0.4,0.1,0.7,0.1,1.1
	c0,0.8-0.3,1.6-0.8,2.2c-0.5,0.6-1.2,1.2-1.9,1.6c-0.8,0.5-1.7,0.8-2.6,1c-0.9,0.2-1.8,0.3-2.7,0.3c-0.4,0-0.7,0-1.1-0.1
	c-0.4-0.1-0.9-0.2-1.3-0.3c-0.2,0.2-0.4,0.4-0.7,0.5c-0.4,0.2-0.9,0.3-1.3,0.3c-0.4,0-0.8,0-1.1-0.2c-0.2-0.4-0.4-0.8-0.4-1.2
	c0-0.2-0.1-0.3-0.2-0.4c-0.1-0.1-0.3-0.2-0.4-0.3c-0.1-0.1-0.3-0.2-0.4-0.3c-0.1-0.2-0.2-0.4-0.2-0.6c0-0.2,0-0.4,0.1-0.6
	c0.1-0.1,0.2-0.3,0.3-0.4c0.1-0.1,0.2-0.2,0.3-0.3c0.1-0.2,0.1-0.3,0.1-0.5v-2.9c0-0.2-0.1-0.5-0.3-0.6c-0.2-0.2-0.3-0.4-0.3-0.7
	c0-0.3,0.1-0.6,0.3-0.8c0.2-0.2,0.3-0.5,0.3-0.8c0-1.4,0-2.8,0.2-4.1c0.1-0.8,0.2-1.6,0.4-2.3c0.1-0.5,0.3-0.9,0.6-1.3
	c0.3-0.4,0.8-0.6,1.4-0.6c0.3,0,0.5,0,0.8,0.1c0.3,0.1,0.6,0.2,0.9,0.3c0.3,0.1,0.5,0.3,0.7,0.5c0.2,0.2,0.3,0.4,0.3,0.7
	c0,0.1-0.1,0.3-0.4,0.4C366.9,44.5,366.7,44.8,366.6,45.1z M373.1,55.3c0-0.7-0.5-1.4-1.2-1.6c-1-0.4-2.2-0.6-3.3-0.5h-1
	c-0.3,0-0.6,0-0.9,0.1c-0.2,0-0.5,0.1-0.7,0.2c-0.2,0.1-0.3,0.2-0.3,0.4v3.3c0,0.1,0.1,0.2,0.3,0.3c0.2,0.1,0.4,0.2,0.6,0.2
	c0.3,0.1,0.6,0.1,0.9,0.2c0.3,0,0.6,0.1,0.9,0.1c0.5,0,1.1-0.1,1.6-0.2c0.5-0.1,1-0.3,1.5-0.5c0.4-0.2,0.8-0.5,1.1-0.8
	C372.9,56.1,373.1,55.7,373.1,55.3L373.1,55.3z M383.4,45.1c0,0.7-0.2,1.3-0.3,2c-0.2,0.7-0.3,1.3-0.3,2v8.2c0,0.8,0.2,1.6,0.5,2.4
	c-0.3,0.5-0.8,0.8-1.4,0.9c-1.9,0-2.8-0.8-2.8-2.5V44c0.6-0.3,1.2-0.5,1.8-0.6c0.6,0,1.1,0.2,1.6,0.5
	C383.1,44.3,383.5,44.7,383.4,45.1L383.4,45.1z"/>
<path class="st58" d="M385.9,56.7v-3.6c0-1.2,0-2.4,0.1-3.5s0.1-2.1,0.1-3c0-0.7,0.1-1.5,0.2-2.2c0-0.2,0.2-0.4,0.3-0.6
	c0.2-0.2,0.4-0.4,0.7-0.6c0.3-0.2,0.5-0.3,0.8-0.5c0.2-0.1,0.5-0.2,0.8-0.2c0.2,0,0.4,0.1,0.6,0.2c0.2,0.1,0.4,0.2,0.6,0.4
	c0.2,0.2,0.3,0.3,0.5,0.5c0.1,0.1,0.2,0.3,0.2,0.5c0,0.2,0,0.4-0.1,0.6c0,0.3-0.1,0.6-0.2,0.9c-0.2,0.6-0.3,1.2-0.5,1.8
	c-0.2,0.8-0.4,1.9-0.5,3.2c-0.1,1-0.3,2-0.4,3c-0.1,1.1-0.2,2.1-0.2,3.2c0,0.2,0.1,0.4,0.3,0.4c0.2,0,0.3-0.1,0.5-0.1
	c0.3-0.2,0.5-0.4,0.6-0.7c0.5-0.9,0.9-1.7,1.3-2.4c0.4-0.7,0.7-1.4,1-2.1c0.3-0.7,0.5-1.4,0.8-2.1c0.2-0.7,0.5-1.5,0.7-2.3
	s0.5-1.7,0.8-2.3c0.2-0.5,0.5-1,0.8-1.4c0.3-0.3,0.6-0.6,1-0.7c0.5-0.1,0.9-0.2,1.4-0.2c1.7,0,2.5,0.5,2.5,1.4c0,0.1,0,0.3-0.1,0.4
	c-0.1,0.2-0.2,0.4-0.2,0.6c-0.3,1.8-0.5,3.6-0.5,5.5c0,1.6-0.1,3.2-0.1,4.8c0,2.2,0.4,3.9,1.3,4.9c-0.3,0.3-0.6,0.6-0.9,0.8
	c-0.3,0.1-0.7,0.2-1.1,0.2c-0.6,0-1.1-0.2-1.5-0.6c-0.4-0.4-0.7-0.9-0.9-1.4c-0.2-0.6-0.4-1.3-0.4-1.9c-0.1-0.7-0.1-1.4-0.1-2
	c0-0.7,0-1.3,0.1-2c0.1-0.7,0.2-1.4,0.3-2.1s0.2-1.2,0.3-1.8c0.1-0.3,0.1-0.7,0.1-1c0-0.1,0-0.2-0.1-0.2s-0.3,0.3-0.6,0.8
	s-0.5,1.2-0.8,1.9s-0.5,1.4-0.8,2s-0.4,1-0.5,1.2c-0.6,1.5-1.2,2.6-1.6,3.5c-0.4,0.7-0.8,1.4-1.3,2c-0.3,0.4-0.7,0.7-1.2,0.9
	c-0.4,0.2-0.9,0.3-1.4,0.2c-0.9,0.1-1.8-0.3-2.3-1C386.1,58.9,385.8,57.8,385.9,56.7z M399.2,37.7c0,1-0.7,1.9-2,2.5
	c-2.1,0.9-4.6,0.9-6.7,0c-1.3-0.6-2-1.4-2-2.5c0-0.7,0.5-1,1.4-1c0.6,0,1,0.2,1.2,0.5c0.2,0.3,0.3,0.6,0.5,0.9
	c0.6,0.4,1.4,0.5,2.1,0.5c0.8,0.1,1.6-0.1,2.3-0.5l0.5-0.9c0.2-0.3,0.6-0.5,1.2-0.5C398.7,36.7,399.2,37,399.2,37.7z"/>
<path class="st58" d="M423.2,69.2c0,0.4-0.2,0.7-0.5,0.9c-0.5,0.3-1.1,0.4-1.7,0.3c-0.5,0-0.9-0.3-1.1-0.7c-0.3-0.6-0.5-1.2-0.7-1.9
	c-0.2-0.9-0.3-1.8-0.4-2.7c-0.1-1-0.1-2.1-0.2-3.2c0-0.5-0.3-0.8-0.9-0.9c-1.2-0.1-2.4-0.5-3.5-1c-0.9-0.4-1.7-1.1-2.4-1.8
	c-0.6-0.7-1-1.5-1.3-2.3c-0.3-0.9-0.4-1.8-0.4-2.7c0-1.3,0.2-2.7,0.6-3.9c0.4-1.1,0.9-2.2,1.7-3.2c0.7-0.9,1.5-1.7,2.5-2.3
	c1-0.6,2-1,3.1-1.3c0.2-0.1,0.4-0.2,0.5-0.4c0.1-0.2,0.2-0.4,0.2-0.7v-5.1c0-0.5,0-1.1-0.2-1.6c-0.1-0.4-0.2-0.8-0.2-1.2
	c0-0.2,0.1-0.3,0.3-0.4c0.2-0.1,0.4-0.2,0.6-0.3c0.2-0.1,0.5-0.1,0.7-0.2c0.2,0,0.4-0.1,0.6-0.1c0.3,0,0.6,0.1,0.8,0.2
	c0.3,0.1,0.5,0.3,0.8,0.5c0.2,0.2,0.4,0.4,0.6,0.7c0.1,0.2,0.2,0.5,0.2,0.8c0,0.3,0,0.7-0.1,1s-0.1,1-0.2,1.7s-0.2,1.4-0.2,2.1
	s-0.1,1.5-0.1,2.2c0,0.2,0,0.4,0.1,0.5c0.1,0.2,0.3,0.3,0.5,0.3c1.2,0.4,2.3,0.9,3.5,1.5c0.9,0.4,1.7,1,2.3,1.8
	c0.7,0.8,1.1,1.7,1.3,2.6c0.3,1.4,0.4,2.7,0.4,4.1c0,0.8-0.2,1.7-0.4,2.5c-0.3,0.9-0.8,1.7-1.4,2.5c-0.7,0.8-1.5,1.5-2.4,2.1
	c-1,0.6-2.2,1-3.4,1.2c-0.3,0-0.6,0.2-0.7,0.5c-0.1,0.3-0.1,0.6-0.1,0.9c0,0.8,0,1.7,0.1,2.6c0,0.8,0.1,1.6,0.4,2.3
	c0.1,0.3,0.2,0.5,0.4,0.8C423.1,68.5,423.2,68.8,423.2,69.2z M414.1,53.4c0,1.1,0.3,2.2,1,3.1c0.7,0.9,1.7,1.4,2.8,1.6
	c0.2,0,0.3-0.1,0.5-0.2c0.2-0.1,0.3-0.3,0.2-0.5V47c0-0.2-0.1-0.3-0.2-0.4c-0.1-0.1-0.3-0.1-0.4-0.1h-0.3c-1.1,0.4-2.1,1.2-2.6,2.2
	C414.3,50.2,414,51.8,414.1,53.4L414.1,53.4z M426.9,52.6c0.1-1.7-0.3-3.4-1.2-4.8c-0.6-1-1.7-1.6-2.9-1.6c-0.1,0-0.3,0-0.4,0.1
	c-0.2,0.1-0.2,0.3-0.2,0.5c0,1.2-0.1,2.4-0.1,3.5s-0.1,2.1-0.1,3s0,1.7,0,2.4v1.6c0,0.5,0.2,0.7,0.5,0.7h0.2
	c1.2-0.2,2.3-0.8,3.1-1.7C426.5,55.2,426.9,53.9,426.9,52.6L426.9,52.6z"/>
<path class="st58" d="M447.5,52.3c0.1,2.2-0.6,4.5-1.8,6.3c-1.2,1.9-3.4,3-5.6,3c-2.1,0.1-4.2-0.8-5.5-2.5c-1.2-1.7-1.8-3.8-1.7-5.9
	c0-2.5,0.6-4.9,1.8-7c1.4-2.6,3.3-3.9,5.5-3.9c1,0.1,1.9,0.4,2.7,0.9C446,45.2,447.5,48.2,447.5,52.3z M443.9,52.3
	c0-4.2-1-6.3-3-6.3c-1.5,0-2.5,0.9-3.3,2.7c-0.6,1.4-0.8,3-0.8,4.5c0,3.6,1.1,5.4,3.2,5.5c1.4,0,2.7-0.9,3.1-2.2
	C443.7,55.1,443.9,53.7,443.9,52.3z"/>
<path class="st58" d="M464.2,45.7c-0.3,0.5-0.5,1-0.5,1.6c-0.2,1.1-0.2,2.3-0.2,3.5c0,0.1,0,0.2,0.1,0.3c0.1,0.1,0.2,0.2,0.3,0.2
	c0.1,0.1,0.2,0.2,0.3,0.3c0.1,0.2,0.2,0.4,0.1,0.7c0,0.3-0.1,0.5-0.2,0.8c-0.1,0.2-0.2,0.3-0.4,0.5l-0.3,0.3
	c-0.1,0.1-0.2,0.2-0.1,0.3v0.9c0,0.4,0.1,0.8,0.1,1.2c0.1,0.4,0.1,0.8,0.2,1.2c0,0.3,0.1,0.6,0.2,0.9c0,0.2,0.1,0.3,0.2,0.5
	c0.1,0.1,0.1,0.3,0.1,0.4c0,0.5-0.2,0.9-0.5,1.3c-0.3,0.4-0.7,0.6-1.2,0.6c-0.4,0-0.8-0.2-1-0.5c-0.3-0.4-0.5-0.8-0.6-1.2
	c-0.2-0.5-0.3-1-0.3-1.6c-0.1-0.6-0.2-1.1-0.2-1.6s-0.1-0.8-0.2-1.2s-0.2-0.5-0.4-0.5c-0.6,0-1.1,0.1-1.7,0.2
	c-0.7,0.1-1.3,0.3-1.9,0.5c-0.5,0.1-1.1,0.3-1.6,0.6c-0.4,0.2-0.6,0.4-0.6,0.6c0,0.5,0,1.1,0.1,1.6c0,0.5,0.2,1,0.6,1.4
	c-0.1,0.6-0.4,1.2-1,1.5c-0.4,0.2-0.9,0.3-1.3,0.4c-0.6,0-1.1-0.7-1.4-2c-0.4-2.1-0.5-4.3-0.5-6.5v-4.5c0-1.1,0.1-2.2,0.3-3.2
	c0.1-0.7,0.3-1.4,0.8-1.9c0.4-0.4,0.9-0.7,1.5-0.6c0.2,0,0.5,0.1,0.7,0.2c0.2,0.1,0.5,0.2,0.7,0.4c0.2,0.2,0.4,0.4,0.5,0.6
	c0.1,0.2,0.2,0.5,0.2,0.7c0,0.3-0.1,0.6-0.2,0.9c-0.1,0.3-0.2,0.6-0.3,0.9c-0.2,0.8-0.3,1.6-0.4,2.5c-0.2,1.3-0.2,2.7-0.3,4
	c0,0.3,0.1,0.5,0.5,0.5c0.3-0.1,0.5-0.1,0.8-0.2c0.6-0.1,1.2-0.3,2-0.5s1.4-0.4,2-0.6s1-0.4,1-0.7c0.1-1,0.1-2,0.1-3
	c0-0.9,0-1.8,0.1-2.8c0-0.7,0.2-1.4,0.5-2c0.3-0.5,0.9-0.8,1.5-0.8c0.7-0.1,1.4,0.1,1.9,0.6c0.3,0.2,0.5,0.6,0.6,0.9
	c0,0.3,0,0.5-0.1,0.8C464.6,45.2,464.4,45.4,464.2,45.7z"/>
<path class="st58" d="M466.9,59.8c0-0.2,0-0.5,0-0.7c0-0.2,0.1-0.4,0.3-0.6c0.2-0.2,0.4-0.3,0.6-0.4c0.4-0.1,0.8-0.2,1.2-0.2
	c0.5-0.8,0.8-1.7,1-2.6c0.3-1.1,0.5-2.3,0.8-3.5s0.4-2.4,0.5-3.6s0.2-2,0.3-2.7c0-0.9,0.3-1.7,0.9-2.3c0.5-0.4,1-0.6,1.6-0.6h3.3
	l2.2,0.1c0.6,0,1.1,0,1.7,0.1c0.3,0,0.6,0.1,0.9,0.3c0.2,0.1,0.4,0.3,0.5,0.5c0.1,0.2,0.2,0.4,0.2,0.6c0,0.2,0.1,0.4,0.1,0.5
	l-0.1,0.5c-0.1,0.2-0.2,0.4-0.4,0.6c-0.1,1.2-0.2,2.4-0.3,3.6s-0.1,2.5-0.1,3.8v2c0,0.7,0.1,1.3,0.2,2c0.4,0,0.7,0.1,1,0.3
	c0.3,0.2,0.4,0.5,0.6,0.8c0.1,0.3,0.2,0.7,0.2,1v1.1c0,1-0.2,2.1-0.5,3.1c-0.1,0.4-0.3,0.8-0.6,1.2c-0.2,0.3-0.4,0.5-0.8,0.5
	c-0.4,0-0.8-0.1-1.2-0.2c-0.3-0.1-0.6-0.4-0.6-0.8v-0.8c0-0.3,0-0.7,0-1c0-0.3,0-0.7,0-1v-0.8c-0.9,0-1.8,0-2.9,0s-2,0.1-3,0.1
	l-2.7,0.1c-0.7,0-1.3,0.1-2,0.1c0,0.2,0,0.4,0.1,0.6c0.1,0.3,0.1,0.7,0.1,1s0.1,0.7,0.1,1s0.1,0.6,0.1,0.7c-0.1,0.2-0.3,0.4-0.5,0.5
	c-0.3,0.2-0.7,0.3-1.1,0.3c-0.3,0-0.5,0-0.8-0.1c-0.4-0.1-0.7-0.3-1-0.6c0-0.2-0.1-0.6-0.2-1.1s-0.1-0.9-0.1-1.4s-0.1-0.9-0.1-1.3
	S466.9,60,466.9,59.8z M475,46c-0.1,0.8-0.1,1.7-0.3,2.7s-0.3,2-0.5,3s-0.4,2.1-0.7,3.1c-0.2,0.9-0.5,1.8-0.8,2.7l1.4-0.1
	c0.5,0,1.1,0,1.7-0.1h3.1c-0.1-0.8-0.2-1.6-0.2-2.5v-7.2c0-0.5,0-1.1,0.1-1.7L475,46z"/>
<path class="st58" d="M499.4,40.4c0,0.3-0.1,0.6-0.3,0.9l-3.9,5.1l2.2,2.6c1,1.1,1.7,2.5,1.9,4c0,0.7-0.3,1-0.8,1
	c-0.4,0-0.8-0.2-1.1-0.5c-1-1.1-1.9-2.3-2.7-3.5c-0.9-1-1.6-2.1-2.2-3.3c0-0.3,0.2-0.6,0.5-0.7l4.5-6.6c0.2-0.1,0.4-0.2,0.6-0.2
	c0.4,0,0.7,0.2,0.9,0.5C499.2,39.8,499.4,40.1,499.4,40.4z M505.2,54.1c0,0.7-0.3,1-0.8,1c-0.4,0-0.8-0.2-1.1-0.5
	c-1.1-1.3-2.1-2.7-3-4.1c-1.6-2.4-2.5-3.7-2.5-4c0-0.3,0.2-0.6,0.5-0.7l4.5-6.6c0.2-0.1,0.4-0.2,0.6-0.2c0.4,0,0.7,0.2,0.9,0.5
	c0.2,0.3,0.3,0.6,0.4,1c0,0.4-0.6,1.4-1.8,2.9c-0.8,1-1.6,2-2.4,3l2.4,2.9C504.4,51.3,505.2,53,505.2,54.1z"/>
<path class="st58" d="M529.9,53.2c0,1.3-0.6,2-1.8,2c0.2,0.9,0.5,1.7,0.9,2.5c0,0.6-0.3,1.1-0.7,1.5c-0.5,0.4-1,0.6-1.6,0.6
	c-0.6,0-1.2-0.2-1.7-0.5c-0.4-0.8-0.6-1.7-0.5-2.5v-2.1c0,0.2-0.5,0.3-1.3,0.3c-1.5,0-3.3,0.1-5.4,0.2c-3,0.2-4.6,0.4-4.9,0.7
	s-0.4,1.8-0.5,4.4c-0.3,0.5-0.8,0.8-1.4,0.8c-0.7,0-1.3-0.3-1.8-0.7c-0.5-0.3-0.9-0.9-0.9-1.5c0.2-0.8,0.4-1.6,0.7-2.3
	c0.5-1.9,1.4-4.8,2.7-8.7c3.7-10,6.7-15,9.1-15c2.4,0,4.3,2.6,5.5,7.9c0.8,3.6,1.3,7.3,1.6,10.9c0.5,0.1,0.9,0.2,1.3,0.4
	C529.7,52.3,530,52.7,529.9,53.2z M524.2,51.6c-1.2-9.5-2.3-14.3-3.2-14.3c-0.8,0-2.1,2.2-4,6.7c-1.4,3.2-2.5,6-3.2,8.4
	c0.9-0.2,2.2-0.4,3.9-0.7C519.8,51.5,522,51.5,524.2,51.6z"/>
<path class="st58" d="M537.1,45.2c0-0.3,0.1-0.7,0.2-1c0.3-0.3,0.6-0.5,1.1-0.6c0.4-0.1,0.7-0.3,1.1-0.5c0.4-0.2,0.8-0.3,1.3-0.3
	c0.2,0,0.3,0,0.5,0.1h0.5c0.3,0,0.7,0,1-0.1l1.2-0.1c0.4,0,0.8-0.1,1.2-0.1l0.8-0.1l0.9-0.1l0.8-0.1h0.5c0.2,0,0.4,0.1,0.6,0.2
	c0.2,0.1,0.5,0.3,0.7,0.5c0.2,0.2,0.4,0.4,0.5,0.6c0.1,0.2,0.2,0.4,0.2,0.6c0,0.1,0,0.2-0.1,0.3l-0.2,0.3c-0.1,0.1-0.2,0.3-0.2,0.4
	c-0.1,0.2-0.1,0.4-0.2,0.7c-0.2,1.6-0.3,3.1-0.4,4.7s-0.1,3-0.1,4.4c0,0.9,0.1,1.9,0.3,2.8c0.2,0.7,0.4,1.3,0.8,1.9
	c-0.2,0.4-0.6,0.7-0.9,0.9c-0.3,0.2-0.7,0.2-1,0.2c-0.4,0-0.9-0.1-1.3-0.2c-0.4-0.2-0.7-0.5-0.9-0.8c-0.3-0.5-0.4-1.1-0.5-1.7
	c-0.1-0.9-0.2-1.8-0.2-2.7c0-1,0-1.9,0.1-2.8s0.1-1.7,0.2-2.4s0.2-1.5,0.2-2.2s0.1-1.4,0.2-2c0-0.1-0.1-0.2-0.3-0.2h-1.3
	c-0.5,0-0.9,0-1.4,0.1c-0.5,0.1-0.7,0.1-0.7,0.2c0.1,1.3,0.1,2.5,0.1,3.5s0.1,1.9,0.1,2.8c0,1.1,0,2.1-0.1,3.2
	c-0.1,0.9-0.2,1.8-0.4,2.7c-0.1,0.6-0.3,1.2-0.7,1.7c-0.6,0.8-1.6,1.4-2.6,1.6c-0.5,0.1-1,0.2-1.5,0.2c-1,0-2.1-0.3-3-0.9
	c-0.5-0.3-0.9-0.7-1.2-1.2c-0.3-0.5-0.5-1.1-0.5-1.8c0-0.5,0.1-0.9,0.5-1.3c0.3-0.3,0.7-0.5,1.2-0.5c0.4,0,0.8,0.2,1,0.5
	c0.2,0.4,0.4,0.7,0.5,1.1c0.2,0.4,0.3,0.8,0.5,1.2c0.1,0.3,0.4,0.5,0.7,0.5c0.5,0,0.9-0.7,1.3-2.2c0.4-2.1,0.6-4.3,0.6-6.5v-3.4
	h-0.2c-0.4,0-0.8-0.3-1-0.7C537.2,46.2,537.1,45.7,537.1,45.2z"/>
<path class="st58" d="M558.3,45.1c-0.2,0.7-0.3,1.3-0.3,2c-0.1,1.1-0.2,2.2-0.2,3.4c0.4,0,0.8,0,1.2-0.1c0.4,0,0.9,0,1.3,0
	c1,0,1.9,0.1,2.8,0.4c0.9,0.3,1.8,0.7,2.7,1.2c0.5,0.3,0.9,0.6,1.2,0.8c0.3,0.2,0.5,0.4,0.8,0.7c0.2,0.2,0.3,0.5,0.4,0.8
	c0.1,0.4,0.1,0.7,0.1,1.1c0,0.8-0.3,1.6-0.8,2.2c-0.5,0.7-1.2,1.2-1.9,1.6c-0.8,0.5-1.7,0.8-2.6,1c-0.9,0.2-1.8,0.2-2.7,0.2
	c-0.4,0-0.7,0-1.1-0.1c-0.4-0.1-0.8-0.2-1.3-0.3c-0.2,0.2-0.4,0.4-0.7,0.5c-0.4,0.2-0.9,0.3-1.3,0.3c-0.4,0-0.8,0-1.1-0.2
	c-0.2-0.4-0.4-0.8-0.4-1.2c0-0.2-0.1-0.3-0.2-0.4c-0.1-0.1-0.3-0.2-0.4-0.3c-0.1-0.1-0.3-0.2-0.4-0.3c-0.1-0.2-0.2-0.4-0.2-0.6
	c0-0.2,0-0.4,0.1-0.6c0.1-0.1,0.2-0.3,0.3-0.4c0.1-0.1,0.2-0.2,0.3-0.3c0.1-0.2,0.1-0.3,0.1-0.5v-2.7c0-0.2-0.1-0.5-0.3-0.6
	c-0.2-0.2-0.3-0.4-0.3-0.7c0-0.3,0.1-0.6,0.3-0.8c0.2-0.2,0.3-0.5,0.3-0.8c0-1.4,0-2.8,0.2-4.1c0.1-0.8,0.2-1.6,0.4-2.3
	c0.1-0.5,0.3-0.9,0.6-1.3c0.3-0.4,0.8-0.6,1.4-0.6c0.3,0,0.5,0,0.8,0.1c0.3,0.1,0.6,0.2,0.9,0.3c0.3,0.1,0.5,0.3,0.7,0.5
	c0.2,0.2,0.3,0.4,0.3,0.7c0,0.1-0.1,0.3-0.4,0.4C558.6,44.4,558.4,44.8,558.3,45.1z M564.9,55.3c0-0.7-0.5-1.4-1.2-1.6
	c-1-0.4-2.2-0.6-3.3-0.5h-0.9c-0.3,0-0.6,0-0.9,0.1c-0.2,0-0.5,0.1-0.7,0.2c-0.2,0.1-0.3,0.2-0.3,0.4v3.3c0,0.1,0.1,0.2,0.3,0.3
	c0.2,0.1,0.4,0.2,0.7,0.2c0.3,0.1,0.6,0.1,0.9,0.2c0.3,0,0.6,0.1,0.9,0.1c0.5,0,1.1-0.1,1.6-0.2c0.5-0.1,1-0.3,1.5-0.5
	c0.4-0.2,0.8-0.5,1.1-0.8C564.7,56.1,564.9,55.7,564.9,55.3L564.9,55.3z"/>
<path class="st58" d="M585.5,44.8c0,0.3,0,0.6-0.2,0.9c-0.1,0.2-0.3,0.4-0.5,0.5c-0.2,1.9-0.3,3.5-0.4,4.9s-0.2,2.6-0.2,3.8
	c0,0.7,0,1.3,0.1,2c0,0.4,0.1,0.8,0.2,1.2c0.1,0.2,0.1,0.5,0.2,0.7c0,0.1,0.1,0.2,0.1,0.3c0,0.2-0.1,0.3-0.2,0.4
	c-0.1,0.2-0.3,0.3-0.5,0.4c-0.2,0.1-0.4,0.2-0.7,0.3c-0.2,0.1-0.4,0.1-0.6,0.1c-0.4,0-0.9,0-1.3-0.1c-0.4-0.1-0.7-0.3-1-0.7
	c-0.1-0.4-0.1-0.8-0.1-1.2c0-0.5,0-1-0.1-1.5s0-1.1,0-1.7v-1.6c0-1.3,0-2.5,0.1-3.8s0.1-2.6,0.2-3.9c0-0.1-0.2-0.2-0.5-0.3
	c-0.4-0.1-0.9-0.1-1.3-0.1c-0.8,0-1.6,0.1-2.4,0.3c-0.6,0.2-1,0.5-1.1,0.7c-0.1,0.5-0.2,1-0.2,1.5s-0.1,1.1-0.1,1.7s0,1.3-0.1,2.2
	s0,1.8,0,3c0,1,0,1.8,0.1,2.4s0.1,1.1,0.1,1.5s0.1,0.7,0.2,0.8c0,0.1,0,0.3,0.1,0.5c0,0.3-0.1,0.7-0.4,0.9c-0.2,0.2-0.5,0.3-0.8,0.3
	c-0.7,0.1-1.5-0.2-2.1-0.6c-0.5-0.5-0.7-1.1-0.7-1.8c0-0.4,0-0.9-0.1-1.5s0-1.2,0-1.8v-3.6c0-1,0-1.9,0.1-3s0.1-1.8,0.1-2.4
	c0-0.2,0-0.3-0.1-0.5c0-0.1-0.1-0.2-0.1-0.3c0-0.1-0.1-0.3-0.1-0.4c-0.1-0.2-0.1-0.4-0.1-0.6c0-0.4,0.2-0.8,0.5-1
	c0.1,0,0.2-0.1,0.4-0.1l0.6-0.1l1.1-0.1l1.8-0.2l2.7-0.3c1.3-0.1,2.7-0.2,4-0.2c0.9-0.1,1.8,0.1,2.6,0.5
	C585.4,43.6,585.6,44.2,585.5,44.8z"/>
<path class="st58" d="M602.6,53.5c0,2.5-0.1,5-0.3,7.5c-0.1,0.8-0.7,1.3-1.7,1.3c-1.5,0-2.2-0.8-2-2.3c-1.3,0.6-2.8,1-4.2,1
	c-1.4,0-2.8-0.4-4.1-1.1c-1.5-0.8-2.3-1.9-2.3-3.2s0.9-2.5,2.6-3.6c1.3-0.9,2.8-1.4,4.4-1.5h3.5v-1c0-2.9-0.8-4.3-2.5-4.3
	c-2.2,0-3.2,1-3.2,3c0,0.7-0.4,1-1.2,1c-0.5,0-1.1-0.3-1.5-0.6c-0.4-0.3-0.7-0.8-0.8-1.3c0-1.4,0.6-2.8,1.6-3.7
	c1.1-1,2.5-1.5,3.9-1.5C600,43,602.6,46.5,602.6,53.5z M598.5,54.9c0-0.5-0.4-0.8-1.2-0.8c-3.4,0-5.1,0.8-5.1,2.4
	c0,0.9,0.8,1.3,2.2,1.3c0.9,0,1.8-0.3,2.6-0.8C597.8,56.7,598.4,55.9,598.5,54.9z"/>
<path class="st58" d="M619.3,50.7c0.1,2.4-0.4,4.9-1.5,7.1c-1.2,2.5-3.1,3.8-5.5,3.8c-1.2,0-2.5-0.4-3.4-1.2v2.5
	c-0.1,2.1,0.2,4.2,0.9,6.2c0.2,0.4,0.3,0.7,0.4,1.2c0,0.9-0.5,1.4-1.6,1.4c-0.6,0-1.3-0.1-1.8-0.4c-0.5-0.6-0.8-1.3-0.9-2
	c-0.2-0.8-0.3-1.6-0.4-2.4v-9.9c0-0.9,0.1-2.1,0.2-3.7c0.1-1.8,0.2-3,0.2-3.6s0-1.6,0-2.7V44c0-2.3,0.8-3.5,2.3-3.5
	c0.4,0,0.8,0.1,1.1,0.4c0.3,0.2,0.5,0.6,0.5,0.9c0,0.6-0.1,1.7-0.2,3.3c0.8-1.4,2.3-2.2,3.8-2.2c1.9-0.1,3.7,0.9,4.7,2.5
	C618.9,46.9,619.4,48.8,619.3,50.7z M615.7,50.3c0-2.9-0.6-4.4-1.9-4.4c-0.5,0-1.3,0.5-2.1,1.6c-1.7,2-2.6,4.9-2.8,8.5
	c0.6,0.5,1.2,1.1,1.6,1.7c0.4,0.6,1.1,1,1.8,1.1C614.5,58.8,615.7,56,615.7,50.3L615.7,50.3z"/>
<path class="st58" d="M622.2,56.7v-3.6c0-1.2,0-2.4,0.1-3.5s0.1-2.1,0.1-3c0-0.7,0.1-1.5,0.2-2.2c0-0.2,0.2-0.4,0.3-0.6
	c0.2-0.2,0.4-0.4,0.7-0.6c0.3-0.2,0.5-0.3,0.8-0.5c0.2-0.1,0.5-0.2,0.8-0.2c0.2,0,0.4,0.1,0.6,0.2c0.2,0.1,0.4,0.2,0.6,0.4
	c0.2,0.1,0.3,0.3,0.5,0.5c0.1,0.1,0.2,0.3,0.2,0.5c0,0.2,0,0.4-0.1,0.6c0,0.3-0.1,0.6-0.2,0.9c-0.2,0.6-0.3,1.2-0.5,1.8
	c-0.2,0.8-0.3,1.9-0.5,3.2c-0.1,1-0.3,2-0.4,3c-0.1,1.1-0.2,2.1-0.2,3.2c0,0.2,0.1,0.4,0.3,0.4c0.2,0,0.3-0.1,0.5-0.1
	c0.3-0.2,0.5-0.4,0.6-0.7c0.5-0.9,0.9-1.7,1.3-2.4c0.4-0.7,0.7-1.4,1-2.1s0.5-1.4,0.8-2.1s0.5-1.5,0.7-2.3s0.5-1.7,0.8-2.3
	c0.2-0.5,0.5-1,0.8-1.4c0.3-0.3,0.6-0.6,1-0.7c0.5-0.1,0.9-0.2,1.4-0.2c1.7,0,2.5,0.5,2.5,1.4c0,0.1,0,0.3-0.1,0.4
	c-0.1,0.2-0.2,0.4-0.2,0.6c-0.3,1.8-0.5,3.6-0.5,5.5c0,1.6-0.1,3.2-0.1,4.8c0,2.2,0.4,3.9,1.3,4.9c-0.3,0.3-0.6,0.6-0.9,0.8
	c-0.3,0.1-0.7,0.2-1.1,0.2c-0.6,0-1.1-0.2-1.5-0.6c-0.4-0.4-0.7-0.9-0.9-1.4c-0.2-0.6-0.4-1.3-0.4-1.9c-0.1-0.7-0.1-1.4-0.1-2
	c0-0.7,0-1.3,0.2-2c0.1-0.7,0.2-1.4,0.3-2.1s0.2-1.2,0.3-1.8c0.1-0.3,0.1-0.7,0.2-1c0-0.1,0-0.2-0.1-0.2s-0.3,0.3-0.6,0.8
	s-0.5,1.2-0.8,1.9s-0.5,1.4-0.8,2c-0.1,0.4-0.3,0.8-0.5,1.2c-0.6,1.5-1.2,2.6-1.6,3.5c-0.4,0.7-0.8,1.4-1.3,2
	c-0.3,0.4-0.7,0.8-1.2,1c-0.4,0.2-0.9,0.3-1.4,0.2c-0.9,0.1-1.8-0.3-2.3-1C622.3,58.9,622.1,57.8,622.2,56.7z"/>
<path class="st58" d="M647.3,46.3c0,0.3-0.2,0.6-0.5,0.7l-4.5,7c-0.2,0.1-0.4,0.2-0.7,0.2c-0.4,0-0.7-0.2-0.9-0.5
	c-0.2-0.3-0.4-0.6-0.4-1c0-0.4,0.6-1.4,1.8-3.1c0.8-1.1,1.6-2.1,2.4-3.2c-0.8-1.1-1.6-2.2-2.5-3.3c-1.2-1.8-1.8-2.8-1.8-3.2
	c0-0.7,0.4-1,1.2-1c0.3,0,0.5,0.1,0.7,0.2c1,1.1,2,2.3,2.8,3.6C646,43.8,646.7,45,647.3,46.3z M652.6,46.3c0,0.3-0.2,0.6-0.5,0.7
	l-4.1,6.6c-0.2,0.1-0.4,0.2-0.7,0.2c-0.4,0-0.7-0.2-0.9-0.5c-0.2-0.3-0.4-0.6-0.4-1c0-0.4,1.3-2.3,3.8-5.9c-2.6-3.6-3.9-5.6-3.9-6
	c0-0.7,0.4-1,1.2-1c0.3,0,0.5,0.1,0.7,0.2c0.9,1,1.8,2.1,2.6,3.2C651.3,44,652,45.1,652.6,46.3L652.6,46.3z"/>
<path class="st59" d="M260.8,96.1v-3.6c0-1.2,0-2.4,0.1-3.5s0.1-2.1,0.1-3s0.1-1.6,0.2-2.2c0.1-0.2,0.2-0.4,0.3-0.6
	c0.2-0.2,0.4-0.4,0.7-0.6c0.3-0.2,0.5-0.3,0.8-0.5c0.2-0.1,0.5-0.2,0.8-0.2c0.2,0,0.4,0.1,0.6,0.1c0.2,0.1,0.4,0.2,0.6,0.4
	c0.2,0.1,0.3,0.3,0.5,0.5c0.1,0.1,0.2,0.3,0.2,0.5c0,0.2,0,0.4-0.1,0.6c0,0.3-0.1,0.6-0.2,0.9c-0.2,0.6-0.4,1.2-0.5,1.8
	c-0.2,0.8-0.3,1.9-0.5,3.2c-0.1,1-0.3,1.9-0.4,3c-0.1,1-0.2,2.1-0.2,3.2c0,0.2,0.1,0.4,0.3,0.4c0.2,0,0.3-0.1,0.5-0.2
	c0.3-0.2,0.5-0.4,0.6-0.7c0.5-0.9,0.9-1.7,1.3-2.4s0.7-1.4,1-2.1c0.3-0.7,0.5-1.4,0.8-2.1c0.2-0.7,0.5-1.5,0.7-2.3
	c0.2-0.8,0.5-1.6,0.8-2.3c0.2-0.5,0.5-1,0.8-1.4c0.3-0.3,0.6-0.6,1-0.7c0.5-0.1,0.9-0.2,1.4-0.2c1.7,0,2.5,0.5,2.5,1.4
	c0,0.1,0,0.3-0.1,0.4c-0.1,0.2-0.2,0.4-0.2,0.6c-0.3,1.8-0.5,3.7-0.5,5.5c0,1.6-0.1,3.2-0.1,4.8c0,2.2,0.4,3.9,1.3,4.9
	c-0.3,0.3-0.6,0.6-0.9,0.8c-0.3,0.1-0.7,0.2-1.1,0.2c-0.6,0-1.1-0.2-1.5-0.6c-0.4-0.4-0.7-0.9-0.9-1.4c-0.2-0.6-0.4-1.3-0.4-1.9
	c-0.1-0.7-0.1-1.4-0.1-2c0-0.7,0-1.3,0.1-2c0.1-0.7,0.2-1.4,0.3-2.1s0.2-1.3,0.3-1.8c0.1-0.3,0.1-0.7,0.1-1c0-0.1,0-0.2-0.1-0.2
	c-0.1,0-0.3,0.3-0.6,0.8s-0.5,1.2-0.8,1.9s-0.5,1.4-0.8,2s-0.4,1-0.5,1.2c-0.6,1.4-1.2,2.6-1.6,3.5c-0.4,0.7-0.8,1.4-1.3,2
	c-0.3,0.4-0.7,0.8-1.2,1c-0.4,0.2-0.9,0.3-1.4,0.2c-0.9,0.1-1.8-0.3-2.3-1C260.9,98.3,260.7,97.2,260.8,96.1z"/>
<path class="st59" d="M293.1,83.5c-0.1,0.3-0.2,0.5-0.4,0.7c-0.3,0.3-0.7,0.5-1.2,0.7c-0.8,0.2-1.6,0.4-2.4,0.4
	c-0.8,0-1.5,0.1-2.3,0.2v7.1c0,0.3,0,0.8,0.1,1.4c0,0.6,0.1,1.3,0.2,1.9c0.1,0.5,0.2,1,0.2,1.4s0,0.7,0.1,1c0,0.5-0.3,0.9-0.6,1.2
	c-0.4,0.3-0.8,0.5-1.3,0.5c-0.7,0-1.3-0.6-1.7-1.8c-0.2-0.7-0.4-1.4-0.5-2.1c-0.2-1.3-0.2-2.5-0.2-3.8v-6.8l-2.9,0.2
	c-0.7,0-1.5-0.1-2.2-0.3c-0.6-0.2-0.9-0.5-0.9-0.9c0-0.6,0.4-1.1,0.9-1.3c0.7-0.3,1.4-0.4,2.2-0.5l9.6-0.7c0.8-0.1,1.7,0,2.5,0.3
	C292.8,82.5,293.1,82.9,293.1,83.5z"/>
<path class="st59" d="M308.5,91.7c0.1,2.2-0.6,4.4-1.9,6.3c-1.2,1.9-3.4,3-5.6,3c-2.1,0.1-4.1-0.8-5.5-2.4c-1.2-1.7-1.8-3.8-1.7-5.9
	c0-2.5,0.6-4.9,1.9-7c1.4-2.6,3.3-3.9,5.5-3.9c1,0.1,1.9,0.4,2.7,0.9C307,84.5,308.5,87.5,308.5,91.7z M304.9,91.6
	c0-4.2-1-6.3-3-6.3c-1.5,0-2.5,0.9-3.3,2.7c-0.6,1.4-0.8,3-0.8,4.6c0,3.6,1.1,5.4,3.2,5.4c1.4,0,2.7-0.9,3.1-2.2
	C304.7,94.4,305,93,304.9,91.6z"/>
<path class="st59" d="M323.1,84.1c0.1,0.5,0,1-0.3,1.5c-0.3,0.3-0.7,0.4-1.1,0.3c-0.6,0-1.1-0.2-1.6-0.4c-0.8-0.3-1.7-0.4-2.5-0.4
	h-2c-0.5,0-0.9,0.1-0.9,0.3c-0.1,0.5-0.1,1-0.2,1.5c-0.1,0.5-0.1,1-0.1,1.6c0,0.6,0,1.2,0,2v2.9c0,0.9,0,1.8,0.1,2.8
	c0,1,0.2,2,0.4,3c-0.1,0.2-0.3,0.5-0.5,0.7c-0.2,0.2-0.4,0.2-0.7,0.2c-0.7,0.1-1.4-0.2-1.9-0.6c-0.4-0.5-0.7-1.2-0.7-1.8
	c0-1-0.1-2.1-0.1-3.4s0-2.3,0-3.3c0-2,0-4,0.1-6c-0.1-0.3-0.2-0.6-0.2-0.9v-0.7c0-0.2,0.1-0.4,0.3-0.5c0.4-0.3,0.8-0.4,1.2-0.5
	c0.9-0.2,1.9-0.3,2.8-0.4c1.2-0.1,2.9-0.2,5-0.2S323.1,82.5,323.1,84.1z"/>
<path class="st59" d="M325.4,96.1v-3.6c0-1.2,0-2.4,0.1-3.5s0.1-2.1,0.1-3s0.1-1.6,0.2-2.2c0-0.2,0.2-0.4,0.3-0.6
	c0.2-0.2,0.4-0.4,0.7-0.6c0.3-0.2,0.5-0.3,0.8-0.5c0.2-0.1,0.5-0.2,0.8-0.2c0.2,0,0.4,0.1,0.6,0.2c0.2,0.1,0.4,0.2,0.6,0.4
	c0.2,0.1,0.3,0.3,0.5,0.5c0.1,0.1,0.2,0.3,0.2,0.5c0,0.2,0,0.4-0.1,0.6c0,0.3-0.1,0.6-0.2,0.9c-0.2,0.6-0.4,1.2-0.5,1.8
	c-0.2,0.8-0.3,1.9-0.5,3.2c-0.1,1-0.3,1.9-0.4,3c-0.1,1.1-0.2,2.1-0.2,3.2c0,0.2,0.1,0.4,0.3,0.4c0.2,0,0.3-0.1,0.5-0.2
	c0.2-0.2,0.5-0.4,0.6-0.7c0.5-0.9,0.9-1.7,1.3-2.4s0.7-1.4,1-2.1c0.3-0.7,0.5-1.4,0.8-2.1c0.2-0.7,0.5-1.5,0.7-2.3
	c0.2-0.8,0.5-1.6,0.8-2.3c0.2-0.5,0.5-1,0.8-1.4c0.3-0.3,0.6-0.6,1-0.7c0.4-0.1,0.9-0.2,1.4-0.2c1.7,0,2.5,0.5,2.5,1.4
	c0,0.1,0,0.3-0.1,0.4c-0.1,0.2-0.2,0.4-0.2,0.6c-0.3,1.8-0.5,3.6-0.5,5.4c0,1.6-0.1,3.2-0.1,4.8c0,2.2,0.4,3.9,1.3,4.9
	c-0.3,0.3-0.6,0.6-0.9,0.8c-0.3,0.1-0.7,0.2-1.1,0.2c-0.6,0-1.1-0.2-1.5-0.6c-0.4-0.4-0.7-0.9-0.9-1.4c-0.2-0.6-0.4-1.3-0.4-1.9
	c-0.1-0.7-0.1-1.4-0.1-2c0-0.7,0-1.3,0.1-2c0.1-0.7,0.2-1.4,0.3-2.1s0.2-1.3,0.3-1.8c0.1-0.3,0.1-0.7,0.1-1c0-0.1,0-0.2-0.1-0.2
	c-0.1,0-0.3,0.3-0.6,0.8s-0.5,1.2-0.8,1.9s-0.5,1.4-0.8,2s-0.4,1-0.5,1.2c-0.6,1.4-1.2,2.6-1.6,3.5c-0.4,0.7-0.8,1.4-1.3,2
	c-0.3,0.4-0.7,0.8-1.2,1c-0.4,0.2-0.9,0.3-1.4,0.2c-0.9,0.1-1.8-0.3-2.3-1C325.6,98.3,325.3,97.2,325.4,96.1z"/>
<path class="st59" d="M371.4,97.2c0,0.4-0.2,0.8-0.4,1.1c-0.2,0.3-0.6,0.5-1,0.6c-0.5,0-1-0.1-1.5-0.2c-0.5-0.1-1-0.2-1.5-0.2
	c-4.4,0-8.7,0.7-12.9,2c-0.5,0.2-1.1,0.3-1.6,0.4c-0.6,0-1.2-0.2-1.7-0.6c-0.5-0.4-0.7-1-0.7-1.6c0.1-0.8,0.4-1.5,1-2.1
	c0.6-0.6,1.2-1.1,1.9-1.6c2.8-2.2,5.3-4.6,7.5-7.3c2.8-3.6,4.3-6.6,4.3-9.1c0-0.9-0.4-1.8-1.1-2.4c-0.7-0.6-1.6-0.9-2.6-0.9
	c-1.3,0.1-2.6,0.5-3.7,1.3c-1.2,0.7-2,1.7-2.5,3c-0.2,0.9-0.4,1.9-0.5,2.8c-0.3,1.2-0.9,1.8-1.7,1.8c-0.6-0.1-1.1-0.3-1.5-0.7
	c-0.6-0.5-0.9-0.9-0.9-1.3c0.1-1.9,0.9-3.8,2.3-5.2c1.2-1.5,2.7-2.8,4.4-3.7c1.4-0.7,2.9-1,4.4-1c1.9,0,3.7,0.7,5.1,2
	c1.4,1.2,2.2,3,2.2,4.9c0,2.9-1.4,5.9-4.3,9.2c-1,1.1-3.6,3.6-7.7,7.3c-0.4,0.3-0.7,0.6-1.1,1l13.4-2c0.1,0,0.3,0,0.5,0
	c0.6,0,1.2,0.3,1.5,0.8C371.2,95.9,371.4,96.5,371.4,97.2z"/>
<path class="st59" d="M397.2,85.2c0,3.6-1,7.1-3,10c-2.2,3.3-5.1,5-8.7,5c-3.2,0.1-6.2-1.3-8.2-3.8c-2-2.5-3-5.6-2.9-8.7
	c0-3.2,0.9-6.3,2.5-9c1.9-3.3,4.2-5.3,7-6c1.1-0.3,2.2-0.4,3.4-0.4c2.9,0,5.4,1.5,7.3,4.4C396.3,79.3,397.2,82.2,397.2,85.2z
	 M393.6,85.1c0.1-2.3-0.4-4.5-1.5-6.5c-1.1-2-3.2-3.3-5.5-3.2c-0.9,0-1.7,0.3-2.5,0.7c-2,1.2-3.5,2.9-4.4,5c-1,2.1-1.4,4.3-1.4,6.6
	c-0.1,2.2,0.6,4.4,1.9,6.2c1.4,1.7,3.6,2.7,5.8,2.6c2.6,0,4.6-1.3,6-4C393.1,90.3,393.7,87.7,393.6,85.1z"/>
<path class="st59" d="M421.8,97.2c0,0.4-0.2,0.8-0.4,1.1c-0.2,0.3-0.6,0.5-1,0.6c-0.5,0-1-0.1-1.5-0.2c-0.5-0.1-1-0.2-1.5-0.2
	c-4.4,0-8.7,0.7-12.9,2c-0.5,0.2-1.1,0.3-1.6,0.4c-0.6,0-1.2-0.2-1.7-0.6c-0.5-0.4-0.7-1-0.7-1.6c0-0.8,0.4-1.6,1-2.1
	c0.6-0.6,1.2-1.1,1.8-1.6c2.8-2.2,5.3-4.6,7.5-7.3c2.9-3.6,4.3-6.6,4.3-9.1c0-0.9-0.4-1.8-1.1-2.4c-0.7-0.6-1.7-0.9-2.6-0.9
	c-1.3,0.1-2.6,0.5-3.7,1.3c-1.1,0.7-2,1.7-2.5,3c-0.2,0.9-0.4,1.9-0.5,2.8c-0.3,1.2-0.9,1.8-1.7,1.8c-0.6-0.1-1.1-0.3-1.5-0.7
	c-0.6-0.5-0.9-0.9-0.9-1.3c0.1-1.9,0.9-3.8,2.2-5.2c1.2-1.5,2.7-2.8,4.4-3.7c1.4-0.7,2.9-1,4.4-1c1.9,0,3.7,0.7,5.1,2
	c1.4,1.2,2.2,3,2.2,4.9c0,2.9-1.5,5.9-4.4,9.2c-1,1.1-3.6,3.6-7.7,7.3c-0.4,0.3-0.7,0.6-1.1,1l13.4-2c0.1,0,0.3,0,0.5,0
	c0.6,0,1.2,0.3,1.5,0.8C421.6,95.9,421.8,96.5,421.8,97.2z"/>
<path class="st59" d="M431.6,74.3c-0.1,0.9-0.3,1.8-0.5,2.8c-0.7,3-1.1,6-1.2,9v8c0,2.1,0.1,3.3,0.3,3.6c0.3,0.4,0.5,0.8,0.7,1.3
	c0,0.4-0.2,0.7-0.5,1c-0.3,0.3-0.6,0.4-1,0.4c-0.8-0.1-1.6-0.3-2.3-0.7c-0.3-0.6-0.5-1.2-0.5-1.9v-17l-0.6-0.5v-1.2
	c0-1.4,0.3-2.9,0.9-4.2c0.7-2,1.5-3,2.5-3c0.6,0,1.2,0.4,1.6,0.8C431.3,73.1,431.6,73.7,431.6,74.3z"/>
<path class="st59" d="M453.9,84.1c0,0.5,0,1-0.3,1.5c-0.2,0.2-0.5,0.3-1.1,0.3c-0.6,0-1.1-0.2-1.6-0.4c-0.8-0.3-1.7-0.4-2.5-0.4h-2
	c-0.5,0-0.9,0.1-0.9,0.3c-0.1,0.5-0.1,1-0.2,1.5s-0.1,1-0.1,1.6s0,1.2,0,2v2.9c0,0.9,0,1.8,0.1,2.8c0.1,1,0.2,2,0.4,3
	c-0.1,0.2-0.3,0.5-0.5,0.7c-0.2,0.2-0.4,0.2-0.7,0.2c-0.7,0.1-1.4-0.2-1.9-0.6c-0.4-0.5-0.7-1.2-0.7-1.8c-0.1-1-0.1-2.1-0.1-3.4
	s0-2.3,0-3.3c0-2,0-4,0.1-6c-0.1-0.3-0.2-0.6-0.2-0.9v-0.7c0-0.2,0.1-0.4,0.3-0.5c0.4-0.3,0.8-0.4,1.2-0.5c0.9-0.2,1.9-0.3,2.8-0.4
	c1.2-0.1,2.9-0.2,5-0.2S453.9,82.5,453.9,84.1z"/>
<path class="st59" d="M470.6,91.7c0.1,2.2-0.6,4.4-1.8,6.3c-1.2,1.9-3.4,3-5.7,3c-2.1,0.1-4.1-0.8-5.4-2.4c-1.2-1.7-1.8-3.8-1.7-5.9
	c0-2.5,0.6-4.9,1.8-7c1.4-2.6,3.3-3.9,5.5-3.9c1,0.1,1.9,0.4,2.7,0.9C469,84.5,470.6,87.5,470.6,91.7z M467,91.6c0-4.2-1-6.3-3-6.3
	c-1.4,0-2.5,0.9-3.3,2.7c-0.6,1.4-0.8,3-0.8,4.6c0,3.6,1.1,5.4,3.2,5.4c1.4,0,2.7-0.9,3.1-2.2C466.8,94.4,467,93,467,91.6L467,91.6z
	"/>
<path class="st59" d="M472.5,99.1c0-0.2,0-0.5,0-0.7c0-0.2,0.1-0.4,0.3-0.6c0.2-0.2,0.4-0.3,0.6-0.4c0.4-0.1,0.8-0.2,1.2-0.2
	c0.5-0.8,0.8-1.7,1-2.6c0.3-1.1,0.6-2.3,0.8-3.5s0.4-2.4,0.5-3.6s0.2-2,0.3-2.7c0-0.9,0.3-1.7,0.9-2.3c0.5-0.4,1-0.6,1.6-0.6h3.2
	c0.8,0,1.5,0,2.2,0.1l1.7,0.1c0.3,0,0.6,0.1,0.9,0.3c0.2,0.1,0.4,0.3,0.5,0.5c0.1,0.2,0.2,0.4,0.2,0.6c0,0.2,0.1,0.4,0.1,0.6
	l-0.1,0.5c-0.1,0.2-0.2,0.4-0.4,0.6c-0.1,1.2-0.2,2.4-0.3,3.6c-0.1,1.2-0.1,2.4-0.1,3.8v2c0,0.7,0.1,1.3,0.2,2c0.4,0,0.7,0.1,1,0.3
	c0.3,0.2,0.5,0.5,0.6,0.8c0.1,0.3,0.2,0.7,0.2,1v1.1c0,0.5-0.1,1-0.1,1.5c-0.1,0.5-0.2,1-0.3,1.6c-0.1,0.4-0.3,0.8-0.6,1.2
	c-0.2,0.3-0.4,0.5-0.8,0.5c-0.4,0-0.8-0.1-1.2-0.2c-0.3-0.1-0.6-0.4-0.6-0.8v-3.6h-2.9l-3,0.1l-2.7,0.1c-0.7,0-1.3,0-2,0.1
	c0,0.2,0,0.4,0.1,0.6c0.1,0.3,0.1,0.7,0.1,1s0.1,0.7,0.1,1s0.1,0.6,0.1,0.7c-0.2,0.2-0.3,0.4-0.5,0.5c-0.3,0.2-0.7,0.3-1.1,0.3
	c-0.3,0-0.5,0-0.8-0.1c-0.4-0.1-0.8-0.3-1-0.6c0-0.2-0.1-0.6-0.2-1.1s-0.1-0.9-0.1-1.4s-0.1-0.9-0.1-1.3S472.5,99.3,472.5,99.1z
	 M480.6,85.3c0,0.8-0.1,1.7-0.3,2.7s-0.3,2-0.5,3s-0.4,2.1-0.7,3.1c-0.2,0.9-0.5,1.8-0.8,2.7l1.4-0.1l1.7-0.1h3.1
	c-0.1-0.8-0.2-1.6-0.2-2.5V87c0-0.4,0-1.1,0.1-1.7L480.6,85.3z"/>
<path class="st22" d="M164.9,441.4c-25.4-18.2-68.8-30.2-118.2-30.2c-15.7,0-31.4,1.2-46.7,3.7v26.4H164.9z"/>
<path class="st22" d="M595.3,441.4c-29.6-18.6-70.9-30.2-116.5-30.2s-86.9,11.6-116.5,30.2H595.3z"/>
<path class="st22" d="M297,441.4c-17.9-15.5-44.7-25.4-74.7-25.4s-56.8,9.9-74.7,25.4H297z"/>
<path class="st22" d="M445.1,441.4c-24-19.5-58-31.6-95.8-31.6s-71.8,12.2-95.8,31.6H445.1z"/>
<path class="st22" d="M746.1,441.4v-40.7c-9.2-0.7-18.7-1.1-28.3-1.1c-64.2,0-120.9,16.5-155.7,41.9H746.1z"/>
</svg>
