<svg xmlns="http://www.w3.org/2000/svg" viewBox="0 0 606.18 330.3"><defs><style>.cls-1{isolation:isolate;}.cls-2{fill:#383433;}.cls-3{fill:#d8d8d8;}.cls-4{fill:#aaa;}.cls-5{fill:#24bae3;}.cls-6{fill:#24e3c7;}.cls-7{fill:#ffc653;}.cls-8{fill:#d30053;}.cls-9{fill:#e8eced;mix-blend-mode:multiply;}.cls-10{fill:#f7b532;}.cls-11{fill:#cb0050;}.cls-12{fill:#41f6dc;}</style></defs><title>airship</title><g class="cls-1"><g id="Слой_2" data-name="Слой 2"><g id="Layer_1" data-name="Layer 1"><path class="cls-2" d="M394.23,326.85c0,1.91,1.85,3.45,4.11,3.45s4.09-1.54,4.09-3.45-1.83-3.45-4.09-3.45S394.23,324.94,394.23,326.85Z"/><ellipse class="cls-2" cx="294.57" cy="326.85" rx="4.09" ry="3.45"/><path class="cls-3" d="M282.36,323.65c0,1.77,1.7,3.2,3.8,3.2H408.4a3.53,3.53,0,0,0,3.79-3.2V305.89a3.53,3.53,0,0,0-3.79-3.2H286.16c-2.1,0-3.8,1.43-3.8,3.2Z"/><path class="cls-4" d="M282.36,308.61c0,1.77,1.7,3.2,3.8,3.2H408.4a3.53,3.53,0,0,0,3.79-3.2V290.36c0-1.78-1.69-3.2-3.79-3.2H286.16c-2.1,0-3.8,1.42-3.8,3.2Z"/><path class="cls-5" d="M399,312.3a2.73,2.73,0,0,0,2.93,2.47h0a2.73,2.73,0,0,0,2.92-2.47h0a2.73,2.73,0,0,0-2.92-2.46h0A2.72,2.72,0,0,0,399,312.3Z"/><path class="cls-5" d="M387.07,312.3a2.73,2.73,0,0,0,2.93,2.47h0a2.73,2.73,0,0,0,2.92-2.47h0a2.73,2.73,0,0,0-2.92-2.46h0a2.72,2.72,0,0,0-2.93,2.46Z"/><path class="cls-5" d="M375.11,312.3a2.72,2.72,0,0,0,2.93,2.47h0A2.72,2.72,0,0,0,381,312.3h0a2.72,2.72,0,0,0-2.91-2.46h0a2.72,2.72,0,0,0-2.93,2.46Z"/><path class="cls-5" d="M363.14,312.3a2.73,2.73,0,0,0,2.93,2.47h0A2.72,2.72,0,0,0,369,312.3h0a2.71,2.71,0,0,0-2.91-2.46h0a2.72,2.72,0,0,0-2.93,2.46Z"/><path class="cls-5" d="M351.18,312.3a2.71,2.71,0,0,0,2.91,2.47h0A2.75,2.75,0,0,0,357,312.3h0a2.74,2.74,0,0,0-2.94-2.46h0a2.7,2.7,0,0,0-2.91,2.46Z"/><path class="cls-5" d="M339.21,312.3a2.73,2.73,0,0,0,2.92,2.47h0a2.74,2.74,0,0,0,2.94-2.47h0a2.73,2.73,0,0,0-2.94-2.46h0a2.72,2.72,0,0,0-2.92,2.46Z"/><path class="cls-5" d="M327.25,312.3a2.72,2.72,0,0,0,2.92,2.47h0a2.73,2.73,0,0,0,2.92-2.47h0a2.73,2.73,0,0,0-2.92-2.46h0a2.71,2.71,0,0,0-2.92,2.46Z"/><path class="cls-5" d="M315.27,312.3a2.74,2.74,0,0,0,2.93,2.47h0a2.74,2.74,0,0,0,2.93-2.47h0a2.73,2.73,0,0,0-2.93-2.46h0a2.73,2.73,0,0,0-2.93,2.46Z"/><path class="cls-5" d="M303.32,312.3a2.72,2.72,0,0,0,2.91,2.47h0a2.72,2.72,0,0,0,2.92-2.47h0a2.71,2.71,0,0,0-2.92-2.46h0a2.72,2.72,0,0,0-2.91,2.46Z"/><path class="cls-5" d="M291.35,312.3a2.72,2.72,0,0,0,2.92,2.47h0a2.72,2.72,0,0,0,2.91-2.47h0a2.71,2.71,0,0,0-2.91-2.46h0a2.71,2.71,0,0,0-2.92,2.46Z"/><polygon class="cls-6" points="125.46 237.14 83.66 262.48 99.94 212.02 125.46 237.14"/><polygon class="cls-6" points="148.49 47.2 69.28 19 102.91 84.6 148.49 47.2"/><path class="cls-7" d="M76.41,150.1c0,82.9,118.6,150.1,264.88,150.1S606.18,233,606.18,150.1c0-15.77-4.29-31-12.25-45.24C560.06,44.07,459.76,0,341.29,0,216.77,0,112.31,48.69,84,114.3A90,90,0,0,0,76.41,150.1Z"/><path class="cls-8" d="M76.42,150.1C76.42,205.82,195,251,341.3,251S606.18,205.82,606.18,150.1,487.59,49.21,341.3,49.21,76.42,94.38,76.42,150.1Z"/><path class="cls-7" d="M76.42,150.1c0,25.44,118.6,46.06,264.88,46.06s264.88-20.62,264.88-46.06S487.59,104,341.3,104,76.42,124.66,76.42,150.1Z"/><path class="cls-9" d="M549.72,122.45a29.32,29.32,0,0,0,6.81.51A22.6,22.6,0,0,0,549.72,122.45Z"/><path class="cls-9" d="M500.74,233.5l-.48.25-4,.41a79.47,79.47,0,0,0,8.31-2.94C503.35,232,502.07,232.8,500.74,233.5Z"/><path class="cls-10" d="M323.89,250.75c59,17.94,118.47,24.56,172.85,20.84-43.7,18-97.46,28.58-155.45,28.58-146.25,0-264.9-67.13-264.9-150C76.39,203.56,185.76,247.33,323.89,250.75Z"/><path class="cls-10" d="M76.39,150.13A89.79,89.79,0,0,1,84,114.32,114,114,0,0,1,97.4,91.48c2.57,4.24,5.22,8.4,8.22,12.57C86.9,117.83,76.39,133.53,76.39,150.13Z"/><path class="cls-11" d="M76.39,150.13c0,15.77,45.91,29.76,115.72,38A466.19,466.19,0,0,0,293.7,240.47q15.1,5.59,30.19,10.28C185.76,247.33,76.39,203.56,76.39,150.13Z"/><path class="cls-11" d="M76.39,150.13c0-16.6,10.51-32.3,29.23-46.08a234.19,234.19,0,0,0,15.45,20.47C92.82,131.82,76.39,140.67,76.39,150.13Z"/><path class="cls-10" d="M76.39,150.13c0-9.46,16.43-18.31,44.68-25.61,19.06,22.77,42.88,44.36,71,63.63C122.3,179.89,76.39,165.9,76.39,150.13Z"/><polygon class="cls-6" points="131.98 178.33 6.59 196.16 76.42 153.59 131.98 178.33"/><polygon class="cls-6" points="0 48.34 80.89 131.55 104.56 111.08 104.58 111.08 131.98 87.4 0 48.34"/><polygon class="cls-12" points="0 48.34 104.56 111.08 104.58 111.08 131.98 87.4 0 48.34"/></g></g></g></svg>