<svg xmlns="http://www.w3.org/2000/svg" viewBox="0 0 564.64 128.92"><defs><style>.cls-1{fill:#d9f9ff;}</style></defs><title>animation-clouds</title><g id="Слой_2" data-name="Слой 2"><g id="Layer_1" data-name="Layer 1"><path class="cls-1" d="M131.76,53.64A23.54,23.54,0,0,0,111.7,42.41a24.51,24.51,0,0,0-6.62,1A28.5,28.5,0,0,0,53,53c-.41,0-.82-.07-1.25-.07a21.31,21.31,0,0,0,0,42.62h74.64a21.29,21.29,0,0,0,5.42-41.89Z"/><path class="cls-1" d="M418,17.19A17.08,17.08,0,0,0,403.46,9a17.81,17.81,0,0,0-4.81.7,20.68,20.68,0,0,0-37.84,7c-.3,0-.6-.06-.91-.06a15.47,15.47,0,1,0,0,30.94h54.19A15.45,15.45,0,0,0,418,17.19Z"/><path class="cls-1" d="M278.35,36.54A19.75,19.75,0,0,0,256.12,28a23.74,23.74,0,0,0-43.44,8c-.35,0-.69,0-1,0a17.76,17.76,0,1,0,0,35.51h62.2a17.75,17.75,0,0,0,4.51-34.92Z"/><path class="cls-1" d="M554.6,69.92a14.87,14.87,0,0,0-12.66-7.07,15.06,15.06,0,0,0-4.17.59,18,18,0,0,0-32.91,6.07c-.26,0-.51,0-.78,0a13.45,13.45,0,1,0,0,26.89h47.11a13.44,13.44,0,0,0,3.41-26.44Z"/><path class="cls-1" d="M96.54,106.17A7.52,7.52,0,1,1,89,98.65,7.51,7.51,0,0,1,96.54,106.17Z"/><path class="cls-1" d="M84.48,94a19.71,19.71,0,0,0-22.24-8.54,23.74,23.74,0,0,0-43.45,8c-.34,0-.69-.06-1-.06a17.76,17.76,0,1,0,0,35.51H80A17.75,17.75,0,0,0,84.48,94Z"/></g></g></svg>