<svg xmlns="http://www.w3.org/2000/svg" viewBox="0 0 138.31 59.64"><defs><style>.cls-1{fill:#bff3f7;}.cls-2{fill:#fff;}</style></defs><title>center_left_cloud</title><g id="Слой_2" data-name="Слой 2"><g id="BACKGROUND"><path class="cls-1" d="M66.45,15.21a11.66,11.66,0,0,0-3.31,3.67l-.2-.16a18.57,18.57,0,0,0-11.39-4.29,27.51,27.51,0,0,0-10.32,1.81,18.92,18.92,0,0,0-6.17,3.54,20.66,20.66,0,0,0-1-2.78Q30,7.7,20,7.36A32.87,32.87,0,0,0,10.2,8.87L9.68,9q-8,7.26-8.8,21.62L0,59.64A539.6,539.6,0,0,1,74.74,39.87q43.82-8.61,63.34-5.81c.69-2.42-.14-4.11-2.47-5.07a7.22,7.22,0,0,0-3-.53,9.8,9.8,0,0,0-2.87.66,18.15,18.15,0,0,0-2.55-2.28,15.45,15.45,0,0,0-5.26-2.6,20,20,0,0,0-6.41,1.62,37.92,37.92,0,0,0-8.09,5,6.52,6.52,0,0,0,0-.79,22.67,22.67,0,0,0-.76-6.24q-1.31-4.43-4.5-4.53a8.09,8.09,0,0,0-4.7,1.35A11.47,11.47,0,0,0,95,22.94a7.49,7.49,0,0,0-1-1.55q-2.55-3.08-8.21-3.26a12,12,0,0,0-3.47.36,10.59,10.59,0,0,0-.83-2.62,6.36,6.36,0,0,0-6-3.74A14.05,14.05,0,0,0,66.45,15.21Z"/><path class="cls-2" d="M83.34,7.61Q81,.2,75.13,0c-3.42-.11-6.92,2-10.47,6.27a30,30,0,0,0-5.18,8.79,8.27,8.27,0,0,0-.72-.82,11.84,11.84,0,0,0-8.41-3.39,17.62,17.62,0,0,0-11.63,3.63c-.47.37-.93.75-1.35,1.15-.22-.67-.45-1.28-.68-1.85Q32.63,4,22.87,3.68,16.09,3.44,10,8.7L9.68,9l.52-.14A32.87,32.87,0,0,1,20,7.36Q30,7.71,34.1,17a20.66,20.66,0,0,1,1,2.78,18.92,18.92,0,0,1,6.17-3.54,27.51,27.51,0,0,1,10.32-1.81,18.57,18.57,0,0,1,11.39,4.29l.2.16a11.66,11.66,0,0,1,3.31-3.67,14.05,14.05,0,0,1,9-3.08,6.36,6.36,0,0,1,6,3.74,10.59,10.59,0,0,1,.83,2.62,12,12,0,0,1,3.47-.36q5.66.18,8.21,3.26a7.49,7.49,0,0,1,1,1.55,11.47,11.47,0,0,1,2.59-2.31,8.09,8.09,0,0,1,4.7-1.35q3.19.11,4.5,4.53a22.67,22.67,0,0,1,.76,6.24,6.52,6.52,0,0,1,0,.79,37.92,37.92,0,0,1,8.09-5A20,20,0,0,1,122,24.24a11.43,11.43,0,0,0-2.67-.41,14.19,14.19,0,0,0-7.13,1.51,9.41,9.41,0,0,0-2.87,2.18v-.44a31.53,31.53,0,0,0-1.11-8.84c-1.06-3.67-2.78-5.55-5.14-5.63q-4.22-.13-8.92,4.52a5.08,5.08,0,0,0-.76-.78q-2.79-2.34-8.84-.89A26,26,0,0,0,83.34,7.61Z"/></g></g></svg>