<svg xmlns="http://www.w3.org/2000/svg" viewBox="0 0 141.33 80.6"><defs><style>.cls-1{fill:#bff3f7;}.cls-2{fill:#fff;}</style></defs><title>center_right_cloud</title><g id="Слой_2" data-name="Слой 2"><g id="BACKGROUND"><path class="cls-1" d="M111.63,9.56a17.28,17.28,0,0,0-12.79,4.7,16.83,16.83,0,0,0-4.57,7.29,29.94,29.94,0,0,0-3.75-.31,44.49,44.49,0,0,0-25.29,7.13,42,42,0,0,0-7.75,6.16A17.33,17.33,0,0,0,53,31.37,16.4,16.4,0,0,0,45.83,29a25.93,25.93,0,0,0-20,8.13,24.91,24.91,0,0,0-6,9,10.17,10.17,0,0,0-1.84-1,20.88,20.88,0,0,0-7.78-1.37,22.86,22.86,0,0,0-5,.4A13.36,13.36,0,0,0,0,49.72q1.59,1.62,12.27,2.17,2.46.09,23,.48,53,6,74.23,14.53Q125,73,139.92,80.6l1.35-64.19a14.32,14.32,0,0,0-5.81-2,20.46,20.46,0,0,0-7.32,1.09,19.62,19.62,0,0,0-3,1.34Q121.2,9.75,111.63,9.56Z"/><path class="cls-2" d="M63,7.7q-8.13-.18-15.71,6.82a25.2,25.2,0,0,0-7,10.36,16.16,16.16,0,0,0-3.75-.45q-7.06-.15-13,7.71A37,37,0,0,0,18,42.39a16.29,16.29,0,0,0-1.52-.59,12.66,12.66,0,0,0-2.32-.19,16.35,16.35,0,0,0-7.8,2l-1.13.63a22.86,22.86,0,0,1,5-.4,20.88,20.88,0,0,1,7.78,1.37,10.17,10.17,0,0,1,1.84,1,24.91,24.91,0,0,1,6-9,25.93,25.93,0,0,1,20-8.13A16.4,16.4,0,0,1,53,31.37a17.33,17.33,0,0,1,4.44,3.16,42,42,0,0,1,7.75-6.16,44.49,44.49,0,0,1,25.29-7.13,29.94,29.94,0,0,1,3.75.31,16.83,16.83,0,0,1,4.57-7.29,17.28,17.28,0,0,1,12.79-4.7q9.56.19,13.5,7.3a19.62,19.62,0,0,1,3-1.34,20.46,20.46,0,0,1,7.32-1.09,14.32,14.32,0,0,1,5.81,2l.06-2.74a14.42,14.42,0,0,0-6.1-1.67,23.49,23.49,0,0,0-10.08,1.88,37.58,37.58,0,0,0-2.26-5.2Q118.51.13,112.48,0,108.25-.09,100,5.73q-9.06,6.36-9.47,12.81-3.69-1.32-11.62,2.18-.47-6.79-5.5-10.11A18.86,18.86,0,0,0,63,7.7Z"/></g></g></svg>