<svg xmlns="http://www.w3.org/2000/svg" viewBox="0 0 518.5 383.25"><defs><style>.cls-1{fill:#e9fdff;}.cls-2{fill:#d0fbff;}.cls-3{fill:#b8f1f5;}</style></defs><title>center_cloud</title><g id="Слой_2" data-name="Слой 2"><g id="BACKGROUND"><g id="Layer0_0_FILL" data-name="Layer0 0 FILL"><path class="cls-1" d="M346.3,57.1A37.26,37.26,0,0,0,341,62.2q-5.51-5.89-15.5-5.9-9.1,0-13.35,2.75a16.52,16.52,0,0,0-2.8,2.3,27.62,27.62,0,0,0-5.4-9q-7.5-8.2-21.2-8.2-7.5,0-9.55.65a16.82,16.82,0,0,0-5.7,3.3A22.81,22.81,0,0,0,264.3,44q-6.75-7.2-18.15-7.2a34.15,34.15,0,0,0-17.3,4.75A28.49,28.49,0,0,0,216.2,56q-6.1-5.3-15.55-5.3a51.52,51.52,0,0,0-6.2.95l-2.25.45a54.32,54.32,0,0,0-2.8-10q-5.6-14.59-17.5-14.6-5.6,0-12.65,3.95a56.53,56.53,0,0,0-12.8,10A74.51,74.51,0,0,0,140,49,37.12,37.12,0,0,0,133,63.5a30.27,30.27,0,0,0-7-.7q-8.45,0-12,3a20.27,20.27,0,0,0-4.1,5.2c-1.07-1.13-2.23-2.3-3.5-3.5Q94.5,56.3,85.7,56.3A21.8,21.8,0,0,0,75,59.05a57.46,57.46,0,0,1,7.4-.4q12.8,0,23.7,12.5,1.5,1.75,2.85,3.55a23.1,23.1,0,0,1,3.6-3.15q5.5-3.75,16.65-3.75a27.88,27.88,0,0,1,8.95,1.5q1.83-5.93,7.75-13.25,1.2-1.47,2.55-3Q160.1,40,169.9,40t15.35,10.8a36.17,36.17,0,0,1,2.45,6.55,39.66,39.66,0,0,1,3.7-1.45,21.26,21.26,0,0,1,6.1-1.25q10.2,0,16.3,3.8a30.28,30.28,0,0,1,4.8,3.8q2-6.75,9.6-12.25,9.45-6.86,17.6-6.85,13.3,0,18.75,10.5c.2.4.4.78.6,1.15.6-.43,1.27-.87,2-1.3a34,34,0,0,1,18-5.35q11.55,0,17.35,8.5a26.12,26.12,0,0,1,4.3,12.45,25.78,25.78,0,0,1,5.9-4.7,27.24,27.24,0,0,1,13.7-3.3,16.45,16.45,0,0,1,10.45,4.1,22.91,22.91,0,0,1,4,4,35.16,35.16,0,0,1,5-6.1q8.7-8.5,20.1-8.5,9.35,0,14.6,6.55a20.15,20.15,0,0,1,1.4,1.95,27.85,27.85,0,0,1,3.9,11.7,23.18,23.18,0,0,1,7.5-4.9,32.08,32.08,0,0,1,12.1-2q10.2,0,17.1,9.8,1,1.5,1.95,3A23.64,23.64,0,0,1,426,75.9a38.41,38.41,0,0,1,5.25-9.1,31.05,31.05,0,0,1,8-7.5A23.8,23.8,0,0,0,428,63.7a18.35,18.35,0,0,0-6.65,8.8,22,22,0,0,0-7.1-5.6q-10-5-23.2.8A24.43,24.43,0,0,0,386,57.1c-.52-.64-1.07-1.26-1.65-1.85A21.93,21.93,0,0,0,368.1,48.8Q356.7,48.8,346.3,57.1Z"/><path class="cls-2" d="M518.5,37.15q-8.44.7-18.3,9.65-10.45,9.56-11.45,20c-.17-.2-.35-.4-.55-.6a18.41,18.41,0,0,0-13.5-5.4,18.86,18.86,0,0,0-12.95,5.35,27.32,27.32,0,0,0-2.2,2.25,17.73,17.73,0,0,0-2.3-3.3A17.23,17.23,0,0,0,443.6,59a30.12,30.12,0,0,0-4.35.3,31.05,31.05,0,0,0-8,7.5A38.41,38.41,0,0,0,426,75.9a23.64,23.64,0,0,0-1.45,4.7q-.9-1.5-1.95-3-6.9-9.8-17.1-9.8a32.08,32.08,0,0,0-12.1,2,23.18,23.18,0,0,0-7.5,4.9,27.85,27.85,0,0,0-3.9-11.7,20.15,20.15,0,0,0-1.4-1.95q-5.25-6.56-14.6-6.55-11.4,0-20.1,8.5a35.16,35.16,0,0,0-5,6.1,22.91,22.91,0,0,0-4-4,16.45,16.45,0,0,0-10.45-4.1,27.24,27.24,0,0,0-13.7,3.3,25.78,25.78,0,0,0-5.9,4.7,26.12,26.12,0,0,0-4.3-12.45q-5.81-8.51-17.35-8.5a34,34,0,0,0-18,5.35c-.73.43-1.4.87-2,1.3-.2-.37-.4-.75-.6-1.15q-5.44-10.5-18.75-10.5-8.15,0-17.6,6.85-7.65,5.5-9.6,12.25a30.28,30.28,0,0,0-4.8-3.8q-6.11-3.8-16.3-3.8a21.26,21.26,0,0,0-6.1,1.25,39.66,39.66,0,0,0-3.7,1.45,36.17,36.17,0,0,0-2.45-6.55q-5.4-10.8-15.35-10.8-9.79,0-21.5,13.1-1.35,1.53-2.55,3-5.91,7.34-7.75,13.25a27.88,27.88,0,0,0-8.95-1.5q-11.15,0-16.65,3.75a23.1,23.1,0,0,0-3.6,3.15q-1.35-1.8-2.85-3.55-10.9-12.5-23.7-12.5a57.46,57.46,0,0,0-7.4.4A26.07,26.07,0,0,0,69.3,63.3q-6.15,6-10,16.7-7.69-2.06-20.8,1.55c-.1-1-.23-2.08-.4-3.15a41.76,41.76,0,0,0-4.7-13.6q-8.25-15-22.4-15-4,0-11,3.45V383.25H518.5Z"/><path class="cls-3" d="M518.5,6.25a41.78,41.78,0,0,0-10.15,6.9Q499,21.71,498.7,31.3l-.85-.2q-5.28-1.09-13.2.75a51.43,51.43,0,0,0-4.2-14.65Q472.69,0,455.1,0a40.66,40.66,0,0,0-30,12.5q-11.1,11.15-11.1,23.4c0,1.1.05,2.31.15,3.65h-.15A34.72,34.72,0,0,0,397.5,44a40.2,40.2,0,0,0-13.15,11.25c.58.59,1.13,1.21,1.65,1.85a24.43,24.43,0,0,1,5.05,10.6q13.15-5.81,23.2-.8a22,22,0,0,1,7.1,5.6A18.35,18.35,0,0,1,428,63.7a23.8,23.8,0,0,1,11.25-4.4,30.12,30.12,0,0,1,4.35-.3,17.23,17.23,0,0,1,13.65,6.1,17.73,17.73,0,0,1,2.3,3.3,27.32,27.32,0,0,1,2.2-2.25A18.86,18.86,0,0,1,474.7,60.8a18.41,18.41,0,0,1,13.5,5.4c.2.2.38.4.55.6q1-10.45,11.45-20,9.85-9,18.3-9.65V6.25M46.15,17.9a46.67,46.67,0,0,0-16.3,15.55c-.36-.52-.74-1-1.15-1.55Q20.35,21.3,7.85,21.3A16.91,16.91,0,0,0,0,23.45V53.2q6.95-3.45,11-3.45,14.15,0,22.4,15a41.76,41.76,0,0,1,4.7,13.6c.17,1.07.3,2.12.4,3.15Q51.6,78,59.3,80q3.86-10.65,10-16.7A26.07,26.07,0,0,1,75,59.05,21.8,21.8,0,0,1,85.7,56.3q8.8,0,20.6,11.25c1.27,1.2,2.43,2.37,3.5,3.5a20.27,20.27,0,0,1,4.1-5.2q3.6-3,12-3a30.27,30.27,0,0,1,7,.7A37.12,37.12,0,0,1,140,49c-.58-.51-1.2-1-1.85-1.5a22.88,22.88,0,0,0-13.95-5,22.12,22.12,0,0,0-9.75,1.95c.13-1.31.2-2.67.2-4.1a32.5,32.5,0,0,0-5-18.25Q101.3,9.56,81.7,9.55,60.59,9.55,46.15,17.9Z"/></g></g></g></svg>