<svg xmlns="http://www.w3.org/2000/svg" viewBox="0 0 1200 125.2"><defs><style>.cls-1{fill:#fff;}</style></defs><title>clouds</title><g id="Слой_2" data-name="Слой 2"><g id="_1" data-name="1"><path class="cls-1" d="M1157.4,63.1h-5.3a36.14,36.14,0,0,0-59.2-8.8A32.92,32.92,0,0,0,1045.1,37a30.32,30.32,0,0,0-32.8,6.7A49.83,49.83,0,0,0,951,22.24,42.32,42.32,0,0,0,922.6,11.4c-16.7,0-31.2,9.7-38.6,24.1A31.58,31.58,0,0,0,869.6,32a31.92,31.92,0,0,0-22.1,8.9,29.65,29.65,0,0,0-13.3-3.2,30,30,0,0,0-28.7,21.6,29.47,29.47,0,0,0-12.3-2.6,30.07,30.07,0,0,0-23.1,10.9,37.5,37.5,0,0,0-63-19.9,18.83,18.83,0,0,0-33.3-13.3,18.74,18.74,0,0,0-23.3-9.6A29.55,29.55,0,0,0,600.6,8.5a29.54,29.54,0,0,0-42.2,13.4A27.65,27.65,0,0,0,521,37.4a44.3,44.3,0,0,0-12.7-1.8A45,45,0,0,0,465.1,68h-4.8a32.79,32.79,0,0,0-29.4-18.5,32.38,32.38,0,0,0-24,10.6,29.83,29.83,0,0,0-28.1-19.8,29.43,29.43,0,0,0-15.2,4.2,26.87,26.87,0,0,0-10.2-2,27.85,27.85,0,0,0-19.5,8,45,45,0,0,0-52-20.68,38.62,38.62,0,0,0-24.7-9c-15.2,0-28.4,8.9-35.1,21.9a29.08,29.08,0,0,0-33.2,5,27.65,27.65,0,0,0-12.1-2.9,27.09,27.09,0,0,0-26.1,19.7,27.64,27.64,0,0,0-11.1-2.4,27,27,0,0,0-21,10A34.14,34.14,0,0,0,61.3,53.9a17.32,17.32,0,0,0-9-16.3A17.14,17.14,0,0,0,31,41.8a16.68,16.68,0,0,0-7.4-7.7,16.74,16.74,0,0,0-13.8-1A27.72,27.72,0,0,0,0,16.5V125.2H1200V27.5A49.7,49.7,0,0,0,1157.4,63.1ZM28.5,60.1a2.19,2.19,0,0,0,.3.5c-.2.2-.4.3-.6.5l-.3-.3C28.1,60.6,28.3,60.3,28.5,60.1Z"/></g></g></svg>