<svg xmlns="http://www.w3.org/2000/svg" viewBox="0 0 131.57 211.37"><defs><style>.cls-1{fill:#ff8b00;}.cls-2{fill:#ff7000;}.cls-3{fill:#ffc231;}.cls-4{fill:#460000;}.cls-5{fill:#d7334d;}.cls-6{fill:none;stroke:#460000;stroke-linecap:round;stroke-linejoin:round;}.cls-7{fill:#fc6c83;}.cls-8{fill:#d4344e;}.cls-9{fill:#ffc9af;}.cls-10{fill:#fc9f86;}.cls-11{fill:#e74c65;}.cls-12{fill:#f78a9c;}.cls-13{fill:#d73f3f;}.cls-14{fill:#fff;}</style></defs><title>girl</title><g id="Слой_2" data-name="Слой 2"><g id="OBJECTS"><g id="Layer0_4_MEMBER_0_FILL" data-name="Layer0 4 MEMBER 0 FILL"><path class="cls-1" d="M32.89,109.75a20.62,20.62,0,0,1-6.25-2.54l-.07,0,0-.07a74.48,74.48,0,0,1-5.48-11.85,89.33,89.33,0,0,1-2.66-8.88l-.17-.7,7.3,4.4v.15a31.57,31.57,0,0,0,.8,4.86,42,42,0,0,0,6.85,14.2l.42.59Zm65-.83c4.83-6.59,7.52-13.16,8-19.54v-.16l.14-.08c2.1-1.21,4.6-2.73,7.44-4.5l.66-.4-.21.74a69.64,69.64,0,0,1-3.77,10.2,89.35,89.35,0,0,1-6.22,11c-.24.34-.47.69-.7,1l0,.07-.07,0a26.69,26.69,0,0,1-4.91,2.08l-.84.24ZM34.49,47.4c-6.39,0-10.07-.18-11.25-.57a14.63,14.63,0,0,1-5.37-3.77l-.11-.12,0-.16a72.05,72.05,0,0,1,6.78-17.72C33.5,8.7,49.35.41,71.68.41c.87,0,1.77,0,2.66,0,14.22,1,24.83,7,31.55,17.74,4.37,7,7.44,15.65,9.14,25.81l0,.28-.28.06a15.09,15.09,0,0,1-3.11.36,18.67,18.67,0,0,1-12.3-4.32c-2.76-2.32-4.1-4.19-4.1-5.73a7,7,0,0,1,1.93-4.9,5.91,5.91,0,0,0,1.77-4c0-1.43-.18-1.74-.23-1.81s-.78-.49-3-.49c-2.67,0-6.89,1.72-12.55,5.11-7.95,4.72-13,7.57-15,8.46-10.25,5-16.64,8-19,8.91C46.72,46.91,41.76,47.4,34.49,47.4Zm72.29-20.1c-.44,0-.94.15-.94,1.25q0,.07.09.81a.76.76,0,0,0,.81.49c.44,0,1-.14,1-1.25S107.2,27.32,106.78,27.3ZM32.34,21.05a2.1,2.1,0,0,0-1.48.85,2.34,2.34,0,0,0-.72,1.45c0,.93.44,1.35,1.45,1.35a2,2,0,0,0,1.7-.87,2.61,2.61,0,0,0,.5-1.48,1.17,1.17,0,0,0-.22-.93A1.61,1.61,0,0,0,32.34,21.05Zm2.09-3.32c-.37,0-.74.11-.74,1s.31,1.05,1.05,1.05a1,1,0,0,0,.81-.33,1,1,0,0,0,.24-.67c0-.41-.13-.9-1.09-1A1.32,1.32,0,0,0,34.43,17.73Zm51.16-12c-1.68,0-2.45.75-2.45,2.35l.73,2.21a3.88,3.88,0,0,0,3.57,2c1.94,0,2.85-1,2.85-3,0-1.92-1.18-3.05-3.6-3.45A6.41,6.41,0,0,0,85.59,5.75Zm-6.9-.55c-.69,0-1.6.21-1.6,2,0,.08,0,.48.14,1.21a1.45,1.45,0,0,0,1.51.89c.64,0,1.5-.21,1.5-2S79.35,5.2,78.69,5.2Zm-5.76-.78-.36,0c-1.22.15-1.78.69-1.78,1.7s.5,1.65,1.65,1.65a1.65,1.65,0,0,0,1.41-.59,1.73,1.73,0,0,0,.39-1.16C74.24,4.61,73.54,4.42,72.93,4.42Zm-6.59,1c-.67,0-1,.3-1,1s.28,1,1,1,1-.31,1-1S67,5.4,66.34,5.4Z"/><path class="cls-2" d="M114.74,44.05a15.19,15.19,0,0,1-3,.35,18.31,18.31,0,0,1-12.1-4.25c-2.67-2.23-4-4.07-4-5.5A6.66,6.66,0,0,1,97.44,30a6.14,6.14,0,0,0,1.85-4.2,3.85,3.85,0,0,0-.3-2c-.37-.4-1.44-.6-3.2-.6q-4.11,0-12.7,5.15-12,7.1-15,8.45-15.45,7.55-19,8.9-3.75,1.45-14.65,1.45-9.45,0-11.15-.55a14.17,14.17,0,0,1-5.25-3.7A89.06,89.06,0,0,0,16.14,68.8a102.77,102.77,0,0,0,2.55,17.5l6.55,4a30.88,30.88,0,0,0,.8,4.9,42.17,42.17,0,0,0,6.9,14.3,5.57,5.57,0,0,0,1.1.15c1.8,0,3.68.08,5.65.15a20.17,20.17,0,0,1-3-3.6,30,30,0,0,1-2.5-4.4,50.08,50.08,0,0,1-3-8.4,50.08,50.08,0,0,0,3,8.4,30,30,0,0,0,2.5,4.4q30.69-8.5,56.3,0a.76.76,0,0,0,.1-.15,35.11,35.11,0,0,0,2.35-4.25,53.42,53.42,0,0,0,2.7-7.1,53.42,53.42,0,0,1-2.7,7.1A35.11,35.11,0,0,1,93.09,106a.76.76,0,0,1-.1.15,22.7,22.7,0,0,1-3,3.6c1.93-.07,3.8-.12,5.6-.15h0a9.67,9.67,0,0,0,2.55-.5q7.32-10,8-19.7,3.16-1.83,7.45-4.5a68.07,68.07,0,0,0,2.75-19.25A130.81,130.81,0,0,0,114.74,44.05Z"/><path class="cls-3" d="M106.74,30.15c.83,0,1.25-.52,1.25-1.55s-.4-1.57-1.2-1.6-1.25.52-1.25,1.55c0,0,0,.32.1.85a1,1,0,0,0,1.1.75M35.79,19.6a1.26,1.26,0,0,0,.3-.85c0-.77-.45-1.2-1.35-1.3s-1.35.28-1.35,1.25a1.19,1.19,0,0,0,1.35,1.35,1.27,1.27,0,0,0,1-.45M33.54,24a2.91,2.91,0,0,0,.55-1.65c.1-1.07-.49-1.6-1.75-1.6a2.36,2.36,0,0,0-1.7.95,2.58,2.58,0,0,0-.8,1.65c0,1.1.58,1.65,1.75,1.65a2.25,2.25,0,0,0,1.95-1M66.34,7.75c.83,0,1.25-.45,1.25-1.35s-.42-1.3-1.25-1.3-1.25.43-1.25,1.3.41,1.35,1.25,1.35m7.75-.35a2.07,2.07,0,0,0,.45-1.35c0-1.43-.67-2.07-2-1.9s-2.05.83-2.05,2a1.72,1.72,0,0,0,2,1.95,2,2,0,0,0,1.65-.7m2.85,1a1.75,1.75,0,0,0,1.8,1.15c1.2,0,1.8-.77,1.8-2.3s-.62-2.4-1.85-2.4-1.9.77-1.9,2.3c0,.07,0,.48.15,1.25m10.5,4.2q3.15,0,3.15-3.35c0-2.07-1.29-3.32-3.85-3.75s-3.9.45-3.9,2.55l.75,2.3A4.18,4.18,0,0,0,87.44,12.65Z"/></g><g id="Layer0_4_MEMBER_0_1_STROKES" data-name="Layer0 4 MEMBER 0 1 STROKES"><path class="cls-4" d="M114.24,44.16a77.41,77.41,0,0,0-7.18-21.81,42,42,0,0,0-6.5-9.35,33.64,33.64,0,0,0-9-6.86A38.64,38.64,0,0,0,80.82,2.38l-1.4-.27L78,1.9c-.94-.16-1.89-.25-2.84-.33a22.65,22.65,0,0,0-2.86-.1c-1,0-1.91,0-2.87,0A78.32,78.32,0,0,0,58,2.61,57,57,0,0,0,47,5.86,43,43,0,0,0,29.13,19.73,64.39,64.39,0,0,0,19.4,40.44a83.73,83.73,0,0,0-2.88,22.84A104.18,104.18,0,0,0,19.2,86.21a.5.5,0,0,1-1,.23,104.41,104.41,0,0,1-2.87-23.15A84.09,84.09,0,0,1,18.15,40.1a65.85,65.85,0,0,1,9.91-21.17A44.25,44.25,0,0,1,46.45,4.57,58.42,58.42,0,0,1,57.72,1.21,80.26,80.26,0,0,1,69.39,0c1-.06,2,0,2.94,0A26.25,26.25,0,0,1,75.27.1c1,.09,2,.18,2.94.34l1.46.21,1.45.28A40.28,40.28,0,0,1,92.26,4.8,35.15,35.15,0,0,1,101.68,12c.69.71,1.31,1.48,1.95,2.24s1.22,1.55,1.75,2.39a48,48,0,0,1,3,5.08A71,71,0,0,1,115.23,44a.5.5,0,0,1-1,.17Z"/><path class="cls-4" d="M33,109c.55,0,1,0,1.62,0s1.13,0,1.69,0c1.13,0,2.25.06,3.38.09l-.54,1.31a20.51,20.51,0,0,1-3.08-3.72,27.93,27.93,0,0,1-2.35-4.16,47.77,47.77,0,0,1-3.09-8.94.5.5,0,0,1,1-.26,55.36,55.36,0,0,0,3.36,8.6,32.25,32.25,0,0,0,2.33,3.93,19.22,19.22,0,0,0,2.9,3.44.78.78,0,0,1,0,1.08.82.82,0,0,1-.58.24h0c-1.12,0-2.25,0-3.38-.09-.56,0-1.12-.07-1.68-.13a8.63,8.63,0,0,1-1.75-.32.5.5,0,0,1-.36-.61.49.49,0,0,1,.45-.37Z"/><path class="cls-4" d="M115.23,44A108.09,108.09,0,0,1,117,60.43c.09,2.76.16,5.51,0,8.29a69.4,69.4,0,0,1-.86,8.27,71.28,71.28,0,0,1-4.62,16,84.45,84.45,0,0,1-8,14.49v0a.86.86,0,0,1-.25.22,33,33,0,0,1-3.13,1.47,17.09,17.09,0,0,1-3.37,1c-.3,0-.6.09-.91.12l-.89,0-1.69,0-3.37.08h0a.67.67,0,0,1-.7-.66.69.69,0,0,1,.22-.52,22.11,22.11,0,0,0,3-3.49l.34,1a85.13,85.13,0,0,0-27.9-4.24,111.59,111.59,0,0,0-28.05,4.08.5.5,0,0,1-.27-1,112.44,112.44,0,0,1,28.31-4.38,85.77,85.77,0,0,1,28.34,4.22.67.67,0,0,1,.43.85.76.76,0,0,1-.09.18,23,23,0,0,1-3.13,3.71l-.5-1.19,3.4-.09,1.69,0c.29,0,.58,0,.8,0a6.48,6.48,0,0,0,.77-.1,16.15,16.15,0,0,0,3.09-1,32.73,32.73,0,0,0,3-1.42l-.27.25a83.67,83.67,0,0,0,7.87-14.29,70,70,0,0,0,4.47-15.63,83.37,83.37,0,0,0,.83-16.27,146.12,146.12,0,0,0-1.32-16.32.5.5,0,0,1,1-.17Z"/><path class="cls-4" d="M98.61,94.79a8.75,8.75,0,0,1-.74,3.08c-.37,1-.77,2-1.2,2.92a30.29,30.29,0,0,1-3.16,5.49l0,0a2.69,2.69,0,0,1-.2.27.22.22,0,0,1-.32,0s0,0-.06-.07l-.33-.66s0,0,0,0l0,0a46.62,46.62,0,0,0,2.67-5.51c.39-.94.77-1.9,1.11-2.87a12.18,12.18,0,0,1,1.22-2.84.52.52,0,0,1,.72-.14A.52.52,0,0,1,98.61,94.79Z"/><path class="cls-4" d="M32.85,110a8.44,8.44,0,0,1-1.74-.29,13.11,13.11,0,0,1-1.64-.54,24.9,24.9,0,0,1-3.06-1.52h0a.83.83,0,0,1-.28-.28,70.57,70.57,0,0,1-4.77-10.15,73.25,73.25,0,0,1-3.12-10.74.49.49,0,0,1,.38-.59.5.5,0,0,1,.59.36,90.94,90.94,0,0,0,3.45,10.47,78.43,78.43,0,0,0,4.8,9.89l-.29-.29c1,.54,1.93,1,2.9,1.49.49.22,1,.46,1.47.65s1,.4,1.5.56h0a.5.5,0,0,1,.32.63A.52.52,0,0,1,32.85,110Z"/></g><g id="Layer0_4_MEMBER_1_FILL" data-name="Layer0 4 MEMBER 1 FILL"><path class="cls-5" d="M44.24,171.55c1,0,2.81-.09,5.45-.29s4.66-.24,6-.21,2.36.07,3.25.14a23,23,0,0,1,3.15.58c1.17.32,2.69.69,4.55,1.12a20.79,20.79,0,0,0,4.35.65,16.69,16.69,0,0,0,5.85-1.41,17.74,17.74,0,0,1,6.65-1.45c1.09,0,2.51.06,4.25.18a45.77,45.77,0,0,0,6.35-.07,17.7,17.7,0,0,0,5.9-1.23q2.18-.93-.3-3.46-35.72-9.49-62.3.25c-1.25.79-1.8,1.63-1.65,2.53s1.25,1.56,3.35,2A25.14,25.14,0,0,0,44.24,171.55Z"/></g><path id="Layer0_4_MEMBER_1_1_STROKES" data-name="Layer0 4 MEMBER 1 1 STROKES" class="cls-6" d="M37.34,166.35c-1.25.79-1.8,1.63-1.65,2.53s1.25,1.56,3.35,2a25.62,25.62,0,0,0,5.2.67c1,0,2.82-.09,5.47-.27s4.64-.26,5.93-.23,2.36.07,3.27.16a19.21,19.21,0,0,1,3.13.58c1.17.3,2.69.67,4.55,1.1a20.79,20.79,0,0,0,4.35.65,16.69,16.69,0,0,0,5.85-1.41,17.74,17.74,0,0,1,6.65-1.45c1.09,0,2.51.06,4.25.18a45.77,45.77,0,0,0,6.35-.07,18,18,0,0,0,5.9-1.21q2.18-.95-.3-3.48Q63.93,156.61,37.34,166.35Z"/><g id="Layer0_4_MEMBER_2_FILL" data-name="Layer0 4 MEMBER 2 FILL"><path class="cls-7" d="M77.74,204a7.32,7.32,0,0,0-4.1.65,4.51,4.51,0,0,0-1.2,2.15,10.2,10.2,0,0,0-.3,2.95,28.89,28.89,0,0,0,7.5,1.1,17.65,17.65,0,0,0,5.75-.9A8.83,8.83,0,0,0,85,207a3.45,3.45,0,0,0-.85-1.2,6.53,6.53,0,0,0-3.45-1.55l-3-.3m-19.9,0-3.05.3a6.46,6.46,0,0,0-3.45,1.55,3.32,3.32,0,0,0-.85,1.2,8.57,8.57,0,0,0-.4,2.9,17.89,17.89,0,0,0,5.85.9,28.6,28.6,0,0,0,7.4-1.1,11,11,0,0,0-.3-2.95,4.68,4.68,0,0,0-1.2-2.15A7.09,7.09,0,0,0,57.84,204Z"/><path class="cls-8" d="M73.89,202.25c-.1,1-.19,1.82-.25,2.35a7.32,7.32,0,0,1,4.1-.65l3,.3a6.53,6.53,0,0,1,3.45,1.55,44.3,44.3,0,0,0-.15-5.1,15.48,15.48,0,0,0-.6-4.2q-.45,6.19-3.5,6.35t-3.8-2.45a16.38,16.38,0,0,1-.85-4,56.13,56.13,0,0,0-1.35,5.85m-19.1,2,3.05-.3a7.09,7.09,0,0,1,4,.65c-.07-.53-.15-1.32-.25-2.35-.2-1.33-.64-3.28-1.3-5.85a16.51,16.51,0,0,1-.9,4,3.36,3.36,0,0,1-3.8,2.45q-3.06-.15-3.4-6.35c-.27.4-.49,1.8-.65,4.2a36.59,36.59,0,0,0-.2,5.1A6.46,6.46,0,0,1,54.79,204.25Z"/><path class="cls-9" d="M78.24,175.55a32.5,32.5,0,0,1-4.3,1.4l.1.65q.54,5.21.9,11.5.34,5.4.3,7.3a16.38,16.38,0,0,0,.85,4q.8,2.59,3.8,2.45t3.5-6.35q.19-6.87.5-22.65a28.19,28.19,0,0,0-5.65,1.7M61.49,177.1c-.78-.09-1.53-.2-2.25-.35a37.54,37.54,0,0,1-7.55-2.45q.26,15.42.5,22.2.35,6.19,3.4,6.35a3.36,3.36,0,0,0,3.8-2.45,16.51,16.51,0,0,0,.9-4c0-1.27.05-3.7.25-7.3q.35-6.3.9-11.5Z"/><path class="cls-10" d="M73.94,177a32.5,32.5,0,0,0,4.3-1.4,28.19,28.19,0,0,1,5.65-1.7,5,5,0,0,1,0-.55q.3-18.7-.1-28.15H70.44l3.5,31.8M65,145.15H51.74q-.45,9.45-.05,28.15v1a37.54,37.54,0,0,0,7.55,2.45c.72.15,1.47.26,2.25.35Z"/></g><path class="cls-4" d="M51.15,174.31c-.1-4.86-.17-9.72-.18-14.58s0-9.73.27-14.6h0a.5.5,0,0,1,.5-.48H65a.5.5,0,0,1,.5.49v.06c-1,8.52-2,17.05-3,25.58l-.73,6.39-.53,6.4c-.16,2.14-.38,4.28-.45,6.41l-.17,6.41,0-.09c.37,1.35.7,2.71,1,4.08a20.32,20.32,0,0,1,.41,2.09l.26,2.07h0l-.15-.3a5.21,5.21,0,0,1,1.4,2.63,11.83,11.83,0,0,1,.26,2.84h0a.49.49,0,0,1-.35.45h0a24.7,24.7,0,0,1-6.73,1.18,21.91,21.91,0,0,1-3.44-.17,14.18,14.18,0,0,1-3.37-.82h0a.51.51,0,0,1-.32-.47,10.59,10.59,0,0,1,.21-2.3c0-.2.09-.39.15-.59a2.66,2.66,0,0,1,.27-.59,3.75,3.75,0,0,1,.78-1l-.16.4a35.68,35.68,0,0,1,.16-4.75c.07-.76.11-1.55.2-2.34,0-.39.1-.79.17-1.19a3.86,3.86,0,0,1,.38-1.3l0,0-.08.3-.3-11.1C51.27,181.72,51.23,178,51.15,174.31Zm1.12,0c.08,3.69.2,7.39.24,11.09l.18,11.1a.65.65,0,0,1,0,.2l0,.1h0a4,4,0,0,0-.25.94c-.06.37-.11.75-.15,1.13-.09.76-.13,1.53-.2,2.32a33.85,33.85,0,0,0-.16,4.6.53.53,0,0,1-.17.4,2.8,2.8,0,0,0-.58.74,3,3,0,0,0-.19.41,3.89,3.89,0,0,0-.12.49,9.57,9.57,0,0,0-.19,2.09l-.33-.47h0a15.38,15.38,0,0,0,3.17.65,21,21,0,0,0,3.27.13,38,38,0,0,0,6.5-1l-.36.46h0a10.73,10.73,0,0,0-.24-2.59A4.33,4.33,0,0,0,61.49,205h0a.47.47,0,0,1-.14-.29h0l-.18-2.08c-.06-.67-.19-1.35-.31-2-.26-1.36-.6-2.71-.93-4.05v0s0,0,0-.06l.27-6.46c0-1.08.16-2.14.23-3.21l.25-3.22.49-6.42.7-6.4c.92-8.53,1.85-17.07,2.7-25.61l.5.56H51.74l.5-.48h0C52,150,52,154.87,52,159.72S52.15,169.43,52.27,174.29Z"/><path class="cls-4" d="M83.5,173.87l.06-7.18v-7.18c0-4.78-.07-9.57-.28-14.34h0l.5.48H70.44l.49-.56,2.46,22.64c.39,3.77.87,7.53,1.19,11.32s.63,7.58.8,11.38l.2,5.7a11.82,11.82,0,0,0,.42,2.73,7.76,7.76,0,0,0,.93,2.53,3,3,0,0,0,2.22,1.14,2.6,2.6,0,0,0,2.33-.77,5.63,5.63,0,0,0,1.14-2.4,16.94,16.94,0,0,0,.41-2.74Zm.78,0c-.14,7.6-.35,15.19-.56,22.79a16.5,16.5,0,0,1-.46,2.87A6.13,6.13,0,0,1,82,202.2a2.94,2.94,0,0,1-1.33.84,4,4,0,0,1-1.52.11,3.56,3.56,0,0,1-2.69-1.37,4.16,4.16,0,0,1-.67-1.37c-.14-.46-.28-.92-.4-1.39a12.38,12.38,0,0,1-.47-2.88l-.26-5.67c-.23-3.78-.6-7.55-.88-11.33s-.83-7.54-1.23-11.31L69.94,145.2a.5.5,0,0,1,.44-.55H83.79a.51.51,0,0,1,.5.48h0c.17,4.8.19,9.59.17,14.38l-.07,7.19Z"/><path class="cls-4" d="M57.81,203.45a10.87,10.87,0,0,0,2.11.26,8.51,8.51,0,0,1,2.18.46h0a.52.52,0,1,1-.38,1l-.17-.11a3,3,0,0,0-1.72-.75,3.58,3.58,0,0,0-2,.17.52.52,0,0,1-.68-.29.53.53,0,0,1,.29-.69.47.47,0,0,1,.33,0Z"/><path class="cls-4" d="M52.69,196.47a10.91,10.91,0,0,0,.51,4.07,3.46,3.46,0,0,0,1.1,1.63,2.55,2.55,0,0,0,1.86.48A3.29,3.29,0,0,0,58,202a2.93,2.93,0,0,0,1.06-1.61,13.79,13.79,0,0,0,.7-4.05h0a.5.5,0,0,1,.48-.52.5.5,0,0,1,.52.48v.09a13.23,13.23,0,0,1-.5,2.15c-.21.69-.43,1.36-.69,2A3.48,3.48,0,0,1,56.18,203a3.17,3.17,0,0,1-2.14-.52,4.33,4.33,0,0,1-1.32-1.78,16.72,16.72,0,0,1-1-4.21.5.5,0,1,1,1-.16s0,.06,0,.09Z"/><path class="cls-4" d="M54.89,204.74a3.42,3.42,0,0,0-1,0,4,4,0,0,0-.9.24,2.82,2.82,0,0,0-.79.46,1.7,1.7,0,0,0-.54.69.54.54,0,0,1-.7.32.54.54,0,0,1-.32-.7.57.57,0,0,1,.25-.28l0,0c.35-.19.66-.36,1-.5l.92-.38.92-.38a7.57,7.57,0,0,0,.91-.44h0a.53.53,0,0,1,.73.18.53.53,0,0,1-.18.73A.5.5,0,0,1,54.89,204.74Z"/><path class="cls-4" d="M75.72,196.53c-.37,1.34-.72,2.69-1,4-.14.67-.29,1.35-.36,2l-.22,2.08h0l-.76-.49c.82-.21,1.51-.33,2.23-.45s1.43-.15,2.16-.27a.51.51,0,0,1,.59.42.5.5,0,0,1-.42.59.54.54,0,0,1-.22,0,5.67,5.67,0,0,0-2-.19,2.43,2.43,0,0,0-1.77.77.44.44,0,0,1-.78-.31l0-.18h0l.22-2.08c.08-.73.23-1.41.37-2.11.3-1.37.66-2.73,1-4.08a.5.5,0,0,1,1,.26Z"/><path class="cls-4" d="M80.79,203.76a2,2,0,0,0,.9.46c.32.08.63.18.94.29a7.14,7.14,0,0,1,1.87.94h0l-.86.31a39.6,39.6,0,0,0-.12-4.61c-.06-.78-.11-1.55-.19-2.32,0-.38-.09-.76-.15-1.13a4,4,0,0,0-.23-1l0-.06a.5.5,0,0,1,.22-.67.49.49,0,0,1,.67.22h0a4.53,4.53,0,0,1,.35,1.3c.06.4.11.79.15,1.19.08.78.14,1.57.2,2.35a43.8,43.8,0,0,1,.12,4.74v0a.48.48,0,0,1-.5.46.52.52,0,0,1-.36-.19h0a3,3,0,0,0-1.35-1.09,6.59,6.59,0,0,0-.88-.32,1.35,1.35,0,0,0-1,0,.6.6,0,0,1-.78-.34.59.59,0,0,1,.34-.77.61.61,0,0,1,.63.12Z"/><path class="cls-4" d="M84.47,205.43a4,4,0,0,1,.79,1,3.18,3.18,0,0,1,.26.59c.06.2.11.39.15.58a11.34,11.34,0,0,1,.22,2.3h0a.5.5,0,0,1-.33.47,15.45,15.45,0,0,1-3.38.77,21.9,21.9,0,0,1-3.44.14,30,30,0,0,1-6.73-1.1h0a.49.49,0,0,1-.37-.46,11.3,11.3,0,0,1,.25-2.84,5.27,5.27,0,0,1,1.4-2.65.51.51,0,0,1,.7.73h0a4.33,4.33,0,0,0-1.11,2.13,10.24,10.24,0,0,0-.23,2.59l-.37-.46h0a28.83,28.83,0,0,0,6.5,1.06,20,20,0,0,0,3.28-.14,14.63,14.63,0,0,0,3.16-.71l-.33.47h0a10.87,10.87,0,0,0-.19-2.08c0-.17-.08-.33-.13-.49a1.69,1.69,0,0,0-.19-.41,2.8,2.8,0,0,0-.58-.74.5.5,0,0,1,0-.71A.49.49,0,0,1,84.47,205.43Z"/><g id="Layer0_4_MEMBER_3_FILL" data-name="Layer0 4 MEMBER 3 FILL"><path class="cls-10" d="M105,82.2c0-.39.1-1.47.3-3.25a252.22,252.22,0,0,1-27.85,14l4.1,9.15a173.08,173.08,0,0,0,22.7-13.9c.85-.6,1.73-1.23,2.65-1.9l-.2-.1c-1.14-.5-1.7-1.82-1.7-4M49.79,102.05l4.1-9.15a251.41,251.41,0,0,1-26.8-13.35,16.71,16.71,0,0,1,.9,2.1,10.09,10.09,0,0,1,.15,2.25,3,3,0,0,1-1.05,2.3,15.13,15.13,0,0,1-1.25,1c.43.32.84.62,1.25.9A172.43,172.43,0,0,0,49.79,102.05Z"/><path class="cls-9" d="M118.94,63.35a1.18,1.18,0,0,0-1.4.9,8.47,8.47,0,0,0-.1,2.15,2.74,2.74,0,0,1-1.25,2.15,3.38,3.38,0,0,0-1.45,2.3,21.08,21.08,0,0,0,.8,2.25,10,10,0,0,0,.65,1.15,10,10,0,0,1-.65-1.15q-4,2.15-9.35,5.35l-.85.5c-.2,1.78-.3,2.86-.3,3.25,0,2.13.56,3.45,1.7,4l.2.1q5.09-3.69,11.75-8.9c-.2-.27-.42-.58-.65-.95.23.37.45.68.65.95a6.9,6.9,0,0,0,1.15,1.35,2.13,2.13,0,0,0,1.3.4c.5.07,1.1-.37,1.8-1.3a6.79,6.79,0,0,0,.9-1.35c.8.17,2.25.43,4.35.8,1.26.17,2-.18,2.2-1s.16-1.38-.2-1.45-2.25-.52-5.65-1.35c1.1-.4,2.46-.85,4.1-1.35s2.28-1,2.35-1.6a2.58,2.58,0,0,0-.4-1.5c-.27-.5-.57-.77-.9-.8-.9-.07-3,.63-6.4,2.1a.93.93,0,0,0-.35.15.93.93,0,0,1,.35-.15c.46-.43,1.23-1.1,2.3-2,1.1-1.07,1.66-1.87,1.7-2.4a1.47,1.47,0,0,0-.3-1.15,2.14,2.14,0,0,0-1.55-.75c-.8-.1-1.75.47-2.85,1.7-1.2,1.5-2.09,2.58-2.65,3.25l.25.15a2.33,2.33,0,0,1,1,2,2.33,2.33,0,0,0-1-2l-.25-.15-1-.75a7.85,7.85,0,0,0,1.35-3c.1-1.1-.37-1.7-1.4-1.8M1.69,68.15c-.34,0-.64.3-.9.8a2.5,2.5,0,0,0-.4,1.5c.06.6.85,1.13,2.35,1.6s3,1,4.1,1.35c-3.4.83-5.29,1.28-5.65,1.35S.75,75.3,1,76.2s.93,1.22,2.2,1c2.1-.37,3.55-.63,4.35-.8a6,6,0,0,0,.9,1.35c.7.93,1.3,1.37,1.8,1.3a2.15,2.15,0,0,0,1.3-.4,7.69,7.69,0,0,0,1.15-1.35c.2-.27.41-.58.65-.95-.24.37-.45.68-.65.95q7.62,6,13.15,9.9a15.13,15.13,0,0,0,1.25-1,3,3,0,0,0,1.05-2.3A10.09,10.09,0,0,0,28,81.65a16.71,16.71,0,0,0-.9-2.1l-1.9-1.1q-5.35-3.2-9.35-5.35a11.81,11.81,0,0,1-.65,1.15,11.81,11.81,0,0,0,.65-1.15c.26-.63.53-1.38.8-2.25a3.42,3.42,0,0,0-1.45-2.3,2.68,2.68,0,0,1-1.25-2.15,9,9,0,0,0-.1-2.15,1.19,1.19,0,0,0-1.4-.9c-1,.1-1.5.7-1.4,1.8a7.55,7.55,0,0,0,1.35,3l-1,.75-.25.15a2.29,2.29,0,0,0-1,2,2.29,2.29,0,0,1,1-2l.25-.15c-.57-.67-1.45-1.75-2.65-3.25-1.1-1.23-2-1.8-2.85-1.7a2.12,2.12,0,0,0-1.55.75,1.4,1.4,0,0,0-.3,1.15c0,.53.6,1.33,1.7,2.4,1.06.9,1.83,1.57,2.3,2a1,1,0,0,1,.35.15,1,1,0,0,0-.35-.15Q3,68,1.69,68.15Z"/></g><path class="cls-4" d="M105.08,78.52l10.22-5.86-.23.63L114.26,71a.37.37,0,0,1,0-.18v0a3.57,3.57,0,0,1,.92-2,6,6,0,0,1,.76-.69,4.25,4.25,0,0,0,.6-.6,1.83,1.83,0,0,0,.36-.67,2.37,2.37,0,0,0,.05-.8c0-.32,0-.65,0-1A3.83,3.83,0,0,1,117.1,64a1.64,1.64,0,0,1,.89-1,2.29,2.29,0,0,1,2.34.44,1.85,1.85,0,0,1,.5,1.16,4,4,0,0,1-.45,2.1,16.07,16.07,0,0,1-1,1.73l-.11-.66.93.74h0l-.69.07,1.74-2a17.82,17.82,0,0,1,1.83-2,5,5,0,0,1,1.2-.79,2.59,2.59,0,0,1,.75-.2,2.62,2.62,0,0,1,.76.07,2.38,2.38,0,0,1,1.34.73,1.81,1.81,0,0,1,.46,1.51v0a3,3,0,0,1-.76,1.52,11.45,11.45,0,0,1-1,1.17c-.74.66-1.46,1.35-2.19,2l0,0-.54-.83c1.28-.58,2.58-1.15,3.93-1.62a11.66,11.66,0,0,1,2.15-.56,2.38,2.38,0,0,1,.71,0,1.38,1.38,0,0,1,.73.41,2.44,2.44,0,0,1,.41.53c.09.16.19.33.28.52a3,3,0,0,1,.27,1.27,1.2,1.2,0,0,1-.06.42,1.48,1.48,0,0,1-.18.38,2.26,2.26,0,0,1-.5.52,6.89,6.89,0,0,1-2.09.94c-1.33.43-2.66.86-4,1.26h0l-.06-1c1.19.24,2.37.47,3.54.73L130,74l.22,0,.11,0a1.16,1.16,0,0,1,.26.08,1,1,0,0,1,.47.42,1.28,1.28,0,0,1,.15.44,3.14,3.14,0,0,1-.09,1.15,2.17,2.17,0,0,1-.54,1.13,2.11,2.11,0,0,1-1.16.6,5.24,5.24,0,0,1-2-.15c-1.2-.23-2.39-.51-3.56-.82h0l.56-.28a5.49,5.49,0,0,1-.56.92c-.21.29-.41.53-.62.8a4.36,4.36,0,0,1-.77.78,1.74,1.74,0,0,1-1.27.44h0a2.69,2.69,0,0,1-1.6-.52l0,0a4.54,4.54,0,0,1-.69-.72c-.19-.23-.36-.47-.54-.7l0,0,.71.1c-3,2.2-6,4.4-9,6.64s-6,4.37-9.08,6.48-6.21,4.12-9.4,6-6.41,3.79-9.68,5.57l0,0a.49.49,0,0,1-.66-.19l0,0v0L77,93.1a.51.51,0,0,1,.25-.66h0A252,252,0,0,0,105.08,78.52Zm.51.86a253.3,253.3,0,0,1-27.91,14l.26-.66,4.1,9.14-.68-.24,0,0q5-2.39,9.83-5.21c3.19-1.89,6.34-3.86,9.37-6s6.07-4.28,9-6.57,5.87-4.55,8.79-6.84a.5.5,0,0,1,.7.08h0l0,0c.17.22.34.45.51.66a2.9,2.9,0,0,0,.5.53h0l0,0a1.78,1.78,0,0,0,1,.28h0a.78.78,0,0,0,.53-.23,3.59,3.59,0,0,0,.61-.62c.19-.24.41-.51.58-.75a4.4,4.4,0,0,0,.46-.76.5.5,0,0,1,.52-.28H124c1.2.12,2.39.28,3.58.49a4.71,4.71,0,0,0,1.57.12.82.82,0,0,0,.43-.19.93.93,0,0,0,.22-.5,2.22,2.22,0,0,0,.08-.64c0-.07,0,0,.15.13h0l-.11,0-.23,0-1.77-.46c-1.18-.3-2.35-.64-3.52-1h0a.5.5,0,0,1-.34-.61.48.48,0,0,1,.32-.34h0c1.33-.48,2.67-.94,4-1.38a6.07,6.07,0,0,0,1.72-.79,1.26,1.26,0,0,0,.23-.24l0-.09a.36.36,0,0,0,0-.1,1.83,1.83,0,0,0-.17-.78,4,4,0,0,0-.21-.41,1.56,1.56,0,0,0-.22-.3.26.26,0,0,0-.17-.11,1.36,1.36,0,0,0-.34,0,10.22,10.22,0,0,0-1.92.49c-1.3.44-2.6,1-3.89,1.49h0a.49.49,0,0,1-.65-.27.5.5,0,0,1,.15-.57l0,0c.78-.63,1.57-1.25,2.34-1.9a10.83,10.83,0,0,0,1-1,2.58,2.58,0,0,0,.62-1.1v0h0a1.32,1.32,0,0,0-1.23-1.46,2.3,2.3,0,0,0-2.08.79,15,15,0,0,0-1.69,2l-1.61,2.11a.48.48,0,0,1-.67.09l0,0h0l-.93-.74a.5.5,0,0,1-.12-.66,13.52,13.52,0,0,0,.91-1.61,3.15,3.15,0,0,0,.37-1.58.82.82,0,0,0-.8-.82,1.18,1.18,0,0,0-.66,0,.68.68,0,0,0-.34.41,6.54,6.54,0,0,0-.11,1.72,3.39,3.39,0,0,1-.09,1.1,3,3,0,0,1-.53,1,4.83,4.83,0,0,1-.75.75,4.72,4.72,0,0,0-.65.59,2.55,2.55,0,0,0-.68,1.43l0-.21.79,2.21h0a.51.51,0,0,1-.23.62Z"/><path class="cls-6" d="M122.94,70.4a.93.93,0,0,1,.35-.15"/><path class="cls-6" d="M119.94,68.9l.25.15a2.33,2.33,0,0,1,1,2"/><path class="cls-6" d="M118,76.4c.23.37.45.68.65.95"/><path class="cls-6" d="M116.19,74.25a10,10,0,0,1-.65-1.15"/><path class="cls-4" d="M7.89,70.71C6.61,70.13,5.34,69.54,4,69.09a11.29,11.29,0,0,0-1.95-.52c-.37,0-.45,0-.65.14a1.87,1.87,0,0,0-.25.34,3.65,3.65,0,0,0-.23.43,2.15,2.15,0,0,0-.19.86c0,.2.13.39.37.58a5.91,5.91,0,0,0,1.8.8c1.35.44,2.7.84,4.07,1.21H7a.49.49,0,0,1,.34.6.48.48,0,0,1-.35.34l0,0-3.55.93-1.77.45-.22,0-.12,0s0,0,.06,0,.13-.16.11-.09a2.11,2.11,0,0,0,.09.68c.12.52.24.6.69.71a4.64,4.64,0,0,0,1.59-.15c1.19-.2,2.38-.41,3.58-.52h.12a.43.43,0,0,1,.45.29,6.26,6.26,0,0,0,.94,1.59,4.47,4.47,0,0,0,.61.68,1,1,0,0,0,.65.28h0a1.74,1.74,0,0,0,1.11-.32h0A3.55,3.55,0,0,0,11.8,78a5.13,5.13,0,0,0,.41-.59,10.22,10.22,0,0,0,.7-1.25l0,0a.51.51,0,0,1,.91.45.36.36,0,0,1-.08.12c-.35.37-.65.77-1,1.15l-.49.57a3.46,3.46,0,0,1-.58.56h0a2.71,2.71,0,0,1-1.49.48h0A1.6,1.6,0,0,1,9.13,79a6,6,0,0,1-.77-.73l-.66-.76a6.55,6.55,0,0,1-.62-.88l.56.28h0c-1.18.33-2.38.56-3.58.8a5.6,5.6,0,0,1-2,.13,2.14,2.14,0,0,1-1.15-.56A2.26,2.26,0,0,1,.34,76.2a3.54,3.54,0,0,1-.09-1.13,1.33,1.33,0,0,1,.13-.42,1.05,1.05,0,0,1,.44-.42,1.35,1.35,0,0,1,.26-.09l.11,0,.23-.05,1.76-.39,3.54-.77,0,1h0c-1.3-.51-2.62-1-3.95-1.44a7.21,7.21,0,0,1-2-.92A1.5,1.5,0,0,1,0,70.35a2.77,2.77,0,0,1,.24-1.18,3,3,0,0,1,.26-.51,2.2,2.2,0,0,1,.37-.51,1.4,1.4,0,0,1,.64-.38,2.46,2.46,0,0,1,.66,0,11.64,11.64,0,0,1,2.13.53q2,.69,4,1.5a.5.5,0,0,1-.38.93Z"/><path class="cls-4" d="M11.05,69.22l-1.73-2-.85-1a6.58,6.58,0,0,0-.87-.88,4,4,0,0,0-.94-.65,1.72,1.72,0,0,0-.45-.13H6l-.28,0a1.28,1.28,0,0,0-1.15,1.21v0A1.83,1.83,0,0,0,5.05,67a11,11,0,0,0,1,1c.77.65,1.56,1.28,2.38,1.88h0l-.22-.12.5.22a.48.48,0,0,1-.33.89l-.22-.05A.66.66,0,0,1,8,70.73l-.22-.11h0c-.69-.73-1.42-1.42-2.17-2.08a11.46,11.46,0,0,1-1.06-1.15,3.61,3.61,0,0,1-.9-1.5v0A1.82,1.82,0,0,1,4,64.25a2.58,2.58,0,0,1,1.46-.82l.38-.06a2.26,2.26,0,0,1,.45,0,2.67,2.67,0,0,1,.82.21,5.4,5.4,0,0,1,1.26.83,9.4,9.4,0,0,1,1,1l.83,1,1.63,2.11h0a.5.5,0,0,1-.09.7A.5.5,0,0,1,11.05,69.22Z"/><path class="cls-4" d="M15.38,72.91l.78-2.21,0,.21h0a2.75,2.75,0,0,0-.72-1.39,4.57,4.57,0,0,0-.64-.58,5.46,5.46,0,0,1-.76-.76,3.24,3.24,0,0,1-.53-1A3.4,3.4,0,0,1,13.42,66a6.88,6.88,0,0,0-.05-1.73c-.13-.46-.47-.6-1-.52a.89.89,0,0,0-.88.88,3,3,0,0,0,.39,1.62,11.2,11.2,0,0,0,1,1.57v0a.48.48,0,0,1-.1.65h0l-.95.75-.06,0-.25.15.05,0a1.89,1.89,0,0,0-.86,1.62.5.5,0,0,1-.44.55.5.5,0,0,1-.55-.45h0v0A2.48,2.48,0,0,1,10,69.7a3.47,3.47,0,0,1,.93-1,.1.1,0,0,1,0,0l.25-.15,0,0,.95-.75-.11.66v0a17,17,0,0,1-.91-1.75,4.17,4.17,0,0,1-.43-2.07,1.83,1.83,0,0,1,.49-1.1,2.23,2.23,0,0,1,2.26-.43,1.6,1.6,0,0,1,.87.94,7.45,7.45,0,0,1,.23,2.07,2.19,2.19,0,0,0,.06.78,2,2,0,0,0,.37.65,4.06,4.06,0,0,0,.59.58,5.53,5.53,0,0,1,.76.71,3.45,3.45,0,0,1,.88,2h0a.34.34,0,0,1,0,.2l-.81,2.29a.51.51,0,0,1-.64.31.5.5,0,0,1-.3-.64Z"/><path class="cls-6" d="M25.84,87.27l1.25.88a172.43,172.43,0,0,0,22.7,13.9l4.1-9.15A251.91,251.91,0,0,1,27.11,79.57"/><path class="cls-4" d="M13,77l6.55,5c2.2,1.64,4.33,3.36,6.59,4.93h0a.5.5,0,0,1-.57.83l0,0c-2.14-1.74-4.38-3.33-6.57-5l-6.6-5a.5.5,0,0,1-.1-.7.51.51,0,0,1,.7-.1h0Z"/><path class="cls-4" d="M26.86,80c-1.83-1.18-3.7-2.26-5.59-3.32s-3.76-2.13-5.67-3.15l.68-.22-.68,1.21a.5.5,0,1,1-.87-.49l0-.07.62-1.09,0,0a.46.46,0,0,1,.64-.18h0c1.86,1.14,3.74,2.21,5.62,3.31s3.77,2.15,5.67,3.17h0a.5.5,0,0,1-.48.88Z"/><g id="Layer0_4_MEMBER_4_FILL" data-name="Layer0 4 MEMBER 4 FILL"><path class="cls-11" d="M86.64,156.5l-1.35-2.05q1.54,4.43,3.7,9.1a1.84,1.84,0,0,1,.15,1,4.53,4.53,0,0,1-1,2.35,4.55,4.55,0,0,0-1,2.2v.15c.06.43.46.65,1.2.65a10.32,10.32,0,0,0,2.75-.9l5.3-2.25a3.26,3.26,0,0,1,4.3.95q-1.68-5.53-3.15-10.45a9.85,9.85,0,0,0-2.6,1.8c-1.6,1.43-2.6,2.15-3,2.15q-2,0-5.35-4.7M69.14,142q1.35,0,1.35-1.5a3.37,3.37,0,0,0-1.5-3c-1-.67-1.5-.3-1.5,1.1,0,.07.06.65.2,1.75s.75,1.65,1.45,1.65m.15,13.15c1.36,0,2-.47,2-1.4s-.67-1.42-2-1.55-2,.3-2,1.4a1.76,1.76,0,0,0,.15.85c.26.47.86.7,1.8.7m-2,6.45s.06.65.2,1.85a2.3,2.3,0,0,0,2.4,1.8,2.1,2.1,0,0,0,2.3-1.9V161q0-4.6-2.45-4.5c-1.64.07-2.45,1.78-2.45,5.15m-30.5,1.65q-.56,2.59-1.15,5.35,3.54-3.71,7.7-1.3a45.13,45.13,0,0,0,5.45,2.9,4,4,0,0,0,2,.35c.66-.1,1.06-.32,1.2-.65v-.25c0-.53-.62-1.17-1.85-1.9a5.2,5.2,0,0,1-1.7-1.35.9.9,0,0,1-.2-.45.84.84,0,0,1,.55-.9c.81-2.9,1.47-5.35,2-7.35-.45.66-.93,1.36-1.45,2.1q-3.45,4.69-4.65,4.7a6,6,0,0,1-2.35-.75,6.86,6.86,0,0,0-3.25-.8,8.14,8.14,0,0,0-2.35.3m46-57.25a9.94,9.94,0,0,1,1.7.15q-1.15-5.62-4.2-16a31.11,31.11,0,0,0-8,4.3c1.16.47,1.8.73,1.9.8a2.13,2.13,0,0,1,1.2,2q-.1,4.4-5.35,7.35a9.75,9.75,0,0,1-4.85.85A10.54,10.54,0,0,1,59.39,104a7.27,7.27,0,0,1-2.9-6.4,2.86,2.86,0,0,1,.6-1.95,7.89,7.89,0,0,1,2.15-1.15,19.85,19.85,0,0,0-7.75-4.1,112.5,112.5,0,0,0-4.35,16.4,11.12,11.12,0,0,1,3.1-.45q2,0,6.75,2.2a19.87,19.87,0,0,0,7.6,2.15A28.64,28.64,0,0,0,75,108.35Q80.89,106,82.79,106Z"/><path class="cls-7" d="M71,169.23a10.61,10.61,0,0,1-2-.19q-4.25-.79-7.9-1.45c-2.45-.39-3.87-.61-4.22-.64a27.72,27.72,0,0,1-2.9-.71h0a.77.77,0,0,1-.27-.07,28.07,28.07,0,0,0-3.9-.87l-.3,0a1.5,1.5,0,0,0-.42.05l-.53.18.15-.54q.88-3.19,1.55-5.67l-.47.67c-3.17,4.33-4.31,4.83-4.89,4.83a6.32,6.32,0,0,1-2.48-.78,6.61,6.61,0,0,0-3.12-.77,8,8,0,0,0-2.27.29l-.48.14.1-.49C41.35,141.17,44,129,44.39,127s.93-6.68,1.6-13.67c.19-2.13.48-4.36.85-6.62l0-.19.18,0a11.83,11.83,0,0,1,3.19-.46c1.39,0,3.63.73,6.87,2.23a19.8,19.8,0,0,0,7.48,2.12,28.38,28.38,0,0,0,10.28-2.33c4-1.6,6.6-2.37,7.92-2.37a10.52,10.52,0,0,1,1.75.15l.2,0,0,.2c.19.94.34,1.78.45,2.51.57,3.71,1.34,7.86,2.3,12.34.8,3.83,4.28,16,10.34,36.22l.08.25-.24.11a9.93,9.93,0,0,0-2.52,1.75c-2.21,2-2.87,2.23-3.2,2.23-1.44,0-3.25-1.55-5.54-4.74.84,2.18,1.78,4.41,2.81,6.66l-.51.32c-.11-.15-.49-.39-1.71-.39a9.7,9.7,0,0,0-1.79.24c-1.14.52-3.45,1.71-6.82,3.52A15.94,15.94,0,0,1,71,169.23ZM69.8,156.75c-1.44.06-2.16,1.69-2.16,4.85,0,.06.07.67.19,1.82A2,2,0,0,0,69.94,165a1.8,1.8,0,0,0,2-1.65V161c0-2.79-.69-4.2-2-4.2Zm-16.12-.62c-.47,0-.94.63-1.36,1.82a17.24,17.24,0,0,1-.65,1.81,8,8,0,0,0-.53,2.14c0,.77.33,1.1,1.1,1.1,1.1,0,1.91-1.91,2.35-5.54,0-1-.44-1.24-.78-1.32Zm27.81-2.95c-.08,0-.3.25-.3,1.42,1.35,6.17,2.07,6.35,2.15,6.35a.92.92,0,0,0,1-.73,6.9,6.9,0,0,0,0-1.12,7.8,7.8,0,0,0-1.84-5C81.87,153.24,81.57,153.18,81.49,153.18Zm-12.65-.71c-.83,0-1.2.35-1.2,1.13a1.53,1.53,0,0,0,.1.7c.21.37.73.55,1.55.55,1.75,0,1.75-.8,1.75-1.1,0-.46-.18-1.1-1.73-1.25Zm-.67-15c-.33,0-.38.7-.38,1.12,0,0,0,.28.19,1.71.34,1.39,1,1.39,1.16,1.39.48,0,1-.14,1-1.2a3.05,3.05,0,0,0-1.37-2.75A1.22,1.22,0,0,0,68.17,137.48Z"/><path class="cls-12" d="M50.84,161.9a1.24,1.24,0,0,0,1.4,1.4q1.95,0,2.65-5.8c0-.93-.34-1.48-1-1.65s-1.32.5-1.85,2c0,.17-.25.77-.65,1.8a8.73,8.73,0,0,0-.55,2.25m32-8c-1.27-1.57-1.9-1.33-1.9.7q1.44,6.65,2.45,6.65a1.21,1.21,0,0,0,1.3-.95,8.72,8.72,0,0,0-1.85-6.4Z"/><path class="cls-13" d="M48.54,166.4c.13-.47.25-.92.35-1.35a.84.84,0,0,0-.55.9.9.9,0,0,0,.2.45m5.2-.5a27.33,27.33,0,0,0-4-.9,2.18,2.18,0,0,0-.85.05c-.1.43-.22.88-.35,1.35a5.2,5.2,0,0,0,1.7,1.35c1.23.73,1.85,1.37,1.85,1.9v.25l1.9-4a.58.58,0,0,1-.25,0m33.45,3.2a4.55,4.55,0,0,1,1-2.2,4.53,4.53,0,0,0,1-2.35,1.84,1.84,0,0,0-.15-1c-.27-.33-.92-.5-1.95-.5a9.46,9.46,0,0,0-1.85.25q1.4,4.6,2,5.95Z"/><path class="cls-10" d="M72.34,94.45q0-3.45,0-9.55H59.94q-.51,6.85-.7,9.6c-.07,1.07-.12,2.1-.15,3.1,0-1,.08-2,.15-3.1a7.89,7.89,0,0,0-2.15,1.15,2.86,2.86,0,0,0-.6,1.95,7.27,7.27,0,0,0,2.9,6.4,10.54,10.54,0,0,0,5.85,1.45,9.75,9.75,0,0,0,4.85-.85q5.25-3,5.35-7.35a2.13,2.13,0,0,0-1.2-2c-.1-.07-.74-.33-1.9-.8,0,1.53,0,2.5,0,2.9C72.39,97,72.37,96,72.34,94.45Z"/></g><path class="cls-4" d="M84,106.25c-1.14-5.37-2.66-10.67-4.19-16l.65.33a30.34,30.34,0,0,0-7.82,4.23L72.52,94l2,.84,0,0a2.65,2.65,0,0,1,1.43,1.93A6.39,6.39,0,0,1,75.71,99a8.26,8.26,0,0,1-2.16,3.69,14.16,14.16,0,0,1-3.41,2.49A9.87,9.87,0,0,1,66,106a17.23,17.23,0,0,1-4.15-.4,8.76,8.76,0,0,1-2-.74,6.26,6.26,0,0,1-1.74-1.32,7.45,7.45,0,0,1-1.91-3.84A10.86,10.86,0,0,1,56,97.53a3.31,3.31,0,0,1,.74-2.23l0,0a2.39,2.39,0,0,1,.62-.46l.57-.3c.38-.19.76-.35,1.14-.52l-.12.85a19.5,19.5,0,0,0-7.52-4h0l.59-.33a96.82,96.82,0,0,0-4.56,17.93l-.62,4.59-.46,4.63c-.33,3.09-.63,6.17-1.16,9.27l-3.79,18.23c-.62,3-1.33,6.06-2,9.09s-1.34,6.06-2.06,9.08a.49.49,0,0,1-.6.37.5.5,0,0,1-.37-.58c.6-3,1.24-6.08,1.89-9.11s1.26-6.07,2-9.1l4.08-18.15c.51-3,.81-6.12,1.14-9.19l.46-4.63.62-4.64a74.94,74.94,0,0,1,1.87-9.15c.76-3,1.65-6,2.64-9h0a.51.51,0,0,1,.59-.32h0a20.54,20.54,0,0,1,7.91,4.19.5.5,0,0,1,.08.7.48.48,0,0,1-.2.15c-.37.16-.73.32-1.09.5a5,5,0,0,0-.51.27,1.88,1.88,0,0,0-.37.25v0h0A2.54,2.54,0,0,0,57,97.56a9.51,9.51,0,0,0,.15,1.92,6.36,6.36,0,0,0,1.64,3.33,6.24,6.24,0,0,0,3.27,1.78A16.37,16.37,0,0,0,66,105a8.92,8.92,0,0,0,3.74-.73,12.8,12.8,0,0,0,3.13-2.29,7.18,7.18,0,0,0,1.91-3.23,5.78,5.78,0,0,0,.17-1.81A1.64,1.64,0,0,0,74,95.69l0,0-1.81-.76h0a.51.51,0,0,1-.27-.65.51.51,0,0,1,.17-.21,31.38,31.38,0,0,1,8.07-4.37.5.5,0,0,1,.64.29l0,0c1.54,5.3,3.06,10.61,4.21,16a.51.51,0,0,1-.39.59.49.49,0,0,1-.59-.38h0Z"/><path class="cls-4" d="M50.43,157.59a16.85,16.85,0,0,0,1.34-4.18,13.18,13.18,0,0,0,.42-2.15c.09-.73.15-1.46.2-2.19h0a.51.51,0,0,1,1,.06.3.3,0,0,1,0,.1c-.2.72-.39,1.44-.54,2.16s-.39,1.43-.58,2.14a17.5,17.5,0,0,0-.87,4.34.51.51,0,0,1-.52.51.53.53,0,0,1-.45-.77Z"/><path class="cls-4" d="M85,106.05c.84,5.28,1.74,10.48,2.75,15.68C89,126.88,90.48,132,92,137.05s3.24,10.11,4.79,15.19,3.07,10.16,4.38,15.31v0a.5.5,0,0,1-.88.42h0a3,3,0,0,0-1.19-1.09,2.72,2.72,0,0,0-1.63-.16,7.82,7.82,0,0,0-1.7.59l-1.73.71-3.43,1.51a14.37,14.37,0,0,1-1.81.67,2,2,0,0,1-.56.09,3.48,3.48,0,0,1-.55,0,1.56,1.56,0,0,1-.62-.26,1.1,1.1,0,0,1-.42-.68h0l0,.12c-.43-1-.75-2-1.08-3l-.94-3h0l.68.32-7.26,3.68a15.17,15.17,0,0,1-8.1,1.89c-1.44-.16-2.71-.47-4.07-.7l-4-.75c-1.34-.27-2.68-.42-4-.62a16.72,16.72,0,0,1-2-.37l-2-.46h0l.59-.26-1.15,2.57L52.7,170l-.08.18a1.4,1.4,0,0,1-.17.28,1.67,1.67,0,0,1-.44.37,2.9,2.9,0,0,1-.85.3,3,3,0,0,1-.87.06,4.77,4.77,0,0,1-.8-.13,8.78,8.78,0,0,1-1.44-.51c-.9-.4-1.72-.86-2.56-1.32L43,167.82a6.33,6.33,0,0,0-2.4-.84,5.71,5.71,0,0,0-4.58,2v0h0a.5.5,0,0,1-.71,0,.52.52,0,0,1-.12-.45l1.15-5.32h0a.49.49,0,0,1,.59-.38.5.5,0,0,1,.39.59l-1.16,5.33-.84-.46v0a8.85,8.85,0,0,1,2.37-1.85,5.77,5.77,0,0,1,3-.6,7.15,7.15,0,0,1,2.91,1l2.45,1.38c.82.45,1.65.89,2.47,1.28a4.13,4.13,0,0,0,2.34.51,2,2,0,0,0,.48-.15.26.26,0,0,0,.11-.07s0,0,0,0l.07-.14.63-1.27,1.31-2.53h0a.51.51,0,0,1,.58-.25h0a60.93,60.93,0,0,0,8,1.59l4,.73c1.32.22,2.71.54,4,.67a14.25,14.25,0,0,0,7.61-1.83L85,162.84a.48.48,0,0,1,.64.2.16.16,0,0,1,0,.08v0h0l.93,3c.32,1,.65,2,1,2.91v0a.16.16,0,0,1,0,.09h0c0,.08,0,.15.26.23a1.28,1.28,0,0,0,.37.07,1.2,1.2,0,0,0,.37,0,13.53,13.53,0,0,0,1.73-.52c1.15-.44,2.3-.94,3.46-1.41l1.71-.74a10.46,10.46,0,0,1,1.81-.69,3.59,3.59,0,0,1,2,.08,4,4,0,0,1,1.69,1.22h0l-.87.44c-1.76-5-3.3-10.1-4.81-15.19s-2.85-10.23-4.21-15.37l-2.1-7.69c-.71-2.56-1.42-5.11-2-7.71L84,106.25v0a.5.5,0,0,1,.39-.59A.5.5,0,0,1,85,106Z"/><path class="cls-4" d="M81.67,139.54a7.55,7.55,0,0,0,.19,1.85,7,7,0,0,0,.26.89,5,5,0,0,0,.4.85h0a.53.53,0,0,1-.9.56.56.56,0,0,1-.08-.33,5,5,0,0,0,0-1,6.93,6.93,0,0,0-.16-.91,7.15,7.15,0,0,0-.66-1.75.52.52,0,1,1,.9-.54.6.6,0,0,1,.08.31Z"/><path class="cls-4" d="M83.42,146.57a20.48,20.48,0,0,0,.41,2.21c.19.72.42,1.42.65,2.13.47,1.42.88,2.85,1.39,4.25a83.61,83.61,0,0,0,3.57,8.18l-.1-.14h0a.74.74,0,0,1,.18.4,1.19,1.19,0,0,1,0,.25c0,.16,0,.3,0,.44a3.25,3.25,0,0,1-.13.85,6.55,6.55,0,0,1-.69,1.49,12.26,12.26,0,0,0-.77,1.33,1.94,1.94,0,0,0-.25,1.29.52.52,0,0,1-.37.63.51.51,0,0,1-.62-.37.3.3,0,0,1,0-.16v-.1a3.55,3.55,0,0,1,.63-1.63c.29-.46.62-.88.88-1.3a3.83,3.83,0,0,0,.55-1.33,2.6,2.6,0,0,0,0-.68,2.9,2.9,0,0,0-.07-.34l0-.13s-.06,0,0,.06h0l-.1-.14c-1.15-2.77-2.24-5.57-3.23-8.4-.49-1.41-.9-2.86-1.35-4.28-.22-.72-.44-1.44-.7-2.14a20.74,20.74,0,0,0-.8-2.11.51.51,0,0,1,.93-.42.83.83,0,0,1,0,.15Z"/><path class="cls-6" d="M85.19,163.3a9.46,9.46,0,0,1,1.85-.25c1,0,1.68.17,1.95.5"/><path class="cls-6" d="M72.34,94.45q0-3.45,0-9.55H59.94q-.51,6.85-.7,9.6c-.07,1.07-.12,2.1-.15,3.1"/><path class="cls-6" d="M72.34,94.45c0,1.53,0,2.5,0,2.9"/><path class="cls-4" d="M49,166.13a1.53,1.53,0,0,0,.68.92c.34.25.71.43,1.1.67a8.71,8.71,0,0,1,1.12.78,2.72,2.72,0,0,1,.5.59,1.16,1.16,0,0,1,.17.44l.06.37a.51.51,0,0,1-.43.57.5.5,0,0,1-.57-.43.57.57,0,0,1,0-.13h0c0-.27.07-.3,0-.45a1.13,1.13,0,0,0-.26-.44,4.51,4.51,0,0,0-.93-.8l-1.09-.72a14.52,14.52,0,0,1-1.22-.82l-.07-.06a.57.57,0,0,1-.08-.8.56.56,0,0,1,.79-.07A.53.53,0,0,1,49,166.13Z"/><path class="cls-6" d="M54,166a.58.58,0,0,1-.25,0,27.33,27.33,0,0,0-4-.9,2.18,2.18,0,0,0-.85.05c.81-2.9,1.48-5.35,2-7.33"/><path class="cls-6" d="M48.89,165.05a.84.84,0,0,0-.55.9.9.9,0,0,0,.2.45"/><g id="Layer0_4_MEMBER_5_FILL" data-name="Layer0 4 MEMBER 5 FILL"><path class="cls-10" d="M27.59,62.55c.09-1.23.21-2.62.35-4.15q-4.92-.61-7.5,2.3l-.1.1a1.91,1.91,0,0,0-.4.6l-.1.1a8.06,8.06,0,0,0-.45.8,12,12,0,0,0-1.3,5.8,4.07,4.07,0,0,0,1.65,3.25,11.29,11.29,0,0,0,3.7,1.75,22.29,22.29,0,0,0,4,.75,22.83,22.83,0,0,1-.35-4.95,10.71,10.71,0,0,1,.05-1.15c.08-1.29.21-3,.4-5.2l-.35-.1-.6-.15a3.34,3.34,0,0,0-.95-.15,4.32,4.32,0,0,0-1.15.15,3.79,3.79,0,0,0-1.55.75,5.51,5.51,0,0,0,.8,2.65A5.36,5.36,0,0,0,25,67.25a5.36,5.36,0,0,1-1.2-1.55,5.51,5.51,0,0,1-.8-2.65,4.13,4.13,0,0,0-1,1.2,4.35,4.35,0,0,0-.85,2.15,4.35,4.35,0,0,1,.85-2.15,4.13,4.13,0,0,1,1-1.2,3.79,3.79,0,0,1,1.55-.75,4.32,4.32,0,0,1,1.15-.15,3.34,3.34,0,0,1,.95.15l.6.15.35.1m76.7.1q2-.94,4.7.4a4.13,4.13,0,0,1,1.05,1.2,5.06,5.06,0,0,1,.9,2.15,5.06,5.06,0,0,0-.9-2.15,4.13,4.13,0,0,0-1.05-1.2,5.62,5.62,0,0,1-.8,2.65,4.48,4.48,0,0,1-1.2,1.55,4.48,4.48,0,0,0,1.2-1.55,5.62,5.62,0,0,0,.8-2.65q-2.74-1.35-4.7-.4c.1,1.57.2,3.23.3,5v.4a7.62,7.62,0,0,1,0,.85,23.61,23.61,0,0,1-.35,4.75,14.81,14.81,0,0,0,4.3-.55,8.93,8.93,0,0,0,4.5-2.55,3.82,3.82,0,0,0,.85-2.45,11.62,11.62,0,0,0-1.75-6.6l-.1-.1a7.56,7.56,0,0,0-.5-.7l-.3-.3c-.1-.1-.19-.18-.25-.25l-.45-.35A8.5,8.5,0,0,0,104,58.4c.08,1.33.17,2.74.25,4.25m-10-17.95a27.38,27.38,0,0,1-7.05-12A93,93,0,0,1,60.49,46.15a119.38,119.38,0,0,1-31.9,5.15c-.07.63-.14,1.35-.2,2.15s-.2,1.88-.3,2.95c0,.1,0,.2-.05.3a173.72,173.72,0,0,0,34.45-5.8q14.64-4,22.8-8.95a23.47,23.47,0,0,0,11,10,29.48,29.48,0,0,0,7.45,2.35c0-.28,0-.57,0-.85,0-.43-.07-.85-.1-1.25-.07-.67-.12-1.28-.15-1.85A20.31,20.31,0,0,1,94.29,44.7Z"/><path class="cls-9" d="M103.89,56.6c0-.8-.1-1.57-.15-2.3A29.48,29.48,0,0,1,96.29,52a23.47,23.47,0,0,1-11-10q-8.16,4.92-22.8,8.95A173.72,173.72,0,0,1,28,56.7c0,.37,0,.73-.05,1.1,0,.2,0,.4,0,.6-.14,1.53-.26,2.92-.35,4.15-.19,2.17-.32,3.91-.4,5.2a10.71,10.71,0,0,0-.05,1.15,22.83,22.83,0,0,0,.35,4.95A18.47,18.47,0,0,0,33.09,84q5.85,5.55,18.4,7.5t19.15,1.25a116,116,0,0,0,15.5-3q8.94-2.3,12.75-6a18.38,18.38,0,0,0,5.4-10.2,23.61,23.61,0,0,0,.35-4.75,7.62,7.62,0,0,0,0-.85v-.4c-.1-1.77-.2-3.43-.3-5s-.17-2.92-.25-4.25c0-.2,0-.4-.05-.6A6.94,6.94,0,0,1,103.89,56.6Z"/></g><g id="Layer0_4_MEMBER_5_1_STROKES" data-name="Layer0 4 MEMBER 5 1 STROKES"><path class="cls-4" d="M87.72,32.56a25.09,25.09,0,0,0,2.59,6.35,24.29,24.29,0,0,0,4.26,5.37A23,23,0,0,0,100,48.42a16.36,16.36,0,0,0,6.44,1.93.5.5,0,0,1,.46.54.51.51,0,0,1-.53.46,16.45,16.45,0,0,1-6.85-2A23.39,23.39,0,0,1,93.87,45a31.07,31.07,0,0,1-7.11-12.14.49.49,0,0,1,.32-.63.5.5,0,0,1,.63.32Z"/><path class="cls-4" d="M86.93,32.3a10.2,10.2,0,0,0,1.21-.81,14.61,14.61,0,0,0,1.09-1c.76-.6,1.5-1.23,2.29-1.8h0a.5.5,0,0,1,.7.12.51.51,0,0,1-.08.67c-.74.63-1.54,1.2-2.31,1.8-.39.29-.85.5-1.21.82a11.32,11.32,0,0,0-1.09,1,.51.51,0,0,1-.72,0,.5.5,0,0,1,0-.71.31.31,0,0,1,.11-.09Z"/><path class="cls-4" d="M104.23,54.29l.12,1.75.12,1.68v.05l0,.58-.55-.44a11.71,11.71,0,0,1,3.87.11,7.7,7.7,0,0,1,1.87.66,9,9,0,0,1,1.62,1.1l0,0,.55.56h0l0,0,.53.75-.06-.08.1.1.06.07a10.82,10.82,0,0,1,1.67,4.66,15.67,15.67,0,0,1,.13,2.48,4.22,4.22,0,0,1-.94,2.45,9.07,9.07,0,0,1-4.28,2.55,14.82,14.82,0,0,1-4.86.7l.43-.35A19,19,0,0,1,99.26,84a18.62,18.62,0,0,1-4.91,3.29,37.93,37.93,0,0,1-5.47,2.12c-1.86.59-3.76,1-5.64,1.49s-3.79.85-5.7,1.22a54.47,54.47,0,0,1-11.62,1.23,100.22,100.22,0,0,1-11.63-1A61.79,61.79,0,0,1,42.85,90a26.59,26.59,0,0,1-10.23-5.76A19.09,19.09,0,0,1,27,73.94l.45.41a22.24,22.24,0,0,1-4.75-1,12.78,12.78,0,0,1-2.25-1,6,6,0,0,1-2-1.64,4.42,4.42,0,0,1-.89-2.47,16.54,16.54,0,0,1,.15-2.45,11.64,11.64,0,0,1,1.67-4.62l.07-.08.1-.1-.1.15a2.45,2.45,0,0,1,.36-.6,2.58,2.58,0,0,1,.22-.23l.2-.21a7,7,0,0,1,.9-.81,7.27,7.27,0,0,1,2.14-1.11A10.88,10.88,0,0,1,28,57.9l-.56.46c.09-1.19.17-2.37.31-3.56l.34-3.55.51.55c-2,0-4,.06-5.91.05a.5.5,0,1,1,0-1c2,0,3.92,0,5.88-.05a.52.52,0,0,1,.52.5v.05l-.34,3.54c-.13,1.18-.22,2.36-.31,3.55a.5.5,0,0,1-.53.46h0a9.68,9.68,0,0,0-4.26.29,6.52,6.52,0,0,0-1.85,1,5.82,5.82,0,0,0-.78.71l-.37.38a1.07,1.07,0,0,0-.21.36.58.58,0,0,1-.11.15l-.1.1.07-.09A10.52,10.52,0,0,0,18.73,66a14.42,14.42,0,0,0-.14,2.27,3.42,3.42,0,0,0,.69,1.91A7.72,7.72,0,0,0,23,72.44a21,21,0,0,0,4.52.91.5.5,0,0,1,.45.41,18.06,18.06,0,0,0,5.33,9.76,25.8,25.8,0,0,0,9.85,5.53,60.26,60.26,0,0,0,11.26,2.36,103.75,103.75,0,0,0,11.51,1,53.39,53.39,0,0,0,11.45-1.13c1.89-.35,3.78-.75,5.66-1.18s3.76-.88,5.6-1.44a37.72,37.72,0,0,0,5.36-2,17.14,17.14,0,0,0,4.7-3.15,18.14,18.14,0,0,0,5.19-9.9.44.44,0,0,1,.43-.35h0a14.18,14.18,0,0,0,4.57-.67,8.37,8.37,0,0,0,3.85-2.28,3.3,3.3,0,0,0,.73-2,13.65,13.65,0,0,0-.13-2.29,10,10,0,0,0-1.54-4.27l0,.07-.1-.1,0,0,0,0-.47-.65,0,0-.55-.54,0,0a7.77,7.77,0,0,0-1.46-1,6.79,6.79,0,0,0-1.64-.57,10.5,10.5,0,0,0-3.54-.08h0a.49.49,0,0,1-.54-.42v0l-.06-.62v.05l-.14-1.8-.12-1.72h0a.5.5,0,0,1,.46-.53.49.49,0,0,1,.53.47Z"/><path class="cls-4" d="M103.94,50.32a4.69,4.69,0,0,0,0,1,5.45,5.45,0,0,0,.18,1c.06.67.15,1.33.15,2a.51.51,0,0,1-.51.5.5.5,0,0,1-.49-.45c-.08-.65-.08-1.31-.14-2a5.06,5.06,0,0,0-.16-2,.51.51,0,1,1,1-.29.5.5,0,0,1,0,.21Z"/><path class="cls-4" d="M104.09,62.2a5.34,5.34,0,0,1,2.64-.29,8,8,0,0,1,2.48.69h0l.07,0a4.22,4.22,0,0,1,.8.78,4.37,4.37,0,0,1,.31.44l.28.43a4.76,4.76,0,0,1,.75,2,.49.49,0,0,1-.45.54.5.5,0,0,1-.54-.43h0a4.57,4.57,0,0,0-.64-1.62l-.26-.41a3.27,3.27,0,0,0-.25-.36,3.2,3.2,0,0,0-.61-.61l.08,0a7.55,7.55,0,0,0-2.13-.81,3.16,3.16,0,0,0-2.1.41.51.51,0,0,1-.7-.15.5.5,0,0,1,.16-.7.19.19,0,0,1,.09,0Z"/><path class="cls-4" d="M109.49,63.05a12,12,0,0,1-.3,1.28c-.15.4-.2.83-.37,1.23a8.93,8.93,0,0,1-.61,1.09,3,3,0,0,1-1,1,.5.5,0,0,1-.56-.83l0,0a3.76,3.76,0,0,0,.62-.73,10.8,10.8,0,0,0,.58-1,3.6,3.6,0,0,0,.5-1,2.44,2.44,0,0,0,.06-1.07.5.5,0,0,1,.39-.6.51.51,0,0,1,.61.39.54.54,0,0,1,0,.18Z"/><path class="cls-4" d="M104.81,62.62c0,.91,0,1.81,0,2.71,0,.45,0,.91.09,1.36a12,12,0,0,1,.13,1.36V68a21.56,21.56,0,0,1,0,2.89,18.43,18.43,0,0,1-.33,2.86.5.5,0,0,1-1-.18,27.43,27.43,0,0,0,.28-2.73c0-.46,0-.91,0-1.37s0-.91,0-1.35v-.06a24,24,0,0,0,0-2.68c0-.9-.13-1.8-.25-2.69a.5.5,0,0,1,1-.14Z"/><path class="cls-4" d="M104.53,58.37a6.38,6.38,0,0,0,0,1.07,7.65,7.65,0,0,0,.17,1.05c0,.71.13,1.42.14,2.13a.5.5,0,0,1-1,.06c-.08-.7-.09-1.41-.13-2.12a7.69,7.69,0,0,0,0-1.07,6.33,6.33,0,0,0-.17-1.06.5.5,0,0,1,.36-.62.51.51,0,0,1,.62.36A.44.44,0,0,1,104.53,58.37Z"/><path class="cls-4" d="M28.43,58.44c-.17,1.28-.31,2.57-.42,3.85s-.12,2.59-.2,3.87-.19,2.55-.17,3.83A24.92,24.92,0,0,0,28,73.76a.5.5,0,0,1-1,.18A20.87,20.87,0,0,1,26.61,70c0-1.31.09-2.64.2-3.91s.34-2.57.41-3.86.18-2.58.22-3.87a.5.5,0,0,1,1,0,.13.13,0,0,1,0,.06Z"/><path class="cls-4" d="M27.4,63a2.83,2.83,0,0,0-.4-.17l-.45-.15h0a3.05,3.05,0,0,0-1.7-.07,2.88,2.88,0,0,0-1.51.8h0l.2-.39A4.88,4.88,0,0,0,24,65.11a7.43,7.43,0,0,0,.58,1,3.47,3.47,0,0,0,.64.76l0,0a.51.51,0,0,1,.13.7.5.5,0,0,1-.7.12h0a4.24,4.24,0,0,1-.92-1,7.79,7.79,0,0,1-.64-1.09,5.66,5.66,0,0,1-.66-2.5v0a.39.39,0,0,1,.19-.34h0a5.75,5.75,0,0,1,2-.78,4.56,4.56,0,0,1,2.12,0h0l.52.1c.16,0,.36.1.54.14a.5.5,0,1,1-.26,1h-.05Z"/><path class="cls-4" d="M23.29,63.45a1.81,1.81,0,0,0-.69.54,3.25,3.25,0,0,0-.43.83,4,4,0,0,0-.58,1.61h0a.5.5,0,0,1-.56.44.51.51,0,0,1-.43-.51,4.21,4.21,0,0,1,.72-2.07c.2-.28.46-.49.67-.81a10.56,10.56,0,0,1,.71-.84v0a.52.52,0,0,1,.77.69A.55.55,0,0,1,23.29,63.45Z"/><path class="cls-4" d="M28.57,50.8a123.69,123.69,0,0,0,15.5-1.31A100.18,100.18,0,0,0,59.22,46,92.8,92.8,0,0,0,86.94,32.29a.5.5,0,0,1,.59.81h0A93.71,93.71,0,0,1,59.51,47a118.12,118.12,0,0,1-15.32,3.32A147.92,147.92,0,0,1,28.6,51.8a.5.5,0,0,1-.05-1Z"/></g><g id="Layer0_4_MEMBER_5_MEMBER_0_FILL" data-name="Layer0 4 MEMBER 5 MEMBER 0 FILL"><path class="cls-4" d="M39,57.7a3.2,3.2,0,0,0-.45.55A3.47,3.47,0,0,0,38,59.8v.45a3.59,3.59,0,1,0,1-2.55m2.35.95c1.1.07,1.65.58,1.65,1.55a1.73,1.73,0,0,1-.6,1.2,1.67,1.67,0,0,1-1.2.55c-1,0-1.5-.53-1.5-1.6s.55-1.73,1.65-1.7m49.05-.95a3.61,3.61,0,1,0,6.15,2.55,2.83,2.83,0,0,0,0-.5A3.49,3.49,0,0,0,96,58.2a3.63,3.63,0,0,1-.65-.05,3.63,3.63,0,0,0,.65.05c-.14-.17-.29-.33-.45-.5a3.62,3.62,0,0,0-5.1,0m2.35,1c1,0,1.45.53,1.45,1.7a1.76,1.76,0,0,1-.3,1,1.33,1.33,0,0,1-1.15.55c-1,0-1.5-.53-1.5-1.6S91.79,58.73,92.79,58.7Z"/><path class="cls-14" d="M43,60.2c0-1-.55-1.48-1.65-1.55s-1.65.53-1.65,1.7.5,1.6,1.5,1.6a1.67,1.67,0,0,0,1.2-.55,1.73,1.73,0,0,0,.6-1.2m51.2.2c0-1.17-.49-1.73-1.45-1.7s-1.5.58-1.5,1.65.5,1.6,1.5,1.6a1.33,1.33,0,0,0,1.15-.55A1.76,1.76,0,0,0,94.24,60.4Z"/></g><g id="Layer0_4_MEMBER_5_MEMBER_0_1_STROKES" data-name="Layer0 4 MEMBER 5 MEMBER 0 1 STROKES"><path class="cls-4" d="M97.06,59.72a4.12,4.12,0,0,1-.7,2.82,4.07,4.07,0,0,1-5.25,1.3,4.11,4.11,0,0,1-1.9-2.16,4.28,4.28,0,0,1,0-2.87A4.05,4.05,0,0,1,94,56.32,4.22,4.22,0,0,1,96.36,58L96,57.77a2.14,2.14,0,0,0,1.47-.26h0l0,0a2.47,2.47,0,0,0,.49-.95h0a.51.51,0,0,1,.63-.32.5.5,0,0,1,.32.63v0a3.31,3.31,0,0,1-.81,1.35l0,0a2,2,0,0,1-1.16.49,4.78,4.78,0,0,1-1.07,0,.46.46,0,0,1-.34-.19,3.22,3.22,0,0,0-1.84-1.3,3.29,3.29,0,0,0-2.25.24A3.22,3.22,0,0,0,90,59.11a3.16,3.16,0,0,0,3.76,4.2,3.1,3.1,0,0,0,2.29-3.48.5.5,0,0,1,1-.12Z"/><path class="cls-4" d="M96.83,59.35a1.46,1.46,0,0,0,.43.3.64.64,0,0,0,.2.08l.07,0h.65a1.77,1.77,0,0,0,.47-.22.52.52,0,0,1,.7.18.51.51,0,0,1-.18.69.35.35,0,0,1-.14.06h0c-.21,0-.4.11-.67.16a.67.67,0,0,1-.25,0H98l-.3,0H97.5l-.22,0a2.74,2.74,0,0,1-.37-.11l-.62-.28h0a.51.51,0,1,1,.41-.93A.67.67,0,0,1,96.83,59.35Z"/><path class="cls-4" d="M96.06,59.84a2,2,0,0,0-.1-.73,2.08,2.08,0,0,0-.34-.64l.33.2q-.35,0-.69,0a.51.51,0,0,1-.53-.49.5.5,0,0,1,.49-.52.29.29,0,0,1,.16,0h0a6,6,0,0,0,.61.12h0a.4.4,0,0,1,.28.19,6,6,0,0,1,.42.84,7.11,7.11,0,0,1,.29.89v0a.51.51,0,0,1-.34.64.52.52,0,0,1-.64-.35A1.1,1.1,0,0,1,96.06,59.84Z"/><path class="cls-4" d="M65.81,64.28a9.16,9.16,0,0,0-1,1.06s0,.31,0,.51a1.9,1.9,0,0,0,.24.61,2.36,2.36,0,0,0,1,.85,1.27,1.27,0,0,0,1.17-.07.5.5,0,0,1,.48.88l0,0h0a2.4,2.4,0,0,1-1.93,0,3.12,3.12,0,0,1-1.37-1.22A3,3,0,0,1,64,66a3.81,3.81,0,0,1-.07-.47A1.2,1.2,0,0,1,64,65a3.06,3.06,0,0,1,.57-.77l.5-.59v0a.52.52,0,0,1,.71-.06.51.51,0,0,1,.06.71Z"/><path class="cls-4" d="M57.75,74.51a8,8,0,0,0,1,2.74,5.61,5.61,0,0,0,2.08,1.94,11.56,11.56,0,0,0,5.84,1,10.53,10.53,0,0,0,5.68-1.52,6.67,6.67,0,0,0,3-4.79.49.49,0,0,1,.52-.47.5.5,0,0,1,.48.52v0h0a6.39,6.39,0,0,1-1.14,3.11,9.74,9.74,0,0,1-2.29,2.33A11.36,11.36,0,0,1,66.68,81a22.44,22.44,0,0,1-3.17-.1A9.13,9.13,0,0,1,60.39,80,6.53,6.53,0,0,1,58,77.74a8.78,8.78,0,0,1-1.19-3,.51.51,0,0,1,.39-.59.5.5,0,0,1,.59.39Z"/><path class="cls-4" d="M38.17,58a4,4,0,0,1,2.39-1.67,4,4,0,0,1,4.81,5.33,4.05,4.05,0,0,1-4.72,2.55,4.06,4.06,0,0,1-3.1-4.42l.69.46a3.22,3.22,0,0,1-1.09.45h-.4c-.13,0-.16,0-.39,0a3.14,3.14,0,0,1-.76-.22.49.49,0,0,1-.3-.64.5.5,0,0,1,.64-.3h0a3.76,3.76,0,0,0,.51.17H37a2.58,2.58,0,0,0,.76-.3h0a.46.46,0,0,1,.63.19.48.48,0,0,1,.06.28A3.06,3.06,0,0,0,39,62.05a3.16,3.16,0,0,0,1.85,1.28,3.3,3.3,0,0,0,2.25-.27,3.26,3.26,0,0,0,1.49-1.7,3.34,3.34,0,0,0,0-2.27,3.15,3.15,0,0,0-3.76-1.88A3.07,3.07,0,0,0,39,58.52l0,0a.5.5,0,0,1-.83-.55Z"/><path class="cls-4" d="M38.62,58.75a9.71,9.71,0,0,1-1-.09,2.25,2.25,0,0,1-1.09-.51l0,0a4,4,0,0,1-.85-1.31.51.51,0,1,1,.9-.48.78.78,0,0,1,0,.14h0a2.08,2.08,0,0,0,.46,1l0,0a1,1,0,0,0,.62.24,2.68,2.68,0,0,0,.84,0,.5.5,0,0,1,.6.39.51.51,0,0,1-.4.6Z"/><path class="cls-4" d="M37.51,59.77c.11-.31.16-.62.29-.91s.25-.59.37-.89l0,0a.51.51,0,1,1,1,.39.48.48,0,0,1-.14.2,1.54,1.54,0,0,0-.49,1.35.52.52,0,1,1-1,.17.71.71,0,0,1,0-.25Z"/></g></g></g></svg>