<svg xmlns="http://www.w3.org/2000/svg" xmlns:xlink="http://www.w3.org/1999/xlink" viewBox="0 0 500 88.6"><defs><style>.cls-1{fill:none;}.cls-2{clip-path:url(#clip-path);}.cls-3{fill:#a5b83b;}.cls-4{fill:#8c9f25;}</style><clipPath id="clip-path" transform="translate(0 -4.85)"><rect class="cls-1" width="500" height="93.45"/></clipPath></defs><title>grass</title><g id="Слой_2" data-name="Слой 2"><g id="Слой_1-2" data-name="Слой 1"><g id="OBJECTS"><g class="cls-2"><g id="Layer0_2_FILL" data-name="Layer0 2 FILL"><path class="cls-3" d="M250.59,8.13q-102,.6-163.21,21.38T0,65.94V93.45H500V65.94Q477.89,49.85,415.26,28.7T250.59,8.13Z" transform="translate(0 -4.85)"/></g><g id="Layer0_7_FILL" data-name="Layer0 7 FILL"><path class="cls-3" d="M21.09,50.49a4.64,4.64,0,0,1-.64-.17c-.52.26-1.19,1.21-2,2.86a12.45,12.45,0,0,0-1.27,3,4.64,4.64,0,0,0-1.32-.43c-1.66-.31-2.49,0-2.49.85q0,.64,1.32,1.41a17,17,0,0,1,2.74,2,3.59,3.59,0,0,0,.88-2,1.93,1.93,0,0,0-.2-.85A14.46,14.46,0,0,0,20,54.21a12.29,12.29,0,0,0,1.37-3q0-.48-.24-.6M121.77,21.74a1.54,1.54,0,0,0,.1-.64c0-.85-.76-1.7-2.3-2.43s-2.54-.62-2.94.26q1.53.93,5.14,2.81m74.9-13.9a6.25,6.25,0,0,0,0,1.06,7.71,7.71,0,0,0,.15,1.92,2.08,2.08,0,0,0,2.05,1.24.75.75,0,0,0,.45-.34A2.66,2.66,0,0,1,198,9.16a3.27,3.27,0,0,0-.64-2.56,1.55,1.55,0,0,0-.64,1.24m8.52-1.92c-.1-.09-.15-.15-.15-.17a5.53,5.53,0,0,0-4.26,1.66,4.23,4.23,0,0,0-1.61,2.86,1.9,1.9,0,0,0,.15.94l.88-.05a18,18,0,0,1,3.22-2.85c1.28-.94,1.91-1.54,1.91-1.8a.84.84,0,0,0-.14-.59m-18,6.44.49-.86a2.5,2.5,0,0,0,.2-.93c0-.69-.52-1.27-1.57-1.75a3.84,3.84,0,0,0-3.81.25l.09.43a10.17,10.17,0,0,1,3.23,2,3.32,3.32,0,0,0,1.37.9m167-.3A.58.58,0,0,1,354,12c-.78.09-1.79.86-3,2.35s-1.76,2.26-1.76,2.69a.5.5,0,0,0,.19.38,5.82,5.82,0,0,0,.84.64,37.09,37.09,0,0,1,2.59-2.77,4.61,4.61,0,0,0,1.52-2.73c0-.28,0-.45-.1-.47m26.42,9.43.14-.64a7.21,7.21,0,0,0-1.86-3.16,5.37,5.37,0,0,0-3.08-2.05l-.15.69c.1.14.93,1.12,2.5,2.94a29,29,0,0,1,2,2.56.51.51,0,0,0,.19-.22.3.3,0,0,1,.25-.12M482.78,55.31a25.68,25.68,0,0,0-1.08-4.69.76.76,0,0,1-.49.68c-.32.15-.49.26-.49.35a11.69,11.69,0,0,0,.4,2.34,5.82,5.82,0,0,0,1,2.43,3.29,3.29,0,0,1,.49-.42,1,1,0,0,0,.2-.69m-26.91-11.6a8.16,8.16,0,0,0,1.76-2.05q0-2.73-2.59.09a27.11,27.11,0,0,0-2.59,3.41l.88.85a13.49,13.49,0,0,0,2.54-2.21m-5.53-5.59c-.1-.09-.14-.15-.14-.17a4.29,4.29,0,0,0-2.5,1.19c-.91.74-1.37,1.35-1.37,1.84v.72a1,1,0,0,0,1.13.64c2-2,3-3.25,3-3.62a1.12,1.12,0,0,0-.1-.6m-4.25,2.3a1.83,1.83,0,0,0,.49-1.06,5,5,0,0,0-1.77-3.55c-1.17-1.1-1.76-1-1.76.39a9.77,9.77,0,0,0,1,2.77,8.45,8.45,0,0,0,1.37,2.35,3.09,3.09,0,0,1,.64-.9M410,23.58a1.79,1.79,0,0,1-.34-.6A6.12,6.12,0,0,0,405.58,25c-1.25,1.17-1.86,2-1.86,2.43s.08.55.24.64a1.74,1.74,0,0,0,.59.13A8.29,8.29,0,0,0,406.36,26,6.44,6.44,0,0,1,410,23.58m-9.3,2a3.43,3.43,0,0,0,.59-1.57c-1.37-2.31-2.75-3.5-4.16-3.59l-.14.64a18.7,18.7,0,0,0,3.23,4.74c.58,0,.75-.07.48-.22m-51-10.75a.73.73,0,0,0,.19-.59,3.57,3.57,0,0,0-1.12-2.35,10.44,10.44,0,0,0-2.79-2,1,1,0,0,1-.34.26.8.8,0,0,0-.2.64,4.83,4.83,0,0,0,1.13,2,6.76,6.76,0,0,0,2.79,2.31,1.79,1.79,0,0,0,.34-.22M287.23,5.15,287.08,5a4,4,0,0,0-3.57.77,3.6,3.6,0,0,0-1.32,1.53,5.3,5.3,0,0,0-.73-.85,4.76,4.76,0,0,0-3.62-1.37.54.54,0,0,1-.15.22V5.7c0,.26.46.8,1.37,1.62a24.84,24.84,0,0,0,2.84,2.22,2.12,2.12,0,0,0,.63-.38c.05.05.08.05.1,0l.1.17a5.22,5.22,0,0,0,.78,1.32,1.15,1.15,0,0,0,.69-.42c0,.28.05.17.05-.35a5.55,5.55,0,0,1-.59-2c.07-.49,1.25-1.37,3.57-2.65M257.58,11a1.71,1.71,0,0,0,1.23-1.79c0-.94-.88-2-2.65-3.2s-2.64-1.21-2.64,0a5.4,5.4,0,0,0,1.32,1.88c1.6,1.76,2.52,2.79,2.74,3.07M151.47,11a.3.3,0,0,1-.25-.13,4.52,4.52,0,0,0-2.54,1.5,3.17,3.17,0,0,0-.88,2,2.81,2.81,0,0,0,.19.81,3.31,3.31,0,0,0,.69,1.24,2.8,2.8,0,0,0,1-.6,2.79,2.79,0,0,1,.73-2.47,5.06,5.06,0,0,0,1.13-1.88c0-.28,0-.45-.1-.51m-3.67,4.91.15-.64a15.44,15.44,0,0,0-1.52-2.35c-.82-.82-1.55-.61-2.2.64A14.38,14.38,0,0,1,146,15.05a5.63,5.63,0,0,0,1.56,1.1c.23,0,.32-.12.25-.29M91,27.54l-1-.81a5.44,5.44,0,0,0-1.76,1.71,3.4,3.4,0,0,0-.74,1.71,12.64,12.64,0,0,0-2-1.33,7.19,7.19,0,0,0-2.84-1.23q0,.12-.15.12v.43a16.94,16.94,0,0,0,2.3,1.71,21.64,21.64,0,0,0,2.45,1.62c.56,0,.71,0,.49-.13a1,1,0,0,0,.1-.21,1.91,1.91,0,0,0,.39.47,7.46,7.46,0,0,0,1.56-2.09,7.4,7.4,0,0,0,1-2m-7.48,4.31a1.21,1.21,0,0,1,0-.38A2.69,2.69,0,0,0,81.21,30c-1.07-.2-1.61.08-1.61.85a14.69,14.69,0,0,0,3.13,1.24c.36,0,.56-.07.59-.22M41.34,44q-2.21-1.71-2.35.47a7.89,7.89,0,0,0,2.35,1.92,17.19,17.19,0,0,0,2.35,1.06l.1-.59a3.71,3.71,0,0,0,1.07.59l.2-.13a.9.9,0,0,0-.39-.38.88.88,0,0,1-.3-.68,12.63,12.63,0,0,1,.69-2.82,13.43,13.43,0,0,0,.68-2.56c0-.31,0-.49-.09-.55a.29.29,0,0,1-.25-.13c-.59.26-1.09,1.18-1.52,2.77a10.87,10.87,0,0,0-.53,2.69V46A8.48,8.48,0,0,0,41.34,44Z" transform="translate(0 -4.85)"/></g></g><g id="Layer0_8_FILL" data-name="Layer0 8 FILL"><path class="cls-4" d="M100.7,87.05a9.89,9.89,0,0,1,.7.9,2.47,2.47,0,0,0,1.6,1c.3,0,.48,0,.55-.15v-.3c.1-.3-.37-.88-1.4-1.75s-1.45-.68-1.45.35m48.2-18.9a1.51,1.51,0,0,0-.85-1.4,2.28,2.28,0,0,0-.45.2c-.17.1-.25.32-.25.65a2.34,2.34,0,0,0,.35,1A3.07,3.07,0,0,0,149,70v-.15a3.17,3.17,0,0,1-.1-1.7m22.5,9.65a10.81,10.81,0,0,0-1.3,2.1v.45h.7a14.86,14.86,0,0,1,1.5-1.95,8.92,8.92,0,0,0,1.2-1.6c0-.33-.08-.55-.25-.65a3.33,3.33,0,0,1-.5-.25,19.72,19.72,0,0,1-1.4,1.9m-8.15.35-.8-.8a1.57,1.57,0,0,0-.5.25.83.83,0,0,0-.25.7,5.24,5.24,0,0,0,.75,2.4,5.07,5.07,0,0,0,.65-.35,20.15,20.15,0,0,0,.15-2.2m-4.5,3.15.1-.6a4.46,4.46,0,0,0-2.1-2.1c-1.27-.8-1.9-.63-1.9.5,0,.17.35.58,1,1.25a3.46,3.46,0,0,0,2.2,1.2c.3,0,.48,0,.55-.1l.1-.15m58-18.5a.15.15,0,0,1-.1-.15q-.94-.19-1.2.15c-.07.07-.1.27-.1.6a.88.88,0,0,0,.3.7,1.24,1.24,0,0,1,.25.35l.75-.3c.1-.07.15-.35.15-.85a1.4,1.4,0,0,0,0-.5m18.6,15.55a1.5,1.5,0,0,0,.6-1c0-1-.43-1.2-1.3-.6s-1.3,1.17-1.3,1.8c0,.3.05.43.15.4a1.43,1.43,0,0,1,.65,0,2.45,2.45,0,0,0,1.2-.55m-10.4,2.1c.63,0,1-.6,1-1.8q0-1.4-.9-1.65c-.63-.17-1,.33-1,1.5v1c.1.67.4,1,.9,1M222.45,82l.15-.8a13.85,13.85,0,0,0-2.7-3.35q-2.1-1.95-2.1.7c0,2.65.43.65,1.3,1.85s1.78,1.8,2.45,1.8c.5,0,.8-.07.9-.2m106.6,3.6c.63,0,.95-.3.95-.9s-.67-1.33-2-2.3S326,81.65,326,83a13.35,13.35,0,0,1,1,1.25,3.24,3.24,0,0,0,2.15,1.4m9.5-2.9a5.91,5.91,0,0,0,1.2-1.8q0-2.25-1.8-.6t-1.8,2.85a1.19,1.19,0,0,0,.25.7l.55.55a7.83,7.83,0,0,0,1.6-1.7M297.45,72.6a4,4,0,0,0,.75-1.4c0-.9-.37-1-1.1-.45a2.71,2.71,0,0,0-1.15,2.1,1.56,1.56,0,0,0,.3,1q.4,0,1.2-1.2m-5.7.4a9.17,9.17,0,0,0,.35-2.85.92.92,0,0,0-.8-1h-.1c-.63-.1-.95.25-.95,1,0,2,.33,3,.9,3s.7-.07.6-.2m-4.2.3a.71.71,0,0,0,.8-.61.61.61,0,0,0,0-.19q0-.75-1.35-1.65a4,4,0,0,0-2.7-.85c0,.13-.08.2-.15.2v.4c0,.2.45.68,1.35,1.45a4.36,4.36,0,0,0,2.05,1.25M480.6,92.7a3,3,0,0,0,.95-1.8c0-.77-.32-1.15-.95-1.15s-1,.38-1,1.15a3,3,0,0,0,1,1.8M419.8,56.75a1.31,1.31,0,0,0,.1-.65,21,21,0,0,0-1.6-2.85c-1.07-1.5-1.61-1.4-1.6.3a4.52,4.52,0,0,0,1.15,1.85c.77.93,1.33,1.42,1.7,1.45a.6.6,0,0,0,.25-.1M408.65,76.6a7.52,7.52,0,0,0-.5-.75,1.61,1.61,0,0,0-.55.25.81.81,0,0,0-.2.65q0,.15.75.9a3.31,3.31,0,0,1,1.25-.15,5.43,5.43,0,0,1-.75-.9m42.1,1.5v-.3a2,2,0,0,0-1.5.3,3.22,3.22,0,0,0-.75,1.35,24.35,24.35,0,0,0,2.25-1.35m-8.3-2.1-.1-.1a1.79,1.79,0,0,0-1.3.6,1.39,1.39,0,0,0-.5,1q0,.5.15.6a.89.89,0,0,0,.5.15c.9-.64,1.35-1.22,1.35-1.75,0-.3,0-.48-.1-.55m-7.3-1c0-.1-.3-.43-.9-1a3.56,3.56,0,0,0-.8,1.35,4.79,4.79,0,0,0-.5,1.3,2.21,2.21,0,0,0,.1.85c.1.17.32.25.65.25.5,0,.63,0,.4-.1.39-.85.74-1.72,1-2.6m-3.75,3.45a1.78,1.78,0,0,0,0-.65,3,3,0,0,0-1.1-1.9,3.36,3.36,0,0,0-2.25-1.2l-.15.8a4.12,4.12,0,0,0,1,1.65c.7,1,1.35,1.45,2,1.45s.66,0,.55-.15m-61-22.1c0-.07-.2-.15-.5-.25a1.57,1.57,0,0,0-.5.25,1,1,0,0,0-.15.65,7.39,7.39,0,0,0,.15,1.15,5.79,5.79,0,0,1,.05,1.25h.25a3.77,3.77,0,0,1,.5-1.25,2.92,2.92,0,0,0,.4-1.15.81.81,0,0,0-.2-.65m-8.35-2.45c-.2-.23-.35-.4-.45-.5a1.48,1.48,0,0,0-.55.3,1,1,0,0,0-.2.7,3,3,0,0,0,.75,2l.3-.15.3-.85a3.37,3.37,0,0,0,.15-1,.8.8,0,0,0-.3-.55m-4.6,2.35a.93.93,0,0,0,.45-.8,18,18,0,0,0-2-2.9q-2-2.36-2,.15a5.52,5.52,0,0,0,.85,1.9c.73,1.2,1.45,1.8,2.15,1.8a1.33,1.33,0,0,0,.55-.15m-41.1-12.85-.45-.45c0,.1-.13.23-.4.4s-.45.32-.45.45a3.52,3.52,0,0,0,.25,1.2,3.17,3.17,0,0,0,.6,1,2.22,2.22,0,0,0,.65-1.2,4.24,4.24,0,0,0,.15-1c0-.07-.12-.22-.35-.45m-2.8,3a1.46,1.46,0,0,0,.1-.65c0-.6-.67-1.47-2-2.6s-2-1-2,.45c0,.2.47.75,1.4,1.65a11.75,11.75,0,0,0,1.8,1.65l.55-.15a1.1,1.1,0,0,0,.2-.35M245.85,36q.45,0,.45-.3a22.77,22.77,0,0,0-2-1.85c-1-.8-1.5-.62-1.5.55,0,.5,0,.72.15.65a9.87,9.87,0,0,1,2.85,1m-1.3,5.75q-.15-.11-.15-.15a3.08,3.08,0,0,0-2,1.45,3.29,3.29,0,0,0-.6,1.3,1.69,1.69,0,0,0,.3.6,3.1,3.1,0,0,0,.6.75,6.52,6.52,0,0,0,1.15-1.65,6.3,6.3,0,0,0,.8-1.7,1.12,1.12,0,0,0-.1-.6M240,46.45v-.3c0-.93-.77-1.77-2.3-2.5s-2.35-.6-2.35.4c0,.23.47.72,1.4,1.45a4.83,4.83,0,0,0,2.7,1.25h.45a.6.6,0,0,1,.1-.25m-46.55,1.1a1,1,0,0,1-.4-.15c-.57.37-1.27,1.5-2.1,3.4h.15c1.7-1.53,2.55-2.42,2.55-2.65a.74.74,0,0,0-.2-.6m-8,2.5a4.44,4.44,0,0,0,.25-1.4c0-.93-.32-1.4-1-1.4s-1,.47-1,1.4A3.57,3.57,0,0,0,184,50a2.87,2.87,0,0,0,.65,1.2c.33-.07.6-.42.8-1m-2.85,1.6.3-1c-.23-.77-1.13-1.8-2.7-3.1s-2.55-1.35-2.55.25c0,.43.55,1.1,1.65,2a11.63,11.63,0,0,0,2.8,1.85h.5M44.2,83.15a.54.54,0,0,1-.1-.2,2.13,2.13,0,0,0-1.35.6,1.36,1.36,0,0,0-.6,1A2.58,2.58,0,0,0,43,86l.4-.15a6.9,6.9,0,0,1,.5-1.15,6,6,0,0,0,.45-1c0-.3,0-.48-.1-.55m-4.6,4a.86.86,0,0,0,.5-.25.91.91,0,0,0,.4-.75c0-.53-.82-1.37-2.45-2.5s-2.5-1-2.5.4c0,.2.58.77,1.75,1.7a5.81,5.81,0,0,0,2.3,1.4M67.45,70.9a2,2,0,0,1-.25-1.35c-1-.3-1.45,0-1.45.75,0,.5.93,1.2,2.8,2.1v-.15a2.7,2.7,0,0,1-1.1-1.35M107,58.5l-.45-.45a6.62,6.62,0,0,0-1.6,1,4.41,4.41,0,0,0-1.5,1.65,1.21,1.21,0,0,1,.2.3,1,1,0,0,0,.65.15c.33,0,1.35-.7,3-2.1a.81.81,0,0,0-.35-.55m-8.55,3.85c.13,0,.2-.3.2-.8a4.7,4.7,0,0,0-1-2.4c-.73-1-1.1-.78-1.1.55l.2,1.35c.23,1.07.63,1.6,1.2,1.6s.68-.1.55-.3m-6.25-.55c.5,0,.73-.07.7-.2a6.09,6.09,0,0,0-2.9-3c-1.27-.57-1.9-.37-1.9.6a14.46,14.46,0,0,1,1.1,1.25,4.28,4.28,0,0,0,3,1.35m34.4-23.9c0-.8-.4-1-1.2-.5a2.38,2.38,0,0,0-1.25,2.15c0,.33.07.53.2.6a2.64,2.64,0,0,0,.55.15,3.4,3.4,0,0,0,1-1,2.67,2.67,0,0,0,.7-1.35m-6.5,5.75a12.19,12.19,0,0,0,.5-2.6c0-1.07-.43-1.28-1.3-.65a3.38,3.38,0,0,0-1.3,3v1.2c.13.77.48,1.15,1,1.15.3,0,.63-.7,1-2.1m-5.15-.2c-1.63-.87-2.45-.75-2.45.35,0,.4.58.93,1.75,1.6l2.3,1.25.7-.35c.1.13.15,0,.15-.55s-.82-1.43-2.45-2.3M228,19.3a.15.15,0,0,1-.1-.15h-1a3,3,0,0,1-1,1.85,13.84,13.84,0,0,0-1.1,1.2c2.17-.87,3.25-1.67,3.25-2.4a1.4,1.4,0,0,0,0-.5m-13.75.6a4.37,4.37,0,0,0,.3-1.6c0-.77-.37-1.1-1.1-1s-1.15.73-1.15,2l.15.75a.94.94,0,0,0,.9.75q.5,0,.9-.9m-3,1.2.15-.4a7.78,7.78,0,0,0-2-1.75,4.69,4.69,0,0,0-2.4-1.1.75.75,0,0,1-.15.2v.45c0,.17.52.67,1.55,1.5a5,5,0,0,0,2.35,1.3c.5,0,.65-.07.45-.2M389.75,38.35l-.35-.1a.75.75,0,0,1-.3.1.61.61,0,0,0-.3.6,2.7,2.7,0,0,0,.1.8,2.28,2.28,0,0,1,.2.45,5.35,5.35,0,0,0,.45-.5,1.39,1.39,0,0,0,.35-.8c0-.33,0-.52-.15-.55m-16.45-6.8a.54.54,0,0,1-.1-.2c-1.5-.2-2.25.72-2.25,2.75a.81.81,0,0,0,.2.65l.45.15a6,6,0,0,0,1-1.3,3.76,3.76,0,0,0,.7-1.5,2.05,2.05,0,0,0-.05-.55m-6.6-3.35c-.07-.07-.1-.12-.1-.15a2.18,2.18,0,0,0-1.7,1.4,3.16,3.16,0,0,0-.5,1.35,2.56,2.56,0,0,0,.85,1.85,4.23,4.23,0,0,0,1-1.95,8.73,8.73,0,0,0,.5-1.95,2.05,2.05,0,0,0-.05-.55m-4.6,4.3.45-.6a8.35,8.35,0,0,0-2-4.9c-1-1-1.55-.7-1.55.9a7.41,7.41,0,0,0,1.2,2.4c.87,1.33,1.5,2.07,1.9,2.2M274,22.35a4.34,4.34,0,0,1-.5-.2.76.76,0,0,0-.65.8,3.62,3.62,0,0,1-.6,1.65l.15.15,1.25-.75a1.11,1.11,0,0,0,.55-1,.81.81,0,0,0-.2-.65m-9.35,4.8a3.38,3.38,0,0,0,.1-.95c0-.77-.27-1-.8-.65a1.73,1.73,0,0,0-.85,1.7,1.22,1.22,0,0,0,.15.7,3.61,3.61,0,0,0,.6.35,4.84,4.84,0,0,0,.8-1.15m-3,3.1a2.57,2.57,0,0,1,.2-.45,6.53,6.53,0,0,0-1.05-2.25,2,2,0,0,0-2.25-1,.28.28,0,0,1-.15.2v.45a7.83,7.83,0,0,0,1,1.7c.73,1,1.25,1.55,1.55,1.55a1,1,0,0,0,.7-.2m43.4,2.4a3,3,0,0,0,.35-.45.17.17,0,0,0,.05.15,1.56,1.56,0,0,0,.65.9,2.18,2.18,0,0,0,.75-.4,23.58,23.58,0,0,1,.8-5.6,6.18,6.18,0,0,0-2,2.1,3,3,0,0,0-.2.6A5.1,5.1,0,0,0,304,28c-1.23-1.07-2.14-.77-2.75.9a51.78,51.78,0,0,1,3.85,3.75Z" transform="translate(0 -4.85)"/></g></g></g></g></svg>