<svg id="Слой_1" data-name="Слой 1" xmlns="http://www.w3.org/2000/svg" xmlns:xlink="http://www.w3.org/1999/xlink" viewBox="0 0 746.12 441.39"><defs><style>.cls-1{fill:#ecf7fe;}.cls-2{fill:url(#Безымянный_градиент);}.cls-3{fill:url(#Безымянный_градиент_2);}.cls-4{fill:#3c9968;}.cls-5{fill:#22665c;}.cls-6{fill:#b5c44d;}.cls-7{fill:#4f7c2c;}.cls-8{fill:#46577f;}.cls-9{fill:#7ba0c3;}.cls-10{fill:#fad2c8;}.cls-11{fill:#efb3b1;}.cls-12{fill:#698db7;}.cls-13,.cls-17,.cls-21,.cls-24,.cls-25,.cls-26,.cls-43,.cls-46,.cls-50,.cls-54,.cls-58{fill:none;}.cls-13{stroke:#467d9b;}.cls-13,.cls-17,.cls-21,.cls-43,.cls-46,.cls-50,.cls-54{stroke-linecap:round;stroke-linejoin:round;}.cls-14{fill:#f04848;}.cls-15{fill:#db3a46;}.cls-16{fill:#fc8172;}.cls-17,.cls-21{stroke:#54110a;}.cls-18{fill:#76563f;}.cls-19{fill:#937e54;}.cls-20{fill:#54110a;}.cls-21,.cls-26,.cls-46{stroke-width:2px;}.cls-22{fill:#d66454;}.cls-23{fill:#fff;}.cls-24,.cls-25,.cls-26{stroke:#108e90;}.cls-24{stroke-miterlimit:10.03;stroke-width:2.01px;}.cls-25{stroke-miterlimit:10;stroke-width:2px;}.cls-26{stroke-miterlimit:10;}.cls-27{fill:#f7b9b6;}.cls-28{fill:#467d9b;}.cls-29{fill:#ce3c66;}.cls-30{fill:#f794aa;}.cls-31{fill:#f8931d;}.cls-32{fill:#fe68a5;}.cls-33{fill:#e55ca3;}.cls-34{fill:#ffd9e2;}.cls-35{fill:#ffb43b;}.cls-36{fill:#fff8fa;}.cls-37{fill:#84c95e;}.cls-38{fill:#4d9947;}.cls-39{fill:#301f22;}.cls-40{fill:#876f71;}.cls-41{fill:#af686e;}.cls-42{fill:#84c95f;}.cls-43,.cls-46{stroke:#301f22;}.cls-44{fill:#c17878;}.cls-45{fill:#ba3e35;}.cls-47{fill:#b55462;}.cls-48{fill:#493438;}.cls-49{fill:#5b6c64;}.cls-50{stroke:#7d8e89;}.cls-51{fill:#7d8e89;}.cls-52{fill:#ffd5c7;}.cls-53{fill:#42697a;}.cls-54{stroke:#5b9299;}.cls-55{fill:#f6b93b;}.cls-56{fill:#e25b24;}.cls-57{fill:#e87d34;}.cls-59{fill:#ef9d30;}.cls-60{fill:#e15c21;}.cls-61{fill:#7ca0c4;}</style><linearGradient id="Безымянный_градиент" x1="447.75" y1="-17012.6" x2="602.1" y2="-16379.55" gradientTransform="matrix(1, 0, 0, -1, 109.7, -16483.4)" gradientUnits="userSpaceOnUse"><stop offset="0.35" stop-color="#fff"/><stop offset="0.54" stop-color="#e4f9f8"/></linearGradient><linearGradient id="Безымянный_градиент_2" x1="64.1" y1="-16906.45" x2="-9.92" y2="-16368.34" gradientTransform="matrix(1, 0, 0, -1, 109.7, -16483.4)" gradientUnits="userSpaceOnUse"><stop offset="0.35" stop-color="#fff"/><stop offset="0.76" stop-color="#e4f9f8"/></linearGradient></defs><rect class="cls-1" x="0.32" width="745.8" height="440.17"/><path class="cls-2" d="M465,348.71v91.46H746.12V3.36h-9a88.59,88.59,0,0,0-1.27,14.9,86.31,86.31,0,0,0,7.71,36c-9.86,2.44-18.13,6.13-23.89,10.62A59.24,59.24,0,0,0,682,51c-35.75,0-64.73,33-64.73,73.74,0,30.55,16.3,56.75,39.53,68a82.55,82.55,0,0,1,14.62,4.8,56.93,56.93,0,0,0,10.58,1h.2l-.14,4.62a80.57,80.57,0,0,0-10.64-5.61,58.43,58.43,0,0,1-14.62-4.8,85,85,0,0,0-19-2.13,82.39,82.39,0,0,0-53.68,19.5A68.35,68.35,0,0,0,538.88,193c-38,0-68.85,31.15-68.85,69.57a70.49,70.49,0,0,0,1.54,14.7c-15.8,4.16-27.49,19.13-27.49,37A38.27,38.27,0,0,0,465,348.71Z"/><path class="cls-3" d="M288.66,440.39l3.94-116C314,316,328.91,297.3,328.91,275.56c0-29.57-27.55-53.53-61.53-53.53a71.57,71.57,0,0,0-12.9,1.18,59.1,59.1,0,0,0,7.4-28.65c0-34.62-29.93-62.62-66.84-62.62-26.55,0-49.48,14.52-60.26,35.52-14.21-13.28-37.36-21.92-63.53-21.92a110.7,110.7,0,0,0-33.51,5.07l-.19-6.94c26-3.45,46.21-30,46.21-62.21,0-34.59-23.26-62.59-52-62.59A45.63,45.63,0,0,0,3.34,29.08a43.2,43.2,0,0,0-3-7.6V440.39Z"/><path class="cls-4" d="M0,312v65.6l217.94-28.18c-1.1-18.42-8.94-66.42-18.7-82.1-5-8.13-11.6-15.89-20.47-19.38s-20.41-1.43-25.42,6.74c-4.15,6.73-2.95,15.36-1.61,23.18-3.65-7.16-8.17-14.07-14.52-18.93s-14.78-7.43-22.46-5.28-14,9.77-13.25,17.78C95.22,260.69,86.28,251,74.66,246.67s-26.11-2-33.91,7.7c-8.27,10.26-7.16,25-5.62,38.17a18.26,18.26,0,0,0-22.14.52A18.75,18.75,0,0,0,8.44,315,52.62,52.62,0,0,0,0,312Z"/><path class="cls-5" d="M174.74,270.41a74.55,74.55,0,0,1-2.3-7.87c-.4-1.53-2.92-1.26-2.82.38a34.86,34.86,0,0,0,1.83,8.92c.8,2.42,1.6,5.21,3.86,6.61a1.15,1.15,0,0,0,1.58-.43h0a1.09,1.09,0,0,0,.15-.56C177.19,275,175.59,272.68,174.74,270.41Z"/><path class="cls-5" d="M166.71,307.7c-.67-2-1.33-4-2-6.06-.54-1.69-3.2-1-2.67.73l1.86,6.09c.5,1.67.7,3.75,2.08,4.92a1.07,1.07,0,0,0,1.51,0h0a1,1,0,0,0,.25-.42C168.24,311.14,167.26,309.39,166.71,307.7Z"/><path class="cls-5" d="M193.51,318.4l-2.58-7.24c-.74-2.11-4.1-1.24-3.41.94l2.23,7c.43,1.29,1.1,3.93,3,3.38S193.93,319.59,193.51,318.4Z"/><path class="cls-5" d="M146.59,330c-.54-2.91-2.08-5.75-3.08-8.55s-1.95-5.75-2.7-8.7c-.42-1.63-2.67-.89-2.46.67.78,5.65,1.68,13.15,5.18,17.87a1.68,1.68,0,0,0,3.06-1.29Z"/><path class="cls-5" d="M63.71,277.34l-3.94-8.44c-.85-1.82-3.49-.23-2.69,1.56l3.56,8c.94,2.13,1.57,4.74,3.68,6a.93.93,0,0,0,1.27-.35h0a1.19,1.19,0,0,0,.08-.2C66.13,281.56,64.69,279.43,63.71,277.34Z"/><path class="cls-5" d="M58,319.84l-3.89-8.58c-.82-1.79-3.42-.23-2.65,1.54L55,320.89c1,2.35,1.74,5.22,3.66,7a1.23,1.23,0,0,0,1.71-.12,1.19,1.19,0,0,0,.3-.72C60.63,324.5,59.07,322.16,58,319.84Z"/><path class="cls-5" d="M33.38,355.65c-.74-2.5-2.54-4.72-3.83-7-1.4-2.47-2.8-4.93-4.12-7.44-.84-1.65-3.77-.49-3,1.28,1.07,2.62,2.16,5.23,3.46,7.73s2.48,5.33,4.52,7.18a1.81,1.81,0,0,0,3-1.75Z"/><path class="cls-5" d="M26,315.92c-1.33-2.67-2.59-5.37-3.76-8.12-.67-1.59-3.29-1-2.69.74,1,2.73,2,5.43,3.16,8.09,1,2.41,1.87,5.13,4,6.73a1.23,1.23,0,0,0,1.68-.45,1.25,1.25,0,0,0,.16-.6C28.46,319.94,27,318,26,315.92Z"/><path class="cls-4" d="M746.12,233.39a42.22,42.22,0,0,0-4.24,2.89c-13.29,10.33-20,27.89-18.47,44.57-.36-8.77-11.6-14.18-19.8-10.92s-12.76,12.43-13.16,21.2c-.67-8.88-1.36-17.94-4.81-26.16s-10.14-15.62-18.9-17.54c-7.22-1.59-14.83.74-21.22,4.48A50.58,50.58,0,0,0,621,294.42a40,40,0,0,0-60,34.26l185.09,34.6Z"/><path class="cls-5" d="M744.93,276.35l-.13-6.76a1.21,1.21,0,0,0-2.41,0c0,2.26-.1,4.51-.13,6.76,0,1.77-.36,3.36.77,4.8a.8.8,0,0,0,1.13,0C745.28,279.71,745,278.12,744.93,276.35Z"/><path class="cls-5" d="M667.41,279.11c0-1.8-.18-3.59-.31-5.39a1.35,1.35,0,0,0-2.68,0c-.11,1.8-.26,3.59-.29,5.39,0,1.6-.33,3.2.47,4.63a1.35,1.35,0,0,0,1.85.47,1.51,1.51,0,0,0,.47-.47C667.73,282.31,667.44,280.71,667.41,279.11Z"/><path class="cls-5" d="M704.24,301.43c-.26-1.33-2-1-2.4,0a23,23,0,0,0-1,5.77c-.21,1.79-.86,3.71.11,5.33a1.33,1.33,0,0,0,1.83.45h0a1.5,1.5,0,0,0,.25-.19c1.29-1.44,1-3.34,1.17-5.2A23.1,23.1,0,0,0,704.24,301.43Z"/><path class="cls-5" d="M739.23,326.69q.06-3.7.14-7.41a1.4,1.4,0,0,0-2.79,0l-.42,7.41c-.12,2.06-.56,4.08.42,6A1.08,1.08,0,0,0,738,333a1.17,1.17,0,0,0,.35-.35C739.5,330.87,739.19,328.73,739.23,326.69Z"/><path class="cls-5" d="M668.68,317c-.17-1.95-.23-3.89-.21-5.85s-2.84-1.89-3,0a59.09,59.09,0,0,0-.27,6.24c0,1.75-.13,3.53,1.18,4.83a1.38,1.38,0,0,0,1.92,0,1.5,1.5,0,0,0,.19-.25C669.4,320.36,668.84,318.66,668.68,317Z"/><path class="cls-5" d="M598.16,308.18c-.21-2.11-.58-4.2-.89-6.29-.18-1.15-2-.84-2,.26,0,2.33,0,4.64.09,7,.1,2,0,3.9.75,5.72.44,1,2,.64,2.25-.29C598.9,312.5,598.37,310.26,598.16,308.18Z"/><path class="cls-5" d="M578.27,315.26c-.38-2.17-.78-4.34-1.16-6.51-.32-1.81-3.08-1-2.78.76l1,6.08a16.58,16.58,0,0,0,1.39,5.36,1.08,1.08,0,0,0,1.48.34,1,1,0,0,0,.46-.59A16.08,16.08,0,0,0,578.27,315.26Z"/><path class="cls-4" d="M348.74,323.32a34.56,34.56,0,0,1-3.42-29.91c2-5.71,6-11.18,11.93-12.89,9.32-2.71,18.23,4.79,25,11.69a38.45,38.45,0,0,1,13.9-40c6.92-5.12,15.86-7.8,24.35-6.25s16.21,7.68,18.68,15.89c2.23,7.47.16,15.76,2.7,23.13,5.78-7.23,17-8,25.55-4.33s15,10.83,21.09,17.76c7.65-8.34,17.11-17.41,28.4-16.13,9.5,1.08,16.73,9.69,19.2,18.87s1.16,18.9-.14,28.31"/><path class="cls-5" d="M358.91,312a32.56,32.56,0,0,0-3-5.46.68.68,0,0,0-.92-.21.66.66,0,0,0-.29.72,34.63,34.63,0,0,0,1.74,6c.62,1.64,1,3.53,2.3,4.77a1.13,1.13,0,0,0,1.58,0,1.06,1.06,0,0,0,.31-.75C360.69,315.26,359.62,313.62,358.91,312Z"/><path class="cls-5" d="M398.81,263.66a1.15,1.15,0,0,0-1.47-.65,1.12,1.12,0,0,0-.72,1.24c.54,3.21.59,7.51,2.43,10.27a1.15,1.15,0,0,0,1.58.35,1.12,1.12,0,0,0,.53-.92C401.6,270.67,399.73,266.75,398.81,263.66Z"/><path class="cls-5" d="M391.1,307.86c-.57-2-1-4-1.63-6a1.17,1.17,0,0,0-1.45-.77,1.16,1.16,0,0,0-.82,1.08,25.71,25.71,0,0,0,.79,6.17c.38,1.71.53,3.81,2.16,4.75a1.1,1.1,0,0,0,1.48-.37h0C392.4,311,391.56,309.54,391.1,307.86Z"/><path class="cls-5" d="M469.69,301.32c-.15-2.07-.21-4.15-.2-6.22s-2.8-1.86-3,0c-.21,2.07-.34,4.14-.37,6.22,0,1.77-.27,3.76.83,5.26a1.43,1.43,0,0,0,2,.47h0a1.38,1.38,0,0,0,.47-.46C470.26,304.87,469.83,303.16,469.69,301.32Z"/><path class="cls-5" d="M502.44,305.11a1.56,1.56,0,0,0-3.11,0c-.19,2.06-.48,4.1-.79,6.15a29.08,29.08,0,0,0-.73,5.34c.06,1.63,2.61,2.66,3.38.91C502.83,313.85,502.58,309,502.44,305.11Z"/><path class="cls-5" d="M520.91,303c0-2.51-.09-5-.14-7.53a1.21,1.21,0,0,0-2.41,0c-.23,2.51-.52,5-.65,7.53-.11,1.94-.56,3.84.77,5.37a.94.94,0,0,0,1.33,0h0C521.23,307,520.89,304.9,520.91,303Z"/><path class="cls-6" d="M746.12,440.17V326.8q-376-46.49-746.12,30v83.35Z"/><path class="cls-7" d="M224.23,439.08c.28.34.55.72.84,1.09h3.79c-.25-1.3-1.32-2.21-2.18-3.22l-2.85-3.33c-1.35-1.58-3.6.69-2.29,2.26Z"/><path class="cls-7" d="M234.81,436.4v-4.57a1.53,1.53,0,0,0-1.76-1.25,1.5,1.5,0,0,0-1.26,1.25v4.57c0,1.36-.26,2.56,1,3.4a1.13,1.13,0,0,0,1.15,0C235.08,439,234.83,437.77,234.81,436.4Z"/><path class="cls-7" d="M240.43,440.17c.37-.6.7-1.24,1.1-1.82a12.22,12.22,0,0,1,1.64-1.88,1.82,1.82,0,0,0,0-2.29,1.65,1.65,0,0,0-2.3,0,11.65,11.65,0,0,0-3.93,5.06,1.83,1.83,0,0,0,0,.93Z"/><path class="cls-7" d="M359.47,361.44c-.8-2.29-2.41-4.4-3.66-6.48a1,1,0,0,0-1.41-.09h0a1,1,0,0,0-.28,1.08c1.22,2.08,2.29,4.52,3.91,6.32a.88.88,0,0,0,1.24,0A.84.84,0,0,0,359.47,361.44Z"/><path class="cls-7" d="M363.72,354.26l-1.29,3.55c-.42,1.18-.92,2.22-.47,3.3a1.08,1.08,0,0,0,1.36.72h0a1.16,1.16,0,0,0,.43-.25c.93-.71,1-2,1.22-3.07l.63-3.73a1,1,0,0,0-1.89-.52Z"/><path class="cls-7" d="M370.12,356.14c-1.44,1.46-4,3.47-3.35,5.78a.88.88,0,0,0,.84.63c2.4.17,3.82-2.87,4.92-4.56C373.48,356.53,371.33,354.92,370.12,356.14Z"/><path class="cls-7" d="M174.7,352.71c-1.35-1.83-2.71-3.63-4.16-5.39-.84-1-2.55.31-1.85,1.42,1.21,1.94,2.48,3.82,3.79,5.7,1.07,1.52,2,3.75,3.79,4.55.65.31,1.71,0,1.62-.93C177.68,356,175.91,354.35,174.7,352.71Z"/><path class="cls-7" d="M180.47,351.58a22,22,0,0,1-.76-5.1,1.17,1.17,0,0,0-1.17-1.17h0a1.19,1.19,0,0,0-1.18,1.17,15.52,15.52,0,0,0,.28,5.88c.4,1.52.86,3.38,2.5,3.92a.94.94,0,0,0,1.12-.63C181.73,354.26,180.83,352.91,180.47,351.58Z"/><path class="cls-7" d="M192.31,348a1.67,1.67,0,0,0-2.33,0c-1.63,1.84-3.53,3.59-4.64,5.77-.63,1.2.76,3.06,2.06,2.06a14.17,14.17,0,0,0,2.6-2.59l2.31-2.91A1.69,1.69,0,0,0,192.31,348Z"/><path class="cls-7" d="M31.06,366.83a6.84,6.84,0,0,0-1.76-2.43,14.86,14.86,0,0,0-2.3-1.88c-1.23-.8-2.35,1.14-1.15,2a11.36,11.36,0,0,1,1.84,1.55c.55.58,1,1.34,1.56,1.87C30.05,368.58,31.45,367.93,31.06,366.83Z"/><path class="cls-7" d="M35.89,362.55a13.3,13.3,0,0,1-.08-2.75c.06-1.33-1.84-1.47-2.24-.3-.62,1.85-1,5.13.82,6.42a1.22,1.22,0,0,0,1.65-.44,1.53,1.53,0,0,0,.11-.27A5.59,5.59,0,0,0,35.89,362.55Z"/><path class="cls-7" d="M42.13,358.83a1.25,1.25,0,0,0-2.44.33,9.85,9.85,0,0,1-.27,3.06,6.84,6.84,0,0,0-.51,3c.18,1.16,1.73,1.31,2.46.65C43,364.32,42.52,360.81,42.13,358.83Z"/><path class="cls-7" d="M518.1,333.6c-1.69-1.8-3.52-3.49-5.28-5.23a1.32,1.32,0,0,0-1.84,0,1.28,1.28,0,0,0,0,1.81h0c1.73,1.77,3.41,3.6,5.2,5.31a1.35,1.35,0,0,0,1.92-1.91h0Z"/><path class="cls-7" d="M523.09,331.57a21.86,21.86,0,0,0-.19-2.29,1.44,1.44,0,0,0-2.87,0c-.07.76-.16,1.53-.18,2.29a3,3,0,0,0,.6,2.39,1.48,1.48,0,0,0,2,0A2.91,2.91,0,0,0,523.09,331.57Z"/><path class="cls-7" d="M528.06,330.84a34.11,34.11,0,0,0-1.79,4c-.66,1.92,2.44,3.26,3.32,1.39a33.68,33.68,0,0,0,1.56-4.13C531.73,330.35,528.91,329.12,528.06,330.84Z"/><path class="cls-7" d="M711.75,341.79a9.73,9.73,0,0,0-3.74-4.12c-1.53-1-2.79,1.35-1.39,2.37a6.71,6.71,0,0,1,2.37,3.14c.4,1.15.16,2.59.88,3.59a1.34,1.34,0,0,0,1.83.44,1.3,1.3,0,0,0,.23-.18C713.21,345.55,712.47,343.39,711.75,341.79Z"/><path class="cls-7" d="M717.83,338.83a1.34,1.34,0,0,0-2.67,0l-.49,6.16a1.83,1.83,0,0,0,3.65,0Z"/><path class="cls-7" d="M721.63,341.55c-.94,1.22-1.82,2.45-2.64,3.75-1.47,2.33,2.36,4.55,3.68,2.15a42.44,42.44,0,0,0,2-4.13,1.77,1.77,0,0,0-3.06-1.77Z"/><path class="cls-7" d="M629.93,382.41a13.35,13.35,0,0,0-3.37-6.31c-1.53-1.74-4,.77-2.53,2.51a13.93,13.93,0,0,1,2.36,4.77,1.85,1.85,0,0,0,2.35,1.12A1.81,1.81,0,0,0,629.93,382.41Z"/><path class="cls-7" d="M637.33,377.45a1.46,1.46,0,0,0-1.8-1h0a1.49,1.49,0,0,0-.83.63c-.46.79-.62,1.7-1,2.5a18.33,18.33,0,0,1-1.5,2.38c-1.34,1.78,1.7,4.14,3.13,2.4S638.11,379.82,637.33,377.45Z"/><path class="cls-7" d="M641.75,380.4c-1.47,1.54-3.17,3-4,5-.61,1.5,1.42,2.84,2.68,2.05,1.8-1.13,3-3.17,4.19-4.85S643.16,378.93,641.75,380.4Z"/><path class="cls-7" d="M471.38,404.69a54.62,54.62,0,0,0-2.63-7.11c-.67-1.78-3.55-1.06-2.92.8a55.89,55.89,0,0,0,2.67,7.51C469.34,407.53,471.74,406.35,471.38,404.69Z"/><path class="cls-7" d="M477.29,396.46c-1.6,2.16-3.11,5.68-2,8.36.57,1.38,3,1.86,3.33,0,.45-2.39.11-4.61,1.2-6.9a1.44,1.44,0,0,0-.62-1.94h0A1.47,1.47,0,0,0,477.29,396.46Z"/><path class="cls-7" d="M489.2,398.26c-1.83,1.91-3.82,3.76-5.5,5.8s1,4.82,2.91,2.89,3.47-4.09,5.18-6.12C493.27,399,490.84,396.5,489.2,398.26Z"/><path class="cls-8" d="M688.77,395c5.13-1.86,28.83-19.82,27.23-26a2.47,2.47,0,0,0-.93-1.39c-2.12-1.57-7.85-.09-13,1.78s-9.83,4.15-9.83,4.15l-9.17,10.9s.36,6.92,2.69,9.6A2.59,2.59,0,0,0,688.77,395Z"/><path class="cls-9" d="M688.77,395c5.13-1.86,28.83-19.82,27.23-26a2.47,2.47,0,0,0-.93-1.39c-3.2,5.11-12.13,17.06-29.34,26.43A2.58,2.58,0,0,0,688.77,395Z"/><path class="cls-9" d="M695.5,377.54a9.83,9.83,0,0,1,.29-5.9.9.9,0,0,1,1.76.38,10.29,10.29,0,0,0-.17,4.84C697.75,378.05,695.9,378.78,695.5,377.54Z"/><path class="cls-9" d="M698.66,375.91a17,17,0,0,1,.49-5.55,1,1,0,0,1,1.87.36,17.14,17.14,0,0,0-.32,5,1,1,0,0,1-.88,1.11h-.05a1,1,0,0,1-1.11-.88Z"/><path class="cls-9" d="M702.07,374.87a13.41,13.41,0,0,1,.5-6,.7.7,0,0,1,.94-.35h0a.74.74,0,0,1,.42.61c.13,1.88-.14,3.73,0,5.61a1,1,0,0,1-1.83.82A1,1,0,0,1,702.07,374.87Z"/><path class="cls-10" d="M694,372.73c-3.27,5.42-6.26,8.95-11,12,0,0-5.89-7.34-11.85-14.62s-12-14.5-12-14.5l-2-2.32h0l-9.68-11.47,15.67-13.77,9.09,12.83.07.08,1.75,2.5,10,14.6Z"/><path class="cls-11" d="M672.32,341a136.71,136.71,0,0,1-15.1,12.38h0l-9.68-11.47,15.67-13.77L672.3,341Z"/><path class="cls-8" d="M603.8,394.59c-5.29,2.94-37.76,9.61-41.72,3.71a2.62,2.62,0,0,1-.47-1.8c.25-2.93,5.69-6.63,11.07-9.59s10.71-5.16,10.71-5.16l15.87.34s5.52,5.39,6,9.31A2.92,2.92,0,0,1,603.8,394.59Z"/><path class="cls-9" d="M603.8,394.59c-5.29,2.94-37.76,9.61-41.72,3.71a2.62,2.62,0,0,1-.47-1.8c6.63,1.09,23.19,2.4,43.7-5.1A2.92,2.92,0,0,1,603.8,394.59Z"/><path class="cls-9" d="M584.24,387.38a11,11,0,0,0-5.15-4.1,1,1,0,1,0-1.18,1.62l.18.1a11.56,11.56,0,0,1,4.17,3.43C583.05,389.68,585,388.67,584.24,387.38Z"/><path class="cls-9" d="M580.58,388.86a19.24,19.24,0,0,0-5-3.68c-1.24-.62-2.32,1.13-1.08,1.84a19.42,19.42,0,0,1,4.44,3.42,1.14,1.14,0,0,0,1.81-1.38l-.1-.12Z"/><path class="cls-9" d="M577.21,391c-1.5-1.55-3.37-3.32-5.42-4a.81.81,0,0,0-.79,1.34c1.47,1.48,3.22,2.62,4.67,4.16a1.07,1.07,0,1,0,1.54-1.5Z"/><path class="cls-10" d="M581.32,382.64a42.75,42.75,0,0,0,13.54.63,31,31,0,0,0,3.17-.59c.23-.05,1.34-.17,1.48-.38V382a6.2,6.2,0,0,0-.26-1.49c-.18-1-.35-2-.53-3.06-.8-4.66-1.58-9.32-2.31-14-.38-2.4-.84-4.81-1.08-7.23a3,3,0,0,1,0-1.34,2.66,2.66,0,0,1,.82-1c1.37-1.33,2.6-2.79,4-4.08a59.06,59.06,0,0,1,5-4.06c-4.66-6.18-9.32-12.4-13.61-18.83-5.75,5-11.41,10.8-14.93,17.61a19.9,19.9,0,0,0-2.18,6.27c-.39,2.52.25,5,.79,7.45,1.16,5.21,2.49,10.38,3.82,15.55Q580.15,378.25,581.32,382.64Z"/><path class="cls-11" d="M579.14,340.38c5.26,5,11.22,9.21,17,13.51h0s.37-.44,1.06-1.18,1.74-1.78,2.91-2.84,2.43-2.11,3.38-2.87,1.57-1.19,1.57-1.19-3.5-4.64-6.91-9.34c-1.7-2.35-3.39-4.72-4.64-6.5s-2.06-3-2.06-3l-.62.53c-.38.34-.91.81-1.53,1.39-1.25,1.16-2.86,2.74-4.4,4.39s-3,3.38-4.06,4.73-1.7,2.29-1.7,2.29Z"/><path class="cls-10" d="M543.86,237.29s1.21-2.56,2.32-5.06,2.06-5,1-5.42-2.51.65-3.63,1.88a16.37,16.37,0,0,0-1.93,2.6s-.47-2.9-1.11-5.83-1.52-5.88-3.09-6c-1.08-.12-1.49,1.91-1.5,4.06a27.16,27.16,0,0,0,.34,4.32s-1.06-2.06-2.32-4.1-2.72-4-4-3.73-1.09,2.8-.47,5.14a28.31,28.31,0,0,0,1.62,4.55s-1.62-1.66-3.36-3.29-3.63-3.22-4.4-2.61c-1.39,1.13-.59,3.63.62,5.72a23.53,23.53,0,0,0,2.83,3.83,31.73,31.73,0,0,0-2.86-2.18c-1.52-1-3.23-1.88-4.07-1s.53,3.4,2.2,5.59a38.39,38.39,0,0,0,3.65,4,11.64,11.64,0,0,0,1.06,3.14,7.24,7.24,0,0,0,4.55,4c2.23.53,5.15-.93,7.59-3S543.4,239.28,543.86,237.29Z"/><path class="cls-10" d="M582.82,252.7l4.5,14.75.63,2.08c-9.4,2.35-19.47,3.05-29,1.06-11.86-2.48-20.9-12.35-26.82-22.37-.17-.28-.82-1.12-.68-1.37s.72-.47.95-.62l4-2.69c2.18-1.43,4.38-2.84,6.58-4.26,3.42,5.31,7.72,10.48,13.32,13.6a19.91,19.91,0,0,0,4.17,1.78,20.77,20.77,0,0,0,4.58.54,51.17,51.17,0,0,0,9.09-.48A52.58,52.58,0,0,0,582.82,252.7Z"/><path class="cls-11" d="M582.82,252.7l5.09,16.84-2,.49c-1.17.27-2.73.61-4.28.84-3.09.5-6.15.69-6.15.69l-1.59-16.79s2.32-.31,4.56-.83c1.12-.24,2.21-.56,3-.8Z"/><path class="cls-10" d="M710,210.68s-.09-3,0-5.91.42-5.79,1.64-5.76,2.09,1.71,2.59,3.39a19.2,19.2,0,0,1,.63,3.35l1.14-1.62c.68-1,1.66-2.23,2.65-3.49,2-2.49,4.23-4.87,5.78-4.27,1.06.39.47,2.5-.54,4.51-.47.93-1,1.83-1.54,2.71-.46.72-.79,1.2-.79,1.2s.48-.37,1.23-.9,1.77-1.23,2.84-1.89c2.14-1.3,4.45-2.47,5.46-1.61s-.33,3.11-2,5a31.08,31.08,0,0,1-2.42,2.45c-.69.63-1.17,1-1.17,1l1.42-.5c.86-.28,2-.65,3.2-1,2.37-.66,4.87-1.27,5.3-.33a2.58,2.58,0,0,1-.54,2.61,11.06,11.06,0,0,1-2.65,2.36,26.93,26.93,0,0,1-2.93,1.62c-.82.39-1.39.59-1.39.59s.44-.11,1.12-.25a23.16,23.16,0,0,1,2.49-.44c1.87-.21,3.84-.21,4.23,1s-2,2.85-4.47,4.07c-1.24.61-2.49,1.15-3.44,1.5s-1.6.56-1.6.56a12.38,12.38,0,0,1-2.2,2.43,7.22,7.22,0,0,1-5.67,1.8c-2.29-.44-4.58-2.93-6.2-5.83S709.64,212.85,710,210.68Z"/><path class="cls-10" d="M662,235.27,666.7,253l5.62-1.88,2.06-.69c.66-.22,1.24-.49,1.76-.69l1.7-.69,1.92-.78,2.2-.9c.84-.35,1.76-.82,2.78-1.29,2-1,4.43-2,6.86-3.4l3.78-2c1.29-.69,2.53-1.5,3.8-2.25s2.55-1.51,3.76-2.31l3.55-2.36,1.69-1.13,1.57-1.13,2.88-2.09c1.78-1.29,3.19-2.46,4.21-3.24l1.58-1.24L710,213s-.54.4-1.53,1.06-2.38,1.64-4.09,2.74c-3.44,2.18-8,5-12.86,7.45-1.21.61-2.38,1.27-3.59,1.82l-3.53,1.61c-2.26,1.1-4.48,1.87-6.33,2.63-.94.36-1.78.72-2.55,1l-2,.65-1.74.57-1.52.5c-.46.15-1,.35-1.56.5l-1.81.47Z"/><path class="cls-11" d="M662,235.27,666.7,253l5.62-1.88,2.06-.69c.66-.22,1.24-.49,1.76-.69l1.7-.69-6-16.52-1.52.5c-.46.15-1,.35-1.56.5L667,234Z"/><path class="cls-9" d="M673.67,333.54c-7.23,7.65-17.42,12.92-29.58,16.61L627.88,335l-13.5,14.46-2.82,3c-9.69-2.12-20.58-10.42-31.7-19.85l3.39-3.59,15.6-16.45,1.84-1.94,54.7-4.23.49.71Z"/><path class="cls-12" d="M655.88,307.09c-6.67,3-34.17,14.32-57,5.46l1.84-1.94,54.7-4.23Z"/><line class="cls-13" x1="625.9" y1="306.38" x2="627.85" y2="334.01"/><path class="cls-13" d="M627.32,325.26s3.88.37,4.26-3.12-1.42-16.5-1.42-16.5"/><path class="cls-13" d="M650.19,304.61s3.88,12.25,9.72,9.8"/><path class="cls-13" d="M605.13,307.91c.09.37-4.44,12.07-10,9.71"/><path class="cls-14" d="M653.93,295l1.46,11.41c-15.72,5.43-34.25,6.36-54.7,4.23l2-23.18.89-10.64-20.26,3.67L578,251.05l15-3.53,67.22-15.8,8.87-2.09,4.67,28.42-23.61,7.69Z"/><path class="cls-15" d="M660.24,231.72c-4.15,6.75-16.11,17.76-34.42,22.49a37,37,0,0,1-32.8-6.67Z"/><path class="cls-16" d="M624.37,252.67c.49-.74-12.34-.84-14.06,3.69,0,0-3.28-13.76,1.37-16.78s8.31,1.7,8.31,1.7Z"/><path class="cls-16" d="M625.9,252.34s1.39-13.8,2.25-14.18,7.36-1.33,9.09.64,3.91,12,3.91,12A19.43,19.43,0,0,0,625.9,252.34Z"/><path class="cls-11" d="M612.81,242.44s6.16,10.3,11.56,10.23,9.78-11.9,9.78-11.9Z"/><path class="cls-11" d="M670.4,211.77c.62,4.73-3,9.6-8.15,10.87s-9.77-1.54-10.38-6.28,3-9.6,8.15-10.87S669.78,207,670.4,211.77Z"/><path class="cls-17" d="M655.94,218.07c.34-.66,1.79-9,10.32-5.53"/><path class="cls-17" d="M663.62,217.81s-1.72-4.87-5.62-4"/><path class="cls-10" d="M659.58,190.09a42.59,42.59,0,1,0-80.15,24.59,36.33,36.33,0,0,1,3.63,13.11c.82,8.23,8,20.83,40.17,17,32.77-3.93,37.14-16.41,35.88-24.61a50.31,50.31,0,0,1,0-17.05A42.89,42.89,0,0,0,659.58,190.09Z"/><path class="cls-11" d="M582.66,221s8.84-23.26,6.06-34.08c0,0,36.24,3.29,56.93-6.46,0,0,11.11,14.91,13.49,22.65,0,0,2.91-32.62-8.82-37.27s-61.66-1.84-65.13,3.49S573.82,209.69,582.66,221Z"/><path class="cls-18" d="M658.68,206.21c-.4-6.2-10.47-31.31-10.47-31.31-43.45,11.06-64.8,6.35-64.8,6.35,6.22,17.6-1.18,41.3-1.18,41.3-26-31.32-6.09-46.62-6.09-46.62a24.58,24.58,0,0,1,2.07-13.81c4.16-8.74,15.48-17.79,45.37-14.36,29.56,3.4,37.25,20.67,38.17,35.56A64.14,64.14,0,0,1,658.68,206.21Z"/><path class="cls-19" d="M661.75,183.32c-5.3-11.6-16.78-22.6-43.5-28.06-22-4.49-34,1.46-40,6.86,4.16-8.74,15.48-17.79,45.37-14.36C653.14,151.16,660.83,168.43,661.75,183.32Z"/><path class="cls-20" d="M608.37,219.4c.3,1.76-.39,3.34-1.54,3.54s-2.33-1.07-2.63-2.83.39-3.34,1.55-3.53S608.08,217.64,608.37,219.4Z"/><path class="cls-20" d="M642.79,214.12c-.06,1.78-1.06,3.2-2.23,3.16s-2.07-1.51-2-3.3,1.06-3.19,2.22-3.15S642.84,212.34,642.79,214.12Z"/><path class="cls-21" d="M635.61,192.88s5.18-6,13.59.13"/><path class="cls-21" d="M605,199.41s-6.27-4.88-13.3,2.82"/><path class="cls-20" d="M634.53,236.19c-1.4,2.09-4,3.79-8.6,4-5,.3-7.69-1.4-9-3.66a9,9,0,0,1-.39-7.95c.36-.75.83-1.19,1.27-1.11,1.89.32,14.47,0,16-.58a.74.74,0,0,1,.79.22C635.79,228.25,636.82,232.75,634.53,236.19Z"/><path class="cls-22" d="M634.53,236.19c-1.4,2.09-4,3.79-8.6,4-5,.3-7.69-1.4-9-3.66a15.46,15.46,0,0,1,7.24-3.85,9.93,9.93,0,0,1,10.36,3.51Z"/><path class="cls-23" d="M634.52,227.16a5.11,5.11,0,0,1-1.72,1.41,16.35,16.35,0,0,1-4.52,1.45,19.8,19.8,0,0,1-7.59.39,10.69,10.69,0,0,1-4.19-1.78c.36-.75.83-1.19,1.27-1.11,1.89.32,14.47,0,16-.58A.73.73,0,0,1,634.52,227.16Z"/><circle class="cls-24" cx="644.32" cy="210.37" r="14.85" transform="translate(-14.72 52.05) rotate(-4.57)"/><circle class="cls-25" cx="604.23" cy="217.99" r="14.8" transform="translate(-11.67 35.57) rotate(-3.34)"/><path class="cls-26" d="M617.53,210.28s3.87-5.23,11.62-1.34"/><line class="cls-26" x1="589.45" y1="216.32" x2="579.68" y2="220.75"/><path class="cls-10" d="M569.92,231.46c2.35,4.16,8.18,5.87,13,3.82s6.9-7.08,4.56-11.24-8.18-5.87-13-3.82S567.58,227.3,569.92,231.46Z"/><path class="cls-17" d="M583.75,227.1c-.66-.32-6.49-4.38-10.61,2.22"/><path class="cls-17" d="M578.38,231.88s-1.74-4.58,1.91-6.22"/><path class="cls-27" d="M655,216.54c.47,1.91-1.82,4.13-5.11,5s-6.36-.07-6.84-2,1.82-4.13,5.11-5S654.53,214.54,655,216.54Z"/><path class="cls-27" d="M608.32,226.16c.15,2-2.49,3.77-5.87,4s-6.26-1.15-6.4-3.12,2.48-3.76,5.87-4S608.2,224.19,608.32,226.16Z"/><path class="cls-17" d="M625.56,216.34l1.19,4.69s3.06-1.05,3.83.32-2.16,2.84-2.16,2.84"/><path class="cls-28" d="M641.11,347.39l3,2.79s12.61.21,29.58-16.61l-2.37-3.46C670,333,651,346.65,641.11,347.39Z"/><path class="cls-28" d="M614.38,349.46l-2.82,3c-9.69-2.12-20.58-10.42-31.7-19.85l3.39-3.59C588.83,334,603.32,346.23,614.38,349.46Z"/><path class="cls-15" d="M650.2,264.66c-1.72-5.49-3.41-10.8-2.84-16.65,0-.24-.38-.3-.42-.06a30.53,30.53,0,0,0,2.37,17C649.53,265.44,650.38,265.25,650.2,264.66Z"/><path class="cls-15" d="M652.32,247.35a54,54,0,0,0-1.15,14,.38.38,0,0,0,.37.37.39.39,0,0,0,.37-.37c.17-4.67.37-9.3.78-14C652.68,247.19,652.32,247.15,652.32,247.35Z"/><path class="cls-15" d="M599.58,254.54c-.17-.37-.78-.11-.65.28,2,6,3.66,11.6,3.55,18a.6.6,0,0,0,.6.6h0a.62.62,0,0,0,.61-.6A43.59,43.59,0,0,0,599.58,254.54Z"/><path class="cls-15" d="M606.56,260.87c0-.11-.17-.07-.18,0a88.53,88.53,0,0,1-1.85,11.78.46.46,0,0,0,.32.57h0a.47.47,0,0,0,.57-.32A24.72,24.72,0,0,0,606.56,260.87Z"/><path class="cls-15" d="M653.93,295a65.12,65.12,0,0,1-24.51,2.57c-9.64-.83-19.62-3.65-26.78-10.14l-2,23.18c20.45,2.13,39,1.2,54.7-4.23Z"/><path class="cls-29" d="M473.45,391.07a3.09,3.09,0,0,1-2-.32c-2.81-1.45-4.12-7.62-4.43-13.5,0-.65-.07-1.29-.08-1.92a74.08,74.08,0,0,1,.34-9.3s1.84-3.28,3.57-6.6,3.33-6.65,3.33-6.65l.24-.1c.48-.19,1.67-.67,3.14-1.14a18.09,18.09,0,0,1,3-.68,7.33,7.33,0,0,1,2.8.06,2.54,2.54,0,0,1,2,2.42C485.88,359,480.82,389.89,473.45,391.07Z"/><path class="cls-30" d="M485.32,353.34c.53,5.66-4.54,36.55-11.91,37.73a3.09,3.09,0,0,1-2-.32,56.28,56.28,0,0,0,7.07-14.15,95.69,95.69,0,0,0,4.81-25.69A2.55,2.55,0,0,1,485.32,353.34Z"/><path class="cls-10" d="M474,354.68c-.16.65-.35,1.3-.55,1.95a31.8,31.8,0,0,1-1.55,4,40.26,40.26,0,0,1-4.76,7.54,64.09,64.09,0,0,1-12.08-4,43.67,43.67,0,0,1-18.6-15.83,54,54,0,0,1-3.55-6c-2.12-4.08-3.84-8.38-5.54-12.63q8.7-2.37,17.4-4.8l3.07-.86c.62-.17.64-.33.85.29.93,2.8,1.73,5.62,2.8,8.38a37.68,37.68,0,0,0,4.9,9.31,20.29,20.29,0,0,0,2.48,2.76A29,29,0,0,0,467,350c1.38.61,2.8,1.15,4.2,1.65.67.24,1.37.43,2,.64.18.06,1.07.2,1.16.38A9.86,9.86,0,0,1,474,354.68Z"/><path class="cls-11" d="M456.39,342a32.46,32.46,0,0,1-23.48.31c-2.12-4.08-3.84-8.38-5.54-12.63q8.7-2.37,17.4-4.8l3.07-.86c.62-.17.64-.33.85.29.93,2.8,1.73,5.62,2.8,8.38A37.68,37.68,0,0,0,456.39,342Z"/><path class="cls-31" d="M408.32,204c-20.54-2.52-31,2.21-40,9.93l1.8,2.38a58,58,0,0,1,11-5.65c-3,2.61-6.61,5.26-8.91,8.74l2.83,4a45.27,45.27,0,0,1,7-5.49,34.42,34.42,0,0,0-5.21,7.86l3,4.09c2.22-3,2.87-3.73,7.07-6.42a50,50,0,0,0-4,10.79l3.51,4.73C390.49,228.42,399.32,216.54,408.32,204Z"/><path class="cls-31" d="M466,215.87c19.76,3.69,28.09,11.15,34.14,20.92l-2.36,1.68a56.66,56.66,0,0,0-8.57-8.46c2,3.29,4.58,6.8,5.69,10.69l-3.8,2.88a44.34,44.34,0,0,0-4.85-7.13,34.64,34.64,0,0,1,2.53,8.8l-4,2.92c-1.19-3.39-1.57-4.29-4.67-8a48.05,48.05,0,0,1,.59,11.17l-4.7,3.34C475.32,243.67,470.67,230,466,215.87Z"/><path class="cls-29" d="M433.49,392.32c-4.74,2.22-33.1,5.72-36.1.5a2.28,2.28,0,0,1-.3-1.57c.4-2.48,5.32-5.33,10.13-7.53s9.52-3.79,9.52-3.79l13.63,1.27c.06.06.11.13.17.2h0c.82,1,4.26,5.21,4.44,8.25A2.53,2.53,0,0,1,433.49,392.32Z"/><path class="cls-10" d="M430.54,381.4c-.79.39-15.78,7.53-23.32,2.32,4.8-2.21,9.52-3.79,9.52-3.79l13.63,1.27C430.43,381.26,430.48,381.33,430.54,381.4Z"/><path class="cls-30" d="M433.49,392.32c-4.74,2.21-33.09,5.72-36.1.49a2.24,2.24,0,0,1-.29-1.56c5.62,1.32,19.78,3.53,37.89-1.61A2.56,2.56,0,0,1,433.49,392.32Z"/><path class="cls-10" d="M430.58,381.39c-5.35,1.09-9.77.68-15.67-.82,0,0-1.62-8.34-3.07-16.73S409.2,347,409.2,347l-.4-2.91V344a4.11,4.11,0,0,0-.08-.6c-.15-1.2-.49-4.06-.85-6.92-.42-3.75-.83-7.51-.83-7.51l20-.11s.1,3.53.18,7.07c0,1,.08,2.06.11,3,.1,2.28.17,4.06.17,4.06h0l.13,2.85s.44,8.77,1.22,17.63S430.58,381.39,430.58,381.39Z"/><path class="cls-11" d="M427.32,338.91c-2.73,0-5.41,1.31-8,2.28a36.35,36.35,0,0,1-10.61,2.2c-.15-1.2-.49-4.06-.85-6.92-.42-3.75-.83-7.51-.83-7.51l20-.11s.1,3.53.18,7.07A27.08,27.08,0,0,1,427.32,338.91Z"/><path class="cls-10" d="M492,252.9s.25-2.89.77-5.74,1.33-5.64,2.57-5.45c2.49.38,2.06,6.93,2.06,6.93s2.13-2.32,4.57-4.44,5.21-4,6.59-3.19c.93.58-.18,2.49-1.54,4.25a41.72,41.72,0,0,1-3,3.37,41.8,41.8,0,0,1,4.42-2c2.3-.86,4.77-1.48,5.5-.42s-1,2.82-2.84,4.28a42.6,42.6,0,0,1-4,2.65s2.26-.41,4.58-.59,4.7-.14,4.93.82c.4,1.73-1.61,3-3.71,3.92a25.71,25.71,0,0,1-4.3,1.31s6.79-.63,7.17,1.73c.18,1.18-2.18,2.21-4.59,2.93a48.55,48.55,0,0,1-4.88,1.13,10.88,10.88,0,0,1-2.28,2,6.51,6.51,0,0,1-5.46,1C494.42,266.05,490.7,257,492,252.9Z"/><path class="cls-10" d="M457.88,240.61l-14.76,9.77A67.79,67.79,0,0,0,449,258c1.91,2.32,3.88,4.6,5.94,6.78,5.2,5.5,11.53,11.51,19.27,12.81,6.1,1,11.7-2.25,16.73-5.31,1-.64,2.09-1.27,3.12-1.92l2.56-1.64c.33-.21,2-1,2-1.33a4,4,0,0,0-.52-.92l-1.11-2-5.25-9.34c-3.57,2-7.17,4.09-10.92,5.77-2,.87-3.57,1.57-5.61.5a18.68,18.68,0,0,1-4.43-3.69A100.38,100.38,0,0,1,457.88,240.61Z"/><path class="cls-11" d="M457.88,240.61l-14.76,9.77c.08.13,1.71,2.39,3.44,4.59s3.53,4.35,3.53,4.35l13.32-10.52s-1.46-2-2.86-4.07c-.7-1-1.38-2.07-1.88-2.85Z"/><path class="cls-10" d="M375.05,197.54s.81-2.95,1.43-5.92,1-5.91-.29-6.16-2.5,1.21-3.39,2.77a19.52,19.52,0,0,0-1.43,3.2s-.28-.76-.75-1.9-1.12-2.63-1.83-4.13c-1.47-3-3.15-5.9-4.84-5.66-1.15.15-1,2.4-.48,4.66a31.76,31.76,0,0,0,1.44,4.46s-1.61-1.93-3.44-3.74-3.89-3.5-5.09-2.86-.38,3.18.83,5.44A35.94,35.94,0,0,0,360,192s-2.07-1.34-4.27-2.57-4.56-2.35-5.21-1.52c-1.15,1.52.29,3.83,2,5.66a26.75,26.75,0,0,0,3.81,3.16,27,27,0,0,0-3.43-1.53c-1.81-.64-3.76-1.09-4.44,0s1.31,3.27,3.47,5.08c1.09.89,2.22,1.71,3.08,2.29s1.44,1,1.44,1a12.28,12.28,0,0,0,1.62,2.92,7.1,7.1,0,0,0,5.23,3.14C368,209.87,374.83,201.94,375.05,197.54Z"/><path class="cls-10" d="M417.19,232.14c-2.12,5.05-4.24,10.12-6.37,15.17-.3.72-.6,1.45-.91,2.17-1.79-.9-3.62-1.78-5.41-2.72-.67-.36-1.34-.73-2-1.11-2-1.17-4-2.46-6-3.72-6-3.79-11.47-8.71-16.63-13.57a160.11,160.11,0,0,1-14.47-16c-.42-.5-.82-1-1.22-1.52-.09-.13-.92-1-.89-1.18s.36-.36.47-.44l3.38-3q3.67-3.24,7.38-6.44c9.28,10.71,20.06,20.67,32.55,27.54.3.18.6.34.91.51C411,229.44,414.06,230.79,417.19,232.14Z"/><path class="cls-11" d="M417.19,232.14c-2.12,5.05-4.24,10.12-6.37,15.17-.3.72-.6,1.45-.91,2.17-1.79-.9-3.62-1.78-5.41-2.72a35.89,35.89,0,0,1,.07-7.4,71.24,71.24,0,0,1,2.49-12c.3.18.6.34.91.51C411,229.44,414.06,230.79,417.19,232.14Z"/><path class="cls-32" d="M467.37,333.54l-8.88,3.92a25.22,25.22,0,0,1-21.52-.59,24.6,24.6,0,0,0-6.39-2.22,25,25,0,0,0-10.64.14l-8.72,2a25.19,25.19,0,0,1-12.29-.26h0a24.85,24.85,0,0,1-4.79-1.85L389,330.83l-3.58-2.7,4.91-12,12.34-30s.07-.38.19-1c.17-.88.43-2.27.78-4.07,1.29-6.82,3.64-19.3,5.66-30.21-3.19-5.47-1-24.17-1-24.17l1.32.64a54.48,54.48,0,0,0,15.52,4.78s16.23,2.54,21.65,3.23c9.8,1.26,15.32,9.24,15.32,9.24l-10,11.1c.38,10.72,1.68,22.72,2.37,29.13.21,2,.38,3.45.43,4.17v.41l3.1,11.05Z"/><path class="cls-33" d="M467.37,333.54l-8.88,3.92a25.22,25.22,0,0,1-21.52-.59,24.6,24.6,0,0,0-6.39-2.22,25,25,0,0,0-10.64.14l-8.72,2a25.19,25.19,0,0,1-12.29-.26h0a24.85,24.85,0,0,1-4.79-1.85L389,330.83l-3.58-2.7,4.91-12c39.18,21.27,59.17,0,67.73-15.77Z"/><path class="cls-34" d="M433.32,240.34s7.42.1,12.13,3.62c1,.74,6.34-11.06-2.44-13.53s-21.34-4.71-24.48,2.36c-3.42,7.69-2.47,8.14-1.35,7.58,1.66-.82,10.48-1.4,12.29-.74A13,13,0,0,0,433.32,240.34Z"/><path class="cls-11" d="M425.55,221.87c.12,1.2-2,11.42-2,11.42l5.11,5.79a5.33,5.33,0,0,0,6.33.58l7.21-4.39.73-12.46Z"/><path class="cls-11" d="M389.08,192.63c-1.95,4.36.16,10.07,4.7,12.75s9.8,1.32,11.74-3-.16-10.07-4.7-12.75S391,188.27,389.08,192.63Z"/><path class="cls-17" d="M400.82,201.14c-.14-.73-.35-7.82-8.1-7.2"/><path class="cls-17" d="M393.78,199.67s2.64-4.12,6.13-2.17"/><ellipse class="cls-11" cx="478.77" cy="210.88" rx="9.77" ry="8.39" transform="translate(-44.08 193.16) rotate(-21.83)"/><path class="cls-17" d="M473.91,212.27c.48-.56,4.2-6.6,10.61-2.19"/><path class="cls-17" d="M480.73,214.54s-.22-4.89-4.22-4.95"/><path class="cls-10" d="M484.32,184.86a42.59,42.59,0,1,0-83.79,1.37,34.27,34.27,0,0,1-.21,13.31c-1.6,8.1,1.57,22.35,33.79,27.68,34.54,5.72,41.08-6.74,41.45-15a30.51,30.51,0,0,1,3.94-13.52A42.32,42.32,0,0,0,484.32,184.86Z"/><path class="cls-11" d="M475.41,204.67c-.22-1.4-5.66-18.74-3.72-30.15,0,0-30.11-3.87-39.78-15.27,0,0-11.83,7.6-18.92,7.45,0,0-3.75,17.34-12.17,27.52,0,0-7.36-42.28,23.05-46.37s53.33,4.22,56.86,20.62S475.41,204.67,475.41,204.67Z"/><path class="cls-31" d="M436.47,148.67c-5.7,11.11-27.39,15.43-27.39,15.43.22,14.23-8.26,30.13-8.26,30.13s-9.3-19-2.1-38.82l.25-.66c5.62-14.52,18.74-18.07,28-16.42C434.07,139.6,438.91,143.9,436.47,148.67Z"/><path class="cls-31" d="M487.77,184.64a41.88,41.88,0,0,1-12.15,21.17,91.1,91.1,0,0,1,.89-36.22s-47.13-7.49-52.26-24.86a8.73,8.73,0,0,1-.37-2.15c-.8-15.43,42.86-17.27,56.75,7C488.37,163.1,489.9,174.84,487.77,184.64Z"/><path class="cls-35" d="M487.77,184.64c-1.95-12.08-8-31-26.24-42.25s-31.68-4.44-37.65.19c-.8-15.43,42.86-17.27,56.75,7C488.37,163.1,489.9,174.84,487.77,184.64Z"/><path class="cls-35" d="M427,138.33l-3,4.46a29,29,0,0,0-25.05,12C404.59,140.23,417.71,136.68,427,138.33Z"/><path class="cls-20" d="M423.07,198.63c-.22,1.86-1.15,3.23-2.08,3.07s-1.51-1.82-1.29-3.68,1.16-3.24,2.09-3.07S423.32,196.77,423.07,198.63Z"/><path class="cls-20" d="M456.62,203.19c-.48,1.79-1.59,2.94-2.49,2.57s-1.23-2.11-.74-3.9,1.59-2.93,2.48-2.57S457.1,201.41,456.62,203.19Z"/><path class="cls-21" d="M427,182.63s-5.58-5-11.17.72"/><path class="cls-21" d="M456.84,185.05s6.56-3.67,10.73,3.17"/><path class="cls-17" d="M439.82,199.61l-.6,4.8s3.24.13,3.45,1.68-3.05,1.87-3.05,1.87"/><path class="cls-17" d="M445.59,213.75s-9.57,3.37-16.76-3.38"/><path class="cls-27" d="M469.12,214.79c-.5,4.11-4.7,7-9.37,6.4s-8-4.37-7.54-8.48,4.7-7,9.37-6.4S469.63,210.68,469.12,214.79Z"/><ellipse class="cls-27" cx="412.99" cy="207.69" rx="7.5" ry="8.52" transform="translate(86.53 534.98) rotate(-71.77)"/><path class="cls-34" d="M455,288.94a240.54,240.54,0,0,1-52.08-3.84c.17-.88.43-2.27.78-4.07a235.09,235.09,0,0,0,50.87,3.74C454.74,286.78,454.91,288.22,455,288.94Z"/><path class="cls-36" d="M433.32,246.46a2,2,0,1,1-2-2A2,2,0,0,1,433.32,246.46Z"/><path class="cls-36" d="M432.77,254.67a2,2,0,1,1-2-2A2,2,0,0,1,432.77,254.67Z"/><path class="cls-10" d="M467,375.33a74.08,74.08,0,0,1,.34-9.3s1.84-3.28,3.57-6.6,3.33-6.65,3.33-6.65l.24-.1C477.77,356.54,473.5,371.71,467,375.33Z"/><path class="cls-37" d="M326.81,285.36l-12.25-8.5s3-7.05,2.64-8.51c-1.19-5-19.1-8-19.51-8l10.44,35.92-54.63,7-.56-34c-.22.09-13.41,7.32-14,9.66s1.79,4.54,1.79,4.54l-10.18,12.47S219,285.06,219.2,276.79c.18-7.48,11.75-15.67,21.14-22.54a59.46,59.46,0,0,1,21.5-9.51l14.26-3.41a68.66,68.66,0,0,1,15.83-1.88c8.39,0,31.55,5.68,40.78,19.76C337.65,266.75,326.81,285.36,326.81,285.36Z"/><path class="cls-38" d="M291.61,242.39a.28.28,0,0,0-.53.15c1.59,5.36,2.71,11.41,5.11,16.46.1.22.38,0,.35-.14C295.71,253.34,293.32,247.71,291.61,242.39Z"/><path class="cls-38" d="M300.68,247.27A43.65,43.65,0,0,0,297,259.09c0,.21.28.31.33.09a44.58,44.58,0,0,1,3.95-11.55C301.53,247.21,300.88,246.85,300.68,247.27Z"/><path class="cls-38" d="M252.64,250.54c-.1-.46-.8-.26-.7.19a56,56,0,0,1,1.26,15.92,37,37,0,0,0-7.07-10.37c-.22-.23-.55.11-.35.35a42.85,42.85,0,0,1,7,11.2.36.36,0,0,0,.37.21.41.41,0,0,0,.54.2.47.47,0,0,0,.24-.34A57.57,57.57,0,0,0,252.64,250.54Z"/><path class="cls-39" d="M269.2,393c-5.28,2.94-37.75,9.61-41.71,3.72a2.66,2.66,0,0,1-.47-1.81c.25-2.93,5.69-6.63,11.07-9.59s10.71-5.16,10.71-5.16l15.87.35s5.52,5.38,6,9.3A2.91,2.91,0,0,1,269.2,393Z"/><path class="cls-40" d="M249,385.75c-2.57-2.43-6.75-2-10-1.42-1.37.24-.79,2.33.58,2.09,2.32-.4,6-.92,7.85.86C248.48,388.24,250,386.71,249,385.75Z"/><path class="cls-40" d="M244.8,388.75a16,16,0,0,0-10.67-1.21c-1.36.3-.79,2.39.57,2.08a13.64,13.64,0,0,1,9,1C245,391.21,246.06,389.34,244.8,388.75Z"/><path class="cls-40" d="M269.2,393c-5.28,2.94-37.75,9.61-41.71,3.72a2.66,2.66,0,0,1-.47-1.81c6.63,1.1,23.19,2.4,43.7-5.1A2.91,2.91,0,0,1,269.2,393Z"/><path class="cls-39" d="M305.43,391.12c5.29,2.95,37.76,9.61,41.72,3.72a2.74,2.74,0,0,0,.47-1.8c-.25-2.93-5.69-6.64-11.08-9.59s-10.71-5.17-10.71-5.17l-15.86.35s-5.52,5.38-6,9.31A2.87,2.87,0,0,0,305.43,391.12Z"/><path class="cls-40" d="M336,382.63c-3.38.12-6.73.75-9.18,3.25a1.07,1.07,0,0,0,0,1.51l0,0a1.09,1.09,0,0,0,1.53,0c2-2.09,4.84-2.52,7.65-2.61C337.32,384.75,337.32,382.54,336,382.63Z"/><path class="cls-40" d="M332.26,380.24a15.39,15.39,0,0,0-10.15,3.67c-1.07.89.47,2.42,1.53,1.53a13,13,0,0,1,8.62-3,1.1,1.1,0,1,0,0-2.2Z"/><path class="cls-40" d="M305.43,391.12c5.29,2.95,37.76,9.61,41.72,3.72a2.74,2.74,0,0,0,.47-1.8c-6.63,1.09-23.19,2.4-43.7-5.1A2.87,2.87,0,0,0,305.43,391.12Z"/><path class="cls-41" d="M260.18,235.05c.51,1.09,1.91,11.42,1.91,11.42l6.73,3.8a5.35,5.35,0,0,0,6.17-1.53l5.37-6.52-3.41-12Z"/><path class="cls-39" d="M234.84,239.54c-3.19,4.33-11.64,3.51-11.64,3.51s-3.27-7.83-.08-12.15,11.64-3.52,11.64-3.52S238,235.18,234.84,239.54Z"/><path class="cls-39" d="M227.73,250c-2.61,4.7-11.1,5-11.1,5s-4.24-7.33-1.63-12,11.1-5,11.1-5S230.32,245.32,227.73,250Z"/><path class="cls-39" d="M219.08,268.63c-2.15,4.92-15.5-.9-13.34-5.83s13-11,13-11S221.23,263.7,219.08,268.63Z"/><path class="cls-42" d="M221.5,256.09c-.84,1.93-2.5,2.07-5.12.93s-3.72-2.33-2.88-4.27,2.23-1.29,4.86-.15S222.32,254.15,221.5,256.09Z"/><path class="cls-39" d="M301.32,225.9c4.84,2.18,11.44-2.64,11.44-2.64s-1.24-8.35-6.09-10.52-11.44,2.63-11.44,2.63S296.45,223.72,301.32,225.9Z"/><path class="cls-39" d="M312.51,231.54c4.55,2.78,11.73-1.12,11.73-1.12s-.19-8.41-4.74-11.19-11.73,1.12-11.73,1.12S308,228.73,312.51,231.54Z"/><path class="cls-39" d="M329.11,243.34c4.28,3.2,12.41-8.33,8.13-11.53s-16.35-3.22-16.35-3.22S324.83,240.13,329.11,243.34Z"/><path class="cls-42" d="M320.76,233.7c1.67,1.26,3.12.57,4.72-1.69s1.9-3.83.23-5.09-2.51,0-4.11,2.24S319.08,232.43,320.76,233.7Z"/><path class="cls-41" d="M212.88,219.8c-.34,4.76,3.59,9.41,8.77,10.38s9.66-2.11,10-6.87-3.59-9.41-8.77-10.38S213.22,215,212.88,219.8Z"/><path class="cls-43" d="M226.82,223.78c-.38-.63-3-7.22-10.07-4"/><path class="cls-43" d="M219.71,224.81s1.07-4.78,5-4.14"/><path class="cls-41" d="M312.32,202.94c1.16,4.63-1.91,9.89-6.84,11.74s-9.88-.4-11-5,1.91-9.88,6.85-11.73S311.19,198.31,312.32,202.94Z"/><path class="cls-43" d="M299.32,209.28c.26-.69,1.7-7.64,9.23-5.68"/><path class="cls-39" d="M306.5,209.06s-1.89-4.52-5.66-3.21"/><path class="cls-44" d="M299.69,180a42.59,42.59,0,1,0-78.28,29.91,34.3,34.3,0,0,1,4.36,12.53c1.26,8.16,9.11,20.47,41.22,14.48,34.41-6.43,36.31-20.37,33.81-28.31a30.52,30.52,0,0,1-.91-14.05A42.89,42.89,0,0,0,299.69,180Z"/><path class="cls-39" d="M271.17,226.6a9.63,9.63,0,0,1-5.09,2.46c-4.28.74-7.09-.67-8.48-2.48-1.26-1.63-1.39-3.58-.42-4.6a2.44,2.44,0,0,1,2-.71c5,.21,11.77-2.27,11.77-2.27a1.93,1.93,0,0,1,.89-.12C273.91,219.11,274.25,223.61,271.17,226.6Z"/><path class="cls-23" d="M271.82,218.88a6.44,6.44,0,0,1-2.3,2.07,15,15,0,0,1-12.34,1,2.44,2.44,0,0,1,2-.71c5,.21,11.77-2.27,11.77-2.27A1.84,1.84,0,0,1,271.82,218.88Z"/><path class="cls-45" d="M271.17,226.6a9.63,9.63,0,0,1-5.09,2.46c-4.28.74-7.09-.67-8.48-2.48a9.86,9.86,0,0,1,3-1.64,12.54,12.54,0,0,1,6.29-.32,9,9,0,0,1,2.92,1A6.91,6.91,0,0,1,271.17,226.6Z"/><path class="cls-41" d="M299.49,200.54S292,189.22,289,188c0,0-23.49.51-32.67-9.34,0,0-8,18.92-27.54,23.31l-4,13.55S206.62,168.82,249,164,298.4,182.42,299.49,200.54Z"/><path class="cls-46" d="M245.07,197.45s-7-2.81-10.24,4.49"/><path class="cls-46" d="M272.64,191.84s4.9-5.69,11.16-.69"/><path class="cls-43" d="M263,209l1.07,4.72s3.09-1,3.82.4-2.23,2.8-2.23,2.8"/><path class="cls-43" d="M275.89,209.12s3-5,10.47-4.19"/><path class="cls-43" d="M239.44,214.87s4.48-3.7,11.27-.51"/><path class="cls-47" d="M297.9,214.86c.93,4-2,8.17-6.62,9.22s-9-1.36-10-5.39,2-8.16,6.62-9.22S297,210.83,297.9,214.86Z"/><path class="cls-47" d="M248.47,226.48c.12,4.13-3.59,7.6-8.29,7.75s-8.62-3.1-8.75-7.24,3.59-7.61,8.29-7.75S248.32,222.34,248.47,226.48Z"/><path class="cls-39" d="M303,185.25a53.45,53.45,0,0,1-3.31,18c-2-5.29-5.12-13.85-8.15-17.61-13.3-1.5-32.84-5.36-37.57-14.53-2.1,13.47-13.47,22.7-27.13,30.22-1.41,4.62-1.85,11.29-1.76,17,0,0-16-16.31-12.83-37.85a43.55,43.55,0,0,1,7.47-18.29C237,137,246.59,142,249.32,144.38c1.4-3.09,8.14-12.58,34.33,4.84C299.44,159.67,303.09,174,303,185.25Z"/><path class="cls-48" d="M303,185.25c-6.89-26.26-27.74-35.39-37.53-39.37-10.28-4.18-15.13,4.46-15.13,4.46-14-6.48-30.19,16.8-38,30.1a43.55,43.55,0,0,1,7.47-18.29c17.29-25.23,26.89-20.21,29.62-17.81,1.4-3.09,8.14-12.58,34.33,4.84C299.44,159.67,303.09,174,303,185.25Z"/><path class="cls-49" d="M303,380.45l-19.41-51.6-13.31,53-28.61-2,11.84-76.67L257.7,275a6.44,6.44,0,0,1,4.92-5.56l27.11-5.36a5.9,5.9,0,0,1,6.5,3.72l11.91,28.36s20.53,76.67,21.54,79.07S303,380.45,303,380.45Z"/><path class="cls-49" d="M281.13,239l6.39,30.26,5.31-.92-6-30.28A10.1,10.1,0,0,0,281.13,239Z"/><path class="cls-35" d="M291.56,266.75a1.61,1.61,0,1,1-1.61-1.61h0A1.61,1.61,0,0,1,291.56,266.75Z"/><path class="cls-49" d="M266.58,273.31c0-.46-5.78-29.42-5.78-29.42a9.12,9.12,0,0,0-5.18,1.9l5.48,28.75Z"/><path class="cls-35" d="M265.25,272.14a1.65,1.65,0,1,1-1.65-1.65h0a1.63,1.63,0,0,1,1.65,1.63h0Z"/><path class="cls-50" d="M254.5,303.13a234.63,234.63,0,0,0,52.5-6.72"/><path class="cls-50" d="M253.83,306.54a180.74,180.74,0,0,0,54.3-6.72"/><path class="cls-50" d="M265.25,279.25l25.43-4.71c2.05,10,3,18.16-8.92,20.35C268.51,297.3,266.17,288.42,265.25,279.25Z"/><path class="cls-51" d="M300.32,375.33l3,9.13c7.76-.09,17.91-1.93,29.12-4.53l-3.92-11.79C318.2,372,308.59,374.73,300.32,375.33Z"/><path class="cls-51" d="M272.92,374.72c-8.9-.18-19.53-1.87-30.93-4.23l-3.16,12.28c12.57,1.73,24.52,3.16,31.75,2.85Z"/><path class="cls-44" d="M319.85,283.93c-1.49-2.34-8.56-7.8-14.44-3.23-2.4,1.86-2.45,3.63-1.1,5a8.57,8.57,0,0,0-2.68,4.33c-.33,1.6.47,4.08,2.3,3.89a3.05,3.05,0,0,0,.13,2c.58,1.41,2.53,2.53,4,1.81h0a2.59,2.59,0,0,0,1.71,2.46,3.3,3.3,0,0,0,3.56-.4,1.69,1.69,0,0,0,1.32,1.65c2.9,1.07,6.86-3.71,7.77-5.69C324.32,291.63,322.07,287.43,319.85,283.93Z"/><path class="cls-39" d="M310.32,281.43a24,24,0,0,0-3.45,1.87,3.5,3.5,0,0,1,.45-1.76.23.23,0,0,0-.11-.31h0a.22.22,0,0,0-.28.07,3.19,3.19,0,0,0-.46,2.25,10.83,10.83,0,0,0-1.94,1.76c-.06.07,0,.16.09.1a19,19,0,0,1,6-3.54C310.88,281.77,310.63,281.29,310.32,281.43Z"/><polygon class="cls-44" points="314.93 280.84 316.1 277.93 325.24 284.27 321.74 290.95 314.93 280.84"/><path class="cls-44" d="M238.73,303.27c1.43,1.65,6.56,5.14,9.05,3.3a1.69,1.69,0,0,0,.81-1.94,3.31,3.31,0,0,0,3.54-.61,2.63,2.63,0,0,0,1-2.85h0c1.61.29,3.16-1.33,3.34-2.85a3.14,3.14,0,0,0-.44-1.94c1.82-.32,1.89-2.93,1.13-4.38a8.56,8.56,0,0,0-3.78-3.41c.91-1.72.37-3.4-2.46-4.53-6.91-2.74-12.19,4.47-13,7.13C236.78,295.19,235.77,299.85,238.73,303.27Z"/><path class="cls-39" d="M246.4,286.15a25.29,25.29,0,0,1,3.84.84,3.83,3.83,0,0,0-.88-1.54.24.24,0,0,1,0-.33.23.23,0,0,1,.27,0,3.32,3.32,0,0,1,1.07,2,11,11,0,0,1,2.36,1.15c.07,0,0,.16-.06.12a19,19,0,0,0-6.74-1.74C246,286.63,246.06,286.1,246.4,286.15Z"/><polygon class="cls-44" points="241.81 286.87 239.93 284.47 232.89 293.07 238.08 298.47 241.81 286.87"/><path class="cls-52" d="M79.93,233.39s-6.91,1.33-16.54-1.54A53.3,53.3,0,0,1,40.86,218a59,59,0,0,0,1.79-8.22c.27-1.77,1.33-5.17-.08-6.72-2.92-3.17-5.22,5.09-5.9,7.63-1.5-3.14-3.87-5.19-5.7-8.12-1.19-1.91-3.53-5.68-6.1-5.87-5-.36.55,7,2.85,10.69a34.81,34.81,0,0,0-6-4c-1.11-.59-4.35-2.92-5.55-1.38s1.07,4.13,2,5.13a56.26,56.26,0,0,0,5.72,5.08,35.63,35.63,0,0,0-5.17-2c-1.48-.43-4.35-1.11-5.4.35-1.79,2.5,5.32,5.5,8.27,6.89-1.37-.41-5.33-.8-6.38-.26a1.64,1.64,0,0,0-.89,2.14,1.55,1.55,0,0,0,.25.41c1.33,2,6.41,3.93,8.65,4.52,2.55.69,5.55,1.37,7.43,1.72,1.82,2.15,11.37,13.64,24,21.14,7.81,4.67,16.8,7.79,25.86,6.22Z"/><path class="cls-11" d="M80.52,253.31c-9.06,1.57-18-1.55-25.86-6.22A24.94,24.94,0,0,0,58,243.54a31.84,31.84,0,0,0,5.37-11.65c9.63,2.87,16.54,1.54,16.54,1.54Z"/><path class="cls-52" d="M140,251.75c9.18.48,17.73-3.69,24.94-9.25,11.63-9,19.75-21.49,21.3-23.84,1.83-.57,4.72-1.61,7.18-2.59,2.15-.85,7-3.42,8-5.51a1.63,1.63,0,0,0-.5-2.26,1.58,1.58,0,0,0-.44-.2c-1.1-.41-5,.44-6.3,1,2.77-1.72,9.47-5.55,7.4-7.82-1.22-1.33-4-.31-5.4.3a31.83,31.83,0,0,0-4.9,2.59,58.55,58.55,0,0,0,5.06-5.73c.81-1.1,2.7-4,1.38-5.33s-4.31,1.31-5.34,2a34.58,34.58,0,0,0-5.45,4.73c1.85-4,6.44-11.89,1.56-11-2.53.49-4.4,4.51-5.36,6.55-1.46,3.12-3.57,5.45-4.69,8.74-1-2.44-4.24-10.37-6.76-6.87-1.23,1.7.23,5,.71,6.68a55.78,55.78,0,0,0,2.76,7.95,53.55,53.55,0,0,1-20.73,16.42c-9.22,4-16.24,3.49-16.24,3.49Z"/><path class="cls-11" d="M140,251.75c9.18.48,17.73-3.69,24.94-9.25a24.28,24.28,0,0,1-3.76-3.17,31.42,31.42,0,0,1-6.72-10.93c-9.22,4-16.24,3.49-16.24,3.49Z"/><path class="cls-39" d="M104,390.54a2.79,2.79,0,0,1-1.46,2.39c-3.46,2.07-17.75,6.14-28.13,6.92h-.22c-4.61.33-8.41,0-10.12-1.46a2.15,2.15,0,0,1-.48-.52,2.7,2.7,0,0,1-.53-1.78c.15-2.95,5.46-6.83,10.75-10a101.66,101.66,0,0,1,10.53-5.43l15.87-.19s3.08,5.35,3.74,9.25A4.52,4.52,0,0,1,104,390.54Z"/><path class="cls-40" d="M84.7,386.21c-2.65-2.35-6.81-1.75-10-1.09-1.36.28-.71,2.35.64,2.07,2.32-.49,5.94-1.13,7.88.6C84.26,388.71,85.74,387.13,84.7,386.21Z"/><path class="cls-40" d="M80.61,389.34a16.17,16.17,0,0,0-10.71-.8c-1.35.36-.71,2.42.64,2.07a13.72,13.72,0,0,1,9,.66C80.85,391.79,81.89,389.89,80.61,389.34Z"/><path class="cls-40" d="M104,390.54a2.79,2.79,0,0,1-1.46,2.39c-3.46,2.07-17.75,6.14-28.13,6.92h-.22c-4.65.28-8.44-.07-10.12-1.46a2.15,2.15,0,0,1-.48-.52,2.7,2.7,0,0,1-.53-1.78C69.42,397,84.9,397.68,104,390.54Z"/><path class="cls-39" d="M152.38,395.54a2.9,2.9,0,0,1-.61.7c-1.77,1.55-5.75,2.11-10.54,2.09-10.44,0-24.73-2.94-28.28-4.72a2.76,2.76,0,0,1-1.65-2.39,2.89,2.89,0,0,1,0-.72c.35-3.95,3.23-9.56,3.23-9.56l15.84-1s5.42,2,10.93,4.7,11.1,6.19,11.46,9.1A2.71,2.71,0,0,1,152.38,395.54Z"/><path class="cls-40" d="M130.42,385.46c2.46-2.55,6.66-2.27,9.89-1.85,1.38.18.89,2.29-.49,2.11-2.34-.3-6-.67-7.8,1.2C131.05,387.92,129.45,386.46,130.42,385.46Z"/><path class="cls-40" d="M134.74,388.27a16.07,16.07,0,0,1,10.58-1.64c1.37.25.88,2.36-.49,2.11a13.64,13.64,0,0,0-9,1.35C134.69,390.73,133.51,388.92,134.74,388.27Z"/><path class="cls-40" d="M152.38,395.54a2.9,2.9,0,0,1-.61.7c-1.74,1.47-5.7,2.07-10.54,2.09-10.44,0-24.73-2.94-28.28-4.72a2.76,2.76,0,0,1-1.65-2.39c19.7,5.78,35.16,3.78,41.47,2.49A2.74,2.74,0,0,1,152.38,395.54Z"/><path class="cls-53" d="M77.71,298.31,79.5,383c8.85,1.21,15.57,2,22.72,1.51l5.72-60.46,5,60.87A92.56,92.56,0,0,0,135.65,382l.78-84.17Z"/><line class="cls-54" x1="108.27" y1="296.89" x2="108.27" y2="322.7"/><path class="cls-54" d="M108.26,317.07s7.74,5.63,6.06-18.16"/><path class="cls-54" d="M129.92,295s-.68,15.93,5,15.52"/><path class="cls-54" d="M83.32,295c.27,1.09,2.72,17.29-4,16.47"/><path class="cls-55" d="M135.32,287.14l1.09,11.48c-18.15,4.09-37.75,3.9-58.69-.27l2.6-22.43,1.6-13.65c-8.75-.64-12.34-2.13-20.84-4.19L64,229.7s51.36,11.42,89.12-2.89l5.29,27.81s-5.6,3.3-25.62,5.87Z"/><path class="cls-11" d="M100.91,226.73s-1.39,6-2.74,7.09,6.15,12.47,9.43,12.72,9.42-10.16,9.48-11.3-2-4.27-1.74-6S100.91,226.73,100.91,226.73Z"/><path class="cls-11" d="M63.22,198.4c-1.85,4.4.36,10.06,5,12.65s9.82,1.13,11.68-3.27-.36-10.06-5-12.65S65.08,194,63.22,198.4Z"/><path class="cls-43" d="M75.13,206.67c-.15-.72-.5-7.8-8.24-7"/><path class="cls-43" d="M68.07,205.35s2.55-4.18,6.08-2.3"/><path class="cls-11" d="M162.81,214.54c-.4,4.75-5,8.74-10.27,8.89s-9.22-3.57-8.82-8.33,5-8.74,10.27-8.89S163.21,209.82,162.81,214.54Z"/><path class="cls-43" d="M148.42,216.36c.47-.57,4.08-6.68,10.57-2.4"/><path class="cls-43" d="M155.32,218.47s-.32-4.88-4.32-4.86"/><path class="cls-52" d="M158.24,188.75a42.6,42.6,0,0,0-36-48.28c-1.06-.15-2.13-.27-3.2-.34-21-1.48-42.75,12.62-44.56,33.62a59.32,59.32,0,0,0,.69,17.84c1,4.36.22,9.06-.55,13.45-1.44,8.13,2,22.32,34.33,27,34.64,5,40.94-7.55,41.14-15.87a30.63,30.63,0,0,1,3.67-13.59A42.5,42.5,0,0,0,158.24,188.75Z"/><path class="cls-11" d="M149.84,207.2l-2.79-27.9-58.8-8.82L76.62,196.33s-5.87-54.14,44.43-39.74S153.32,200.41,149.84,207.2Z"/><path class="cls-46" d="M100.91,187.65s-5.68-4.91-11.15.94"/><path class="cls-46" d="M128.81,191.24a7.84,7.84,0,0,1,10.72,2.88l.07.12"/><path class="cls-43" d="M114.1,204.37l-.51,4.81s3.24.07,3.48,1.62-3,1.92-3,1.92"/><path class="cls-27" d="M145.32,221.19c-.42,4.12-4.56,7.07-9.24,6.59s-8.13-4.21-7.71-8.33,4.57-7.07,9.25-6.59S145.71,217.07,145.32,221.19Z"/><path class="cls-27" d="M94.75,216.21c-1.22,4-5.85,6-10.35,4.66s-7.16-5.71-5.94-9.67,5.85-6,10.35-4.66S96,212.26,94.75,216.21Z"/><path class="cls-39" d="M98.47,204.09c-.14,1.56-1,2.76-1.81,2.68s-1.46-1.39-1.32-3,1-2.75,1.81-2.68S98.6,202.54,98.47,204.09Z"/><path class="cls-39" d="M130.92,207.47c-.27,1.54-1.18,2.67-2,2.52s-1.32-1.52-1-3.06,1.18-2.66,2-2.51S131.19,205.93,130.92,207.47Z"/><path class="cls-39" d="M119.65,216.36a28.3,28.3,0,0,1-3.75,7.79c-1.89,2.54-4.47,4.55-7.77,3.71s-4.48-3.75-4.76-6.81a24.84,24.84,0,0,1,.61-7.54c.12-.59.22-.93.22-.93a27.3,27.3,0,0,0,15.3,3.79Z"/><path class="cls-22" d="M115.9,224.15c-1.89,2.54-4.47,4.55-7.77,3.71s-4.48-3.75-4.76-6.81a6.41,6.41,0,0,1,1.25-.64,9.75,9.75,0,0,1,9.73,2A12.2,12.2,0,0,1,115.9,224.15Z"/><path class="cls-23" d="M119.5,216.37a7.52,7.52,0,0,1-5.18,1.77,13.93,13.93,0,0,1-7.26-1.92,11.08,11.08,0,0,1-3-2.71c.12-.59.22-.93.22-.93A27.26,27.26,0,0,0,119.5,216.37Z"/><path class="cls-56" d="M166.85,163a58.13,58.13,0,0,1-6.7,12.29c2.19,19.13-9.73,37.09-9.73,37.09-.5-11.32.28-31.39.44-35.37v-.7L86.6,166.54a2.6,2.6,0,0,1-.15.67c-1.85,8.09-11.32,33.13-11.32,33.13-3.59-29.26,1.28-38,1.28-38s-10.75-10-8.34-17.21S83.24,143,83.71,143.2c-.18-.3-3.61-6.07-4.12-11.07-.25-2.47.21-4.76,2.13-6.11,8.89-6.25,22.26,7.17,22.26,7.17s-5.23-16.55,5.18-20.42,27.65,20.42,27.65,20.42-1.08-17,6.88-13.31,15,32.43,15,32.43,3.58-8.36,7.72-3.68C169.6,152.26,168.78,157.85,166.85,163Z"/><path class="cls-57" d="M86.6,166.54a2.6,2.6,0,0,1-.15.67c-1.85,8.09-11.32,33.13-11.32,33.13-3.59-29.26,1.28-38,1.28-38C79.8,164.16,83.32,165.11,86.6,166.54Z"/><path class="cls-57" d="M150.42,212.34c-.5-11.32.31-32.09.47-36.07,5.92-.75,9.26-1,9.26-1C162.32,194.38,150.42,212.34,150.42,212.34Z"/><path class="cls-57" d="M166.85,163a19.27,19.27,0,0,0-1.21-4.72c-.62-1.55-1.9-3.27-3.53-2.92a3.63,3.63,0,0,0-1.88,1.39,27,27,0,0,0-3.85,6A74,74,0,0,0,144.25,132c-.47-.68-1.17-1.44-2-1.22s-1,.94-1.14,1.61a39,39,0,0,0-1.25,12.12,109.45,109.45,0,0,0-12.34-13.75c-4.42-4.15-9.65-8.11-15.72-8.36a5.65,5.65,0,0,0-3.67.87c-1.47,1.1-1.84,3.13-1.93,5a32,32,0,0,0,2.46,13.94A35.45,35.45,0,0,0,87,130.34a10.35,10.35,0,0,0-4,0,7.71,7.71,0,0,0-3.41,1.83c-.25-2.47.21-4.76,2.13-6.11,8.89-6.25,22.26,7.17,22.26,7.17s-5.23-16.55,5.18-20.42,27.65,20.42,27.65,20.42-1.08-17,6.88-13.31,15,32.43,15,32.43,3.58-8.36,7.72-3.68C169.6,152.26,168.78,157.85,166.85,163Z"/><line class="cls-58" x1="118.62" y1="226.47" x2="98.34" y2="224.73"/><path class="cls-59" d="M134.52,246.54a.29.29,0,0,0-.31-.29h0a.31.31,0,0,0-.23.14,13.21,13.21,0,0,0-1.54,4.39c-.3,1.14-.56,2.28-.78,3.43-.92-5.46-1.84-11.15-4.27-16a.27.27,0,0,0-.37-.07.26.26,0,0,0-.1.26c2.22,6.44,2.94,13.33,4.16,20,.15.82,1.41.48,1.25-.34s-.31-1.73-.46-2.61c.55-1.46,1-2.93,1.52-4.41A14.33,14.33,0,0,0,134.52,246.54Z"/><path class="cls-59" d="M87.1,240.82a93.61,93.61,0,0,0-5.17,16c-1.32-3-2-6.12-3.06-9.26-.12-.35-.7-.32-.68.09.18,3.59,1.84,7.31,3.5,10.46-.1.61-.2,1.22-.27,1.82,0,.43.58.45.72.09,2.29-6.11,3.67-12.76,5.62-19C87.89,240.54,87.26,240.43,87.1,240.82Z"/><path class="cls-59" d="M136.41,298.62c-18.15,4.09-37.75,3.9-58.69-.27l2.6-22.43a39.35,39.35,0,0,0,7.43,5.93,53,53,0,0,0,21,7.24,65.68,65.68,0,0,0,26.57-1.95Z"/><path class="cls-60" d="M103.21,45.84l2.15-.08h2.15a29.7,29.7,0,0,1,3.77.24,11.77,11.77,0,0,1,3.48,1,6.6,6.6,0,0,1,2.56,2.09,6.38,6.38,0,0,1,1,3.73,5.44,5.44,0,0,1-1,3.29,9,9,0,0,1-2.65,2.35,13,13,0,0,1-3.5,1.41,15.23,15.23,0,0,1-3.62.47,19.82,19.82,0,0,1-4.34-.53,1.57,1.57,0,0,1-1.52,1.27c-1.31,0-2-.55-2-1.64v-.8c0-.26,0-.2-.1-.23a9.56,9.56,0,0,1-1-.53,1.05,1.05,0,0,1-.49-1,1.35,1.35,0,0,1,1.22-1.46V48.67a1.49,1.49,0,0,1-.86-1.23,1.52,1.52,0,0,1,.86-1.35c.05-2.21.12-4,.2-5.37s.12-2.21.12-2.54a8,8,0,0,0-.08-.84,5.29,5.29,0,0,1-.08-.8,2.12,2.12,0,0,1,2-2.21l3.62-.57c1.24-.19,2.43-.36,3.56-.51s2.17-.27,3.1-.37a20.33,20.33,0,0,1,2.21-.14,4.58,4.58,0,0,1,2.35.55,1.67,1.67,0,0,1,1,1.45c0,1-.67,1.52-2,1.52a3.21,3.21,0,0,1-.76-.06,3.69,3.69,0,0,0-.76-.07c-1.14,0-2.45,0-3.91.13a31.91,31.91,0,0,0-5.14.78,1.92,1.92,0,0,0-.61.25,1,1,0,0,0-.41.7,23.56,23.56,0,0,0-.35,2.77C103.25,42,103.21,43.65,103.21,45.84Zm11.38,6.7a2.6,2.6,0,0,0-.82-2,5.21,5.21,0,0,0-2-1.15,13.73,13.73,0,0,0-2.61-.53c-.91-.09-1.74-.14-2.47-.14-1.2,0-2.42,0-3.65.12v7.5a12.42,12.42,0,0,0,4.43.82,9.61,9.61,0,0,0,2.13-.31A12,12,0,0,0,112,56a6.44,6.44,0,0,0,1.9-1.46A2.92,2.92,0,0,0,114.59,52.54Z"/><path class="cls-60" d="M125.32,45.23a1.58,1.58,0,0,1,.25-.95,1.85,1.85,0,0,1,1.06-.61,8.59,8.59,0,0,0,1.07-.49,2.45,2.45,0,0,1,1.27-.29,1.36,1.36,0,0,1,.49.08h.45a4.77,4.77,0,0,0,1-.08l1.21-.12a9.33,9.33,0,0,0,1.17-.14l.8-.11.9-.12.75-.1h.45a1.37,1.37,0,0,1,.62.2,3.6,3.6,0,0,1,.67.49,4,4,0,0,1,.54.62,1.13,1.13,0,0,1,.22.61.85.85,0,0,1-.08.35l-.18.33a3.42,3.42,0,0,0-.21.43,2.52,2.52,0,0,0-.18.65c-.19,1.56-.33,3.12-.41,4.69s-.13,3-.13,4.36a10.31,10.31,0,0,0,.27,2.71,6.92,6.92,0,0,0,.78,1.86,2.85,2.85,0,0,1-.94.92,2.29,2.29,0,0,1-1,.23,3.25,3.25,0,0,1-1.27-.23,1.84,1.84,0,0,1-.88-.84,4.66,4.66,0,0,1-.52-1.66,17.15,17.15,0,0,1-.17-2.68c0-1,0-1.94.08-2.78s.12-1.65.21-2.42.15-1.49.22-2.17.12-1.36.14-2c0-.11-.09-.17-.28-.18h-1.31a11.27,11.27,0,0,0-1.42.08c-.45.06-.67.11-.67.16.05,1.31.1,2.48.14,3.51s.06,1.94.06,2.76a24.31,24.31,0,0,1-.12,3.19A24.85,24.85,0,0,1,130,58.2a4,4,0,0,1-.72,1.72,4.43,4.43,0,0,1-1.16,1,4.28,4.28,0,0,1-1.42.53,7.07,7.07,0,0,1-1.45.15,5.49,5.49,0,0,1-1.45-.23,5.24,5.24,0,0,1-1.5-.69,4.22,4.22,0,0,1-1.17-1.21,3.13,3.13,0,0,1-.47-1.76,1.75,1.75,0,0,1,.45-1.29A1.55,1.55,0,0,1,122.3,56a1.12,1.12,0,0,1,1,.51,6.65,6.65,0,0,1,.55,1.14c.15.43.3.81.45,1.15a.73.73,0,0,0,.72.51c.49,0,.92-.73,1.31-2.21a28.47,28.47,0,0,0,.63-6.51V47.27h-.17a1.22,1.22,0,0,1-1-.67A2.43,2.43,0,0,1,125.32,45.23Z"/><path class="cls-60" d="M156.57,53.46a57.89,57.89,0,0,1-.33,7.45c-.13.85-.71,1.27-1.72,1.27-1.53,0-2.21-.76-2-2.29a9.83,9.83,0,0,1-4.26,1,8.25,8.25,0,0,1-4-1.06A3.66,3.66,0,0,1,142,56.59c0-1.31.87-2.48,2.62-3.6a8.41,8.41,0,0,1,4.46-1.52h3.48v-1c0-2.85-.85-4.28-2.54-4.27-2.16,0-3.23,1-3.23,3,0,.68-.38,1-1.15,1a2.39,2.39,0,0,1-1.45-.63,1.71,1.71,0,0,1-.76-1.33,4.8,4.8,0,0,1,1.54-3.7,5.64,5.64,0,0,1,3.93-1.47Q156.57,43,156.57,53.46Zm-4.14,1.47c0-.54-.41-.82-1.23-.82-3.42,0-5.12.8-5.11,2.42,0,.87.75,1.31,2.25,1.31a4.79,4.79,0,0,0,2.62-.78,2.48,2.48,0,0,0,1.47-2.13Z"/><path class="cls-60" d="M171.32,44.78a2.89,2.89,0,0,1-.26,1.45,1.45,1.45,0,0,1-1.13.35,4.53,4.53,0,0,1-1.62-.39,6.75,6.75,0,0,0-2.52-.39h-2c-.54,0-.87.12-.92.29-.09.52-.15,1-.21,1.47s-.09,1-.1,1.56V54c0,.88,0,1.8.06,2.77a16.88,16.88,0,0,0,.39,3,4.56,4.56,0,0,1-.51.65,1.06,1.06,0,0,1-.68.25,2.5,2.5,0,0,1-1.9-.64,2.78,2.78,0,0,1-.68-1.82c-.05-1-.09-2.13-.1-3.36s0-2.33,0-3.31c0-2,0-4,.12-6a2.57,2.57,0,0,1-.25-.9v-.7a.71.71,0,0,1,.29-.51,2.83,2.83,0,0,1,1.25-.49,22.39,22.39,0,0,1,2.83-.39c1.24-.11,2.91-.17,5-.17S171.32,43.25,171.32,44.78Z"/><path class="cls-60" d="M188,52.35a10.74,10.74,0,0,1-1.84,6.31,6.66,6.66,0,0,1-5.65,3,6.41,6.41,0,0,1-5.45-2.46,9.33,9.33,0,0,1-1.68-5.9,14,14,0,0,1,1.84-7c1.42-2.59,3.27-3.89,5.53-3.89a5.54,5.54,0,0,1,2.66.94Q188,46.13,188,52.35Zm-3.6-.08c0-4.18-1-6.26-3-6.26-1.45,0-2.54.88-3.28,2.66a11.75,11.75,0,0,0-.82,4.54q0,5.43,3.24,5.45a3.32,3.32,0,0,0,3.11-2.25A10.11,10.11,0,0,0,184.4,52.27Z"/><path class="cls-60" d="M205.14,44.16a1.15,1.15,0,0,1-.39.66,2.76,2.76,0,0,1-1.17.65,9.58,9.58,0,0,1-2.37.41c-.9.06-1.67.13-2.3.21v7.12c0,.28,0,.76.06,1.46s.11,1.31.19,1.86.18,1,.22,1.39.06.66.07,1a1.48,1.48,0,0,1-.66,1.16,2.13,2.13,0,0,1-1.3.51c-.7,0-1.26-.58-1.7-1.76a8.65,8.65,0,0,1-.48-2.13,26.26,26.26,0,0,1-.21-3.76v-4.8c0-.7,0-1.37.05-2l-2.91.24a5.82,5.82,0,0,1-2.19-.28c-.59-.22-.88-.54-.88-1a1.34,1.34,0,0,1,.92-1.33,6.61,6.61,0,0,1,2.19-.47l9.62-.73a5,5,0,0,1,2.46.32A1.35,1.35,0,0,1,205.14,44.16Z"/><path class="cls-60" d="M221.44,55.47a3.59,3.59,0,0,1-.86,2.45,6.74,6.74,0,0,1-2.11,1.6,9.57,9.57,0,0,1-2.6.86,14.07,14.07,0,0,1-2.34.25,22.56,22.56,0,0,1-3.07-.25,1.47,1.47,0,0,1-.55.47A2,2,0,0,1,209,61a2,2,0,0,1-1.25-.34,1.85,1.85,0,0,1-.47-1.42,1.6,1.6,0,0,1-1.11-1.43,1.26,1.26,0,0,1,.74-1.31,7.84,7.84,0,0,1,.06-1.19,4.12,4.12,0,0,0,0-.86.56.56,0,0,0-.1-.33l-.2-.22a1.51,1.51,0,0,1-.21-.23.47.47,0,0,1-.1-.36.82.82,0,0,1,.27-.64.81.81,0,0,0,.26-.51v-7a1.22,1.22,0,0,1,.21-.64,2.47,2.47,0,0,1,.53-.63,3.24,3.24,0,0,1,.69-.47,1.93,1.93,0,0,1,2.07.24,2.75,2.75,0,0,1,.35,1.46,7,7,0,0,1,1.55-1.61,3.56,3.56,0,0,1,2.41-.77,4.39,4.39,0,0,1,1.89.39,11.3,11.3,0,0,1,1.63,1,8.85,8.85,0,0,1,2,1.91,3.84,3.84,0,0,1,.65,2.28,4.36,4.36,0,0,1-.65,2.16,4.85,4.85,0,0,1-1.93,1.83,4.64,4.64,0,0,1,2.26,1.17A2.74,2.74,0,0,1,221.44,55.47Zm-3.69-.14a1,1,0,0,0-.1-.39,1.07,1.07,0,0,0-.49-.4,4.64,4.64,0,0,0-1.15-.3,12.15,12.15,0,0,0-2-.13,27.63,27.63,0,0,0-3.4.25v2.75a4.85,4.85,0,0,0,1.35.38,10.37,10.37,0,0,0,1.47.1,9.16,9.16,0,0,0,2.15-.2,4.13,4.13,0,0,0,1.31-.52,1.86,1.86,0,0,0,.66-.73A2.06,2.06,0,0,0,217.75,55.33Zm-.28-7.07a2.12,2.12,0,0,0-.9-1.76,3.09,3.09,0,0,0-2-.7,2.49,2.49,0,0,0-1.72.66,5.68,5.68,0,0,0-1.25,1.59,8.45,8.45,0,0,0-1,3.81,22.8,22.8,0,0,0,3.6-.29,6.36,6.36,0,0,0,2.07-.67,2.05,2.05,0,0,0,.94-1.09A4.8,4.8,0,0,0,217.47,48.26Z"/><path class="cls-60" d="M238.32,52.35a10.74,10.74,0,0,1-1.84,6.31,6.66,6.66,0,0,1-5.65,3,6.41,6.41,0,0,1-5.45-2.46,9.33,9.33,0,0,1-1.68-5.9,14,14,0,0,1,1.85-7c1.41-2.59,3.26-3.89,5.52-3.89a5.72,5.72,0,0,1,2.67.94Q238.32,46.13,238.32,52.35Zm-3.6-.08c0-4.18-1-6.26-3-6.26-1.45,0-2.54.88-3.28,2.66a11.75,11.75,0,0,0-.82,4.54q0,5.43,3.24,5.45A3.33,3.33,0,0,0,234,56.41a10.13,10.13,0,0,0,.78-4.14Z"/><path class="cls-60" d="M254.86,50.67a15.64,15.64,0,0,1-1.48,7.09c-1.23,2.51-3.06,3.78-5.57,3.78a5.35,5.35,0,0,1-3.44-1.15v2.45a16.86,16.86,0,0,0,.9,6.18,4.27,4.27,0,0,1,.41,1.15c0,.93-.54,1.39-1.64,1.39a3.21,3.21,0,0,1-1.84-.45,3.85,3.85,0,0,1-.9-2,11.14,11.14,0,0,1-.37-2.37V56.82c0-.9.06-2.13.17-3.69.1-1.75.17-3,.2-3.64s0-1.59,0-2.71V44c0-2.32.76-3.48,2.27-3.48a1.62,1.62,0,0,1,1.05.39,1.16,1.16,0,0,1,.49.92q0,.9-.21,3.27a4.62,4.62,0,0,1,3.85-2.25,5.24,5.24,0,0,1,4.67,2.46A9.31,9.31,0,0,1,254.86,50.67Zm-3.65-.37c0-2.94-.63-4.42-1.89-4.42-.55,0-1.27.53-2.15,1.6-1.7,2.05-2.63,4.87-2.8,8.48A7.4,7.4,0,0,1,246,57.68a2.45,2.45,0,0,0,1.81,1.1C250.07,58.78,251.21,56,251.21,50.3Z"/><path class="cls-60" d="M257.68,56.73V53.09c0-1.23,0-2.4.08-3.52s.09-2.14.15-3,.12-1.65.2-2.19a1.21,1.21,0,0,1,.33-.58,3.13,3.13,0,0,1,.7-.61,3.85,3.85,0,0,1,.84-.47,1.77,1.77,0,0,1,.75-.19,1.47,1.47,0,0,1,.58.15,2.39,2.39,0,0,1,.59.36,3.71,3.71,0,0,1,.47.5.81.81,0,0,1,.21.47,1.91,1.91,0,0,1-.07.63,3.34,3.34,0,0,1-.22.88,14.74,14.74,0,0,0-.47,1.85c-.18.84-.35,1.92-.51,3.23-.14,1-.28,2-.41,3a21,21,0,0,0-.21,3.17c0,.25.1.37.29.37a1.11,1.11,0,0,0,.47-.14,1.88,1.88,0,0,0,.59-.72q.75-1.35,1.29-2.43c.37-.73.69-1.43,1-2.11a19.71,19.71,0,0,0,.75-2.07c.23-.69.48-1.47.72-2.32a19.3,19.3,0,0,1,.78-2.33,4.69,4.69,0,0,1,.84-1.43,2.19,2.19,0,0,1,1-.72,4.72,4.72,0,0,1,1.4-.18c1.69,0,2.53.47,2.53,1.43a.64.64,0,0,1-.06.43,1.75,1.75,0,0,0-.18.63,45.06,45.06,0,0,0-.51,5.45c0,1.61-.06,3.21-.06,4.79,0,2.24.42,3.86,1.27,4.88a2.89,2.89,0,0,1-.93.77,2.51,2.51,0,0,1-1.08.21,2,2,0,0,1-1.5-.57,4.31,4.31,0,0,1-.86-1.44,7.91,7.91,0,0,1-.44-2c-.06-.71-.1-1.4-.1-2a13.36,13.36,0,0,1,.15-2c.09-.73.2-1.44.32-2.11s.23-1.25.33-1.76a6.69,6.69,0,0,0,.14-1c0-.14,0-.2-.12-.2s-.33.27-.57.82-.51,1.16-.78,1.86-.53,1.36-.76,2-.39,1-.47,1.19c-.63,1.45-1.17,2.62-1.62,3.5a11.27,11.27,0,0,1-1.27,2,3.06,3.06,0,0,1-1.2,1,3.73,3.73,0,0,1-1.4.25,2.64,2.64,0,0,1-2.31-1A5.24,5.24,0,0,1,257.68,56.73Z"/><path class="cls-60" d="M290,44.16a1.23,1.23,0,0,1-.38.66,2.76,2.76,0,0,1-1.17.65,10.06,10.06,0,0,1-2.38.41c-.9.06-1.66.13-2.29.21v7.12c0,.28,0,.76.06,1.46s.1,1.31.18,1.86.19,1,.23,1.39.05.66.06,1a1.47,1.47,0,0,1-.65,1.16,2.15,2.15,0,0,1-1.33.46c-.7,0-1.27-.58-1.7-1.76a9.15,9.15,0,0,1-.49-2.13,27.78,27.78,0,0,1-.2-3.76v-6.8l-2.91.24a5.82,5.82,0,0,1-2.19-.28c-.58-.22-.88-.54-.88-.95a1.35,1.35,0,0,1,.92-1.33,6.61,6.61,0,0,1,2.19-.47l9.63-.73a5.25,5.25,0,0,1,2.45.32A1.34,1.34,0,0,1,290,44.16Z"/><path class="cls-60" d="M304.25,56.82c0,1.36-.93,2.43-2.79,3.19a11.78,11.78,0,0,1-4.54.9q-6.33,0-6.31-7.16A17.85,17.85,0,0,1,292,47.19q1.77-4.42,4.26-4.42a8.09,8.09,0,0,1,4.85,2c1.74,1.33,2.6,2.73,2.6,4.17a4.94,4.94,0,0,1-2.41,4.3,8.89,8.89,0,0,1-5.08,1.44,4.69,4.69,0,0,1-1.84-.7c.11,2.6.87,3.89,2.29,3.89a7,7,0,0,0,3.54-1,6.64,6.64,0,0,1,2.24-1C303.66,55.83,304.25,56.16,304.25,56.82Zm-4.47-7.74a3.66,3.66,0,0,0-.59-1.95,1.82,1.82,0,0,0-1.58-.92,2.3,2.3,0,0,0-2.09,1.19,4.44,4.44,0,0,0-.61,2.41,1.61,1.61,0,0,0,.53,1.27,1.91,1.91,0,0,0,1.35.49C298.79,51.54,299.78,50.74,299.78,49.08Z"/><path class="cls-60" d="M310.59,45.23a1.6,1.6,0,0,1,.25-.95,1.85,1.85,0,0,1,1.06-.61,6.9,6.9,0,0,0,1.07-.49,2.45,2.45,0,0,1,1.27-.29,1.36,1.36,0,0,1,.49.08h.45a4.77,4.77,0,0,0,1-.08l1.21-.12a9.33,9.33,0,0,0,1.17-.14l.76-.09.9-.12.76-.1h.45a1.42,1.42,0,0,1,.61.2,3.67,3.67,0,0,1,.68.49,3.35,3.35,0,0,1,.6.53,1.13,1.13,0,0,1,.22.61.72.72,0,0,1-.08.35l-.18.33a3.42,3.42,0,0,0-.21.43,2.52,2.52,0,0,0-.18.65c-.19,1.56-.33,3.12-.41,4.69s-.12,3-.12,4.36a10.34,10.34,0,0,0,.32,2.77,6.92,6.92,0,0,0,.78,1.86,2.85,2.85,0,0,1-.94.92,2.29,2.29,0,0,1-1,.23,3.4,3.4,0,0,1-1.3-.2,1.84,1.84,0,0,1-.88-.84,4.64,4.64,0,0,1-.51-1.66,16,16,0,0,1-.17-2.68c0-1,0-1.94.08-2.78s.13-1.65.21-2.42.16-1.49.22-2.17.12-1.36.15-2c0-.11-.1-.17-.29-.18s-.63,0-1.31,0a11.11,11.11,0,0,0-1.41.08c-.45.06-.68.11-.68.16.06,1.31.1,2.48.14,3.51s.07,1.94.07,2.76a22.64,22.64,0,0,1-.13,3.19,25,25,0,0,1-.41,2.71,4,4,0,0,1-.71,1.72,4.47,4.47,0,0,1-1.17,1,4.23,4.23,0,0,1-1.41.53,7.16,7.16,0,0,1-1.46.15,5.73,5.73,0,0,1-2.95-.92,4.06,4.06,0,0,1-1.16-1.21,3.13,3.13,0,0,1-.47-1.76,1.75,1.75,0,0,1,.45-1.29A1.52,1.52,0,0,1,307.6,56a1.12,1.12,0,0,1,1,.51,6,6,0,0,1,.55,1.14c.15.43.3.81.45,1.15a.73.73,0,0,0,.72.51c.49,0,.93-.73,1.31-2.21a28.47,28.47,0,0,0,.57-6.51V47.27H312a1.22,1.22,0,0,1-1-.67A2.47,2.47,0,0,1,310.59,45.23Z"/><path class="cls-60" d="M331.89,45.14a15.22,15.22,0,0,0-.35,2,29,29,0,0,0-.22,3.36,8.65,8.65,0,0,0,1.25-.06,9.26,9.26,0,0,1,1.29,0,9.11,9.11,0,0,1,2.84.39,12.58,12.58,0,0,1,2.68,1.25c.5.3.9.56,1.23.79a3.46,3.46,0,0,1,.76.72,2.48,2.48,0,0,1,.39.82,5.17,5.17,0,0,1,.12,1.11,3.48,3.48,0,0,1-.78,2.23,6.61,6.61,0,0,1-1.94,1.59,10.14,10.14,0,0,1-2.6,1,12.93,12.93,0,0,1-2.7.32,6.94,6.94,0,0,1-1.11-.1c-.41-.07-.85-.15-1.31-.26a2.26,2.26,0,0,1-.68.55,2.65,2.65,0,0,1-1.33.26,1.81,1.81,0,0,1-1.14-.24,2.12,2.12,0,0,1-.37-1.19.73.73,0,0,0-.23-.41c-.13-.11-.26-.22-.39-.31a2.24,2.24,0,0,1-.37-.32.8.8,0,0,1-.16-.56,1.1,1.1,0,0,1,.14-.59,2.31,2.31,0,0,1,.31-.39c.11-.11.21-.23.31-.35a.84.84,0,0,0,.14-.51V53.38a.71.71,0,0,0-.31-.6.76.76,0,0,1-.3-.67,1.24,1.24,0,0,1,.28-.78,1.34,1.34,0,0,0,.29-.82,31.49,31.49,0,0,1,.19-4.12,18.65,18.65,0,0,1,.42-2.35,3.8,3.8,0,0,1,.64-1.27,1.57,1.57,0,0,1,1.37-.57,2.93,2.93,0,0,1,.78.1,3.68,3.68,0,0,1,.86.31,2.33,2.33,0,0,1,.7.51,1,1,0,0,1,.28.71c0,.14-.12.27-.37.39A1.53,1.53,0,0,0,331.89,45.14Zm6.55,10.18a1.67,1.67,0,0,0-1.19-1.59,8.29,8.29,0,0,0-3.27-.52h-1a4.58,4.58,0,0,0-.9.09,2.77,2.77,0,0,0-.7.18.42.42,0,0,0-.29.37v3.31c0,.14.09.25.27.35a3,3,0,0,0,.65.25,8.15,8.15,0,0,0,.86.16,6.51,6.51,0,0,0,.88.06,8.83,8.83,0,0,0,1.62-.18,6.55,6.55,0,0,0,1.5-.54,3.57,3.57,0,0,0,1.08-.85A1.72,1.72,0,0,0,338.44,55.32Z"/><path class="cls-60" d="M358.55,45.68a3.14,3.14,0,0,0-.51,1.57,23.54,23.54,0,0,0-.19,3.46A.36.36,0,0,0,358,51l.32.21a.86.86,0,0,1,.33.3,1.26,1.26,0,0,1,.15.66,1.57,1.57,0,0,1-.17.76,3,3,0,0,1-.35.45l-.32.3a.41.41,0,0,0-.15.33v.9a9.73,9.73,0,0,0,.13,1.21c.06.42.11.83.18,1.21a5.16,5.16,0,0,0,.23.94,2.22,2.22,0,0,0,.18.49,1,1,0,0,1,.1.41,2,2,0,0,1-.53,1.29,1.57,1.57,0,0,1-1.23.64,1.26,1.26,0,0,1-1-.49,3.85,3.85,0,0,1-.62-1.23,10.89,10.89,0,0,1-.35-1.58c-.08-.56-.16-1.09-.24-1.58s-.15-.83-.25-1.23-.2-.49-.36-.49a10.89,10.89,0,0,0-1.7.25c-.67.14-1.32.29-1.93.47a11,11,0,0,0-1.58.57c-.43.21-.65.39-.65.56a13,13,0,0,0,.08,1.65,2,2,0,0,0,.57,1.42,2,2,0,0,1-1,1.51,3,3,0,0,1-1.31.37c-.63,0-1.09-.68-1.39-2a32.61,32.61,0,0,1-.45-6.47V48.3a18.27,18.27,0,0,1,.29-3.22,4,4,0,0,1,.77-1.92,1.84,1.84,0,0,1,1.57-.62,1.5,1.5,0,0,1,.69.17,2.8,2.8,0,0,1,.68.41,2.32,2.32,0,0,1,.51.57,1.33,1.33,0,0,1,.21.7,2.11,2.11,0,0,1-.19.86,4.38,4.38,0,0,0-.3.86,22.8,22.8,0,0,0-.44,2.47,35.65,35.65,0,0,0-.26,4c0,.33.15.49.45.49a5.45,5.45,0,0,1,.8-.18c.59-.13,1.25-.29,2-.5s1.42-.41,2-.63,1-.44,1-.66q.12-1.5.09-3a21.2,21.2,0,0,1,.06-2.76,4.8,4.8,0,0,1,.53-2,1.55,1.55,0,0,1,1.5-.78,2.61,2.61,0,0,1,1.88.58,1.57,1.57,0,0,1,.57.94,3.08,3.08,0,0,1-.1.8A4.2,4.2,0,0,1,358.55,45.68Z"/><path class="cls-60" d="M366.58,45.14a15.22,15.22,0,0,0-.35,2A29,29,0,0,0,366,50.5a8.65,8.65,0,0,0,1.25-.06,15.19,15.19,0,0,1,4.14.39,13.9,13.9,0,0,1,2.68,1.25c.49.3.9.56,1.23.79a3.46,3.46,0,0,1,.76.72,3.09,3.09,0,0,1,.39.82,5.17,5.17,0,0,1,.12,1.11,3.48,3.48,0,0,1-.78,2.23,6.61,6.61,0,0,1-1.94,1.59,10.14,10.14,0,0,1-2.6,1,13,13,0,0,1-2.71.32,6.72,6.72,0,0,1-1.1-.1c-.41-.07-.85-.15-1.31-.26a2.42,2.42,0,0,1-.68.55,2.65,2.65,0,0,1-1.33.26,1.85,1.85,0,0,1-1.15-.24,2.31,2.31,0,0,1-.37-1.19.67.67,0,0,0-.22-.41c-.13-.11-.26-.22-.39-.31a1.89,1.89,0,0,1-.37-.32.8.8,0,0,1-.16-.56.94.94,0,0,1,.14-.59,2.31,2.31,0,0,1,.31-.39c.11-.11.21-.23.31-.35a.84.84,0,0,0,.14-.51V53.38a.71.71,0,0,0-.31-.6.77.77,0,0,1-.31-.67,1.18,1.18,0,0,1,.29-.78,1.34,1.34,0,0,0,.29-.79,35.4,35.4,0,0,1,.18-4.12,17,17,0,0,1,.43-2.35,3.8,3.8,0,0,1,.64-1.27,1.57,1.57,0,0,1,1.37-.57,2.93,2.93,0,0,1,.78.1,3.68,3.68,0,0,1,.86.31,2.17,2.17,0,0,1,.69.51,1,1,0,0,1,.29.71c0,.14-.12.27-.37.39A1.47,1.47,0,0,0,366.58,45.14Zm6.55,10.18a1.67,1.67,0,0,0-1.19-1.59,8.29,8.29,0,0,0-3.27-.52h-1a4.58,4.58,0,0,0-.9.09,2.7,2.7,0,0,0-.69.18.42.42,0,0,0-.29.37v3.31c0,.14.09.25.27.35a3,3,0,0,0,.65.25,8.15,8.15,0,0,0,.86.16,6.51,6.51,0,0,0,.88.06,8.83,8.83,0,0,0,1.62-.18,5.66,5.66,0,0,0,1.49-.54,3.74,3.74,0,0,0,1.09-.85,1.66,1.66,0,0,0,.48-1.09Zm10.32-10.26a9.6,9.6,0,0,1-.33,2,8.45,8.45,0,0,0-.33,2v8.23a10,10,0,0,0,.45,2.42,1.7,1.7,0,0,1-1.35.9c-1.88,0-2.82-.84-2.82-2.5V44a4.4,4.4,0,0,1,1.84-.57,3.21,3.21,0,0,1,1.62.53c.61.35.92.72.92,1.1Z"/><path class="cls-60" d="M385.87,56.73V53.09c0-1.23,0-2.4.08-3.52s.09-2.14.14-3a20.27,20.27,0,0,1,.21-2.19,1.19,1.19,0,0,1,.32-.58,3.41,3.41,0,0,1,.7-.61,3.85,3.85,0,0,1,.84-.47,1.85,1.85,0,0,1,.76-.19,1.42,1.42,0,0,1,.57.15,2.39,2.39,0,0,1,.59.36,4.56,4.56,0,0,1,.48.5.9.9,0,0,1,.2.47,3.36,3.36,0,0,1-.06.63,3.8,3.8,0,0,1-.23.88,16.7,16.7,0,0,0-.47,1.85c-.18.84-.35,1.92-.51,3.23-.14,1-.27,2-.41,3a22.4,22.4,0,0,0-.2,3.17c0,.25.09.37.28.37a1.11,1.11,0,0,0,.47-.14,2.09,2.09,0,0,0,.6-.72q.74-1.35,1.29-2.43c.37-.73.69-1.43,1-2.11s.54-1.37.76-2.07.47-1.47.71-2.32.54-1.73.78-2.33a5,5,0,0,1,.84-1.43,2.19,2.19,0,0,1,1.05-.72,4.66,4.66,0,0,1,1.39-.18c1.69,0,2.54.47,2.54,1.43a.79.79,0,0,1-.06.43,2,2,0,0,0-.19.63,45.06,45.06,0,0,0-.51,5.45c0,1.61-.06,3.21-.06,4.79,0,2.24.42,3.86,1.27,4.88a3.4,3.4,0,0,1-.92.77,2.55,2.55,0,0,1-1.09.21,2,2,0,0,1-1.49-.57,3.84,3.84,0,0,1-.86-1.44,7.39,7.39,0,0,1-.41-1.92c-.07-.71-.1-1.4-.1-2a13.36,13.36,0,0,1,.14-2c.09-.73.2-1.44.33-2.11s.23-1.25.32-1.76a8.31,8.31,0,0,0,.15-1c0-.14,0-.2-.13-.2s-.32.27-.57.82-.5,1.16-.78,1.86-.52,1.36-.75,2-.39,1-.48,1.19c-.62,1.45-1.16,2.62-1.61,3.5a11.87,11.87,0,0,1-1.27,2,3.15,3.15,0,0,1-1.2.94,3.64,3.64,0,0,1-1.39.25,2.66,2.66,0,0,1-2.32-1A5.31,5.31,0,0,1,385.87,56.73Zm13.31-19c0,1-.66,1.86-2,2.46a8.53,8.53,0,0,1-6.72,0c-1.31-.6-2-1.42-2-2.46,0-.68.48-1,1.43-1,.63,0,1,.15,1.19.47a8.68,8.68,0,0,1,.45.92,3.51,3.51,0,0,0,2.13.45,4.19,4.19,0,0,0,2.33-.45l.49-.9c.17-.33.56-.49,1.19-.49C398.67,36.73,399.18,37,399.18,37.73Z"/><path class="cls-60" d="M423.17,69.18a1.12,1.12,0,0,1-.49.93,3.07,3.07,0,0,1-1.68.34,1.2,1.2,0,0,1-1.06-.69,6.23,6.23,0,0,1-.66-1.87,21.86,21.86,0,0,1-.37-2.68c-.08-1-.13-2.06-.16-3.15,0-.52-.29-.82-.86-.9a10.88,10.88,0,0,1-3.54-1A7.86,7.86,0,0,1,412,58.34,6.78,6.78,0,0,1,410.68,56a8.53,8.53,0,0,1-.41-2.65,12.22,12.22,0,0,1,.6-3.93,9.92,9.92,0,0,1,1.66-3.15A9.37,9.37,0,0,1,415,44a9.77,9.77,0,0,1,3.12-1.27.81.81,0,0,0,.51-.43,1.6,1.6,0,0,0,.18-.68V36.54a7.09,7.09,0,0,0-.16-1.59,4.61,4.61,0,0,1-.16-1.23.48.48,0,0,1,.26-.43,2.07,2.07,0,0,1,.62-.29,5.73,5.73,0,0,1,.69-.16,2.6,2.6,0,0,1,.56-.06,2.2,2.2,0,0,1,.84.16,2.83,2.83,0,0,1,.77.45,2.52,2.52,0,0,1,.58.68,1.57,1.57,0,0,1,.22.79,6.78,6.78,0,0,1-.1,1c-.05.33-.15,1-.25,1.7s-.17,1.36-.24,2.13-.1,1.51-.1,2.25a1.15,1.15,0,0,0,.1.55.73.73,0,0,0,.47.35,33.08,33.08,0,0,1,3.46,1.49,7.31,7.31,0,0,1,2.29,1.77A6.31,6.31,0,0,1,430,48.74a17.91,17.91,0,0,1,.39,4.13,7.9,7.9,0,0,1-.43,2.46,8.09,8.09,0,0,1-1.35,2.48,9.28,9.28,0,0,1-2.35,2.07,8.79,8.79,0,0,1-3.4,1.18.72.72,0,0,0-.66.48,2.88,2.88,0,0,0-.12.92c0,.82,0,1.68.06,2.6a9.5,9.5,0,0,0,.35,2.31,2.65,2.65,0,0,0,.41.78A2.06,2.06,0,0,1,423.17,69.18Zm-9.09-15.76a4.72,4.72,0,0,0,1,3.09,4.54,4.54,0,0,0,2.84,1.58.83.83,0,0,0,.45-.19.61.61,0,0,0,.25-.51V47a.43.43,0,0,0-.2-.39.86.86,0,0,0-.41-.1h-.33a4.49,4.49,0,0,0-2.62,2.25,9,9,0,0,0-1,4.66Zm12.78-.82a8.29,8.29,0,0,0-1.19-4.83,3.46,3.46,0,0,0-2.91-1.64.72.72,0,0,0-.4.12.45.45,0,0,0-.21.45c0,1.2-.1,2.36-.12,3.46s-.06,2.12-.08,3-.05,1.72-.05,2.42v1.58c0,.49.18.73.54.73h.16a4.94,4.94,0,0,0,3.11-1.7,5.41,5.41,0,0,0,1.15-3.59Z"/><path class="cls-60" d="M447.5,52.35a10.74,10.74,0,0,1-1.84,6.31,6.66,6.66,0,0,1-5.65,3,6.41,6.41,0,0,1-5.45-2.46,9.33,9.33,0,0,1-1.68-5.9,14,14,0,0,1,1.84-7c1.42-2.59,3.27-3.89,5.53-3.89a5.54,5.54,0,0,1,2.66.94Q447.5,46.13,447.5,52.35Zm-3.6-.08c0-4.18-1-6.26-3-6.26-1.45,0-2.54.88-3.28,2.66a11.75,11.75,0,0,0-.82,4.54q0,5.43,3.24,5.45a3.32,3.32,0,0,0,3.11-2.25A10.11,10.11,0,0,0,443.9,52.27Z"/><path class="cls-60" d="M464.25,45.68a3.14,3.14,0,0,0-.51,1.57,22.24,22.24,0,0,0-.19,3.46.35.35,0,0,0,.15.31,1.85,1.85,0,0,0,.33.21,1.14,1.14,0,0,1,.32.3,1.26,1.26,0,0,1,.15.66,1.57,1.57,0,0,1-.17.76,3,3,0,0,1-.35.45l-.32.3a.41.41,0,0,0-.15.33v.9a9.73,9.73,0,0,0,.13,1.21c.06.42.11.83.18,1.21a5.16,5.16,0,0,0,.23.94,2.22,2.22,0,0,0,.18.49,1,1,0,0,1,.1.41,2,2,0,0,1-.53,1.29,1.57,1.57,0,0,1-1.23.64,1.26,1.26,0,0,1-1-.49A3.73,3.73,0,0,1,461,59.4a9.46,9.46,0,0,1-.34-1.58c-.09-.56-.17-1.09-.25-1.58s-.15-.83-.25-1.23-.2-.49-.37-.49a10.77,10.77,0,0,0-1.69.25c-.67.14-1.31.29-1.93.47a11,11,0,0,0-1.58.57c-.43.21-.65.39-.65.56A14.8,14.8,0,0,0,454,58a2.07,2.07,0,0,0,.57,1.42,2,2,0,0,1-1,1.51,3,3,0,0,1-1.31.37c-.63,0-1.09-.68-1.39-2a32.61,32.61,0,0,1-.45-6.47V48.3a18.27,18.27,0,0,1,.29-3.22,4,4,0,0,1,.77-1.92,1.82,1.82,0,0,1,1.48-.64,1.5,1.5,0,0,1,.69.17,2.8,2.8,0,0,1,.68.41,2.32,2.32,0,0,1,.51.57,1.33,1.33,0,0,1,.21.7,2.11,2.11,0,0,1-.19.86,5.19,5.19,0,0,0-.31.86,22.77,22.77,0,0,0-.43,2.47,35.65,35.65,0,0,0-.26,4c0,.33.15.49.45.49a5.45,5.45,0,0,1,.8-.18c.58-.13,1.25-.29,2-.5s1.42-.41,2.05-.63,1-.44,1-.66q.12-1.5.09-3a21.2,21.2,0,0,1,.06-2.76,4.8,4.8,0,0,1,.53-2,1.54,1.54,0,0,1,1.51-.78,2.55,2.55,0,0,1,1.89.58,1.57,1.57,0,0,1,.57.94,3.08,3.08,0,0,1-.1.8A3.67,3.67,0,0,1,464.25,45.68Z"/><path class="cls-60" d="M466.87,59.77a4.57,4.57,0,0,1,0-.74,1.13,1.13,0,0,1,.27-.6,1.68,1.68,0,0,1,.65-.43,5.41,5.41,0,0,1,1.25-.24,10.14,10.14,0,0,0,1-2.6c.3-1.13.55-2.32.77-3.54s.4-2.42.54-3.57.23-2,.28-2.7a2.9,2.9,0,0,1,.9-2.27,2.77,2.77,0,0,1,1.64-.56h3.26l2.23.07a9.46,9.46,0,0,1,1.68.08,1.84,1.84,0,0,1,.88.26,1.61,1.61,0,0,1,.53.54,2.31,2.31,0,0,1,.25.61,5.14,5.14,0,0,1,.06.55l-.12.49a2.61,2.61,0,0,1-.37.62c-.14,1.23-.25,2.44-.33,3.62s-.12,2.45-.12,3.79v2a13.39,13.39,0,0,0,.18,2,1.8,1.8,0,0,1,1.05.34,1.87,1.87,0,0,1,.57.76,3.82,3.82,0,0,1,.23,1v1.11a11.52,11.52,0,0,1-.48,3.09,4.47,4.47,0,0,1-.57,1.21,1,1,0,0,1-.76.49,3.8,3.8,0,0,1-1.16-.18.74.74,0,0,1-.56-.76v-.82a6.7,6.7,0,0,1,.05-1,5.57,5.57,0,0,0,0-1v-.82h-2.85c-1,0-2,.06-3,.1l-2.72.12a19,19,0,0,0-2,.14,3.05,3.05,0,0,0,.06.6c.06.32.08.65.13,1s.08.72.14,1,.09.56.12.69a2.13,2.13,0,0,1-.55.53,3,3,0,0,1-1.09.33,7,7,0,0,1-.8-.08,2.28,2.28,0,0,1-1-.57c-.05-.25-.11-.6-.16-1.07s-.11-.93-.15-1.41-.07-.93-.1-1.35S466.87,60,466.87,59.77ZM475,46c-.06.8-.14,1.68-.27,2.67s-.28,2-.49,3-.43,2.06-.67,3.07a25.44,25.44,0,0,1-.82,2.7l1.41-.08a15.72,15.72,0,0,0,1.66-.06h3.07a14.75,14.75,0,0,1-.22-2.48V47.65c0-.51,0-1.07.06-1.7Z"/><path class="cls-60" d="M499.39,40.44a1.42,1.42,0,0,1-.29.86l-3.89,5.07L497.38,49a7.45,7.45,0,0,1,1.88,4c0,.65-.27,1-.82,1a1.28,1.28,0,0,1-1.06-.53,43.92,43.92,0,0,1-2.7-3.53,15,15,0,0,1-2.17-3.35.84.84,0,0,1,.49-.74l4.5-6.59a1.34,1.34,0,0,1,.62-.17,1.12,1.12,0,0,1,.92.45A1.65,1.65,0,0,1,499.39,40.44Zm5.81,13.63c0,.66-.27,1-.82,1a1.39,1.39,0,0,1-1.06-.53,49.88,49.88,0,0,1-3-4.09c-1.64-2.35-2.46-3.69-2.46-4a.84.84,0,0,1,.49-.74l4.51-6.59a1.22,1.22,0,0,1,.61-.17,1.12,1.12,0,0,1,.92.45,1.58,1.58,0,0,1,.35,1c0,.4-.6,1.39-1.8,2.94-.79,1-1.6,2-2.42,3l2.38,2.87Q505.2,52.39,505.2,54.07Z"/><path class="cls-60" d="M529.94,53.17c0,1.31-.59,2-1.76,2a12.57,12.57,0,0,0,.9,2.54,2,2,0,0,1-.74,1.47,2.51,2.51,0,0,1-1.64.58,4.23,4.23,0,0,1-1.7-.46,5.54,5.54,0,0,1-.53-2.53V54.7c0,.19-.45.28-1.35.28-1.53,0-3.34.07-5.44.21-3,.16-4.64.39-4.9.69s-.43,1.77-.51,4.39a1.62,1.62,0,0,1-1.35.77,2.87,2.87,0,0,1-1.76-.71,2,2,0,0,1-.9-1.54A13.29,13.29,0,0,1,509,56.5q.81-2.91,2.66-8.72,5.49-15,9.14-15t5.55,7.9A87.66,87.66,0,0,1,528,51.62a5.84,5.84,0,0,1,1.35.41A1.2,1.2,0,0,1,529.94,53.17Zm-5.73-1.55c-1.21-9.53-2.28-14.3-3.24-14.3-.76,0-2.1,2.24-4,6.72-1.37,3.22-2.45,6-3.24,8.39.87-.19,2.17-.42,3.89-.69A42.64,42.64,0,0,1,524.21,51.62Z"/><path class="cls-60" d="M537.06,45.23a1.6,1.6,0,0,1,.25-.95,1.85,1.85,0,0,1,1.06-.61,6.9,6.9,0,0,0,1.07-.49,2.45,2.45,0,0,1,1.27-.29,1.36,1.36,0,0,1,.49.08h.45a4.77,4.77,0,0,0,1-.08l1.21-.12a7.78,7.78,0,0,0,1.17-.14l.8-.11.9-.12.76-.1h.45a1.42,1.42,0,0,1,.61.2,3.67,3.67,0,0,1,.68.49,5.25,5.25,0,0,1,.53.62,1.13,1.13,0,0,1,.22.61.72.72,0,0,1-.08.35l-.18.33a3.42,3.42,0,0,0-.21.43,3.69,3.69,0,0,0-.18.65c-.19,1.56-.33,3.12-.41,4.69s-.12,3-.12,4.36a10,10,0,0,0,.33,2.77,6.59,6.59,0,0,0,.77,1.86,2.85,2.85,0,0,1-.94.92,2.29,2.29,0,0,1-1,.23,3.25,3.25,0,0,1-1.27-.23,1.84,1.84,0,0,1-.88-.84,4.64,4.64,0,0,1-.51-1.66,16,16,0,0,1-.17-2.68c0-1,0-1.94.08-2.78s.13-1.65.21-2.42.16-1.49.22-2.17.12-1.36.15-2c0-.11-.1-.17-.29-.18h-1.31a11.11,11.11,0,0,0-1.41.08c-.45.06-.68.11-.68.16.06,1.31.1,2.48.14,3.51s.07,1.94.07,2.76a22.64,22.64,0,0,1-.13,3.19,25,25,0,0,1-.41,2.71,4,4,0,0,1-.71,1.72,4.27,4.27,0,0,1-2.58,1.57,7.16,7.16,0,0,1-1.46.15,5.73,5.73,0,0,1-2.95-.92,4.06,4.06,0,0,1-1.16-1.21,3.13,3.13,0,0,1-.47-1.76,1.75,1.75,0,0,1,.45-1.29,1.55,1.55,0,0,1,1.18-.47,1.12,1.12,0,0,1,1,.51,6,6,0,0,1,.55,1.14c.15.43.3.81.45,1.15a.73.73,0,0,0,.72.51c.49,0,.93-.73,1.31-2.21a28.47,28.47,0,0,0,.57-6.51V47.27h-.16a1.22,1.22,0,0,1-1-.67A2.49,2.49,0,0,1,537.06,45.23Z"/><path class="cls-60" d="M558.32,45.14a15.22,15.22,0,0,0-.35,2,29,29,0,0,0-.22,3.36,8.65,8.65,0,0,0,1.25-.06,9.26,9.26,0,0,1,1.29,0,9.11,9.11,0,0,1,2.84.39,12.58,12.58,0,0,1,2.68,1.25c.5.3.91.56,1.23.79a3.46,3.46,0,0,1,.76.72,2.48,2.48,0,0,1,.39.82,5.17,5.17,0,0,1,.12,1.11,3.48,3.48,0,0,1-.78,2.23,6.61,6.61,0,0,1-1.94,1.59,10.14,10.14,0,0,1-2.6,1,12.6,12.6,0,0,1-2.67.2,6.94,6.94,0,0,1-1.11-.1c-.41-.07-.85-.15-1.31-.26a2.26,2.26,0,0,1-.68.55,2.65,2.65,0,0,1-1.33.26,1.81,1.81,0,0,1-1.14-.24,2.12,2.12,0,0,1-.37-1.19.73.73,0,0,0-.23-.41c-.13-.11-.26-.22-.39-.31a2.24,2.24,0,0,1-.37-.32.86.86,0,0,1-.16-.56,1.1,1.1,0,0,1,.14-.59,2.31,2.31,0,0,1,.31-.39c.11-.11.21-.23.31-.35a.84.84,0,0,0,.14-.51V53.38a.71.71,0,0,0-.31-.6.76.76,0,0,1-.3-.67,1.24,1.24,0,0,1,.28-.78,1.34,1.34,0,0,0,.29-.82,35.4,35.4,0,0,1,.18-4.12,17.06,17.06,0,0,1,.44-2.35,3.6,3.6,0,0,1,.63-1.27,1.57,1.57,0,0,1,1.37-.57,2.93,2.93,0,0,1,.78.1,3.68,3.68,0,0,1,.86.31,2.33,2.33,0,0,1,.7.51,1,1,0,0,1,.28.71c0,.14-.12.27-.37.39A1.52,1.52,0,0,0,558.32,45.14Zm6.55,10.18a1.66,1.66,0,0,0-1.18-1.59,8.33,8.33,0,0,0-3.28-.52h-.94a4.58,4.58,0,0,0-.9.09,2.77,2.77,0,0,0-.7.18.42.42,0,0,0-.29.37v3.31c0,.14.09.25.27.35a3,3,0,0,0,.65.25,8.15,8.15,0,0,0,.86.16,6.51,6.51,0,0,0,.88.06,8.83,8.83,0,0,0,1.62-.18,6.55,6.55,0,0,0,1.5-.54,3.57,3.57,0,0,0,1.08-.85,1.69,1.69,0,0,0,.47-1.09Z"/><path class="cls-60" d="M585.51,44.78a2.07,2.07,0,0,1-.18.92,2.52,2.52,0,0,1-.47.51c-.19,1.88-.34,3.51-.43,4.87s-.15,2.62-.15,3.77a14.81,14.81,0,0,0,.11,2,7.2,7.2,0,0,0,.22,1.23,3.12,3.12,0,0,0,.23.67,1.6,1.6,0,0,1,.1.31.7.7,0,0,1-.21.43,2.24,2.24,0,0,1-.51.41,2.51,2.51,0,0,1-.65.28,2.77,2.77,0,0,1-.64.11,6,6,0,0,1-1.27-.13,1.83,1.83,0,0,1-1-.65,8.13,8.13,0,0,1-.12-1.21,11.12,11.12,0,0,0-.07-1.51,13.13,13.13,0,0,1,0-1.66V53.54c0-1.26,0-2.54.09-3.85s.12-2.62.2-3.93c0-.14-.21-.23-.47-.29a7.43,7.43,0,0,0-1.33-.08,7.25,7.25,0,0,0-2.36.33c-.64.22-1,.46-1.08.73-.08.52-.15,1-.21,1.54s-.09,1.07-.12,1.7-.05,1.35-.06,2.17,0,1.8,0,3c0,1,0,1.78.06,2.39s.09,1.11.14,1.48.11.65.15.84a3.47,3.47,0,0,1,.06.45,1,1,0,0,1-.41.86,1.49,1.49,0,0,1-.78.29,2.92,2.92,0,0,1-2.07-.64,2.69,2.69,0,0,1-.71-1.82c0-.44-.05-.94-.07-1.52s0-1.16,0-1.78V51.82c0-1,0-1.94.06-3s.07-1.83.07-2.44a1.49,1.49,0,0,0-.07-.47,1.06,1.06,0,0,0-.12-.34,2.91,2.91,0,0,1-.12-.39,2,2,0,0,1-.06-.6,1,1,0,0,1,.53-1,2.38,2.38,0,0,1,.37-.06l.59-.06,1.07-.13,1.78-.2,2.74-.29a38.1,38.1,0,0,1,4-.16,4.44,4.44,0,0,1,2.6.53A1.85,1.85,0,0,1,585.51,44.78Z"/><path class="cls-60" d="M602.59,53.46a57.89,57.89,0,0,1-.33,7.45c-.14.85-.71,1.27-1.72,1.27-1.53,0-2.21-.76-2-2.29a9.79,9.79,0,0,1-4.25,1,8.36,8.36,0,0,1-4.06-1.06c-1.53-.85-2.29-1.93-2.29-3.24s.87-2.48,2.62-3.6A8.46,8.46,0,0,1,595,51.47h3.48v-1c0-2.85-.85-4.28-2.54-4.27-2.16,0-3.23,1-3.23,3,0,.68-.38,1-1.15,1a2.39,2.39,0,0,1-1.45-.63,1.71,1.71,0,0,1-.76-1.33,4.84,4.84,0,0,1,1.64-3.7,5.64,5.64,0,0,1,3.93-1.47Q602.59,43,602.59,53.46Zm-4.14,1.47c0-.54-.41-.82-1.23-.82-3.41,0-5.11.8-5.11,2.42,0,.87.75,1.31,2.25,1.31a4.87,4.87,0,0,0,2.62-.78A2.5,2.5,0,0,0,598.45,54.93Z"/><path class="cls-60" d="M619.32,50.67a15.64,15.64,0,0,1-1.48,7.09c-1.2,2.51-3.06,3.78-5.52,3.78a5.35,5.35,0,0,1-3.44-1.15v2.45a16.62,16.62,0,0,0,.9,6.18,4.27,4.27,0,0,1,.41,1.15c0,.93-.55,1.39-1.64,1.39a3.17,3.17,0,0,1-1.85-.45,3.85,3.85,0,0,1-.9-2,11.14,11.14,0,0,1-.37-2.37V56.82c0-.9.06-2.13.17-3.69.11-1.75.18-3,.2-3.64s0-1.59,0-2.71V44c0-2.32.76-3.48,2.27-3.48a1.65,1.65,0,0,1,1.06.39,1.21,1.21,0,0,1,.48.92c0,.6-.07,1.69-.2,3.27a4.62,4.62,0,0,1,3.85-2.25,5.28,5.28,0,0,1,4.67,2.46A9.37,9.37,0,0,1,619.32,50.67Zm-3.65-.37c0-2.94-.63-4.42-1.89-4.42-.55,0-1.26.53-2.14,1.6-1.71,2.05-2.64,4.87-2.8,8.48a7.69,7.69,0,0,1,1.6,1.72,2.5,2.5,0,0,0,1.82,1.1c2.29,0,3.43-2.82,3.43-8.48Z"/><path class="cls-60" d="M622.16,56.73V53.09c0-1.23,0-2.4.08-3.52s.09-2.14.14-3a20.27,20.27,0,0,1,.21-2.19,1.19,1.19,0,0,1,.32-.58,3.41,3.41,0,0,1,.7-.61,3.85,3.85,0,0,1,.84-.47,1.85,1.85,0,0,1,.76-.19,1.42,1.42,0,0,1,.57.15,2.22,2.22,0,0,1,.59.36,3.71,3.71,0,0,1,.47.5.81.81,0,0,1,.21.47,3.36,3.36,0,0,1-.06.63,3.8,3.8,0,0,1-.23.88,16.7,16.7,0,0,0-.47,1.85c-.18.84-.35,1.92-.51,3.23-.14,1-.27,2-.41,3a22.4,22.4,0,0,0-.2,3.17c0,.25.09.37.28.37a1.07,1.07,0,0,0,.47-.14,1.9,1.9,0,0,0,.6-.72q.74-1.35,1.29-2.43c.37-.73.69-1.43,1-2.11s.52-1.38.76-2.07.47-1.47.71-2.32.54-1.73.78-2.33a5,5,0,0,1,.84-1.43,2.19,2.19,0,0,1,1-.72,4.66,4.66,0,0,1,1.39-.18c1.69,0,2.54.47,2.54,1.43a.79.79,0,0,1-.06.43,2,2,0,0,0-.19.63,45.06,45.06,0,0,0-.51,5.45c0,1.61-.06,3.21-.06,4.79,0,2.24.42,3.86,1.27,4.88a3.4,3.4,0,0,1-.92.77,2.55,2.55,0,0,1-1.09.21,2,2,0,0,1-1.49-.57,3.84,3.84,0,0,1-.86-1.44,7.39,7.39,0,0,1-.41-1.92c-.07-.71-.11-1.4-.11-2a13.36,13.36,0,0,1,.15-2c.09-.73.2-1.44.33-2.11s.23-1.25.32-1.76a8.31,8.31,0,0,0,.15-1c0-.14,0-.2-.13-.2s-.32.27-.57.82-.51,1.16-.78,1.86-.52,1.36-.76,2c-.14.4-.3.8-.47,1.19-.62,1.45-1.16,2.62-1.61,3.5a13.5,13.5,0,0,1-1.27,2,3.18,3.18,0,0,1-1.21,1,3.64,3.64,0,0,1-1.39.25,2.66,2.66,0,0,1-2.32-1A5.32,5.32,0,0,1,622.16,56.73Z"/><path class="cls-60" d="M647.32,46.29a.82.82,0,0,1-.45.74l-4.51,7a1.46,1.46,0,0,1-.65.17,1.14,1.14,0,0,1-.9-.45,1.53,1.53,0,0,1-.37-1c0-.41.6-1.44,1.8-3.11.82-1.06,1.63-2.13,2.42-3.19-.82-1.1-1.64-2.2-2.46-3.32-1.23-1.75-1.84-2.83-1.84-3.24,0-.65.39-1,1.18-1a1,1,0,0,1,.74.25,30.37,30.37,0,0,1,2.79,3.6A18.21,18.21,0,0,1,647.32,46.29Zm5.32,0a.82.82,0,0,1-.45.74l-4.09,6.59a1.5,1.5,0,0,1-.66.17,1.14,1.14,0,0,1-.9-.45,1.53,1.53,0,0,1-.37-1c0-.38,1.27-2.35,3.81-5.89q-3.93-5.41-3.93-6c0-.67.41-1,1.23-1a1,1,0,0,1,.69.25,27.67,27.67,0,0,1,2.58,3.23,16.3,16.3,0,0,1,2,3.36Z"/><path class="cls-61" d="M260.77,96.05V92.41c0-1.22,0-2.41.09-3.53s.08-2.13.14-3,.12-1.64.2-2.19a1.26,1.26,0,0,1,.33-.57,3.18,3.18,0,0,1,.7-.62,3.85,3.85,0,0,1,.84-.47,2,2,0,0,1,.76-.18,1.59,1.59,0,0,1,.57.14,2.43,2.43,0,0,1,.59.37,3.63,3.63,0,0,1,.47.49.84.84,0,0,1,.21.47c0,.22-.05.43-.06.64a3.8,3.8,0,0,1-.23.88,13.06,13.06,0,0,0-.47,1.84q-.27,1.26-.51,3.24c-.14,1-.27,1.94-.41,3a21,21,0,0,0-.21,3.17c0,.25.1.37.29.37a1,1,0,0,0,.47-.15,1.87,1.87,0,0,0,.6-.71c.49-.9.92-1.72,1.29-2.44s.68-1.43,1-2.11a19.78,19.78,0,0,0,.76-2.07c.24-.7.47-1.46.71-2.31a19.3,19.3,0,0,1,.78-2.33,5.08,5.08,0,0,1,.84-1.44,2.3,2.3,0,0,1,1-.71,4.43,4.43,0,0,1,1.4-.19c1.69,0,2.54.48,2.54,1.43a.7.7,0,0,1-.07.43,2.34,2.34,0,0,0-.18.64,46.08,46.08,0,0,0-.51,5.5c0,1.61-.06,3.2-.06,4.79q0,3.36,1.27,4.87a3.17,3.17,0,0,1-.93.78,2.5,2.5,0,0,1-1.08.2,2,2,0,0,1-1.5-.57,4,4,0,0,1-.85-1.43,7.92,7.92,0,0,1-.42-1.93c-.06-.71-.1-1.39-.1-2a13.36,13.36,0,0,1,.15-2c.09-.74.2-1.44.32-2.11s.24-1.26.33-1.76a6.69,6.69,0,0,0,.14-1q0-.21-.12-.21c-.13,0-.33.27-.57.82s-.51,1.17-.78,1.86-.53,1.36-.76,2-.39,1-.47,1.19c-.63,1.45-1.17,2.61-1.62,3.5a11.27,11.27,0,0,1-1.27,2,3.06,3.06,0,0,1-1.2,1,3.94,3.94,0,0,1-1.4.25,2.67,2.67,0,0,1-2.31-1A5.28,5.28,0,0,1,260.77,96.05Z"/><path class="cls-61" d="M293.09,83.48a1.16,1.16,0,0,1-.39.65,2.78,2.78,0,0,1-1.17.66,10.06,10.06,0,0,1-2.38.41,16,16,0,0,0-2.29.2v7.14c0,.27,0,.76.06,1.45a16.68,16.68,0,0,0,.19,1.87c.1.54.18,1,.22,1.39s.05.66.06,1a1.5,1.5,0,0,1-.65,1.17,2.13,2.13,0,0,1-1.3.51c-.7,0-1.27-.59-1.7-1.76a9.15,9.15,0,0,1-.49-2.13,27.93,27.93,0,0,1-.2-3.77V85.45l-2.91.25a5.61,5.61,0,0,1-2.19-.29c-.58-.22-.88-.53-.88-.94a1.35,1.35,0,0,1,.92-1.33,6.67,6.67,0,0,1,2.2-.47l9.62-.74a5.3,5.3,0,0,1,2.46.33A1.3,1.3,0,0,1,293.09,83.48Z"/><path class="cls-61" d="M308.53,91.67a10.7,10.7,0,0,1-1.85,6.3,6.62,6.62,0,0,1-5.65,3,6.38,6.38,0,0,1-5.45-2.43,9.33,9.33,0,0,1-1.68-5.9,14,14,0,0,1,1.85-7c1.42-2.6,3.26-3.89,5.53-3.89a5.54,5.54,0,0,1,2.66.94Q308.53,85.45,308.53,91.67Zm-3.61-.08q0-6.27-3-6.27c-1.45,0-2.54.89-3.28,2.66a12,12,0,0,0-.81,4.55c0,3.63,1.07,5.44,3.23,5.44a3.32,3.32,0,0,0,3.11-2.25A10.09,10.09,0,0,0,304.92,91.59Z"/><path class="cls-61" d="M323.06,84.09a2.72,2.72,0,0,1-.26,1.46,1.45,1.45,0,0,1-1.13.34,4.53,4.53,0,0,1-1.62-.39,7,7,0,0,0-2.52-.38h-2c-.54,0-.87.12-.92.28-.09.52-.15,1-.21,1.48s-.09,1-.1,1.55v4.89q0,1.31.06,2.76a16.88,16.88,0,0,0,.39,3,4.14,4.14,0,0,1-.51.66,1,1,0,0,1-.68.24,2.54,2.54,0,0,1-1.9-.63,2.78,2.78,0,0,1-.68-1.82c-.05-1-.09-2.13-.1-3.36s0-2.34,0-3.32q0-3,.12-6a2.57,2.57,0,0,1-.25-.9v-.7a.71.71,0,0,1,.29-.51,3.15,3.15,0,0,1,1.25-.49,22.39,22.39,0,0,1,2.83-.39c1.24-.11,2.91-.16,5-.16S323.06,82.54,323.06,84.09Z"/><path class="cls-61" d="M325.4,96.05V92.41c0-1.22,0-2.41.08-3.53s.09-2.13.14-3,.13-1.64.21-2.19a1.07,1.07,0,0,1,.33-.57,3.13,3.13,0,0,1,.69-.62,3.85,3.85,0,0,1,.84-.47,2,2,0,0,1,.76-.18A1.73,1.73,0,0,1,329,82a2.62,2.62,0,0,1,.6.37,3.63,3.63,0,0,1,.47.49.9.9,0,0,1,.2.47c0,.22,0,.43-.06.64a3.78,3.78,0,0,1-.22.88,14.63,14.63,0,0,0-.48,1.84q-.25,1.26-.51,3.24c-.13,1-.27,1.94-.41,3a24,24,0,0,0-.2,3.17c0,.25.09.37.28.37a1,1,0,0,0,.48-.15,2,2,0,0,0,.59-.71c.49-.9.92-1.72,1.29-2.44s.69-1.43,1-2.11a19.78,19.78,0,0,0,.76-2.07c.23-.7.47-1.46.72-2.31a21.18,21.18,0,0,1,.77-2.33,5.08,5.08,0,0,1,.84-1.44,2.37,2.37,0,0,1,1.05-.71,4.1,4.1,0,0,1,1.39-.19c1.69,0,2.54.48,2.54,1.43a.64.64,0,0,1-.06.43,2.05,2.05,0,0,0-.19.64,45.06,45.06,0,0,0-.51,5.45c0,1.61-.06,3.2-.06,4.79q0,3.36,1.27,4.87a3.44,3.44,0,0,1-.92.78,2.55,2.55,0,0,1-1.09.2,2,2,0,0,1-1.49-.57,3.8,3.8,0,0,1-.86-1.43,7.46,7.46,0,0,1-.41-1.93c-.07-.71-.1-1.39-.1-2a13.36,13.36,0,0,1,.14-2c.1-.74.21-1.44.33-2.11s.23-1.26.33-1.76c.06-.33.11-.67.14-1q0-.21-.12-.21c-.14,0-.33.27-.58.82s-.5,1.17-.78,1.86-.52,1.36-.75,2-.39,1-.47,1.19c-.63,1.45-1.17,2.61-1.62,3.5A11.87,11.87,0,0,1,331,99a3.26,3.26,0,0,1-1.21,1,3.88,3.88,0,0,1-1.39.25,2.66,2.66,0,0,1-2.32-1A5.29,5.29,0,0,1,325.4,96.05Z"/><path class="cls-61" d="M371.39,97.16a2,2,0,0,1-.41,1.12,1.24,1.24,0,0,1-1,.56,7.58,7.58,0,0,1-1.5-.25,7.19,7.19,0,0,0-1.53-.25,43.76,43.76,0,0,0-12.9,2,9.07,9.07,0,0,1-1.64.37,2.58,2.58,0,0,1-1.7-.6,1.91,1.91,0,0,1-.72-1.57,3.1,3.1,0,0,1,1-2.09,18.39,18.39,0,0,1,1.85-1.56,48.59,48.59,0,0,0,7.48-7.35q4.26-5.34,4.26-9.13A3,3,0,0,0,363.49,76a3.86,3.86,0,0,0-2.6-.92,6.56,6.56,0,0,0-3.66,1.35,5.73,5.73,0,0,0-2.48,3c-.19.93-.37,1.86-.53,2.79-.33,1.2-.9,1.8-1.72,1.8a2.65,2.65,0,0,1-1.5-.7c-.58-.46-.88-.89-.88-1.27a8.31,8.31,0,0,1,2.26-5.16,13,13,0,0,1,4.42-3.68,10.24,10.24,0,0,1,4.42-1,7.33,7.33,0,0,1,5.1,2,6.45,6.45,0,0,1,2.23,4.92q0,4.29-4.34,9.21-1.47,1.68-7.74,7.29a11.1,11.1,0,0,0-1.06,1l13.43-2a1.7,1.7,0,0,1,.45,0,1.8,1.8,0,0,1,1.52.79A3,3,0,0,1,371.39,97.16Z"/><path class="cls-61" d="M397.23,85.24a17.39,17.39,0,0,1-3,10q-3.36,5-8.72,5a10,10,0,0,1-8.19-3.77,13.37,13.37,0,0,1-2.87-8.72,17.85,17.85,0,0,1,2.54-9q2.82-4.92,7-6a12.32,12.32,0,0,1,3.36-.41q4.42,0,7.33,4.42A15.4,15.4,0,0,1,397.23,85.24Zm-3.64-.18a12.55,12.55,0,0,0-1.52-6.46,5.93,5.93,0,0,0-5.51-3.15,4.88,4.88,0,0,0-2.46.74,10.89,10.89,0,0,0-4.44,5,15.49,15.49,0,0,0-1.43,6.63A9.53,9.53,0,0,0,380.12,94a7.06,7.06,0,0,0,5.79,2.59c2.6,0,4.6-1.34,6-4A15.85,15.85,0,0,0,393.59,85.06Z"/><path class="cls-61" d="M421.76,97.16a2,2,0,0,1-.41,1.12,1.24,1.24,0,0,1-1,.56,7.58,7.58,0,0,1-1.5-.25,7.19,7.19,0,0,0-1.53-.25,43.76,43.76,0,0,0-12.9,2,9.07,9.07,0,0,1-1.64.37,2.58,2.58,0,0,1-1.7-.6,1.91,1.91,0,0,1-.72-1.57,3,3,0,0,1,1-2.09,18.27,18.27,0,0,1,1.84-1.56,48.72,48.72,0,0,0,7.5-7.35Q415,82.2,415,78.41A3.07,3.07,0,0,0,413.88,76a3.92,3.92,0,0,0-2.6-.92,6.62,6.62,0,0,0-3.67,1.35,5.81,5.81,0,0,0-2.48,3c-.19.93-.36,1.86-.53,2.79-.33,1.2-.9,1.8-1.72,1.8a2.62,2.62,0,0,1-1.49-.7c-.59-.46-.88-.89-.88-1.27a8.32,8.32,0,0,1,2.25-5.16,13,13,0,0,1,4.42-3.68,10.24,10.24,0,0,1,4.42-1,7.33,7.33,0,0,1,5.1,2,6.45,6.45,0,0,1,2.24,4.92q0,4.29-4.35,9.21-1.47,1.68-7.74,7.29a11.1,11.1,0,0,0-1.06,1l13.43-2a1.69,1.69,0,0,1,.45,0,1.8,1.8,0,0,1,1.52.79A3,3,0,0,1,421.76,97.16Z"/><path class="cls-61" d="M431.59,74.34a23.28,23.28,0,0,1-.49,2.75,45.55,45.55,0,0,0-1.23,9v8q0,3.18.33,3.6a4.13,4.13,0,0,1,.69,1.27,1.36,1.36,0,0,1-.47,1,1.52,1.52,0,0,1-1,.43,6,6,0,0,1-2.34-.69,4.61,4.61,0,0,1-.49-1.89v-17l-.65-.49V79.1a12,12,0,0,1,.86-4.22c.73-2,1.55-3,2.45-3a2.24,2.24,0,0,1,1.58.84A2.43,2.43,0,0,1,431.59,74.34Z"/><path class="cls-61" d="M453.91,84.09a2.73,2.73,0,0,1-.27,1.46c-.17.23-.55.34-1.12.34a4.53,4.53,0,0,1-1.62-.39,7,7,0,0,0-2.52-.38h-2c-.53,0-.86.12-.92.28-.08.52-.15,1-.2,1.48s-.09,1-.11,1.55,0,1.25,0,2v2.89q0,1.31.06,2.76a19,19,0,0,0,.39,3,3.24,3.24,0,0,1-.51.66,1,1,0,0,1-.67.24,2.55,2.55,0,0,1-1.91-.63,2.82,2.82,0,0,1-.67-1.82c-.06-1-.09-2.13-.11-3.36s0-2.34,0-3.32q0-3,.13-6a2.57,2.57,0,0,1-.25-.9v-.7a.71.71,0,0,1,.29-.51,3,3,0,0,1,1.25-.49,22.24,22.24,0,0,1,2.82-.39c1.24-.11,2.92-.16,5-.16S453.91,82.54,453.91,84.09Z"/><path class="cls-61" d="M470.58,91.67a10.78,10.78,0,0,1-1.84,6.3,6.62,6.62,0,0,1-5.66,3,6.38,6.38,0,0,1-5.44-2.43,9.33,9.33,0,0,1-1.68-5.9,13.85,13.85,0,0,1,1.84-7c1.42-2.6,3.26-3.89,5.53-3.89a5.54,5.54,0,0,1,2.66.94Q470.58,85.45,470.58,91.67ZM467,91.59q0-6.27-3-6.27c-1.44,0-2.54.89-3.27,2.66a11.79,11.79,0,0,0-.82,4.55c0,3.63,1.07,5.44,3.23,5.44a3.32,3.32,0,0,0,3.12-2.25,10.25,10.25,0,0,0,.74-4.13Z"/><path class="cls-61" d="M472.46,99.08a4.57,4.57,0,0,1,0-.74,1.1,1.1,0,0,1,.27-.59,1.43,1.43,0,0,1,.65-.43,5.23,5.23,0,0,1,1.25-.25,9.66,9.66,0,0,0,1-2.6c.3-1.13.56-2.31.77-3.54s.4-2.42.54-3.56.23-2,.28-2.7a3,3,0,0,1,.91-2.28,2.67,2.67,0,0,1,1.63-.55H483c.75,0,1.49,0,2.23.06l1.68.08a1.85,1.85,0,0,1,.88.27,1.68,1.68,0,0,1,.53.53,2,2,0,0,1,.25.62,5.14,5.14,0,0,1,.06.55l-.12.49a2.37,2.37,0,0,1-.37.61q-.21,1.83-.33,3.63c-.08,1.19-.12,2.45-.12,3.79v2a13.39,13.39,0,0,0,.18,2,1.73,1.73,0,0,1,1,.35,1.87,1.87,0,0,1,.57.76,3.82,3.82,0,0,1,.23,1v1.11a11.28,11.28,0,0,1-.13,1.53,11.71,11.71,0,0,1-.34,1.56,5,5,0,0,1-.58,1.21,1,1,0,0,1-.76.49,3.53,3.53,0,0,1-1.16-.19.72.72,0,0,1-.56-.75V99.9h-2.85l-3,.1-2.72.13a14.21,14.21,0,0,0-1.95.14,2.88,2.88,0,0,0,.06.59c.06.31.09.66.13,1s.08.71.14,1,.09.56.12.7a2.76,2.76,0,0,1-.55.53,3,3,0,0,1-1.09.33,7,7,0,0,1-.79-.08,2.37,2.37,0,0,1-1.05-.58c0-.24-.11-.6-.16-1.06s-.1-.94-.15-1.42-.07-.92-.1-1.35S472.46,99.3,472.46,99.08Zm8.15-13.8c-.05.79-.14,1.68-.27,2.66s-.28,2-.49,3-.43,2.06-.67,3.07a25.61,25.61,0,0,1-.82,2.71l1.41-.09,1.66-.06h3.07a14.75,14.75,0,0,1-.22-2.48V87c0-.45,0-1.07.06-1.7Z"/><path class="cls-23" d="M164.86,441.39C139.5,423.2,96.07,411.22,46.7,411.22A286.59,286.59,0,0,0,0,414.94v26.45Z"/><path class="cls-23" d="M595.28,441.39c-29.61-18.61-70.88-30.17-116.54-30.17S391.8,422.78,362.2,441.39Z"/><path class="cls-23" d="M297,441.39C279.09,425.87,252.27,416,222.28,416s-56.81,9.87-74.73,25.39Z"/><path class="cls-23" d="M445.07,441.39c-24-19.45-58-31.61-95.79-31.61s-71.81,12.16-95.8,31.61Z"/><path class="cls-23" d="M746.12,441.39V400.65c-9.23-.72-18.67-1.12-28.29-1.12-64.15,0-120.93,16.51-155.72,41.86Z"/></svg>