<svg xmlns="http://www.w3.org/2000/svg" viewBox="0 0 182.36 114.2"><defs><style>.cls-1{fill:#fff;}</style></defs><title>left_cloud</title><g id="Слой_2" data-name="Слой 2"><g id="BACKGROUND"><path class="cls-1" d="M54.7,8Q45.4,0,35.85,0a51.28,51.28,0,0,0-24.8,6.5A37.52,37.52,0,0,0,0,15.25v99L182.1,51.05q1.46-10.24-5.25-20.8-7.4-11.7-18.6-11.7-15.18,0-20.7,16.1a5.53,5.53,0,0,0-5.15-2.8,10.46,10.46,0,0,0-3.15.35c-.38.12-.83.29-1.35.5a16.37,16.37,0,0,0-5.5-7.7,9.1,9.1,0,0,0-5.3-2q-4,0-9.65,5.25A43.84,43.84,0,0,0,103.8,32q.51-6.9-4.9-13.1-6-6.79-14.3-6.8-13.71,0-20,7.6A44.62,44.62,0,0,0,54.7,8Z"/></g></g></svg>