<svg xmlns="http://www.w3.org/2000/svg" xmlns:xlink="http://www.w3.org/1999/xlink" viewBox="0 0 145.72 219.66"><defs><style>.cls-1,.cls-6{fill:none;}.cls-2{fill:#007693;}.cls-3{fill:#0a89a8;}.cls-4{fill:#ffc9af;}.cls-5{fill:#fc9f86;}.cls-6{stroke:#460000;stroke-linecap:round;stroke-linejoin:round;}.cls-7{fill:#460000;}.cls-8{fill:#fff;}.cls-9{fill:#e2d2c3;}.cls-10{fill:#ff7000;}.cls-11{fill:#ff8b00;}.cls-12{fill:#ffc231;}.cls-13{fill:#f02c2c;}.cls-14{fill:#a61010;}.cls-15{clip-path:url(#clip-path);}.cls-16{fill:#7cba48;}.cls-17{fill:#e44115;}.cls-18{fill:#c1c100;}.cls-19{fill:#e9931b;}.cls-20{fill:#00679c;}.cls-21{clip-path:url(#clip-path-2);}.cls-22{fill:#7db945;}</style><clipPath id="clip-path"><rect class="cls-1" x="62.3" y="115.38" width="20.12" height="21.02"/></clipPath><clipPath id="clip-path-2"><rect class="cls-1" x="62.17" y="115.38" width="20.12" height="21.02"/></clipPath></defs><title>man</title><g id="Слой_2" data-name="Слой 2"><g id="OBJECTS"><g id="Layer0_5_MEMBER_0_FILL" data-name="Layer0 5 MEMBER 0 FILL"><path class="cls-2" d="M117.76,208.23c1.57-.54,2-1.28,1.28-2.22-.73-.71-1.53-1.42-2.42-2.15q1.39,4.14-5.2,2.34a3.33,3.33,0,0,1-2-.82,15.84,15.84,0,0,0-1.34,4q-.13,1.46,4.39,5.38a16.18,16.18,0,0,0,9.56,4.18c.35,0,.67,0,1,0a19.73,19.73,0,0,1-6.29-3.79q-3.31-2.76-2.29-4.44a6.28,6.28,0,0,1,3.36-2.46"/><path class="cls-2" d="M22,204.14a1.34,1.34,0,0,1,1.11,1.47c-.06,1-2.17,2.6-6.35,4.82-1.38.73-2.72,1.36-4,1.91a16.22,16.22,0,0,0,10-3c3.31-2.24,5-3.84,5-4.81a15.91,15.91,0,0,0-.86-4.11,3.27,3.27,0,0,1-2.09.58q-6.76,1-4.88-2.95a43.55,43.55,0,0,0-3.82,2.73,3.89,3.89,0,0,0,3.33,2.9Z"/><path class="cls-3" d="M122.88,219.2a19.8,19.8,0,0,1-6.38-3.84c-2.34-1.94-3.13-3.56-2.35-4.83a6.52,6.52,0,0,1,3.51-2.58c.81-.28,1.29-.61,1.4-1a.94.94,0,0,0-.26-.8l.45-.4a25.58,25.58,0,0,1,4.26,5.07c1.42,2.33,2.1,4.3,2,5.85a2.57,2.57,0,0,1-.94,2.09,3.34,3.34,0,0,1-1.58.42h0Z"/><path class="cls-3" d="M12.75,212.64a4.41,4.41,0,0,1-2.48-.7,2.56,2.56,0,0,1-.7-2.19c.09-1.55,1-3.43,2.69-5.57a24.32,24.32,0,0,1,3.67-3.64l.36-.29.12.45a3.59,3.59,0,0,0,3.1,2.69l2.57.45a1.66,1.66,0,0,1,1.36,1.78c0,.72-.76,2-6.51,5.08-1.39.72-2.75,1.37-4,1.92l-.07,0Z"/><path class="cls-4" d="M103.7,174.58A75.92,75.92,0,0,0,97.36,180c-.51.56-1.13,1.23-1.87,2q4,6.72,7.08,12.2,3,5.28,6.84,11.18a3.33,3.33,0,0,0,2,.82q6.6,1.8,5.2-2.34-4.84-11.91-11.19-25.62c-.56-1.22-1.13-2.44-1.73-3.66"/><path class="cls-4" d="M35,172.55c-.28.47-.55.94-.84,1.41q-7.93,12.84-14.17,24.09Q18,202,24.82,201a3.27,3.27,0,0,0,2.09-.58Q31.44,195,35,190.14q3.87-5.26,8.82-11.74c-.16-.11-.34-.22-.53-.33C40.55,176.33,37.76,174.5,35,172.55Z"/><path class="cls-5" d="M97.36,180a75.92,75.92,0,0,1,6.34-5.43q-2.33-4.72-5-9.37l-10.22,5q3.84,6.28,7.06,11.74c.74-.76,1.36-1.43,1.87-2"/><path class="cls-5" d="M52,168.06l-9.55-6.23q-4,5.28-7.45,10.72c2.81,1.95,5.6,3.78,8.38,5.52.19.11.37.22.53.33Q47.61,173.57,52,168.06Z"/></g><path class="cls-6" d="M42.42,161.84q-4,5.28-7.43,10.73"/><path class="cls-7" d="M42.69,161.43l9.54,6.23a.49.49,0,0,1,.15.69l0,0-6.28,8.06c-2.12,2.67-4.13,5.42-6.19,8.13s-4.06,5.47-6.21,8.13l-6.36,8,.09-.47h0a22.19,22.19,0,0,1,.74,2.6,10.19,10.19,0,0,1,.22,1.38,2,2,0,0,1-.12.9,3.64,3.64,0,0,1-.38.71,11.68,11.68,0,0,1-2,2c-.7.58-1.42,1.11-2.14,1.63a17.56,17.56,0,0,1-10.22,3.6,7.61,7.61,0,0,1-2.89-.46,2.31,2.31,0,0,1-.78-.52,2.43,2.43,0,0,1-.5-.8,4,4,0,0,1-.19-1.6,10.35,10.35,0,0,1,2.31-5.12,22.23,22.23,0,0,1,3.79-3.9c1.43-1.09,2.94-2,4.4-3.06h0l-.17.18c1.08-2.23,2.24-4.41,3.42-6.57s2.43-4.31,3.67-6.44,2.55-4.24,3.87-6.32,2.68-4.15,4.08-6.19a.51.51,0,0,1,.7-.12.5.5,0,0,1,.15.65c-1.17,2.17-2.42,4.3-3.65,6.44L28,185.64,24.24,192c-1.27,2.11-2.54,4.22-3.85,6.31a.42.42,0,0,1-.17.18h0c-1.38,1.06-2.82,2.06-4.15,3.16a21.7,21.7,0,0,0-3.48,3.76,9.35,9.35,0,0,0-2,4.4,2.43,2.43,0,0,0,.11,1,.86.86,0,0,0,.19.31,1.28,1.28,0,0,0,.32.2,6.65,6.65,0,0,0,2.32.32A16.48,16.48,0,0,0,23,208.4a18.63,18.63,0,0,0,3.89-3.23,2.38,2.38,0,0,0,.27-.44.71.71,0,0,0,.06-.39,9.05,9.05,0,0,0-.14-1.24,24.72,24.72,0,0,0-.6-2.51h0a.51.51,0,0,1,.08-.45v0l6.33-8C35,189.47,37,186.69,39.08,184s4.08-5.47,6.2-8.14l6.29-8.07.12.73-9.55-6.24a.5.5,0,0,1-.14-.69A.49.49,0,0,1,42.69,161.43Z"/><path class="cls-6" d="M111.43,206.21a3.26,3.26,0,0,1-2-.82"/><path class="cls-6" d="M116.63,203.87q1.41,4.14-5.2,2.34"/><path class="cls-7" d="M105.9,178l5.68,12.79c1.88,4.26,3.7,8.55,5.51,12.85a.5.5,0,0,1-.26.66.52.52,0,0,1-.66-.27h0c-1.71-4.33-3.52-8.62-5.37-12.89-.94-2.14-1.85-4.28-2.84-6.39s-1.94-4.23-3-6.32a.51.51,0,0,1,.23-.67.5.5,0,0,1,.67.23v0Z"/><path class="cls-6" d="M103.71,174.59q.9,1.83,1.74,3.66"/><path class="cls-6" d="M98.67,165.22q2.72,4.65,5,9.37"/><line class="cls-6" x1="88.44" y1="170.27" x2="98.67" y2="165.22"/><path class="cls-7" d="M88.87,170c1.81,2.89,3.61,5.79,5.37,8.71s3.5,5.86,5.23,8.8,3.36,6,5.15,8.83,3.51,5.82,5.22,8.77l0,0a.51.51,0,0,1-.18.69.5.5,0,0,1-.67-.17c-1.85-2.87-3.66-5.77-5.46-8.68-.91-1.45-1.8-2.91-2.65-4.38s-1.73-2.94-2.57-4.42c-1.7-3-3.37-5.92-5.13-8.83s-3.47-5.87-5.18-8.82h0a.5.5,0,0,1,.85-.51Z"/><path class="cls-7" d="M119.42,205.68a21.45,21.45,0,0,1,6,8,8.21,8.21,0,0,1,.57,2.61,4.66,4.66,0,0,1-.14,1.42,2.56,2.56,0,0,1-.9,1.41,4.55,4.55,0,0,1-2.85.55,14.42,14.42,0,0,1-2.54-.38,18.84,18.84,0,0,1-8.63-5.06c-.6-.57-1.19-1.16-1.75-1.79a7.89,7.89,0,0,1-1.49-2.19,2,2,0,0,1-.15-.84,4.05,4.05,0,0,1,.12-.7c.11-.42.24-.82.38-1.22.29-.79.62-1.55,1-2.29a.5.5,0,0,1,.67-.24.49.49,0,0,1,.24.64c-.31.74-.6,1.49-.84,2.24-.12.38-.22.75-.3,1.12a4.33,4.33,0,0,0-.07.51,1.16,1.16,0,0,0,.1.34,7.38,7.38,0,0,0,1.31,1.78c.54.58,1.12,1.13,1.71,1.66a18.25,18.25,0,0,0,8.06,4.63,13.72,13.72,0,0,0,2.29.32,9.78,9.78,0,0,0,1.09,0,2,2,0,0,0,.8-.23,2.06,2.06,0,0,0,.48-1.61,7,7,0,0,0-.46-2.15,22.59,22.59,0,0,0-5.31-7.76.5.5,0,0,1,0-.71A.51.51,0,0,1,119.42,205.68Z"/><path class="cls-7" d="M27.3,200.77a1.65,1.65,0,0,1-.67.38,3.56,3.56,0,0,1-.61.14c-.4.05-.78.08-1.16.09h0a13.47,13.47,0,0,1-4,0,2.64,2.64,0,0,1-1-.42,1.61,1.61,0,0,1-.7-1,3.68,3.68,0,0,1,.27-2.16.5.5,0,0,1,.64-.31.49.49,0,0,1,.31.64l0,.1a2.37,2.37,0,0,0-.45,1.55c.05.47.55.78,1.12.92a5.85,5.85,0,0,0,1.83.12,13.26,13.26,0,0,0,1.87-.23h0a5.79,5.79,0,0,0,1-.18c.31-.08.65-.23.7-.36a.52.52,0,0,1,.69-.26.51.51,0,0,1,.26.68.64.64,0,0,1-.11.16Z"/><path class="cls-6" d="M116.63,203.87c.89.73,1.71,1.46,2.45,2.18"/><g id="Layer0_5_MEMBER_1_FILL" data-name="Layer0 5 MEMBER 1 FILL"><path class="cls-3" d="M92.53,175.17c-.44-.5-.86-1-1.27-1.48l-1.17-1.43a26,26,0,0,1-4.35-6.86,5.2,5.2,0,0,1-.27-1.78,2.18,2.18,0,0,1,2-2.28,3.24,3.24,0,0,0,1.11-.29c.15-.09.33-.22.34-.38s-.25-.64-1.41-1.26-1.75-1.19-1.72-1.63c.07-1.21,1.34-1.89,3.79-2,1,0,1.94-.1,2.8-.18a30.52,30.52,0,0,0,3.76-.66l.23-.06,7.73,15-.26.14c-2.06,1.12-4.81,2.46-8.17,4-.88.42-1.83.85-2.84,1.28l-.2.09Zm-46-2.5c-4.49-2.61-8-4.78-10.5-6.45l-.25-.17,9.4-14.38.23.09a35.11,35.11,0,0,0,6.79,1.8c2.45.43,3.6,1.24,3.53,2.46,0,.45-.6.87-1.91,1.41s-1.54.94-1.55,1.09.48.59,1.36.84a2.17,2.17,0,0,1,1.75,2.5c-.11,1.82-2,4.45-5.62,8q-1.32,1.28-2.88,2.73l-.16.16Z"/><path class="cls-2" d="M45.3,152a35,35,0,0,0,6.85,1.81c2.25.4,3.34,1.12,3.28,2.15,0,.3-.6.68-1.73,1.15S52,158,52,158.5s.5.85,1.59,1.15a1.88,1.88,0,0,1,1.52,2.19q-.16,2.59-5.53,7.83c-.88.85-1.84,1.77-2.87,2.74l5.23,3q1.48-2.22,3.72-5.19,5.57-7.68,9.33-12.76-3.46,0-7.87,0,4.41,0,7.87,0,5.81,0,9,.24a6.76,6.76,0,0,1,1.1.06c3.06.19,6.3.51,9.71,1-3.41-.48-6.65-.8-9.71-1q4.09,6,8.91,14.21c1.24,2.11,2.29,4,3.13,5.55q3-1.31,5.66-2.52c-.44-.49-.86-1-1.27-1.47l-1.16-1.43A25.49,25.49,0,0,1,86,165.3a5.18,5.18,0,0,1-.25-1.66,1.89,1.89,0,0,1,1.78-2,3.63,3.63,0,0,0,1.22-.33.84.84,0,0,0,.49-.62v-.1c-.07-.44-.59-.92-1.56-1.45s-1.59-1-1.58-1.34c.07-1,1.24-1.62,3.52-1.75,1,0,1.94-.1,2.81-.18a31.16,31.16,0,0,0,3.8-.67l-3.77-7.29a126,126,0,0,1-43.38-1.66Z"/></g><path class="cls-7" d="M45.73,152.35a67.58,67.58,0,0,1-4.36,7.08c-1.53,2.3-3.11,4.58-4.74,6.82l-.14-.69c2.68,1.46,5.28,3,7.87,4.64,1.29.8,2.57,1.62,3.89,2.38s2.62,1.57,3.92,2.37l-.66.16c2.11-3.06,4.27-6.08,6.44-9.06,1.1-1.49,2.16-3,3.27-4.48s2.2-3,3.35-4.43l.4.8-7.86,0a.51.51,0,0,1-.51-.5.5.5,0,0,1,.5-.5h0l7.87,0a.49.49,0,0,1,.5.49.55.55,0,0,1-.08.29l0,0c-1,1.53-2.13,3-3.2,4.53s-2.19,3-3.28,4.47l-6.55,8.93h0a.5.5,0,0,1-.65.15c-1.36-.7-2.71-1.41-4-2.15s-2.65-1.54-4-2.32c-2.62-1.6-5.22-3.22-7.74-5a.5.5,0,0,1-.15-.67v0c1.4-2.39,2.86-4.75,4.36-7.07a65.47,65.47,0,0,1,4.74-6.83.51.51,0,0,1,.84.55Z"/><path class="cls-7" d="M92.94,147.69,96.7,155a.5.5,0,0,1-.21.67.49.49,0,0,1-.67-.22l-3.77-7.31a.5.5,0,0,1,.21-.67A.51.51,0,0,1,92.94,147.69Z"/><path class="cls-6" d="M49.11,146.27a126.29,126.29,0,0,0,43.38,1.65"/><line class="cls-6" x1="49.11" y1="146.27" x2="45.31" y2="152.07"/><path class="cls-7" d="M96.7,155a29,29,0,0,1,2.09,3.51l1.85,3.64c.62,1.21,1.21,2.44,1.81,3.66s1.16,2.46,1.75,3.69a.49.49,0,0,1-.24.66.5.5,0,0,1-.65-.2c-.66-1.19-1.35-2.37-2-3.56s-1.31-2.39-1.93-3.6l-1.9-3.61a29.12,29.12,0,0,1-1.66-3.74.51.51,0,0,1,.31-.64A.5.5,0,0,1,96.7,155Z"/><path class="cls-7" d="M65,156.94c1.5.2,3,.25,4.5.3l4.51.1h0l1.16.06h0q4.88.45,9.76.83a.5.5,0,0,1,.46.54.5.5,0,0,1-.54.46h-.06q-4.81-.6-9.66-1.13h0L74,158h0l-4.49-.14a44.84,44.84,0,0,0-4.49.06h0a.5.5,0,0,1-.08-1Z"/><path class="cls-7" d="M75.48,157.46c2.29,3.13,4.39,6.38,6.41,9.68s3.9,6.68,5.66,10.13h0l-.64-.23q2.07-1,4.15-1.95l4.17-1.91c2.75-1.32,5.49-2.65,8.29-3.88l0,0a.49.49,0,0,1,.65.25.51.51,0,0,1-.22.65c-2.7,1.45-5.46,2.82-8.22,4.18s-5.61,2.48-8.46,3.6a.51.51,0,0,1-.64-.22h0c-1-1.64-2-3.3-3-5s-2-3.3-2.95-5c-2-3.29-4-6.56-6.1-9.79a.5.5,0,0,1,.15-.69A.49.49,0,0,1,75.48,157.46Z"/><g id="Layer0_5_MEMBER_2_FILL" data-name="Layer0 5 MEMBER 2 FILL"><path class="cls-5" d="M28.34,75.68c0,1.18,0,2,.1,2.61a8.42,8.42,0,0,1,.1,1.66c-.06,1-1,1.83-2.76,2.59a6.66,6.66,0,0,1-.72.26,177.33,177.33,0,0,0,19.7,16.51l5.42-8.49A237.41,237.41,0,0,1,28.34,75.68m87.41,9.21a7.54,7.54,0,0,1-.55-3.34A233.9,233.9,0,0,1,92.7,93.37l4.36,9.08a178,178,0,0,0,22.27-14.59c.28-.22.56-.45.84-.7C117.9,86.84,116.42,86.09,115.75,84.89Z"/><path class="cls-4" d="M14.92,56.54a1.18,1.18,0,0,0-1.24-1.12c-1-.06-1.58.45-1.64,1.55a7.72,7.72,0,0,0,.86,3.16l-1,.59-.26.13a2.3,2.3,0,0,0-1.36,1.87,2.3,2.3,0,0,1,1.36-1.87l.26-.13c-.46-.73-1.17-1.93-2.14-3.59C8.84,55.78,8,55.08,7.19,55a2.06,2.06,0,0,0-1.63.5A1.7,1.7,0,0,0,5,56.65a5,5,0,0,0,1.35,2.59c.91,1,1.56,1.83,2,2.32a2.36,2.36,0,0,1,.33.22,2.36,2.36,0,0,0-.33-.22c-3.13-2-5.14-3-6-3-.34,0-.68.2-1,.64A2.49,2.49,0,0,0,.7,60.6c0,.6.66,1.24,2.09,1.93s2.84,1.4,3.84,1.93c-3.49.33-5.42.49-5.79.5s-.52.49-.44,1.43.75,1.36,2,1.37c2.14,0,3.63-.08,4.47-.13a6.63,6.63,0,0,0,.66,1.49c.54,1,1.06,1.52,1.56,1.55a2.46,2.46,0,0,0,1.37-.22,6.92,6.92,0,0,0,1.32-1.17c.25-.22.51-.49.8-.8-.29.31-.55.58-.8.8q7.44,7.86,12.6,12.88l.66.64a6.66,6.66,0,0,0,.72-.26c1.78-.76,2.7-1.62,2.76-2.59a8.42,8.42,0,0,0-.1-1.66c-.06-.56-.09-1.43-.1-2.61Q26.15,74,24,72.27q-4.77-3.94-8.46-6.72a11.74,11.74,0,0,1-.82,1,11.74,11.74,0,0,0,.82-1c.37-.58.76-1.28,1.18-2.09a3.37,3.37,0,0,0-1.1-2.52,2.67,2.67,0,0,1-.92-2.31,8.33,8.33,0,0,0,.23-2.09m126.3,7.14a2,2,0,0,0-1.56-.69c-.8-.05-1.72.54-2.77,1.78-1.16,1.54-2,2.64-2.55,3.31l.24.16a2.29,2.29,0,0,1,1.13,2,2.29,2.29,0,0,0-1.13-2l-.24-.16-1-.71a8,8,0,0,0,1.24-3c.06-1.1-.42-1.68-1.45-1.74a1.17,1.17,0,0,0-1.36,1,8.19,8.19,0,0,0,0,2.1,2.67,2.67,0,0,1-1.18,2.18,3.38,3.38,0,0,0-1.4,2.37c.32.86.63,1.59.92,2.21a10.64,10.64,0,0,0,.69,1.14,10.64,10.64,0,0,1-.69-1.14q-4,2.31-9.2,5.66c-1.88,1.18-3.79,2.34-5.72,3.46a7.54,7.54,0,0,0,.55,3.34c.67,1.2,2.15,2,4.42,2.27q5.51-4.18,13.21-10.58a9.58,9.58,0,0,1-.7-.89,9.58,9.58,0,0,0,.7.89,7.19,7.19,0,0,0,1.17,1.33,2.57,2.57,0,0,0,1.33.38q.75,0,1.74-1.35a7,7,0,0,0,.83-1.4c.83.15,2.3.37,4.42.66,1.26.14,2-.23,2.17-1.12s.1-1.41-.26-1.47-2.26-.45-5.69-1.19c1.06-.41,2.41-.89,4-1.46s2.27-1.07,2.31-1.67a2.46,2.46,0,0,0-.41-1.47c-.31-.49-.63-.74-1-.76-.9-.06-3,.7-6.35,2.27a4,4,0,0,0-.36.18,4,4,0,0,1,.36-.18c.46-.44,1.21-1.13,2.23-2.07s1.62-1.87,1.65-2.4A1.69,1.69,0,0,0,141.22,63.68Z"/></g><path class="cls-7" d="M15.12,65.29l1.16-2-.06.2h0a2.29,2.29,0,0,0-.35-1.55,3.92,3.92,0,0,0-.54-.71,4.55,4.55,0,0,1-.61-.83,3.06,3.06,0,0,1-.38-1,2.77,2.77,0,0,1,.07-1.06,7,7,0,0,0,.14-1.77c-.08-.51-.44-.72-1-.71a.91.91,0,0,0-1,.75,3.11,3.11,0,0,0,.15,1.66,14.34,14.34,0,0,0,.68,1.7v0l0,.07a.41.41,0,0,1-.2.55l0,0a7.36,7.36,0,0,0-.92.37,4.39,4.39,0,0,0-.84.42,1.26,1.26,0,0,0-.65,1.4.54.54,0,1,1-1,.36.56.56,0,0,1,0-.34l0-.08A3.55,3.55,0,0,1,11,60.87c.29-.23.59-.38.85-.57a8.87,8.87,0,0,0,.78-.59l-.22.63v0a14,14,0,0,1-.64-1.86,4.27,4.27,0,0,1-.08-2.11,1.79,1.79,0,0,1,.67-1A2,2,0,0,1,13.54,55a2,2,0,0,1,1.12.31,1.57,1.57,0,0,1,.62,1,7.24,7.24,0,0,1-.16,2,2.06,2.06,0,0,0-.07.83,1.83,1.83,0,0,0,.29.75,4,4,0,0,0,.54.69,6.25,6.25,0,0,1,.65.78,3.6,3.6,0,0,1,.69,2h0a.38.38,0,0,1,0,.19L16,65.83a.5.5,0,1,1-.87-.49Z"/><path class="cls-7" d="M11.45,61a35.83,35.83,0,0,0-2-3.67c-.72-1.07-1.69-2.28-2.94-1.93a1.38,1.38,0,0,0-1.12,1.1c-.1.48.29,1.09.64,1.63A12.65,12.65,0,0,0,7.36,59.7l1.39,1.55h0l-.13-.11.39.25a.5.5,0,0,1-.55.84l-.05,0L8.12,62l0,0A.48.48,0,0,1,8,61.89H8l-1.3-1.62a18.65,18.65,0,0,1-1.25-1.7,6.47,6.47,0,0,1-.53-1A3.16,3.16,0,0,1,4.73,57a1.58,1.58,0,0,1,0-.65,2.09,2.09,0,0,1,1.69-1.61,2.72,2.72,0,0,1,1.17,0,2.73,2.73,0,0,1,1,.56A7.1,7.1,0,0,1,10,57a36.18,36.18,0,0,0,2.29,3.45v0a.51.51,0,0,1-.09.71.5.5,0,0,1-.7-.09A.61.61,0,0,1,11.45,61Z"/><path class="cls-7" d="M8.1,62a39.64,39.64,0,0,0-3.54-2.23,10.89,10.89,0,0,0-1.85-.84c-.35-.09-.54-.13-.78,0a2.58,2.58,0,0,0-.63.68,2.18,2.18,0,0,0-.32.88.85.85,0,0,0,.31.73A6.19,6.19,0,0,0,3,62.36,33.63,33.63,0,0,0,6.87,64h0a.49.49,0,0,1,.31.61.48.48,0,0,1-.45.33h0c-1.23,0-2.45.1-3.67.2-.61,0-1.22.11-1.83.16l-.23,0H.87s0,0,0,.11a2.42,2.42,0,0,0,0,.78c0,1.1,1.21,1.18,2.43,1.08s2.42-.12,3.63-.18h.06a.44.44,0,0,1,.46.38A5.57,5.57,0,0,0,8,69.06a2.81,2.81,0,0,0,.95,1.2.53.53,0,0,0,.28.07,2.8,2.8,0,0,0,.41,0,1.58,1.58,0,0,0,.7-.19A6.29,6.29,0,0,0,11.51,69l0,0c.24-.28.48-.55.71-.83l0,0a.5.5,0,0,1,.78.63s0,0-.06.06l-.89.79,0,0a8.53,8.53,0,0,1-1.45,1.21,2.46,2.46,0,0,1-1,.25H9.18a1.33,1.33,0,0,1-.57-.14,3.88,3.88,0,0,1-1.33-1.45,9.12,9.12,0,0,1-.86-1.68l.51.37h0c-1.23,0-2.45,0-3.68,0A5.8,5.8,0,0,1,1.29,68a1.89,1.89,0,0,1-.94-.66A1.9,1.9,0,0,1,0,66.3a3.23,3.23,0,0,1,.08-1,.87.87,0,0,1,.48-.6,1.17,1.17,0,0,1,.36-.07h.23c.61,0,1.21-.09,1.82-.16,1.21-.11,2.41-.24,3.62-.43l-.19.94h0a31.4,31.4,0,0,0-3.64-2.12A7,7,0,0,1,.92,61.62a1.41,1.41,0,0,1-.46-1.15,2.67,2.67,0,0,1,.38-1.1,2.9,2.9,0,0,1,.78-.86,1.18,1.18,0,0,1,.63-.24,1.92,1.92,0,0,1,.61.08,10.87,10.87,0,0,1,2,.79c1.28.63,2.52,1.32,3.75,2a.5.5,0,1,1-.48.87Z"/><path class="cls-7" d="M14.35,66.28l.78-1,0,0a.45.45,0,0,1,.63-.09l0,0c2.65,2.43,5.54,4.55,8.33,6.8s5.6,4.43,8.48,6.54q8.61,6.38,17.8,11.9h0a.49.49,0,0,1,.17.68h0l-5.42,8.49h0a.5.5,0,0,1-.68.15l0,0A197.83,197.83,0,0,1,27.32,85.38c-2.74-2.53-5.3-5.25-7.89-7.91s-5.11-5.42-8-7.83a.51.51,0,0,1-.06-.71.5.5,0,0,1,.71-.06l.06.06,0,0c2.33,2.91,5,5.47,7.64,8.13s5.19,5.33,7.94,7.83,5.53,5,8.4,7.31,5.87,4.56,8.9,6.7l-.71.13h0l5.42-8.49.16.7h0c-6.07-3.82-12-7.86-17.74-12.14-2.88-2.14-5.67-4.38-8.47-6.62S18.19,68,15.24,66l.71-.11-.85,1.09a.49.49,0,0,1-.7.09.51.51,0,0,1-.09-.7Z"/><path class="cls-7" d="M115,81.2l7.47-4.51,3.73-2.29c1.23-.77,2.5-1.5,3.67-2.39l-.2.65h0l-.94-2.25a.35.35,0,0,1,0-.2h0a3.4,3.4,0,0,1,.9-2,6,6,0,0,1,.75-.69,4,4,0,0,0,.62-.61,2.36,2.36,0,0,0,.39-.71,2,2,0,0,0,.05-.82,7.31,7.31,0,0,1,.11-2,1.5,1.5,0,0,1,.72-.93,2.12,2.12,0,0,1,2.15.29,1.71,1.71,0,0,1,.52,1,4.21,4.21,0,0,1-.32,2c-.23.62-.5,1.21-.77,1.81h0l-.14-.65.95.7h0l-.68.08c.91-1,1.8-2.09,2.67-3.16a8.54,8.54,0,0,1,1.61-1.44,2.84,2.84,0,0,1,1.06-.42,2.91,2.91,0,0,1,1.14.13,2,2,0,0,1,1.42,1.72,1.48,1.48,0,0,1-.06.62,2.73,2.73,0,0,1-.23.52,7.43,7.43,0,0,1-.63.89,15,15,0,0,1-1.42,1.55c-.48.49-1,1-1.43,1.5l0,0-.56-.81c1.33-.5,2.63-1,4-1.49a12.47,12.47,0,0,1,2.08-.57,2.91,2.91,0,0,1,.6,0,1.18,1.18,0,0,1,.6.3,3,3,0,0,1,.67.94,2.53,2.53,0,0,1,.27,1.12,1.07,1.07,0,0,1-.16.64,1.69,1.69,0,0,1-.4.47,7.31,7.31,0,0,1-2,1c-1.3.51-2.6,1-3.88,1.59l0,0-.07-1c1.17.3,2.34.62,3.53.89l1.77.41.22.06.12,0,.2.07a.8.8,0,0,1,.38.6,3,3,0,0,1-.06,1,1.81,1.81,0,0,1-.43,1,1.67,1.67,0,0,1-.95.5,5.75,5.75,0,0,1-1.91-.08c-1.21-.17-2.42-.29-3.66-.34h0l.55-.31a10.78,10.78,0,0,1-1.09,1.52,4,4,0,0,1-1.45,1.25,1.18,1.18,0,0,1-.56.08l-.46,0a2.77,2.77,0,0,1-1-.33A13.33,13.33,0,0,1,133,76.94l0,0,.71.08c-3,2.23-5.84,4.61-8.74,6.94l-4.34,3.51c-1.46,1.16-3,2.27-4.46,3.37a177.33,177.33,0,0,1-18.81,12.08l0,0a.5.5,0,0,1-.68-.19v0l-4.35-9,0-.05a.5.5,0,0,1,.23-.66h0A239.08,239.08,0,0,0,115,81.2Zm.43.74a238.44,238.44,0,0,1-22.53,11.9l.24-.67,0,0,4.34,9-.69-.22,0,0a174.82,174.82,0,0,0,18.76-11.93c1.5-1.09,3-2.19,4.45-3.34l4.35-3.48c2.89-2.33,5.83-4.6,8.63-7a.49.49,0,0,1,.67,0l0,.05,0,0a5.39,5.39,0,0,0,1,1.35,1.52,1.52,0,0,0,.69.27,1.92,1.92,0,0,0,.41.05.65.65,0,0,0,.31-.05,2.82,2.82,0,0,0,1.1-1.12,4.94,4.94,0,0,0,.72-1.48.39.39,0,0,1,.35-.29h.25c1.17.31,2.36.55,3.56.75a4.42,4.42,0,0,0,1.72.1,1.08,1.08,0,0,0,.91-1,2.47,2.47,0,0,0,0-.8.38.38,0,0,0-.06-.16l-.36-.06-1.8-.34c-1.19-.23-2.4-.41-3.61-.61a.49.49,0,0,1-.4-.57.46.46,0,0,1,.27-.36l.06,0h0c1.36-.39,2.7-.82,4-1.26a5.68,5.68,0,0,0,1.81-.84c.24-.21.4-.39.38-.68a2.18,2.18,0,0,0-.2-.9,2.3,2.3,0,0,0-.55-.77.63.63,0,0,0-.33-.16,1.82,1.82,0,0,0-.45,0,9.47,9.47,0,0,0-1.95.59A35.25,35.25,0,0,0,138,69.79a.48.48,0,0,1-.67-.18.5.5,0,0,1,.05-.56l.06-.07,0,0a28,28,0,0,0,3.1-2.7c.42-.5.89-1.07.84-1.62a1.45,1.45,0,0,0-1.06-1.28c-1.24-.47-2.36.64-3.15,1.65s-1.62,2.24-2.4,3.39a.45.45,0,0,1-.63.13h0l-.05,0h0l-.94-.7h0a.47.47,0,0,1-.11-.64v0a9.46,9.46,0,0,0,1-1.58,3,3,0,0,0,.37-1.67,1,1,0,0,0-1-.93c-.58-.07-1,.12-1.14.65a6.14,6.14,0,0,0,0,1.78,2.52,2.52,0,0,1-.53,2,4.61,4.61,0,0,1-.7.76,4.56,4.56,0,0,0-.61.64,2.41,2.41,0,0,0-.56,1.47h0l0-.2.9,2.17h0l0,.11a.46.46,0,0,1-.23.54c-1.32.63-2.53,1.43-3.77,2.18l-3.72,2.29Z"/><path class="cls-7" d="M134.64,67.68a6.72,6.72,0,0,1,1.06,1.07,2.63,2.63,0,0,1,.53,1.55v0a.52.52,0,0,1-.5.52.5.5,0,0,1-.51-.49.29.29,0,0,1,0-.13,1.33,1.33,0,0,0-.23-1,2.2,2.2,0,0,0-.93-.75.5.5,0,0,1-.24-.67.52.52,0,0,1,.67-.25l.12.08Z"/><path class="cls-6" d="M132.69,75.7c.25.35.48.65.7.9"/><path class="cls-6" d="M130.82,73.59a12.11,12.11,0,0,1-.68-1.15"/><path class="cls-6" d="M137.37,69.52l.37-.18"/><g id="Layer0_5_MEMBER_3_FILL" data-name="Layer0 5 MEMBER 3 FILL"><path class="cls-8" d="M54.25,107.29a16.69,16.69,0,0,0-2.3,1.52q-2.72,18.36-3.38,22.89Q48.12,135,46,149.87q9,3,25,3.41t24.48-1.43q-2.37-15.63-3.5-25.21-.85-7.45-1.71-16.53a4.46,4.46,0,0,0-.43-.33,9.37,9.37,0,0,0-2.73-1.31,13.66,13.66,0,0,0-1.64-.15,37.62,37.62,0,0,0-5.3,1.58,24.26,24.26,0,0,1-9.25,1.35,20.17,20.17,0,0,1-7.72-2.37c-2.86-1.44-4.73-2.18-5.63-2.24A6.27,6.27,0,0,0,54.25,107.29Z"/><path class="cls-9" d="M42.17,91.59q-2.91,5.09-3.9,6.48l13.93,9.1c.21-1.29.41-2.63.59-4-.18,1.39-.38,2.73-.59,4-.08.56-.17,1.1-.25,1.64a16.69,16.69,0,0,1,2.3-1.52,6.27,6.27,0,0,1,3.34-.65c.9.06,2.77.8,5.63,2.24a20.17,20.17,0,0,0,7.72,2.37,24.26,24.26,0,0,0,9.25-1.35,37.62,37.62,0,0,1,5.3-1.58,13.66,13.66,0,0,1,1.64.15,9.37,9.37,0,0,1,2.73,1.31,4.46,4.46,0,0,1,.43.33c0-.39,0-.79-.08-1.21-.08-1.34-.18-2.71-.3-4.12.12,1.41.22,2.78.3,4.12l15.1-7.05q-.36-1.27-2.45-6.66c-1.67-4.48-2.62-7-2.86-7.49A235.29,235.29,0,0,1,78.71,98.54c1.14.54,1.76.84,1.85.92a2.29,2.29,0,0,1,1.08,2.17q-.39,4.58-5.8,7.31a9.39,9.39,0,0,1-4.9.61,10.3,10.3,0,0,1-5.75-1.85,7.79,7.79,0,0,1-2.49-6.86,3,3,0,0,1,.72-2,8.39,8.39,0,0,1,2.22-1.07A220,220,0,0,1,46.2,84.52C45.87,85,44.52,87.36,42.17,91.59Z"/><path class="cls-5" d="M63.42,98.88a3,3,0,0,0-.72,2,7.79,7.79,0,0,0,2.49,6.86,10.3,10.3,0,0,0,5.75,1.85,9.39,9.39,0,0,0,4.9-.61q5.41-2.73,5.8-7.31a2.29,2.29,0,0,0-1.08-2.17c-.09-.08-.71-.38-1.85-.92-.06,1.6-.1,2.6-.13,3,0-.4.07-1.4.13-3q.23-3.58.55-9.93l-12.33-.74c-.61,4.74-1.05,8-1.29,9.94-.14,1.09-.25,2.15-.35,3.18.1-1,.21-2.09.35-3.18A8.39,8.39,0,0,0,63.42,98.88Z"/></g><path class="cls-7" d="M65.38,98.25c-3.33-2.09-6.64-4.21-9.9-6.41S49,87.38,45.9,84.93h0l.72-.1c-1.18,2.33-2.41,4.61-3.69,6.87-.65,1.14-1.35,2.27-2,3.39s-1.42,2.22-2.19,3.29h0l-.13-.71,7,4.53,6.95,4.57h0l-.77.34.59-4v0a.51.51,0,0,1,.57-.42.5.5,0,0,1,.42.57l-.59,4a.51.51,0,0,1-.57.42.62.62,0,0,1-.19-.07h0l-7-4.53L38,98.5a.5.5,0,0,1-.17-.65l0-.06h0c1.17-2.34,2.48-4.56,3.84-6.78s2.67-4.55,4.08-6.76a.48.48,0,0,1,.67-.15l0,0h0C49.58,86.57,52.79,88.82,56,91s6.55,4.3,9.87,6.39a.49.49,0,0,1,.16.69.51.51,0,0,1-.69.16Z"/><path class="cls-6" d="M90.23,108.92c0,.41.07.82.1,1.23"/><path class="cls-6" d="M89.92,104.79c.12,1.41.22,2.78.31,4.13"/><path class="cls-7" d="M52.46,108.89,51,119.17l-1.48,10.27c-1,6.84-1.82,13.71-3.07,20.52l-.34-.55a56.24,56.24,0,0,0,6,1.34c2,.36,4.07.64,6.12.84q6.15.65,12.37.77c4.14.13,8.28.13,12.42,0a92.07,92.07,0,0,0,12.32-1h0l-.39.56C94,145,93,138.06,92,131.12c-.23-1.74-.53-3.47-.7-5.22l-.51-5.23c-.34-3.49-.68-7-1-10.48a.5.5,0,0,1,1-.1h0c.43,3.48.8,7,1.17,10.44l.57,5.22c.19,1.74.46,3.47.68,5.2.93,6.94,1.9,13.87,2.76,20.82h0a.51.51,0,0,1-.4.56h0A68.37,68.37,0,0,1,83.15,154c-4.18.25-8.36.23-12.54.17s-8.36-.41-12.52-1a57.06,57.06,0,0,1-12.26-2.88.51.51,0,0,1-.33-.54c.34-3.45.82-6.87,1.29-10.3l1.52-10.26L49.86,119l1.61-10.25a.5.5,0,0,1,1,.14Z"/><path class="cls-6" d="M52.21,107.18c-.08.56-.16,1.11-.25,1.64"/><path class="cls-7" d="M65.83,98.29c-.38.14-.76.28-1.13.44l-.54.24a2.28,2.28,0,0,0-.4.24l0,0a2.8,2.8,0,0,0-.61,1.72,10.62,10.62,0,0,0,.05,2.11,6.46,6.46,0,0,0,5.25,5.77,17,17,0,0,0,4.27.46,9,9,0,0,0,2.09-.31,7.66,7.66,0,0,0,1.9-.9,10.49,10.49,0,0,0,3.18-2.77,7,7,0,0,0,1.37-3.85,1.81,1.81,0,0,0-.79-1.53c-.61-.33-1.27-.6-1.9-.91h0l.71-.43-.13,3a.5.5,0,0,1-.52.48.5.5,0,0,1-.48-.52h0l.13-3v0a.49.49,0,0,1,.51-.47.47.47,0,0,1,.2.06h0c.67.36,1.36.67,2,1.08a2.69,2.69,0,0,1,1.08,2.26,7.9,7.9,0,0,1-1.58,4.31,11.36,11.36,0,0,1-3.44,2.93,8.56,8.56,0,0,1-2.08,1,9.12,9.12,0,0,1-2.26.31,20.29,20.29,0,0,1-4.46-.46,7.56,7.56,0,0,1-4-2.18,7.65,7.65,0,0,1-1.89-4.15,11.61,11.61,0,0,1-.09-2.28,6,6,0,0,1,.19-1.18,2.43,2.43,0,0,1,.65-1.16l0,0a2.94,2.94,0,0,1,.63-.43c.2-.1.39-.2.58-.28.39-.18.77-.35,1.16-.5a.49.49,0,0,1,.65.27.51.51,0,0,1-.27.65Z"/><path class="cls-6" d="M79.28,88.62q-.34,6.34-.55,9.94"/><path class="cls-6" d="M79.28,88.62,67,87.88Q66,95,65.65,97.82c-.13,1.1-.25,2.16-.34,3.19"/><path class="cls-7" d="M78.52,98.1c3.61-1.67,7.2-3.37,10.76-5.16s7.07-3.63,10.48-5.65h0a.49.49,0,0,1,.67.16l0,.07c1,2.32,1.94,4.66,2.88,7l1.34,3.56a15.1,15.1,0,0,1,1.12,3.63h0a.55.55,0,0,1-.27.58c-2.42,1.4-5,2.51-7.48,3.68s-5.07,2.28-7.62,3.38a.5.5,0,0,1-.42-.91c2.47-1.26,5-2.48,7.48-3.67s5-2.43,7.62-3.38l-.27.59h0a14.86,14.86,0,0,1-1.5-3.46L102.07,95c-.86-2.35-1.7-4.71-2.51-7.1l.71.22h0c-3.44,2-7,3.9-10.54,5.69S82.56,97.34,78.94,99a.5.5,0,0,1-.67-.24.52.52,0,0,1,.25-.67Z"/><g id="Layer0_5_MEMBER_4_FILL" data-name="Layer0 5 MEMBER 4 FILL"><path class="cls-10" d="M26.19,36.53A14.6,14.6,0,0,1,24.48,35a40.86,40.86,0,0,0-1.57,9.42c-.05.77,0,2.24,0,4.41s.15,5.44.36,9.79l.11-.09a2.52,2.52,0,0,1,.48-.58l.11-.09q3.12-2.87,8.72-1.73c.07-.48.13-1,.18-1.39.34-2.24.54-3.68.61-4.32l-2.19-.28,2.19.28.55,0q6.43.39,18.86-3,2.7-.75,5.31-1.54a134,134,0,0,0,17.08-6.69,134,134,0,0,1-17.08,6.69Q68,48.27,68.71,48.3q4.79.3,11.74-2.8a1.2,1.2,0,0,1,.31-.13c1.1-.53,2.25-1.12,3.46-1.74q2.28-1.22,5.92-3.51-3.65,2.3-5.92,3.51c-1.21.62-2.36,1.21-3.46,1.74q8.91.84,14.39-1.19A75.07,75.07,0,0,0,102.31,41c-.13-.61-.24-1.25-.34-1.93.1.68.21,1.32.34,1.93a19.21,19.21,0,0,0,2,5.83c.76,1.25,1.47,1.89,2.14,1.93s1-.79,1.3-2.48a14.78,14.78,0,0,1,.24-1.48c.34-2.25.57-3.63.7-4.12-.13.49-.36,1.87-.7,4.12a15.86,15.86,0,0,0,2.72,4.77,9,9,0,0,0,2.95,2.48,12.84,12.84,0,0,0,2.41.85,12.84,12.84,0,0,1-2.41-.85c.08,1.19.15,2.89.2,5.12,0,.79.07,1.64.09,2.56q0,.6,0,1.26,4.73-.37,7.41,1.79,3.48-10.4,3.6-17.51a13.92,13.92,0,0,1-5.05.65q-2.3-.15-6.41-6.65T108,32.63a16.49,16.49,0,0,0-4.36.79,28,28,0,0,0-3.41,1.75c-.27.15-.53.29-.77.4a4.71,4.71,0,0,0,.4-1.68c.11-1.79-.35-2.72-1.39-2.78a10.19,10.19,0,0,0-4.56.87q-4.12,2-8.3,3.91a3.72,3.72,0,0,0,.22-1A4.65,4.65,0,0,0,85,31.65a2.55,2.55,0,0,0-1.94-1.17q-.35,0-17.52,5.76T40.32,41.49l-5.19-.31a13.55,13.55,0,0,1-4.69-2Q26.81,37,26.19,36.53Z"/><path class="cls-11" d="M120.8,46.25l-.82,0c-1.65-.1-3.83-2.32-6.65-6.79-3.51-5.59-4.88-6.48-5.38-6.51h-.18a18.21,18.21,0,0,0-4.08.78,29.71,29.71,0,0,0-3.34,1.72c-.28.16-.54.3-.79.42l-.75.35.34-.75a4.21,4.21,0,0,0,.38-1.57c.14-2.4-.8-2.46-1.1-2.47l-.48,0a10.24,10.24,0,0,0-4,.87c-2.71,1.33-5.5,2.64-8.29,3.91l-.64.29.23-.67a3.5,3.5,0,0,0,.2-.95,4.44,4.44,0,0,0-.75-3,2.22,2.22,0,0,0-1.71-1c-.27,0-3.54,1.08-17.42,5.75-10.54,3.51-18.61,5.3-24,5.3h0c-.46,0-.9,0-1.32,0l-5.19-.31a13.84,13.84,0,0,1-4.83-2C27.83,38,26.43,37.1,26,36.77a17.23,17.23,0,0,1-1.74-1.58l-.12-.13.05-.17c2.48-8.31,7.77-15.64,15.73-21.8C50.69,4.72,64.44.47,80.77.47c2,0,4,.06,6.13.19,10.18.61,18.07,4.12,23.43,10.42a23.12,23.12,0,0,1,3.87,6.52,24.49,24.49,0,0,1,1.57,5.56,13.05,13.05,0,0,1,7.39,8,40.07,40.07,0,0,1,2.19,13.25c0,.31,0,.62,0,.92v.21l-.21.06A14.19,14.19,0,0,1,120.8,46.25Zm-3.48-18c-.09,0-.32,0-.36.63,0,0,.11.26.28.69a1.18,1.18,0,0,0,1,.64h0c.34,0,.59-.08.63-.66,0-.4-.32-.78-1-1.14A1.19,1.19,0,0,0,117.32,28.23ZM104.45,17.89s.06.26.39,1.54A3.16,3.16,0,0,0,107.77,21h.13a1.9,1.9,0,0,0,1.67-1,3.8,3.8,0,0,0,.51-1.58c0-.18-.09-.65-.84-1.71a6.91,6.91,0,0,0-1.89-2.1,2.46,2.46,0,0,0-1.28-.52c-1.15,0-1.52,2.06-1.62,3.79Zm-66,.79a1.75,1.75,0,0,0-.73.23c-1.25.57-1.4,1-1.41,1.1,0,.43.13.61.56.64h0a1.93,1.93,0,0,0,1.27-.5c.51-.41.59-.67.6-.79,0-.41-.06-.56-.11-.61S38.61,18.68,38.49,18.68Zm64.68-6.15a1,1,0,0,0-.33.08,2.13,2.13,0,0,0-1.26,2.11l0,.89c0,.2.18.52.82.55h0c.37,0,1.12-.06,1.24-2.07.06-1-.11-1.35-.22-1.46A.28.28,0,0,0,103.17,12.53Zm-3-1.36c-.36,0-.76.15-.81,1.06,0,.53.2.66.56.68h0a.61.61,0,0,0,.55-.32,1.46,1.46,0,0,0,.25-.68.9.9,0,0,0-.13-.64s-.1-.11-.32-.11ZM91.31,9.44c-.39,0-.79.14-.84,1a.51.51,0,0,0,.12.32.53.53,0,0,0,.5.32h0a.82.82,0,0,0,.55-.23,1,1,0,0,0,.3-.62.85.85,0,0,0-.14-.61.57.57,0,0,0-.43-.13v-.3Z"/><path class="cls-12" d="M118.22,30.49c.6,0,.91-.28,1-.94s-.35-1-1.16-1.43-1.29-.17-1.35.72a8.39,8.39,0,0,0,.3.83,1.52,1.52,0,0,0,1.26.82M38.38,20.39a1.62,1.62,0,0,0,.71-1c.06-1-.43-1.25-1.46-.74s-1.56.92-1.58,1.36a.79.79,0,0,0,.84.95,2.15,2.15,0,0,0,1.49-.56m52.69-9.06a1.09,1.09,0,0,0,.77-.31,1.25,1.25,0,0,0,.4-.82c0-.74-.27-1.09-.94-1.06s-1.08.44-1.13,1.23a.8.8,0,0,0,.17.51.82.82,0,0,0,.73.45m9.63,1.43a1.87,1.87,0,0,0,.3-.83c0-.77-.25-1.12-.89-1.06s-1,.47-1.08,1.34a.82.82,0,0,0,.84,1,.91.91,0,0,0,.83-.45m1.63,3.7c1,.06,1.5-.72,1.59-2.36s-.3-2.12-1.19-1.77a2.44,2.44,0,0,0-1.45,2.37s0,.33,0,.9a1,1,0,0,0,1.1.86m7.16.08a7.15,7.15,0,0,0-2-2.17q-3-2.08-3.36,3.5s.13.58.4,1.63a3.47,3.47,0,0,0,3.2,1.8,2.21,2.21,0,0,0,2.07-1.13,3.8,3.8,0,0,0,.55-1.72A3.71,3.71,0,0,0,109.49,16.54Z"/><path class="cls-5" d="M121.86,63.17l-.42-.38Q118.76,60.63,114,61c0,1,0,2,.06,3.15a8.15,8.15,0,0,0,0,1.21,3.47,3.47,0,0,1,.87-.3,5.67,5.67,0,0,1,.66-.11,3.39,3.39,0,0,1,1-.09,4.83,4.83,0,0,1,2.84,1.07,4.36,4.36,0,0,1,1.08,1.27,4.73,4.73,0,0,1,.82,2.2,4.73,4.73,0,0,0-.82-2.2,4.36,4.36,0,0,0-1.08-1.27A6.2,6.2,0,0,1,117.1,70a6.2,6.2,0,0,0,2.39-4.07,4.83,4.83,0,0,0-2.84-1.07,3.39,3.39,0,0,0-1,.09,5.67,5.67,0,0,0-.66.11,3.47,3.47,0,0,0-.87.3q0,4.31.06,9.87l0,.4a6,6,0,0,1,0,.85,29.91,29.91,0,0,0,4.29-.54q5.88-1.2,6.09-4.65a10.9,10.9,0,0,0-1.5-6.7l-.09-.1a4,4,0,0,0-.51-.74c-.19-.21-.38-.4-.57-.58M34.07,50.43l-.55,0c-.07.64-.27,2.08-.61,4.32A48.54,48.54,0,0,0,40,54.55a43.74,43.74,0,0,0,8-1.38,31.4,31.4,0,0,0,5.6-2.37l2-1a8.78,8.78,0,0,0,4,1.95,39.32,39.32,0,0,0,6.41.78,30.73,30.73,0,0,0,9.37-.89,20.77,20.77,0,0,0,5.64-2.16,54.83,54.83,0,0,0,10.76-.71A21.81,21.81,0,0,0,99,46.57a47.35,47.35,0,0,0,4.08,7.11q2,2.77,3.88,2.88c.34,0,.85-.56,1.56-1.76a6,6,0,0,0,.45-.87,14.08,14.08,0,0,0,4.92,3.25c0-2.23-.12-3.93-.2-5.12a9,9,0,0,1-2.95-2.48A15.86,15.86,0,0,1,108,44.81a14.78,14.78,0,0,0-.24,1.48c-.27,1.69-.7,2.52-1.3,2.48s-1.38-.68-2.14-1.93a19.21,19.21,0,0,1-2-5.83,75.07,75.07,0,0,1-7.16,3.17q-5.48,2-14.39,1.19a1.2,1.2,0,0,0-.31.13q-6.95,3.09-11.74,2.8-.7,0-10.47-2.43-2.61.8-5.31,1.54-12.42,3.41-18.86,3M31.24,60a5,5,0,0,0-.64-.19,3.51,3.51,0,0,0-1-.21,4.87,4.87,0,0,0-2.95.72,5.3,5.3,0,0,0,.69,2.7,4.94,4.94,0,0,0,1.21,1.63,4.94,4.94,0,0,1-1.21-1.63,5.3,5.3,0,0,1-.69-2.7,4.47,4.47,0,0,0-1.22,1.13,4.87,4.87,0,0,0-1.08,2.09,4.87,4.87,0,0,1,1.08-2.09,4.47,4.47,0,0,1,1.22-1.13,4.87,4.87,0,0,1,2.95-.72,3.51,3.51,0,0,1,1,.21,5,5,0,0,1,.64.19,3.67,3.67,0,0,1,.83.4L32.25,59c.16-1.06.32-2,.48-2.93Q27.14,55,24,57.84l-.11.09a2.52,2.52,0,0,0-.48.58l-.11.09A10.87,10.87,0,0,0,21,65.08q-.21,3.44,5.49,5.33a32.1,32.1,0,0,0,3.94,1q0-.6.12-1.14c.3-2.12.79-5.42,1.5-9.88A3.67,3.67,0,0,0,31.24,60Z"/><path class="cls-4" d="M55.6,49.77l-2,1A31.4,31.4,0,0,1,48,53.17a43.74,43.74,0,0,1-8,1.38,48.54,48.54,0,0,1-7.12.17c0,.44-.11.91-.18,1.39-.16.89-.32,1.87-.48,2.93l-.18,1.39c-.71,4.46-1.2,7.76-1.5,9.88q-.08.54-.12,1.14A18.38,18.38,0,0,0,36,86.91q6,5.93,29.08,7.86,2.94.23,6.18.42a160.15,160.15,0,0,0,19.68.08Q102.71,94.43,107,91a18.47,18.47,0,0,0,7.13-14.55,6,6,0,0,0,0-.85l0-.4q0-5.57-.06-9.87a8.15,8.15,0,0,1,0-1.21c0-1.13,0-2.19-.06-3.15q0-.66,0-1.26c0-.92,0-1.77-.09-2.56A14.08,14.08,0,0,1,109,53.93a6,6,0,0,1-.45.87c-.71,1.2-1.22,1.78-1.56,1.76q-1.85-.11-3.88-2.88A47.35,47.35,0,0,1,99,46.57a21.81,21.81,0,0,1-7.2,2.17,54.83,54.83,0,0,1-10.76.71,20.77,20.77,0,0,1-5.64,2.16,30.73,30.73,0,0,1-9.37.89,39.32,39.32,0,0,1-6.41-.78A8.78,8.78,0,0,1,55.6,49.77Z"/></g><path class="cls-6" d="M23.43,58.52l-.11.09"/><path class="cls-6" d="M23.91,58a2.78,2.78,0,0,0-.48.57"/><path class="cls-6" d="M24,57.85l-.11.1"/><path class="cls-6" d="M32.74,56.12Q27.15,55,24,57.85"/><path class="cls-6" d="M33,54.76c-.07.42-.14.88-.21,1.36"/><path class="cls-6" d="M33.53,50.41c-.06.64-.26,2.09-.58,4.35"/><path class="cls-7" d="M31.41,49.63a31,31,0,0,0,11.28-.15,96.88,96.88,0,0,0,11.12-2.59c1.82-.55,3.67-1,5.47-1.64s3.6-1.25,5.38-1.92c3.57-1.35,7-2.89,10.46-4.58a.49.49,0,0,1,.67.22.5.5,0,0,1-.23.67h0c-3.5,1.58-7.06,3-10.66,4.3-1.8.65-3.61,1.25-5.43,1.84S55.79,46.86,54,47.41c-3.68,1-7.39,2-11.17,2.63a54,54,0,0,1-5.71.76c-1,.05-1.93.11-2.9.07s-1.92-.17-2.89-.25h0a.49.49,0,0,1-.46-.54.5.5,0,0,1,.54-.46Z"/><path class="cls-6" d="M113.73,52.07c.07,1.19.15,2.9.22,5.13"/><path class="cls-6" d="M110.77,49.59a9,9,0,0,0,3,2.48"/><path class="cls-6" d="M108.05,44.82a16.08,16.08,0,0,0,2.72,4.77"/><path class="cls-6" d="M107.81,46.31c.07-.53.15-1,.24-1.49"/><path class="cls-6" d="M106.51,48.78c.6,0,1-.79,1.3-2.47"/><path class="cls-6" d="M104.37,46.85c.76,1.25,1.48,1.89,2.14,1.93"/><path class="cls-6" d="M102.32,41a19.48,19.48,0,0,0,2.05,5.83"/><path class="cls-6" d="M95.17,44.2A76.62,76.62,0,0,0,102.32,41"/><path class="cls-7" d="M80.82,44.89a43.37,43.37,0,0,0,7.2.34,30.63,30.63,0,0,0,3.58-.4A9.14,9.14,0,0,0,95,43.73a.51.51,0,1,1,.57.85.45.45,0,0,1-.22.08c-1.26.16-2.41.57-3.63.78a30.06,30.06,0,0,1-3.65.45,56.18,56.18,0,0,1-7.34,0,.5.5,0,0,1-.47-.53.51.51,0,0,1,.53-.47Z"/><path class="cls-6" d="M80.46,45.52a1.66,1.66,0,0,1,.31-.14"/><path class="cls-7" d="M68.75,47.82a12.44,12.44,0,0,0,5.92-.51,30,30,0,0,0,5.59-2.25.5.5,0,0,1,.46.89l-.06,0a60.2,60.2,0,0,1-5.84,1.89,41,41,0,0,1-6.13,1,.5.5,0,0,1-.55-.45.51.51,0,0,1,.45-.56A.43.43,0,0,1,68.75,47.82Z"/><path class="cls-6" d="M58.25,45.88q9.78,2.4,10.47,2.44"/><path class="cls-7" d="M31.81,60.86a2.49,2.49,0,0,0-.57-.41c-.22-.1-.47-.19-.7-.28h0a3.2,3.2,0,0,0-1.87-.2,3,3,0,0,0-1.69.83h0l.23-.39a4.63,4.63,0,0,0,.48,2.11,8.26,8.26,0,0,0,.56,1,3.37,3.37,0,0,0,.64.78h0A.51.51,0,0,1,29,65a.5.5,0,0,1-.7.12h0A3.68,3.68,0,0,1,27.37,64a8.1,8.1,0,0,1-.63-1.12,5.45,5.45,0,0,1-.56-2.58v-.09a.36.36,0,0,1,.23-.31h0a8,8,0,0,1,2.14-.54,5.34,5.34,0,0,1,2.17.15h0c.28.06.54.1.83.18a6.47,6.47,0,0,1,.84.3h0a.49.49,0,0,1,.28.66A.5.5,0,0,1,32,61,.39.39,0,0,1,31.81,60.86Z"/><path class="cls-7" d="M33.23,56.21c-.43,2.52-.74,5.07-1.14,7.61s-.81,5.12-1.08,7.61a19.56,19.56,0,0,0,.66,7.43,17.52,17.52,0,0,0,3.64,6.47A13.33,13.33,0,0,0,38,87.82a20.85,20.85,0,0,0,3.31,1.74A43,43,0,0,0,48.6,91.8,116.78,116.78,0,0,0,63.77,94c5.11.41,10.24.75,15.36.88a115.23,115.23,0,0,0,15.33-.48A42.87,42.87,0,0,0,102,93a18.28,18.28,0,0,0,3.48-1.42,13.45,13.45,0,0,0,3-2.28,17.54,17.54,0,0,0,4.16-6.24,19.22,19.22,0,0,0,1.28-7.42h0v0c0-.83,0-1.7,0-2.55l0-2.57-.07-5.12v0l0-1.28v0c-.06-2.34-.12-4.65-.2-7a.5.5,0,0,1,.48-.52.51.51,0,0,1,.52.48h0c.06,2.33.08,4.66.11,7v0l0,1.12v5.19l0,2.57c0,.86,0,1.71,0,2.58v0a22.15,22.15,0,0,1-1.32,7.7,18.21,18.21,0,0,1-4.25,6.55,14.89,14.89,0,0,1-3.1,2.45,18.62,18.62,0,0,1-3.62,1.55,42.56,42.56,0,0,1-7.63,1.58,112.72,112.72,0,0,1-15.47.65c-2.58,0-5.16-.12-7.74-.26s-5.14-.32-7.71-.56A117.15,117.15,0,0,1,48.33,93a45,45,0,0,1-7.45-2.34,22.19,22.19,0,0,1-3.5-1.86,14.62,14.62,0,0,1-2.94-2.71,18.68,18.68,0,0,1-3.83-6.9,20.59,20.59,0,0,1-.67-7.84c.3-2.62.76-5.11,1.13-7.67s.73-5.08,1.18-7.63a.5.5,0,1,1,1,.17Z"/><path class="cls-7" d="M26.93,60.79a2.82,2.82,0,0,0-.76.49,4.89,4.89,0,0,0-.64.71,2.76,2.76,0,0,0-.66,1.68.51.51,0,0,1-.48.54.52.52,0,0,1-.54-.48.4.4,0,0,1,0-.19v0a6.21,6.21,0,0,1,.48-1,9.3,9.3,0,0,1,.59-.9,7.37,7.37,0,0,1,1.46-1.62h0a.51.51,0,1,1,.62.8A.67.67,0,0,1,26.93,60.79Z"/><path class="cls-7" d="M23.71,58.93a10.05,10.05,0,0,0-1.83,4.14,11.93,11.93,0,0,0-.28,2.27,3,3,0,0,0,.66,1.91A8.51,8.51,0,0,0,26,69.67,32,32,0,0,0,30.56,71a.5.5,0,0,1,.39.59.51.51,0,0,1-.58.4,31.44,31.44,0,0,1-4.75-1.28,9.45,9.45,0,0,1-4.26-2.76,4.16,4.16,0,0,1-.9-2.57,13.89,13.89,0,0,1,.29-2.52,9.82,9.82,0,0,1,2.19-4.54.5.5,0,0,1,.77.64Z"/><path class="cls-6" d="M102,39.09c.09.68.2,1.32.33,1.93"/><path class="cls-6" d="M113.73,52.07a11.85,11.85,0,0,0,2.4.85"/><path class="cls-6" d="M108.05,44.82c.34-2.25.57-3.62.7-4.12"/><path class="cls-6" d="M80.77,45.38c1.1-.53,2.25-1.11,3.46-1.74q2.28-1.22,5.92-3.5"/><path class="cls-7" d="M121.77,62.42a9.65,9.65,0,0,1,.87.83,7.15,7.15,0,0,1,.75,1l-.07-.1.1.11,0,.06A10.4,10.4,0,0,1,125,69.17a13.72,13.72,0,0,1,0,2.56,4.22,4.22,0,0,1-1.26,2.41,9.84,9.84,0,0,1-4.62,2.17,27.33,27.33,0,0,1-4.93.68.5.5,0,0,1-.53-.47.51.51,0,0,1,.48-.53h0a27.14,27.14,0,0,0,4.75-.65A9,9,0,0,0,123,73.42a3.2,3.2,0,0,0,1-1.84,12,12,0,0,0,0-2.32,9.4,9.4,0,0,0-1.4-4.39l0,.07-.09-.11-.07-.09a6.51,6.51,0,0,0-.6-.81,8.09,8.09,0,0,0-.79-.75.49.49,0,0,1-.06-.7.51.51,0,0,1,.71-.06Z"/><path class="cls-7" d="M113.92,64.92a4.52,4.52,0,0,1,.86-.24c.29-.05.56-.07.84-.1h-.05a4.69,4.69,0,0,1,2.18.16,5.17,5.17,0,0,1,1.89,1A5.83,5.83,0,0,1,121,67.38a7.17,7.17,0,0,1,.93,2v0a.53.53,0,0,1-.37.63.52.52,0,0,1-.63-.38.4.4,0,0,1,0-.24,2.81,2.81,0,0,0-.36-1.82,4.26,4.26,0,0,0-2.94-2.31,3.73,3.73,0,0,0-1.85,0h0l-.72.18a3,3,0,0,0-.63.3.5.5,0,0,1-.69-.16.49.49,0,0,1,.16-.69l.08,0Z"/><path class="cls-6" d="M119.51,65.94a5.41,5.41,0,0,1-1,2.6A5.19,5.19,0,0,1,117.11,70"/><path class="cls-7" d="M114,60.51a14.77,14.77,0,0,1,4,.2,8.74,8.74,0,0,1,3.73,1.7h0l-.79.23a82.57,82.57,0,0,0,2.65-10.43,45,45,0,0,0,.66-5.29,43,43,0,0,0-.07-5.32,36.26,36.26,0,0,0-2.13-10.36,13,13,0,0,0-6.76-7.4h0a.56.56,0,0,1-.31-.42,20.36,20.36,0,0,0-1.16-4.07,26.51,26.51,0,0,0-1.76-3.87A23.92,23.92,0,0,0,106.69,9,30.49,30.49,0,0,0,91.3,2.27a64.63,64.63,0,0,0-8.61-.66c-2.89-.05-5.78,0-8.66.22A74.87,74.87,0,0,0,65.45,3a61.87,61.87,0,0,0-8.36,2.18,54.28,54.28,0,0,0-8,3.33A52.34,52.34,0,0,0,41.79,13a48,48,0,0,0-12,12.25,38.56,38.56,0,0,0-6,16,52.93,52.93,0,0,0-.26,8.64l.27,8.73h0a.5.5,0,0,1-.48.52.52.52,0,0,1-.52-.48l-.37-8.75a53.19,53.19,0,0,1,.18-8.83,39,39,0,0,1,6-16.56A49,49,0,0,1,41,11.84a53.32,53.32,0,0,1,7.52-4.67,56,56,0,0,1,8.14-3.45,60.48,60.48,0,0,1,8.55-2.26A73.87,73.87,0,0,1,73.91.27C76.84,0,79.79,0,82.73,0a65.67,65.67,0,0,1,8.82.65,31.47,31.47,0,0,1,16.23,7.1A29.94,29.94,0,0,1,110.92,11a21.76,21.76,0,0,1,2.46,3.79,24.7,24.7,0,0,1,1.68,4.15,18.94,18.94,0,0,1,.94,4.4l-.31-.42h0a12.22,12.22,0,0,1,4.8,3,14,14,0,0,1,3,4.81,37.64,37.64,0,0,1,2.17,10.81,37.53,37.53,0,0,1,0,5.51,45,45,0,0,1-.77,5.45,77.09,77.09,0,0,1-3,10.49.49.49,0,0,1-.64.31.55.55,0,0,1-.15-.08h0a7.71,7.71,0,0,0-3.3-1.5,13.43,13.43,0,0,0-3.75-.18.51.51,0,0,1-.54-.46.5.5,0,0,1,.46-.54Z"/><g id="Layer0_5_MEMBER_4_MEMBER_0_FILL" data-name="Layer0 5 MEMBER 4 MEMBER 0 FILL"><path class="cls-13" d="M67.63,87c1,1.83,2.89,2.82,5.68,3a5.85,5.85,0,0,0,5.93-3.55,11.13,11.13,0,0,0,.69-1.56,7.25,7.25,0,0,0-5.23-2.22,10,10,0,0,0-7.55,3.11A7.18,7.18,0,0,0,67.63,87Z"/><path class="cls-14" d="M67,74.89,66.62,78a22.76,22.76,0,0,0,.53,7.8,10,10,0,0,1,7.55-3.11,7.25,7.25,0,0,1,5.23,2.22,21.45,21.45,0,0,0,.92-5.35l.27-4.45a2,2,0,0,0-.6,0l-3.14-.19Q72.58,74.67,67,74.89Z"/><path class="cls-7" d="M102.25,67.64a3.61,3.61,0,0,0-4.78-5.4,3.61,3.61,0,0,0,4.78,5.4m-1.51-1.5a1.33,1.33,0,0,1-1.18.48c-1-.06-1.47-.62-1.4-1.68s.59-1.59,1.59-1.56,1.42.62,1.35,1.78a1.7,1.7,0,0,1-.36,1M51,64.56a3.63,3.63,0,0,0,.3-5.1,3.61,3.61,0,1,0-2.91,6A3.49,3.49,0,0,0,51,64.56m-1-2.67a1.71,1.71,0,0,1-.67,1.17,1.67,1.67,0,0,1-1.23.47c-1-.06-1.46-.62-1.4-1.68s.65-1.7,1.75-1.6S50.06,60.93,50,61.89Z"/><path class="cls-8" d="M99.56,66.62a1.33,1.33,0,0,0,1.18-.48,1.7,1.7,0,0,0,.36-1c.07-1.16-.38-1.76-1.35-1.78s-1.53.49-1.59,1.56.4,1.62,1.4,1.68M49.33,63.06A1.71,1.71,0,0,0,50,61.89c.06-1-.46-1.51-1.55-1.64s-1.68.43-1.75,1.6.4,1.62,1.4,1.68A1.67,1.67,0,0,0,49.33,63.06Z"/></g><g id="Layer0_5_MEMBER_4_MEMBER_0_1_STROKES" data-name="Layer0 5 MEMBER 4 MEMBER 0 1 STROKES"><path class="cls-7" d="M63.52,74.58c1.42-.11,2.82-.22,4.25-.25a31.89,31.89,0,0,1,4.26.09,23.43,23.43,0,0,0,4.27,0,35.6,35.6,0,0,1,4.26.07h-.09a2.28,2.28,0,0,1,.78,0l-.09,0c.88,0,1.76.12,2.64.2a.5.5,0,0,1-.06,1c-.88,0-1.76-.06-2.65-.12H81a1.49,1.49,0,0,0-.42,0H80.5c-1.41-.11-2.83-.2-4.23-.39A16.63,16.63,0,0,0,72,75.13c-1.41.17-2.82.19-4.23.26s-2.83.15-4.24.19a.5.5,0,0,1,0-1Z"/><path class="cls-7" d="M72.5,67.33c-.32.4-.87.85-1,1,0,0,0,.27-.08.48a1.29,1.29,0,0,0,.06.7c.19.47.81.58,1.13.78a1.84,1.84,0,0,0,1.14.06h0a.51.51,0,0,1,.35.94,2.07,2.07,0,0,1-2-.08c-.63-.31-.79-1-1.12-1.44a5.7,5.7,0,0,1-.46-.81,1.38,1.38,0,0,1,0-1.1,2.82,2.82,0,0,1,.63-.75,7.08,7.08,0,0,1,.59-.5h0a.5.5,0,0,1,.7.09A.48.48,0,0,1,72.5,67.33Z"/><path class="cls-7" d="M67.51,75l-.34,2.7a26.76,26.76,0,0,0-.12,2.69,18,18,0,0,0,.59,5.27h0l-.82-.21a16.63,16.63,0,0,1,3.07-2,9.79,9.79,0,0,1,3.51-1,10.84,10.84,0,0,1,3.63.31,7.35,7.35,0,0,1,3.27,1.8h0l-.85.17A20.77,20.77,0,0,0,80.33,80l.3-4.93a.5.5,0,0,1,.53-.47.52.52,0,0,1,.47.53h0l-.31,5a21.22,21.22,0,0,1-.91,5v0a.48.48,0,0,1-.61.31.53.53,0,0,1-.23-.16h0a5.39,5.39,0,0,0-2.71-1.87,9.11,9.11,0,0,0-3.41-.4,8.36,8.36,0,0,0-3.26,1,10.78,10.78,0,0,0-2.68,2.17.47.47,0,0,1-.67,0,.49.49,0,0,1-.14-.21v0h0a19.3,19.3,0,0,1-.63-5.57,25.86,25.86,0,0,1,.13-2.78l.34-2.74a.5.5,0,1,1,1,.13Z"/><path class="cls-7" d="M52.65,62.1A4.08,4.08,0,0,1,48.32,66a3.74,3.74,0,0,1-2.78-1.43,4.14,4.14,0,0,1-.83-2.92,4.35,4.35,0,0,1,1.21-2.74,3.62,3.62,0,0,1,2.89-1.13A4.06,4.06,0,0,1,52.65,62.1Zm-1-.06a3.12,3.12,0,0,0-2.91-3.27,3.47,3.47,0,0,0-2.33.67,2.8,2.8,0,0,0-1.2,2.22,2.94,2.94,0,0,0,1,2.3,3.27,3.27,0,0,0,2.19,1A3.1,3.1,0,0,0,51.66,62Z"/><path class="cls-7" d="M67.64,85.62a7,7,0,0,0,.87,1.73A5.27,5.27,0,0,0,70,88.61a10.09,10.09,0,0,0,1.85.75,7.84,7.84,0,0,0,2,.39,4.14,4.14,0,0,0,2-.46,7,7,0,0,0,1.58-1.15,7.18,7.18,0,0,0,1.19-1.59c.33-.59.58-1.23.9-1.84l0-.09a.5.5,0,0,1,.9.43,17.63,17.63,0,0,1-.91,2,6.76,6.76,0,0,1-1.42,1.79,4.41,4.41,0,0,1-2,1.1,10,10,0,0,1-2.22.28,8.12,8.12,0,0,1-4.39-.75A5.29,5.29,0,0,1,67.66,88a6.76,6.76,0,0,1-1-2.11.5.5,0,0,1,.92-.38Z"/><path class="cls-7" d="M104,65.18a4.08,4.08,0,0,1-4.34,3.87,3.74,3.74,0,0,1-2.77-1.43A4.08,4.08,0,0,1,96,64.71,4.33,4.33,0,0,1,97.23,62a3.61,3.61,0,0,1,2.89-1.12A4.06,4.06,0,0,1,104,65.18Zm-1-.06a3.11,3.11,0,0,0-2.91-3.27,3.5,3.5,0,0,0-2.33.67,2.83,2.83,0,0,0-1.19,2.22,2.92,2.92,0,0,0,1,2.3,3.31,3.31,0,0,0,2.19,1A3.09,3.09,0,0,0,103,65.12Z"/></g><g class="cls-15"><path class="cls-16" d="M73.08,116.59c0-.23,2.73-1.32,5.42,0a7.86,7.86,0,0,1,3.88,7.52c-.49,5-6.53,8.14-8.67,8.7-.5.13-1.38.43-3.15,1a7.38,7.38,0,0,0-2.31,1.09,5.71,5.71,0,0,0-1.34,1.46,9.52,9.52,0,0,1,1.71-4,5.46,5.46,0,0,1,1.55-1.51c1-.61,1.6-.45,3.15-.78a11.79,11.79,0,0,0,3.9-1.49,7.52,7.52,0,0,0,2.51-2.3,6.09,6.09,0,0,0-1-8.18c-2.44-2.07-5.61-1.25-5.62-1.51"/><path class="cls-17" d="M70.93,117c.09-.15-1.09-1.51-3.22-1.6a5.56,5.56,0,0,0-5,3.34c-1.44,3.31,1.26,7.32,2.4,8.4.26.26.71.74,1.6,1.72a5.18,5.18,0,0,1,1.07,1.47,4,4,0,0,1,.33,1.37,6.6,6.6,0,0,0,.32-3.1A3.73,3.73,0,0,0,68,127.1c-.41-.72-.84-.83-1.69-1.56a8.47,8.47,0,0,1-1.91-2.27,5.42,5.42,0,0,1-.78-2.29,4.34,4.34,0,0,1,3.46-4.74c2.23-.45,3.77.89,3.86.74"/><path class="cls-18" d="M73.08,116.59a4.82,4.82,0,0,1,4.24,0,5.75,5.75,0,0,1,2.79,5.54c-.39,3.69-4.84,5.93-6.42,6.32-.36.1-1,.31-2.31.73a5.45,5.45,0,0,0-1.7.78,4.69,4.69,0,0,0-1,1.06A6.77,6.77,0,0,1,70,128.13,3.83,3.83,0,0,1,71.12,127c.73-.44,1.17-.31,2.31-.54a8.86,8.86,0,0,0,2.87-1.07,5.75,5.75,0,0,0,1.86-1.67,4.77,4.77,0,0,0,.83-2.17,4.64,4.64,0,0,0-1.54-3.84c-1.77-1.53-4.36-1-4.37-1.14"/><path class="cls-19" d="M70.93,117c.07-.11-.63-1-2.19-1.07A4.08,4.08,0,0,0,65,118.27c-1.11,2.4.8,5.39,1.61,6.2.19.19.51.56,1.15,1.29a3.89,3.89,0,0,1,.76,1.1,3.08,3.08,0,0,1,.22,1,4.92,4.92,0,0,0,.29-2.27,2.94,2.94,0,0,0-.3-1.09c-.29-.54-.61-.62-1.22-1.18a6.12,6.12,0,0,1-1.36-1.69,4,4,0,0,1-.53-1.7,3.49,3.49,0,0,1,.28-1.63,3.32,3.32,0,0,1,2.34-1.79,4.66,4.66,0,0,1,2.67.46"/><path class="cls-20" d="M76.1,121.49v-.08h.11v-.32h-.11V121h.19v0l.15,0h.27v.34h-.42v0Zm.5-1,0,.1-.19,0,0,.19.19,0,0,.1-.49.1,0-.1.22,0,0-.2-.22,0,0-.1Zm-.59-.21a.25.25,0,0,1,0-.19.27.27,0,0,1,.15-.12.32.32,0,0,1,.13,0l.08,0,.06,0a.33.33,0,0,1,.06.1.25.25,0,0,1,0,.19.28.28,0,0,1-.15.13.34.34,0,0,1-.2,0,.28.28,0,0,1-.13-.15m-3.55,4.3a3.17,3.17,0,1,1,3.41-2.93,3.18,3.18,0,0,1-3.41,2.93m2,.53-.34-.61.19-.1.33.61Zm-.45.19-.17-.17,0,0h-.07l.08.27-.21.06-.2-.66.35-.11a.44.44,0,0,1,.15,0,.19.19,0,0,1,.1,0,.33.33,0,0,1,.06.1.17.17,0,0,1,0,.1.18.18,0,0,1,0,.09l-.07,0H74l0,0,0,0,.16.16Zm-.87.22,0-.11-.24,0,0,.12-.21,0,.19-.72.23,0,.33.66Zm-.67-.29a.26.26,0,0,1-.2,0h-.12l0,.25-.21,0,.08-.69.35,0a.27.27,0,0,1,.17.07.29.29,0,0,1,0,.17.22.22,0,0,1-.08.15m-.82.2-.53-.15.2-.67.2.06-.14.5.32.1Zm-.74-.25-.19-.11,0-.12-.21-.12-.09.08-.19-.11.58-.47.2.12Zm-1.44-5.06-.37-.4.05-.1.54.05,0,.1-.12,0-.09.18.08.09Zm0,.15-.39-.13,0,.14.2.07.12,0a.12.12,0,0,1,0,0,.2.2,0,0,1,0,.07.14.14,0,0,1,0,.06l-.08,0v0a.1.1,0,0,0,0,0l0,0-.08,0-.27-.09L69,120l.47.16Zm-.13.51-.05.23-.49-.1.08-.37.08,0,0,.27.11,0,0-.13a.12.12,0,0,1,0-.09.1.1,0,0,1,.06,0,.14.14,0,0,1,.09,0,.2.2,0,0,1,.08,0l0,.07a.38.38,0,0,1,0,.1m.19-1.71.07,0-.13.2.36.23-.06.08-.42-.27Zm.16-.18a.33.33,0,0,1,.06-.1.25.25,0,0,1,.17-.08.25.25,0,0,1,.19.08.22.22,0,0,1,.09.17.21.21,0,0,1-.07.18.23.23,0,0,1-.17.08.23.23,0,0,1-.18-.07.38.38,0,0,1-.08-.11s0,0,0-.08,0,0,0-.07m.6-.61.06.06-.12.1.27.32-.07.06-.27-.31-.12.09,0-.06Zm.28-.19.07,0h.06l0,0a.1.1,0,0,1,0,0,.14.14,0,0,1,0,.06.14.14,0,0,1,0,.07.11.11,0,0,1,.08,0s0,0,.06,0,0,0,0,.06,0,0,0,.07l0,.06-.1.06-.14.1-.27-.43Zm.37-.17a.43.43,0,0,1,0-.07l.09-.06a.25.25,0,0,1,.19,0,.29.29,0,0,1,.14.15.28.28,0,0,1,0,.2.26.26,0,0,1-.14.13.21.21,0,0,1-.19,0,.23.23,0,0,1-.13-.14.35.35,0,0,1,0-.13.22.22,0,0,1,0-.08m.64-.32.12,0a.13.13,0,0,1,.08,0,.16.16,0,0,1,0,.08.12.12,0,0,1,0,.08.09.09,0,0,1,0,.06l0,0-.1,0h-.06l0,.18-.09,0-.15-.48Zm.44-.11.06.33.14-.36.1,0,.09.49-.09,0-.06-.32-.14.35-.1,0-.09-.49Zm.84-.07v.09h-.15v.42h-.1v-.42h-.15v-.09Zm.13,0,.37,0v.08l-.27,0v.11l.25,0v.09l-.25,0v.14l.28,0v.09l-.38,0Zm.39.47h.06s0,0,0,0l0-.08.06-.28.35.07-.11.49-.1,0,.09-.41-.15,0,0,.21c0,.06,0,.1,0,.12a.07.07,0,0,1,0,0h-.07l-.07,0Zm.68-.26.09,0-.07.18.13,0a.25.25,0,0,1,.11.09.24.24,0,0,1,0,.12.13.13,0,0,1-.06.07.1.1,0,0,1-.07,0,.16.16,0,0,1-.09,0l-.22-.09Zm.52.23.09,0-.1.17.18.09.09-.17.09,0-.25.44-.08,0,.1-.19-.17-.1-.11.19-.08,0Zm.6.36-.13.16.1.08.07.07a.22.22,0,0,1,0,.08.16.16,0,0,1,0,.09l-.08,0H75l-.08,0-.18-.15.32-.39Zm.36.31-.31.38-.08-.06.32-.39Zm.19.21-.25.22.38-.07.07.07-.37.34-.07-.07.25-.22-.38.06-.07-.07.38-.33Zm.09-.09,0,0s0,0,0,0a.08.08,0,0,0,0,0l0,0h0l0,0a.11.11,0,0,1-.07,0,.1.1,0,0,1-.07,0,.11.11,0,0,1,0-.07.13.13,0,0,1,0-.08m.26.73s.09,0,.13.12l0,0,0,.09,0,0a.31.31,0,0,1,0,.18.26.26,0,0,1-.1.11.24.24,0,0,1-.14,0,.22.22,0,0,1-.14-.12l0,0,0-.09,0,0a.19.19,0,0,1,0-.17.17.17,0,0,1,.09-.11.16.16,0,0,1,.15,0m-3-2.25a4.3,4.3,0,1,0,4,4.61,4.29,4.29,0,0,0-4-4.61m-2.26,7.67.06-.26-.19.18Zm3,0a.11.11,0,0,0-.08,0l-.09,0,0,.13.09,0,0,0s0,0,0,0v0s0,0,0,0m2.49-4.48a.2.2,0,0,0,.11-.08.14.14,0,0,0,0-.11s0-.07-.08-.08a.15.15,0,0,0-.13,0,.19.19,0,0,0-.11.08.12.12,0,0,0,.07.18.15.15,0,0,0,.13,0m.32.88a.92.92,0,0,1-.33,0v.19h.33Zm-3.73,4.07.15,0-.1-.24Zm-.65-.31h-.06v.16h0a.13.13,0,0,0,.09,0,.05.05,0,0,0,0,0,.07.07,0,0,0,0-.06s0,0-.08,0m-1.5-6.53s.05,0,.05,0a.05.05,0,0,0,0,0s0,0,0,0l0,0h0l-.08,0-.06,0,.07.11Zm-.08-.21a.05.05,0,0,0,0,0s0,0,0,0,0,0,0,0,0,0,0,0l-.07,0,0,0,.06.1.06,0,.06,0m3.48-.13a0,0,0,0,0,0,0,.06.06,0,0,0,0-.06.19.19,0,0,0-.08,0l-.09,0,0,.12.09,0,.07,0h0m-3,.08a.11.11,0,0,0,.11,0,.12.12,0,0,0,.07-.07.18.18,0,0,0,0-.14.17.17,0,0,0-.08-.1.11.11,0,0,0-.11,0,.16.16,0,0,0-.08.08.21.21,0,0,0,0,.13.15.15,0,0,0,.09.1m.57-.39,0,0v0s0,0,0,0,0,0,0,0h-.07l-.05,0,.05.13h0l.07,0m4.32,2a.06.06,0,0,0,0,0l.07,0c.06,0,.07-.09,0-.16l-.19.11a.1.1,0,0,0,0,.05m.11-.24a.15.15,0,0,0-.07-.07.14.14,0,0,0-.09,0,.1.1,0,0,0,0,.16Zm-1.15-.93,0,0h0l0,0s0,0,0,0a.1.1,0,0,0,0-.07l-.08-.07-.09.11Zm-5.75,2.09s0,0,0,0a.07.07,0,0,0-.06,0,.22.22,0,0,0,0,.08l0,.1.13,0,0-.09a.2.2,0,0,0,0-.07l0,0m.61-1.63a.17.17,0,0,0,.12.06.14.14,0,0,0,.1,0,.13.13,0,0,0,0-.1.25.25,0,0,0-.07-.12.33.33,0,0,0-.12-.06.12.12,0,0,0-.1,0,.14.14,0,0,0,0,.1.19.19,0,0,0,.07.12m-.43.8.06-.12-.2,0Z"/></g><polygon class="cls-20" points="70.97 119.64 70.59 119.26 70.49 119.35 70.88 119.73 70.97 119.64"/><polygon class="cls-20" points="74.79 123.29 74.41 122.91 74.32 123.01 74.7 123.38 74.79 123.29"/><g class="cls-21"><path class="cls-20" d="M74.36,123.25l-.09.08-.1.09-.11.07-.11.07-.11.07-.12.06-.12.06-.12,0-.13,0-.12,0-.14,0-.13,0h-.55l-.26,0-.24-.05-.24-.09-.23-.1-.22-.12-.2-.14-.18-.17-.17-.17-.15-.2-.14-.21-.11-.22-.09-.23-.06-.24-.05-.25,0-.26v-.26l0-.2,0-.2.06-.21.08-.19.09-.19.1-.17.11-.16.14-.15-.28-.29-.16.16-.15.19L70,120l-.11.23-.08.24-.07.25,0,.25,0,.24v.31l0,.29,0,.28.08.28.1.26.13.26.15.23.18.22.19.21.21.18.23.17.25.14.26.12.27.09.29.07.3,0H73l.16,0,.15,0,.15,0,.15,0,.14-.06.14-.07L74,124l.13-.07.13-.09.12-.09.12-.1.11-.1Z"/><path class="cls-22" d="M73.48,123.44l-.06,0s-.06,0-.09,0,0,0,0-.07a.17.17,0,0,0-.06-.06.22.22,0,0,0-.16,0,.49.49,0,0,0-.16,0s0,0-.06.05l-.06.07,0,0-.05.06,0,0h-.27a2.23,2.23,0,0,1-1.26-3.94h0l0,0,.07,0,0,0,.06,0,.08,0h0l0,0,0,0,0,0h0l.07,0,.1,0,.07,0,0,0,0,0,0-.07,0,0,0-.06,0-.07h0a2.28,2.28,0,0,1,.64,0,2.22,2.22,0,0,1,.64.15l-.1,0h-.22l0-.08-.12,0-.08,0-.09,0-.06,0h-.05l-.12,0h0v0l0,.06,0,0,0,0h0l0,0h0l-.08,0,0,0v.09l0,0,0,0,0,0,0,0,0,.09,0,.08v0h0l-.08,0,0,0h0v0l0,0v.24s0,.09,0,.13,0,.06,0,.09h.09s0,0,0-.08v0l0,0s0,0,0,0a.14.14,0,0,1,0,.06s0,0,0,.07-.08,0-.09.06l0,.11s0,.07,0,.1,0,0,0,0,0,0,0,0l0,0a.08.08,0,0,1,0,.09l-.06,0v.17h0l0,0,0,0L72,121s0,0,0-.08,0-.06,0-.06,0,0,.05,0l0,0h0c.08,0,0-.09,0-.11v0h0s.08.06.13,0,0,0,0,0,0-.07,0-.1,0,0,0,0l0,0s0,0,0,0v0h0l0,0h0l0,0v0l0,0,0,0h0v0l.07.1h.11v-.06h0l0,0,0,0,.06.09h0V121l-.07,0,0,0,0,0h0l-.15,0-.09,0h0l0,0h0v0l0,0,0,0,0,0,0,.05,0,0-.07.08,0,.08,0,.1,0,.09,0,.09,0,.09v.09h0l0,0,0,.06s0,.07,0,.1,0,0,0,0h0l0,0,0,0,.08,0h0l.1,0v0h.12l.08,0,0,0,.09,0,.06,0,0,.1.06,0,0,.07v.08h0a.7.7,0,0,1,.13.17l0,.08,0,.08.07.05.06.07a.62.62,0,0,0,.2.15l0-.05,0,0a.26.26,0,0,0,.07-.11l0-.07v-.34l0,0,0-.11v-.08L73.3,122l0-.09,0,0v-.07l0-.09v-.11l0-.06v-.18l0,0,0,0,0,.05,0,0-.05,0-.06-.08-.05-.05,0,0-.07,0-.05,0h0l0,0v0h0l0,0,0,0,.07,0,.05.06,0,0,0,0,.05,0,.06-.08,0-.1a1,1,0,0,0,0-.1.1.1,0,0,0,0-.09s0,0,0,0h0l0,0,0,0,0,0h0v0h0l0,0-.09-.06.09,0h.29l0,0s0,0,0,0l.06,0a.52.52,0,0,1,.11.1l0,.05,0,0,0,0,.12.08h.06v0a1.09,1.09,0,0,1-.07-.24.17.17,0,0,1,0-.1.19.19,0,0,1,0-.08l0-.17v0h.08a.18.18,0,0,1,.07,0c.08,0,.17,0,.24.07l.06,0s0,.07.07,0,0,0,0,0l0,0,.06.05.09.07,0,0h0l0,0h0l0,0,0,0,0-.1,0-.08v0l0,0h0l-.11-.07,0-.05v0l0-.07,0-.08v0a2.18,2.18,0,0,1,.23,1.16c0,.12,0,.24,0,.35s0,.07,0,.09,0,0,0,0l0-.07,0,0s0,0,0,0,0,0,0,0h0a.22.22,0,0,1-.16-.05l-.06,0,0,0s0,0,0,0a.36.36,0,0,1,0,.11s0,0,0,0-.06,0-.08,0h0s0,0,0,0,0,0,0,0,0,0,0,0,.06,0,.07.07v0s0,0,0,0a.09.09,0,0,1,0,.07.15.15,0,0,0,0,.07s0,0,0,.07,0,.07,0,.11h.31a.08.08,0,0,0,.07,0s0,0,0,0,0-.1,0-.14,0,0,0-.06.08,0,.12,0h.06a2.41,2.41,0,0,1-.15.33,1.81,1.81,0,0,1-.19.29,1.48,1.48,0,0,1-.24.26,2.09,2.09,0,0,1-.28.22l-.3.17,0,0m.61-3.54h0l0,0,0,0h0l.17.21h0l-.06-.06,0,0-.08-.05-.08,0-.07,0v0h0Zm.2-.16h0l-.13-.11h0a2.31,2.31,0,0,0-1.39-.59,2.38,2.38,0,1,0,1.52.71"/></g></g></g></svg>