<svg xmlns="http://www.w3.org/2000/svg" viewBox="0 0 158.1 96.9"><defs><style>.cls-1{fill:#fff;}</style></defs><title>right_cloud</title><g id="Слой_2" data-name="Слой 2"><g id="BACKGROUND"><path class="cls-1" d="M158.1,11.85a18.29,18.29,0,0,0-3.9-.4q-12.34,0-20.65,6.55c-.7.56-1.39,1.14-2.05,1.75A38.59,38.59,0,0,0,130,11.2Q126.75.66,117.85.65q-6.8,0-13.65,5.85a48.21,48.21,0,0,0-11,14.55,15.51,15.51,0,0,0-2.05-2.5q-4.81-4.74-12.3-1.45-.64-6.72-3-10.4Q71.65,0,61.15,0A28.84,28.84,0,0,0,47.3,3.2a20.47,20.47,0,0,0-9.4,10.45h0Q34,10.2,27.35,10.2a30.73,30.73,0,0,0-14.7,3.35Q3.5,18.4,0,30l158.1,67V11.85"/></g></g></svg>