<svg xmlns="http://www.w3.org/2000/svg" viewBox="0 0 237 237"><defs><style>.cls-1{isolation:isolate;}.cls-2,.cls-3{fill:#ffca28;}.cls-2,.cls-4{stroke:#ef6c00;stroke-width:3px;}.cls-2{stroke-miterlimit:10;}.cls-3{mix-blend-mode:multiply;}.cls-4{fill:none;stroke-linecap:round;stroke-linejoin:round;}</style></defs><title>sun</title><g class="cls-1"><g id="Слой_2" data-name="Слой 2"><g id="objects"><circle class="cls-2" cx="118.5" cy="118.5" r="59.01" transform="translate(-49.08 118.5) rotate(-45)"/><path class="cls-3" d="M84.49,118.5a51.77,51.77,0,0,1,34.56-48.83,1.51,1.51,0,0,0-.46-2.94h-.09a51.77,51.77,0,0,0,0,103.54h.09a1.51,1.51,0,0,0,.46-2.94A51.77,51.77,0,0,1,84.49,118.5Z"/><line class="cls-4" x1="118.5" y1="1.5" x2="118.5" y2="47.85"/><line class="cls-4" x1="60" y1="17.17" x2="83.18" y2="57.32"/><line class="cls-4" x1="17.17" y1="60" x2="57.32" y2="83.18"/><line class="cls-4" x1="1.5" y1="118.5" x2="47.85" y2="118.5"/><line class="cls-4" x1="17.17" y1="177" x2="57.32" y2="153.82"/><line class="cls-4" x1="60" y1="219.83" x2="83.18" y2="179.68"/><line class="cls-4" x1="118.5" y1="235.5" x2="118.5" y2="189.15"/><line class="cls-4" x1="177" y1="219.83" x2="153.82" y2="179.68"/><line class="cls-4" x1="219.82" y1="177" x2="179.68" y2="153.82"/><line class="cls-4" x1="235.5" y1="118.5" x2="189.15" y2="118.5"/><line class="cls-4" x1="219.82" y1="60" x2="179.68" y2="83.18"/><line class="cls-4" x1="177" y1="17.17" x2="153.82" y2="57.32"/></g></g></g></svg>