<svg xmlns="http://www.w3.org/2000/svg" viewBox="0 0 401.54 144.63"><defs><style>.cls-1{fill:#d0f2fc;}.cls-2{fill:#fff;}.cls-3{fill:#f6a01c;}.cls-4{fill:#83bb26;}</style></defs><title>top_cloud_title</title><g id="Слой_2" data-name="Слой 2"><g id="Слой_1-2" data-name="Слой 1"><g id="OBJECTS"><g id="Layer0_9_FILL" data-name="Layer0 9 FILL"><path class="cls-1" d="M386.35,79.45l-.58.68a14.39,14.39,0,0,1-4.39,3.47,11.64,11.64,0,0,1,.09,1.45,10.55,10.55,0,0,1-3.37,7.82,12.05,12.05,0,0,1-8.74,3.42,15,15,0,0,1-7.09-1.35,12.39,12.39,0,0,1-4.49-4.49c-.2.27-.41.52-.63.77A17.73,17.73,0,0,1,343,98c-2.73,0-4.74-.44-6-1.3a5.18,5.18,0,0,1-2.12-4.06c-.58.58-1.16,1.14-1.74,1.69q-9.4,8.84-18.77,8.83A22.65,22.65,0,0,1,304,100.68a24,24,0,0,1-5.69-4,14.46,14.46,0,0,1,.19,2.55q0,6.76-1.69,10-2.65,5.16-10.18,5.17-6.33,0-9.7-3.86a13,13,0,0,1-3-8.93,9.54,9.54,0,0,1,0-1.31,27.44,27.44,0,0,1-15.54,4.59,25.12,25.12,0,0,1-11.92-2.9,36.51,36.51,0,0,1-7.82-5.88A57.39,57.39,0,0,1,227,111.69q-12.74,12.24-27.55,12.25a37.84,37.84,0,0,1-17-4.48,34.42,34.42,0,0,1-15.82-15.74,26.92,26.92,0,0,1-2.08,6.42q-3.48,6.94-10.66,7A14.28,14.28,0,0,1,142.35,112c-2.64-3.16-4.2-7.51-4.68-13.08a35,35,0,0,1-3.67,2.85,30.59,30.59,0,0,1-17.66,5.45q-18.2,0-26.35-7a17,17,0,0,1-5-7c-1.06,1.22-2.3,2.53-3.71,3.91q-8.88,8.67-16.46,8.69-5.31,0-7.38-1.55a11.72,11.72,0,0,1-3.38-4.73,20.87,20.87,0,0,1-2.85,2.71,17.22,17.22,0,0,1-10.76,4c-4.22,0-7.46-1-9.75-3s-3.42-5-3.42-8.83v-.92A20.74,20.74,0,0,1,24.54,96q-4,3-7.48,3a20.65,20.65,0,0,1-9.94-3,14.79,14.79,0,0,1-3.79-2.88,3.79,3.79,0,0,0-.48.58A15,15,0,0,0,0,102.42q0,5,6.08,5.07c1.48,0,4-.77,7.48-2.42,1.87-.86,3.28-1.49,4.25-1.88a17.3,17.3,0,0,0,4,12,15,15,0,0,0,11.78,5.45q7.66.09,14.28-6.32a35.57,35.57,0,0,0,4-4.58,32.41,32.41,0,0,0,6.66,8.39,15.88,15.88,0,0,0,10,3.48,16.17,16.17,0,0,0,10.18-3.91,18.38,18.38,0,0,0,5.45-6.18v.24q0,10.9,8.5,19.06,8,7.71,17.51,7.82,12.17.18,21.72-11.34a49.77,49.77,0,0,0,5.07-7.24q5.31,7.64,16,7.77a25.82,25.82,0,0,0,12.55-3.42,39.24,39.24,0,0,0,5.5-3.62q9.21,14.55,16.21,19.54,5.9,4.15,16.17,4.3,16.11.24,26.78-14.77a53,53,0,0,0,6-10.86,60.47,60.47,0,0,0,8.79,5.41,18.17,18.17,0,0,0,7.33,1.59q9,.09,15.64-7.43a44.61,44.61,0,0,0,3.28-4.35,73.12,73.12,0,0,0,6.75,8.83,16.74,16.74,0,0,0,11.92,5.26,14.84,14.84,0,0,0,13.32-6.8A24.48,24.48,0,0,0,307,111a16.27,16.27,0,0,0,6.47,1.16q5.94,0,12.26-4.1a26.45,26.45,0,0,0,4.53-3.77,12.36,12.36,0,0,0,3.57,7.63q3.44,3.33,9.41,3.42,8.44.09,12.65-4.82a12.64,12.64,0,0,0,2.8-6l.43.43a12.81,12.81,0,0,0,7.77,2.27,22.5,22.5,0,0,0,14.57-6.51Q396,105,399.75,98.35t-.29-10.81q-4-4.2-13.12-3.57V79.53M340,108.74a3.54,3.54,0,0,1-.53-2c0-2.42,1.67-3.51,5-3.29s5,1.32,5,3.38a3.43,3.43,0,0,1-.77,2.17,5,5,0,0,1-4.1,1.55q-3.44,0-4.59-1.79m-42.95,6.52c2.32-1.42,3.48-.93,3.48,1.49,0,.74-.61,1.59-1.84,2.56a5.35,5.35,0,0,1-2.84,1.4,2.15,2.15,0,0,1-2-1,2.49,2.49,0,0,1-.29-1.16c0-.77,1.17-1.87,3.52-3.28M395.73,94.2q0,3.42-4.29,3.42c-2.16,0-3.46-.59-3.91-1.78l0-1.64c0-2.7,1.38-3.93,4.15-3.67s4.1,1.48,4.1,3.67M383.43,98q-2.13,0-2.13-2.31c0-1.52.71-2.27,2.13-2.27s2.12.75,2.12,2.27a2.71,2.71,0,0,1-.34,1.3,1.86,1.86,0,0,1-1.78,1M260.54,110.72c1.51-.06,2.27.69,2.27,2.27a2.86,2.86,0,0,1-.53,1.54,2.22,2.22,0,0,1-1.93,1.11,1.9,1.9,0,0,1-2.14-1.63,2,2,0,0,1,0-.54c0-1.74.78-2.65,2.32-2.75M248.19,117c-.36-1.12-.53-1.72-.53-1.78,0-2.93,1.57-4.54,4.73-4.83a4.82,4.82,0,0,1,3.23.68,3,3,0,0,1,1.45,2.7,5,5,0,0,1-1,2.94,4.46,4.46,0,0,1-3.91,1.93c-1.89,0-3.21-.54-3.95-1.64M197,131.38a14.09,14.09,0,0,1,5.35-1.16q7.72-.39,7.72,3.52a5.13,5.13,0,0,1-1,3.14,5.65,5.65,0,0,1-4.73,1.93,14.53,14.53,0,0,1-7.62-1.69q-2.13-1.35-2.13-3c0-1.1.81-2,2.42-2.75m18.38,2.7a1.83,1.83,0,0,1-1.83-1,2.39,2.39,0,0,1-.29-1.2c0-1.35.88-2.27,2.65-2.75s2.61.16,2.61,1.93a3.13,3.13,0,0,1-.77,1.83,2.92,2.92,0,0,1-2.37,1.21M23,109.9q0-4.2,4.3-3.09t4.29,4.78a4.43,4.43,0,0,1-.34,2,2.82,2.82,0,0,1-2.8,1.35A5,5,0,0,1,24,112.46l-1-2.56m13.46,6.76a2.17,2.17,0,0,1-2-1,2.27,2.27,0,0,1-.29-1.16c0-1.35.77-2.1,2.31-2.27s2.27.52,2.27,2.13a2,2,0,0,1-1.69,2.27,1.88,1.88,0,0,1-.58,0M93,121.89c0-2,.73-3.28,2.18-3.86a6.52,6.52,0,0,1,4.72.24,12.13,12.13,0,0,1,4.73,2.84,5.88,5.88,0,0,1,2.18,4.11,5.29,5.29,0,0,1-.54,2.65c-.61,1.13-1.78,1.69-3.52,1.69a9.39,9.39,0,0,1-7.53-3.81Q93,121.94,93,121.89m19.89,5.84a4.57,4.57,0,0,1-.83,2.41c-.61,1-1.27,1.45-2,1.45-1.42,0-2.13-.76-2.13-2.27,0-2.29.82-3.57,2.46-3.86s2.47.46,2.47,2.27M68.3,115.23a2,2,0,0,1-.57,1.4,2,2,0,0,1-1.5.72q-2.7,0-3.72-1.5L62,114.34c0-2,1-2.65,3.14-1.93s3.14,1.6,3.14,2.85Z"/><path class="cls-2" d="M67.71,116.66a2,2,0,0,0,.57-1.4c0-1.23-1-2.17-3.13-2.85S62,112.34,62,114.34l.48,1.54q1,1.5,3.72,1.5a2,2,0,0,0,1.5-.72M112,130.17a4.57,4.57,0,0,0,.83-2.41c0-1.81-.83-2.56-2.47-2.27s-2.46,1.57-2.46,3.86c0,1.51.71,2.27,2.13,2.27.7,0,1.36-.49,2-1.45M95.12,118.06c-1.45.58-2.18,1.86-2.18,3.86a5.17,5.17,0,0,0,2.22,3.86,9.39,9.39,0,0,0,7.53,3.81c1.74,0,2.91-.56,3.52-1.69a5.29,5.29,0,0,0,.54-2.65,5.88,5.88,0,0,0-2.18-4.11,12.13,12.13,0,0,0-4.73-2.84,6.52,6.52,0,0,0-4.72-.24m-60.71-2.37a2.17,2.17,0,0,0,2,1A2,2,0,0,0,38.68,115a1.88,1.88,0,0,0,0-.58c0-1.61-.75-2.32-2.27-2.13s-2.31.92-2.31,2.27a2.27,2.27,0,0,0,.29,1.16m-7.14-8.88Q23,105.7,23,109.9l1,2.56A5,5,0,0,0,28.42,115a2.82,2.82,0,0,0,2.8-1.35,4.43,4.43,0,0,0,.34-2q0-3.68-4.29-4.78m186.32,26.25a1.83,1.83,0,0,0,1.83,1,2.92,2.92,0,0,0,2.37-1.21,3.13,3.13,0,0,0,.77-1.83c0-1.77-.87-2.42-2.61-1.93s-2.65,1.4-2.65,2.75a2.39,2.39,0,0,0,.29,1.2m-11.2-2.84a14.09,14.09,0,0,0-5.35,1.16c-1.61.73-2.42,1.65-2.42,2.75s.71,2.09,2.13,3a14.53,14.53,0,0,0,7.62,1.69,5.65,5.65,0,0,0,4.73-1.93,5.13,5.13,0,0,0,1-3.14q0-3.92-7.72-3.52m45.27-15c0,.06.17.66.53,1.78.74,1.1,2.06,1.64,3.95,1.64a4.46,4.46,0,0,0,3.91-1.93,5,5,0,0,0,1-2.94,3,3,0,0,0-1.45-2.7,4.82,4.82,0,0,0-3.23-.68c-3.16.29-4.73,1.9-4.73,4.83M262.81,113c0-1.58-.76-2.33-2.27-2.27s-2.32,1-2.32,2.75a1.9,1.9,0,0,0,1.59,2.16,2,2,0,0,0,.54,0,2.22,2.22,0,0,0,1.93-1.11,2.86,2.86,0,0,0,.53-1.54M381.28,95.62q0,2.31,2.13,2.31a1.86,1.86,0,0,0,1.78-1,2.71,2.71,0,0,0,.34-1.3c0-1.52-.71-2.27-2.12-2.27s-2.13.75-2.13,2.27m10.14,2q4.29,0,4.29-3.42c0-2.28-1.37-3.51-4.1-3.67s-4.15,1-4.15,3.67l.05,1.64c.45,1.19,1.75,1.78,3.91,1.78m-90.87,19.16q0-3.62-3.48-1.49c-2.35,1.41-3.52,2.51-3.52,3.28a2.49,2.49,0,0,0,.29,1.16,2.15,2.15,0,0,0,2,1,5.35,5.35,0,0,0,2.84-1.4c1.23-1,1.84-1.82,1.84-2.56m38.94-10a3.54,3.54,0,0,0,.53,2q1.15,1.77,4.59,1.79c1.93,0,3.29-.52,4.1-1.55a3.43,3.43,0,0,0,.77-2.17c0-2.06-1.66-3.18-5-3.38s-5,.87-5,3.29m46.86-27.27v-.1a33.41,33.41,0,0,0-.68-7.33q-2-8.7-10.23-8.78a19,19,0,0,0-7.48,1.4,19.71,19.71,0,0,0-2.07,1,14.12,14.12,0,0,0-4-7.14q-5.7-5.9-16.31-6a16.43,16.43,0,0,0-7.38,1.69,81.6,81.6,0,0,0-1.26-9.6q-4-20.9-16.94-21a26.24,26.24,0,0,0-18.43,7,32.65,32.65,0,0,0-5.16,5.79A38.49,38.49,0,0,0,289,15.51Q277.74.36,252,0q-28-.39-41.5,18.1a43.57,43.57,0,0,0-4.92,8.79,27.75,27.75,0,0,0-8.5-7,38.93,38.93,0,0,0-18.48-4.63Q160.6,15,149.21,24a33.61,33.61,0,0,0-3.52,3.23A53.16,53.16,0,0,0,136.57,17Q124.08,5.85,111.72,5.71q-8-.13-17.52,4.2A65.8,65.8,0,0,0,75.86,22.36Q61.43,36,57.28,53.34,53.08,47.07,46.09,47q-4.87,0-8.26,5.17a22.47,22.47,0,0,0-4,11.82c-.13,4,.21,7,1,9a15.31,15.31,0,0,0-9.17-3.71q-7.1-.39-9.31,9A36.3,36.3,0,0,0,15.59,91a13,13,0,0,1-3.14-.72,12.37,12.37,0,0,0-3-.77q-3.33-.06-6.08,3.57A14.89,14.89,0,0,0,7.14,96a20.65,20.65,0,0,0,9.94,3q3.48,0,7.48-3a20.74,20.74,0,0,0,2.75-2.46v.92q0,5.75,3.42,8.83c2.29,2,5.53,3,9.75,3a17.22,17.22,0,0,0,10.76-4,20.87,20.87,0,0,0,2.85-2.71,11.72,11.72,0,0,0,3.38,4.73q2.07,1.53,7.38,1.55,7.58,0,16.46-8.69C82.72,95.8,84,94.49,85,93.27a17.05,17.05,0,0,0,4.92,6.85q8.16,7,26.35,7A30.59,30.59,0,0,0,134,101.67a35,35,0,0,0,3.67-2.85c.48,5.57,2,9.92,4.68,13.08a14.28,14.28,0,0,0,11.54,5.16q7.18,0,10.66-7a26.92,26.92,0,0,0,2.08-6.42,34.42,34.42,0,0,0,15.82,15.74,37.84,37.84,0,0,0,17,4.48q14.82,0,27.55-12.25a57.47,57.47,0,0,0,11.68-15.54,36.51,36.51,0,0,0,7.82,5.88,25.12,25.12,0,0,0,11.92,2.9,27.44,27.44,0,0,0,15.54-4.59,9.54,9.54,0,0,0,0,1.31,13,13,0,0,0,3,8.93q3.38,3.85,9.7,3.86,7.53,0,10.18-5.17,1.69-3.24,1.69-10a14.46,14.46,0,0,0-.19-2.55,24,24,0,0,0,5.69,4,22.51,22.51,0,0,0,10.33,2.51q9.36,0,18.77-8.83c.58-.55,1.16-1.11,1.74-1.69a5.2,5.2,0,0,0,2.18,4.1c1.29.86,3.3,1.3,6,1.3a17.73,17.73,0,0,0,14.14-6.81c.22-.25.43-.5.63-.77a12.39,12.39,0,0,0,4.49,4.49,15,15,0,0,0,7.09,1.35,12.05,12.05,0,0,0,8.74-3.42A10.52,10.52,0,0,0,381.47,85a11.64,11.64,0,0,0-.09-1.45,14.39,14.39,0,0,0,4.39-3.47Z"/></g></g><path class="cls-3" d="M77.28,48.34l-.23.95c-.63.05-1.45.1-2.47.15l-2.47.13v4.2a6.73,6.73,0,0,1,1.73-.26,4.19,4.19,0,0,1,3.29,1.37,5,5,0,0,1,1.23,3.46,2.71,2.71,0,0,1-.93,2,5.59,5.59,0,0,1-2.17,1.24,8.24,8.24,0,0,1-2.5.38,3.16,3.16,0,0,1-2.14-.55q.06-1.61.12-6.23t.18-6.88Zm-5.15,6.28v.43c0,.27,0,.82,0,1.66s0,2,0,3.36a1.82,1.82,0,0,0,1.43.63,3.37,3.37,0,0,0,2.23-1,2.71,2.71,0,0,0,1.08-2,3,3,0,0,0-1-2.34,3.66,3.66,0,0,0-2.52-.89A6.32,6.32,0,0,0,72.13,54.62Z"/><path class="cls-3" d="M77.5,63.6l-.3-.8A3,3,0,0,0,78.31,62,5.4,5.4,0,0,0,79.12,61a6.21,6.21,0,0,0,.54-1.42c.15-.57.25-1.07.32-1.5s.12-1,.16-1.58.06-1.11.06-1.43,0-.74,0-1.27a2.53,2.53,0,0,1,.21-1.36q.26-.27,2.88-.27c1.37,0,2.15,0,2.34,0q0,7.55.19,9.79c-.13.37-.34.56-.65.56a1,1,0,0,1-.62-.26,1.14,1.14,0,0,1-.37-.64c0-.48,0-1.2,0-2.16,0-.47,0-1.18,0-2.14s0-1.67,0-2.16c0-.89,0-1.56,0-2a10.16,10.16,0,0,1-1.54.15,10.2,10.2,0,0,0-1.08.06c0,.41-.07,1-.09,1.82s0,1.52-.07,2.13a13.16,13.16,0,0,1-.23,2.09,7.8,7.8,0,0,1-.58,2,4.22,4.22,0,0,1-3.08,2.3Z"/><path class="cls-3" d="M88,53.9,87.63,53a3.44,3.44,0,0,1,1.23-.77,4,4,0,0,1,1.46-.29q3.15,0,3.15,5.43,0,.75-.09,2.19c0,1-.08,1.69-.08,2.18s-.29.57-.58.57a.79.79,0,0,1-.61-.33,1.1,1.1,0,0,1-.28-.74.78.78,0,0,1,0-.19,3.51,3.51,0,0,1-2.45,1.11,2.48,2.48,0,0,1-2.46-2.45,4.38,4.38,0,0,1,1.35-3.12,4.16,4.16,0,0,1,3.06-1.4h.15l.17,0,.16,0c-.1-1.44-.68-2.16-1.73-2.16A3.71,3.71,0,0,0,88,53.9Zm3.89,5.82c0-.87,0-1.53,0-2s0-.9,0-1.56h-.15a3.64,3.64,0,0,0-2.41,1,3.06,3.06,0,0,0-1.09,2.34,1.24,1.24,0,0,0,.37,1,1.18,1.18,0,0,0,.88.35A5,5,0,0,0,91.89,59.72Z"/><path class="cls-3" d="M95.34,52.39l2.42-.25,2.28-.23a1.11,1.11,0,0,1,.79.35.94.94,0,0,1,.33.69c0,.37-.25.58-.74.63l-2.07-.18-2.12-.19c0,.76.09,2,.23,3.68s.2,3,.2,3.89-.3,1.15-.92,1.15-.77-.35-.77-1,0-1.7.06-2.63.09-2,.16-3.22S95.32,53,95.34,52.39Z"/><path class="cls-3" d="M101.9,58a10.18,10.18,0,0,1,.16-1.65,15.72,15.72,0,0,1,.47-1.92,4.33,4.33,0,0,1,1-1.67,2,2,0,0,1,1.47-.67,3.3,3.3,0,0,1,2.86,1.61,6.25,6.25,0,0,1,1.08,3.57,7.83,7.83,0,0,1-.18,1.67,7.52,7.52,0,0,1-.54,1.62,3.49,3.49,0,0,1-1.07,1.33,3,3,0,0,1-1.63.61A3.77,3.77,0,0,1,102.83,61,4.93,4.93,0,0,1,101.9,58ZM105.06,53c-.43,0-.8.44-1.09,1.19a8.69,8.69,0,0,0-.58,2.16,14.66,14.66,0,0,0-.13,1.85,3.17,3.17,0,0,0,.64,1.92,1.81,1.81,0,0,0,1.44.89,1.47,1.47,0,0,0,1-.45,3.23,3.23,0,0,0,.74-1.11,8.3,8.3,0,0,0,.4-1.32,5.52,5.52,0,0,0,.14-1.19,5.08,5.08,0,0,0-.68-2.66A2.51,2.51,0,0,0,105.06,53Z"/><path class="cls-3" d="M109.8,53.4l-.17-.82q2.5-.15,7.86-.41a1.12,1.12,0,0,1,.77.34.93.93,0,0,1,.31.66c0,.38-.24.59-.74.64l-3.48-.17c.07.93.1,2.28.11,4.06s0,3.08.06,3.89a.66.66,0,0,1-.66.54.92.92,0,0,1-.62-.26,1.08,1.08,0,0,1-.37-.63q.25-4.58.54-7.67Z"/><path class="cls-3" d="M119.73,52.39a27.59,27.59,0,0,1,3.51-.61c1.66,0,2.49.71,2.49,2.14a4.2,4.2,0,0,1-.25,1.44,1.73,1.73,0,0,1-.63.92A3.1,3.1,0,0,1,126.3,59a3.18,3.18,0,0,1-1.06,2.55,4.21,4.21,0,0,1-2.82.91,4,4,0,0,1-3.1-1.12Zm.87.82.13,2.88c.19,0,.47,0,.86-.05a6.49,6.49,0,0,0,.93-.09,2.69,2.69,0,0,0,.79-.28,1.51,1.51,0,0,0,.68-.76,4.41,4.41,0,0,0,.34-1.42c-.12-.37-.5-.56-1.13-.56a12.13,12.13,0,0,0-1.35.13C121.24,53.15,120.82,53.2,120.6,53.21Zm.18,3.85.17,3.77a2.39,2.39,0,0,0,1.06.22,3.46,3.46,0,0,0,2.12-.72,2.1,2.1,0,0,0,1-1.69,1.83,1.83,0,0,0-.52-1.24,1.74,1.74,0,0,0-1.32-.56C123,56.84,122.12,56.91,120.78,57.06Z"/><path class="cls-3" d="M127.81,58a9.17,9.17,0,0,1,.16-1.65,14.07,14.07,0,0,1,.47-1.92,4.2,4.2,0,0,1,.95-1.67,2,2,0,0,1,1.47-.67,3.3,3.3,0,0,1,2.86,1.61,6.25,6.25,0,0,1,1.08,3.57,7.83,7.83,0,0,1-.18,1.67,7.56,7.56,0,0,1-.55,1.62A3.31,3.31,0,0,1,133,61.86a3,3,0,0,1-1.62.61A3.77,3.77,0,0,1,128.74,61,4.93,4.93,0,0,1,127.81,58ZM131,53c-.43,0-.8.44-1.1,1.19a8.65,8.65,0,0,0-.57,2.16,14.66,14.66,0,0,0-.13,1.85,3.17,3.17,0,0,0,.64,1.92,1.81,1.81,0,0,0,1.44.89,1.47,1.47,0,0,0,1-.45,3.2,3.2,0,0,0,.73-1.11,7.42,7.42,0,0,0,.41-1.32,6.23,6.23,0,0,0,.14-1.19,5,5,0,0,0-.69-2.66A2.49,2.49,0,0,0,131,53Z"/><path class="cls-3" d="M136.53,52.15l1,.19a4.21,4.21,0,0,0,0,.57,3.81,3.81,0,0,1,2.06-.65,3,3,0,0,1,2.64,1.45,5.92,5.92,0,0,1,1,3.29,11.36,11.36,0,0,1-.14,1.78,8.58,8.58,0,0,1-.5,1.73,3,3,0,0,1-1.08,1.41,3,3,0,0,1-1.78.53,3.69,3.69,0,0,1-1.89-.52c.05,2.17.09,3.78.13,4.83-.12.38-.33.58-.65.58a1,1,0,0,1-.65-.27,1.17,1.17,0,0,1-.38-.66Zm1.2,2,.06,6a1.74,1.74,0,0,0,.69.71,2,2,0,0,0,1,.27,1.78,1.78,0,0,0,1.24-.46,2.51,2.51,0,0,0,.72-1.24,11.12,11.12,0,0,0,.3-1.43,12.74,12.74,0,0,0,.08-1.41c0-2.1-.71-3.15-2.14-3.15a4,4,0,0,0-1.27.19A1,1,0,0,0,137.73,54.14Z"/><path class="cls-3" d="M146.38,60.39c0,.21,0,.49,0,.83s-.33.58-.65.58a1,1,0,0,1-.64-.27,1.17,1.17,0,0,1-.38-.66c0-1,.08-2.47.14-4.41s.1-3.24.12-3.92l.86-.15a21.64,21.64,0,0,1,.27,3.16q.06,2,.15,2.94c.24-.35.91-1.25,2-2.71a33.41,33.41,0,0,0,2.25-3.27,4.44,4.44,0,0,1,.52-.08.49.49,0,0,1,.49.32,3.66,3.66,0,0,1,.18,1.19l.35,7.65a.65.65,0,0,1-.65.56,1,1,0,0,1-.64-.27,1.17,1.17,0,0,1-.38-.66c0-.41.05-1.41.1-3s.1-2.72.14-3.39A37.73,37.73,0,0,0,146.38,60.39Z"/><path class="cls-3" d="M153,53.4l-.17-.82q2.5-.15,7.86-.41a1.12,1.12,0,0,1,.77.34.93.93,0,0,1,.31.66c0,.38-.24.59-.74.64l-3.48-.17c.07.93.1,2.28.11,4.06s0,3.08.06,3.89a.66.66,0,0,1-.66.54.92.92,0,0,1-.62-.26,1.08,1.08,0,0,1-.37-.63q.25-4.58.54-7.67Z"/><path class="cls-3" d="M170,60.13l.18.81a20.31,20.31,0,0,1-2.42.66,12.47,12.47,0,0,1-2.39.37,2.05,2.05,0,0,1-1.4-.53,3.4,3.4,0,0,1-.89-1.36,9.24,9.24,0,0,1-.43-1.64,8.62,8.62,0,0,1-.14-1.59q0-4.64,4.2-4.64a2.63,2.63,0,0,1,1.76.64,2.06,2.06,0,0,1,.76,1.66,1.7,1.7,0,0,1-.3,1,2.55,2.55,0,0,1-.75.68,5.42,5.42,0,0,1-1.11.45,9.52,9.52,0,0,1-1.2.3l-1.24.2-1,.17c0,.36,0,.68.07,1a5.3,5.3,0,0,0,.18.88,2.36,2.36,0,0,0,.37.78,1.73,1.73,0,0,0,.64.51,2.13,2.13,0,0,0,1,.21,13.72,13.72,0,0,0,1.64-.12c.64-.08,1.21-.17,1.72-.25Zm-6.3-4a24.41,24.41,0,0,0,4.14-1.53,2.28,2.28,0,0,0-.35-.89.82.82,0,0,0-.67-.28,3.12,3.12,0,0,0-2.06.78A2.91,2.91,0,0,0,163.72,56.15Z"/><path class="cls-3" d="M169,63.6l-.3-.8a3,3,0,0,0,1.11-.76,5.74,5.74,0,0,0,.8-1.09,6.21,6.21,0,0,0,.54-1.42q.22-.86.33-1.5c.07-.42.12-1,.16-1.58s.05-1.11.06-1.43,0-.74,0-1.27a2.68,2.68,0,0,1,.2-1.36,7.34,7.34,0,0,1,2.89-.27c1.37,0,2.15,0,2.34,0q0,7.55.18,9.79a.68.68,0,0,1-.65.56.94.94,0,0,1-.61-.26,1.14,1.14,0,0,1-.37-.64c0-.48,0-1.2,0-2.16,0-.47,0-1.18,0-2.14s0-1.67,0-2.16c0-.89,0-1.56,0-2a10.29,10.29,0,0,1-1.54.15,10.2,10.2,0,0,0-1.08.06c0,.41-.07,1-.09,1.82s0,1.52-.07,2.13a16,16,0,0,1-.23,2.09,7.79,7.79,0,0,1-.59,2,4,4,0,0,1-1.17,1.45A4.18,4.18,0,0,1,169,63.6Z"/><path class="cls-3" d="M178.84,52.51l.84.18c0,.4.06.86.12,1.4s.12,1.14.2,1.82a4.83,4.83,0,0,1,1.41-.23,3.71,3.71,0,0,1,1.49.31,3.72,3.72,0,0,1,1.93,1.95,3.39,3.39,0,0,1,.28,1.31,2.61,2.61,0,0,1-.28,1.19,2.92,2.92,0,0,1-.75.92A3.49,3.49,0,0,1,183,62a4,4,0,0,1-1.3.21l-.58,0c-.3,0-.61,0-.94-.08a6.19,6.19,0,0,1-.88-.18c-.26-.07-.4-.18-.41-.31s0-.5,0-.87,0-.77,0-1.22,0-.91,0-1.4,0-1,0-1.42,0-.88,0-1.27,0-.68,0-.91C178.79,53.8,178.81,53.14,178.84,52.51Zm1.32,4.57L180,60.8a4.27,4.27,0,0,0,1.4.25,2.43,2.43,0,0,0,.95-.17,2.22,2.22,0,0,0,.73-.46,2,2,0,0,0,.47-.66,1.91,1.91,0,0,0,.16-.78,1.79,1.79,0,0,0-.16-.76,1.72,1.72,0,0,0-.5-.64,2.47,2.47,0,0,0-.82-.44,3.64,3.64,0,0,0-1.09-.15,3.47,3.47,0,0,0-.44,0Z"/><path class="cls-3" d="M191.8,52.51l.83.18.43,9a.65.65,0,0,1-.65.55,1,1,0,0,1-.65-.27,1.13,1.13,0,0,1-.39-.66s.06-1.08.17-3.14V58c-.35,0-.86,0-1.54,0a19,19,0,0,1-2.31-.1q.09,1.08.24,3.48c-.11.38-.33.58-.65.58a1,1,0,0,1-.65-.27,1.13,1.13,0,0,1-.39-.66q.06-.93.06-1.86c0-.4,0-1,0-1.79s0-1.38,0-1.76c0-1.19,0-2.19.11-3l.85.2c.25,2.69.38,4.07.4,4.15l3.25.16c.51,0,.76,0,.76-.09,0-.25,0-1,.07-2.36S191.79,52.64,191.8,52.51Z"/><path class="cls-3" d="M194.62,52.51l.84.18c0,.4.06.86.12,1.4s.12,1.14.19,1.82a4.94,4.94,0,0,1,1.42-.23,3.63,3.63,0,0,1,1.48.31,3.81,3.81,0,0,1,1.18.81,3.85,3.85,0,0,1,.76,1.14,3.39,3.39,0,0,1,.28,1.31,2.88,2.88,0,0,1-.25,1.19,2.68,2.68,0,0,1-.71.92,3.32,3.32,0,0,1-1.08.6,4.24,4.24,0,0,1-1.37.21c-.29,0-.61,0-.94-.05s-.64-.07-.91-.12a4.78,4.78,0,0,1-.68-.17q-.27-.11-.27-.24c0-.19,0-.48,0-.85s0-.78,0-1.23,0-.91,0-1.41,0-1,0-1.43,0-.88,0-1.26,0-.68,0-.92C194.57,53.8,194.59,53.14,194.62,52.51Zm1.32,4.57-.17,3.72a4.38,4.38,0,0,0,1.41.25,2.43,2.43,0,0,0,.95-.17,2.16,2.16,0,0,0,1.2-1.12,1.91,1.91,0,0,0,.16-.78,1.79,1.79,0,0,0-.16-.76,1.83,1.83,0,0,0-.5-.64,2.57,2.57,0,0,0-.82-.44,3.64,3.64,0,0,0-1.09-.15,3.47,3.47,0,0,0-.44,0Zm5.8-4.63.84.19c.08,1,.18,2.2.28,3.68s.2,3.23.31,5.24a.65.65,0,0,1-.65.55,1,1,0,0,1-.64-.27,1.11,1.11,0,0,1-.38-.65c0-.19,0-.49,0-.92s0-.9,0-1.45,0-1.12,0-1.74,0-1.22,0-1.8,0-1.13.05-1.63S201.72,52.75,201.74,52.45Z"/><path class="cls-3" d="M206.31,60.39c0,.21,0,.49,0,.83s-.33.58-.65.58a1,1,0,0,1-.64-.27,1.12,1.12,0,0,1-.38-.66c0-1,.08-2.47.14-4.41s.09-3.24.12-3.92l.85-.15a20.14,20.14,0,0,1,.28,3.16q.06,2,.15,2.94c.24-.35.9-1.25,2-2.71a33.41,33.41,0,0,0,2.25-3.27,4.15,4.15,0,0,1,.52-.08.5.5,0,0,1,.49.32,4,4,0,0,1,.18,1.19l.35,7.65a.65.65,0,0,1-.65.56,1,1,0,0,1-.64-.27,1.12,1.12,0,0,1-.38-.66c0-.41,0-1.41.1-3s.1-2.72.14-3.39A38,38,0,0,0,206.31,60.39Zm.06-10-.13-.58a6.58,6.58,0,0,0,.87.06,4.22,4.22,0,0,0,2.36-.71,1.42,1.42,0,0,1,.73.26.64.64,0,0,1,.3.52.51.51,0,0,1-.17.39,1.11,1.11,0,0,1-.5.22,5.29,5.29,0,0,1-.56.07h-.6A10.74,10.74,0,0,1,206.37,50.37Z"/><path class="cls-3" d="M223.63,67.11l-.94-.18c-.05-1-.08-2.63-.08-5a4.26,4.26,0,0,1-3-1,3.74,3.74,0,0,1-1.11-2.85,6.65,6.65,0,0,1,1.16-3.86,3.7,3.7,0,0,1,3.19-1.71c0-.29,0-.63,0-1s0-1.07.07-2v-.15a1,1,0,0,1,.62-.19,1.43,1.43,0,0,1,.74.19c-.08,1.16-.11,2.06-.11,2.69v.52h.13a3.24,3.24,0,0,1,2.66,1.82,7,7,0,0,1,1.17,3.81,3.69,3.69,0,0,1-1.14,2.73A3.77,3.77,0,0,1,224.17,62l-.35,0q0,1.21-.09,2.52C223.69,65.41,223.66,66.27,223.63,67.11Zm-1-6.33c0-.6,0-1.5.14-2.72s.14-2.13.14-2.75a13.44,13.44,0,0,0-.09-1.67l-.16,0-.21,0a2.35,2.35,0,0,0-2,1.32,5.54,5.54,0,0,0-.8,2.91,3.6,3.6,0,0,0,.61,2.16,2.06,2.06,0,0,0,1.79.86A4.3,4.3,0,0,0,222.61,60.78Zm1.45-7-.24,7H224a2.67,2.67,0,0,0,2.13-.8,3,3,0,0,0,.69-2A5,5,0,0,0,226,55.2,2.5,2.5,0,0,0,224.06,53.83Z"/><path class="cls-3" d="M229.21,58a9.17,9.17,0,0,1,.16-1.65,14.07,14.07,0,0,1,.47-1.92,4.2,4.2,0,0,1,.95-1.67,2,2,0,0,1,1.47-.67,3.3,3.3,0,0,1,2.86,1.61,6.25,6.25,0,0,1,1.08,3.57,7.83,7.83,0,0,1-.18,1.67,7.56,7.56,0,0,1-.55,1.62,3.4,3.4,0,0,1-1.07,1.33,3,3,0,0,1-1.62.61A3.77,3.77,0,0,1,230.14,61,4.93,4.93,0,0,1,229.21,58ZM232.37,53c-.44,0-.8.44-1.1,1.19a8.24,8.24,0,0,0-.57,2.16,14.66,14.66,0,0,0-.13,1.85,3.17,3.17,0,0,0,.64,1.92,1.78,1.78,0,0,0,1.44.89,1.47,1.47,0,0,0,1-.45,3.2,3.2,0,0,0,.73-1.11,7.42,7.42,0,0,0,.41-1.32A6.23,6.23,0,0,0,235,57a5,5,0,0,0-.69-2.66A2.49,2.49,0,0,0,232.37,53Z"/><path class="cls-3" d="M243.26,52.51l.84.18.42,9a.65.65,0,0,1-.65.55,1,1,0,0,1-.65-.27,1.13,1.13,0,0,1-.39-.66s.06-1.08.17-3.14V58c-.34,0-.86,0-1.54,0a19,19,0,0,1-2.31-.1q.09,1.08.24,3.48c-.11.38-.33.58-.65.58a1,1,0,0,1-.65-.27,1.13,1.13,0,0,1-.39-.66q.06-.93.06-1.86c0-.4,0-1,0-1.79s0-1.38,0-1.76c0-1.19,0-2.19.11-3l.85.2c.25,2.69.39,4.07.4,4.15l3.25.16c.51,0,.76,0,.76-.09,0-.25,0-1,.08-2.36S243.25,52.64,243.26,52.51Z"/><path class="cls-3" d="M246.24,64.36l-.83-.18c0-.14,0-.54-.07-1.21s-.07-1.15-.07-1.45a7.8,7.8,0,0,1,0-.8h1.21c.06-.21.16-.53.31-.95s.24-.72.28-.89.13-.43.22-.77a6.78,6.78,0,0,0,.18-.87c0-.25.07-.55.1-.91s0-.73,0-1.13c0-.93,0-2-.11-3.14.7,0,1.43.06,2.2.07l1.91.06a13.59,13.59,0,0,1,1.52.17c0,.84.08,2.22.12,4.15s.09,3.31.13,4.15h1.45v.56c0,.32,0,.78,0,1.38s0,1,0,1.19a6.23,6.23,0,0,1,0,.85l-.83-.18a5.72,5.72,0,0,1-.14-.66c0-.27-.09-.56-.14-.87s-.09-.53-.11-.67c-.71,0-1.84-.11-3.38-.22s-2.76-.19-3.63-.22Zm2.87-11.15q0,.28,0,1.17c0,.59,0,1-.05,1.35s-.06.74-.11,1.29a13.31,13.31,0,0,1-.21,1.38,9.11,9.11,0,0,1-.39,1.19,4.82,4.82,0,0,1-.58,1.11h4l.37-7.34-1.36,0C250.07,53.28,249.51,53.25,249.11,53.21Z"/><path class="cls-3" d="M262.25,52.13l-.83-.2-.43-3a.88.88,0,0,1,.22-.56.63.63,0,0,1,.43-.19,1,1,0,0,1,.7.32,1.12,1.12,0,0,1,.34.78Zm2.53,0-.85-.2-.41-3c.05-.5.26-.75.64-.75a1,1,0,0,1,.7.32,1.09,1.09,0,0,1,.35.78Z"/><path class="cls-3" d="M269.89,48.45l1.4.1a49.52,49.52,0,0,0,2.13,6.51,61.83,61.83,0,0,1,2.14,6.29,1.38,1.38,0,0,1-.19.81.53.53,0,0,1-.46.27.74.74,0,0,1-.46-.19,1,1,0,0,1-.28-.55,29.2,29.2,0,0,0-1.08-3.27c-2.54-.33-4.14-.52-4.8-.6A20.87,20.87,0,0,0,267.7,60c-.24,1-.42,1.69-.56,2.08a.81.81,0,0,1-.63.33.84.84,0,0,1-.67-.34,1.28,1.28,0,0,1-.28-.85q.6-2.17,2.16-6.39T269.89,48.45Zm.64,1.88a36.41,36.41,0,0,1-2,6.6h2.07c.94,0,1.73,0,2.36.09A29,29,0,0,1,270.53,50.33Z"/><path class="cls-3" d="M274.33,63.6l-.29-.8a3,3,0,0,0,1.1-.76A5.4,5.4,0,0,0,276,61a6.21,6.21,0,0,0,.54-1.42q.22-.86.33-1.5c.06-.42.12-1,.15-1.58S277,55.34,277,55s0-.74,0-1.27a2.68,2.68,0,0,1,.2-1.36c.17-.18,1.14-.27,2.88-.27,1.38,0,2.16,0,2.34,0q0,7.55.19,9.79a.68.68,0,0,1-.65.56.92.92,0,0,1-.61-.26,1.15,1.15,0,0,1-.38-.64c0-.48,0-1.2,0-2.16,0-.47,0-1.18,0-2.14V55.09c0-.89,0-1.56,0-2a10.29,10.29,0,0,1-1.55.15,10.15,10.15,0,0,0-1.07.06c0,.41-.07,1-.1,1.82s0,1.52-.06,2.13a16,16,0,0,1-.23,2.09,8.22,8.22,0,0,1-.59,2,4,4,0,0,1-1.17,1.45A4.17,4.17,0,0,1,274.33,63.6Z"/><path class="cls-3" d="M284.22,52.51l.84.18c0,.4.06.86.12,1.4s.12,1.14.19,1.82a4.94,4.94,0,0,1,1.42-.23,3.76,3.76,0,0,1,3.42,2.26,3.38,3.38,0,0,1,.27,1.31,2.6,2.6,0,0,1-.27,1.19,2.92,2.92,0,0,1-.75.92,3.54,3.54,0,0,1-1.08.6,3.94,3.94,0,0,1-1.3.21l-.57,0c-.3,0-.61,0-.94-.08a6.19,6.19,0,0,1-.88-.18c-.26-.07-.4-.18-.41-.31s0-.5,0-.87,0-.77,0-1.22,0-.91,0-1.4,0-1,0-1.42,0-.88,0-1.27v-.91C284.17,53.8,284.18,53.14,284.22,52.51Zm1.32,4.57-.17,3.72a4.38,4.38,0,0,0,1.41.25,2.47,2.47,0,0,0,1-.17,2.33,2.33,0,0,0,.73-.46,2,2,0,0,0,.46-.66,1.77,1.77,0,0,0,.17-.78,1.66,1.66,0,0,0-.17-.76,1.62,1.62,0,0,0-.5-.64,2.42,2.42,0,0,0-.81-.44,3.64,3.64,0,0,0-1.09-.15,3.39,3.39,0,0,0-.44,0Z"/><path class="cls-3" d="M291.75,52.64l6.26,0,.43,9a.65.65,0,0,1-.65.55,1,1,0,0,1-.65-.27,1.13,1.13,0,0,1-.39-.66c0-.22,0-.92.06-2.11s.07-2.31.1-3.4S297,54,297,53.71c-.35,0-.86,0-1.54,0a21.26,21.26,0,0,1-2.33-.11c0,.4.07,1.72.1,3.94s0,3.52.07,3.88-.33.58-.65.58a1,1,0,0,1-.64-.27,1.12,1.12,0,0,1-.38-.66c0-.62.05-1.24.05-1.86,0-.32,0-.86,0-1.6s0-1.33,0-1.77C291.64,54.54,291.67,53.48,291.75,52.64Z"/><path class="cls-3" d="M300.61,53.9l-.37-.95a3.44,3.44,0,0,1,1.23-.77,4,4,0,0,1,1.47-.29q3.13,0,3.14,5.43,0,.75-.09,2.19c-.05,1-.08,1.69-.08,2.18s-.29.57-.58.57a.81.81,0,0,1-.61-.33,1.1,1.1,0,0,1-.28-.74.78.78,0,0,1,0-.19A3.51,3.51,0,0,1,302,62.11a2.48,2.48,0,0,1-2.46-2.45,4.38,4.38,0,0,1,1.35-3.12,4.16,4.16,0,0,1,3.06-1.4h.15l.17,0,.16,0c-.1-1.44-.67-2.16-1.73-2.16A3.71,3.71,0,0,0,300.61,53.9Zm3.89,5.82c0-.87,0-1.53,0-2s0-.9,0-1.56h-.15a3.64,3.64,0,0,0-2.41,1,3.06,3.06,0,0,0-1.09,2.34,1.24,1.24,0,0,0,.37,1,1.18,1.18,0,0,0,.88.35A5,5,0,0,0,304.5,59.72Z"/><path class="cls-3" d="M307.81,52.15l1,.19c0,.26,0,.45,0,.57a3.87,3.87,0,0,1,2.07-.65,3,3,0,0,1,2.64,1.45,5.91,5.91,0,0,1,.94,3.29,11.38,11.38,0,0,1-.13,1.78,8.58,8.58,0,0,1-.5,1.73,3,3,0,0,1-1.09,1.41,3,3,0,0,1-1.77.53,3.75,3.75,0,0,1-1.9-.52c.05,2.17.1,3.78.13,4.83-.11.38-.32.58-.65.58a1,1,0,0,1-.64-.27,1.17,1.17,0,0,1-.38-.66Zm1.2,2,.06,6a1.74,1.74,0,0,0,.69.71,2,2,0,0,0,1,.27,1.76,1.76,0,0,0,1.23-.46,2.45,2.45,0,0,0,.73-1.24A11.12,11.12,0,0,0,313,58a12.74,12.74,0,0,0,.08-1.41c0-2.1-.71-3.15-2.14-3.15a4,4,0,0,0-1.27.19A1,1,0,0,0,309,54.14Z"/><path class="cls-3" d="M317.66,60.39c0,.21,0,.49,0,.83s-.33.58-.65.58a1,1,0,0,1-.64-.27,1.17,1.17,0,0,1-.38-.66c0-1,.08-2.47.14-4.41s.09-3.24.12-3.92l.85-.15a20.14,20.14,0,0,1,.28,3.16q.06,2,.15,2.94c.24-.35.91-1.25,2-2.71a33.41,33.41,0,0,0,2.25-3.27,4.15,4.15,0,0,1,.52-.08.5.5,0,0,1,.49.32,4,4,0,0,1,.18,1.19l.35,7.65a.65.65,0,0,1-.65.56,1,1,0,0,1-.64-.27,1.17,1.17,0,0,1-.38-.66c0-.41,0-1.41.1-3s.1-2.72.14-3.39A37.73,37.73,0,0,0,317.66,60.39Z"/><path class="cls-3" d="M325.76,52.13l-.84-.2-.42-3a.83.83,0,0,1,.22-.56.59.59,0,0,1,.43-.19,1,1,0,0,1,.69.32,1.13,1.13,0,0,1,.35.78Zm2.53,0-.85-.2-.42-3c.05-.5.27-.75.64-.75a1,1,0,0,1,.71.32,1.08,1.08,0,0,1,.34.78Z"/><path class="cls-4" d="M142.75,74.79l.68.14q.15,2.26.34,7.56a48.4,48.4,0,0,0,4-7.69.75.75,0,0,1,.44-.16.65.65,0,0,1,.55.35,1.7,1.7,0,0,1,.23.82c0,.85.06,2.29.08,4.32s.07,3.55.12,4.55a.52.52,0,0,1-.51.41.93.93,0,0,1-.85-.69c0-.8,0-2,.06-3.67s0-2.77,0-3.35c-.22.35-.61,1-1.16,2s-1.06,1.81-1.53,2.51a13.25,13.25,0,0,1-1.43,1.82l.06,1.11a.53.53,0,0,1-.53.43.81.81,0,0,1-.52-.21.85.85,0,0,1-.3-.49q0-1.17.09-4.59C142.65,77.66,142.69,76,142.75,74.79Z"/><path class="cls-4" d="M150.73,76.24l-.17-.82q2.49-.15,7.86-.41a1.08,1.08,0,0,1,.76.33,1,1,0,0,1,.32.67q0,.55-.75.63l-3.47-.16c.06.93.09,2.28.1,4.06s0,3.07.07,3.89a.67.67,0,0,1-.66.54.94.94,0,0,1-.62-.26,1.09,1.09,0,0,1-.38-.63q.27-4.58.54-7.68Z"/><path class="cls-4" d="M160.24,80.81a9.36,9.36,0,0,1,.16-1.66,14.31,14.31,0,0,1,.47-1.91,4.2,4.2,0,0,1,.95-1.67,2,2,0,0,1,1.47-.67,3.29,3.29,0,0,1,2.86,1.6,6.31,6.31,0,0,1,1.08,3.58,7.9,7.9,0,0,1-.18,1.67,7.56,7.56,0,0,1-.55,1.62,3.45,3.45,0,0,1-1.06,1.33,3.08,3.08,0,0,1-1.63.6,3.73,3.73,0,0,1-2.64-1.45A4.93,4.93,0,0,1,160.24,80.81Zm3.16-5c-.43,0-.8.45-1.1,1.19a8.84,8.84,0,0,0-.57,2.17,14.54,14.54,0,0,0-.13,1.85,3.19,3.19,0,0,0,.64,1.92,1.8,1.8,0,0,0,1.44.88,1.46,1.46,0,0,0,1-.44,3.2,3.2,0,0,0,.73-1.11,7.27,7.27,0,0,0,.41-1.33A5.38,5.38,0,0,0,166,79.8a5,5,0,0,0-.69-2.65A2.49,2.49,0,0,0,163.4,75.86Z"/><path class="cls-4" d="M169.11,75.23l2.41-.25c1.08-.12,1.84-.19,2.29-.23a1.17,1.17,0,0,1,.79.34,1,1,0,0,1,.32.7c0,.37-.24.58-.74.63l-2.07-.18L170,76.05c0,.76.08,2,.22,3.68s.21,3,.21,3.88-.31,1.16-.92,1.16-.78-.35-.78-1,0-1.7.06-2.63.09-2,.17-3.22S169.08,75.79,169.11,75.23Z"/><path class="cls-4" d="M177.3,83.22c0,.21,0,.49,0,.84s-.33.58-.65.58a1,1,0,0,1-.64-.27,1.12,1.12,0,0,1-.38-.66c0-1,.08-2.48.14-4.41s.09-3.24.12-3.92l.85-.15a21.3,21.3,0,0,1,.28,3.16q.06,2,.15,2.94c.23-.35.9-1.25,2-2.72a30.14,30.14,0,0,0,2.24-3.27,3.86,3.86,0,0,1,.52-.07.5.5,0,0,1,.5.31,3.84,3.84,0,0,1,.17,1.19l.36,7.66a.66.66,0,0,1-.65.56.94.94,0,0,1-.64-.27,1.13,1.13,0,0,1-.39-.66c0-.41,0-1.41.11-3s.1-2.72.14-3.39A38,38,0,0,0,177.3,83.22Z"/><path class="cls-4" d="M196.05,83.48l.58,1.23c-.93,0-2.39,0-4.37.05H189.1c0-.1,0-.28,0-.53s0-.44,0-.59a8.64,8.64,0,0,1,1.18-1.48c.54-.57,1.09-1.14,1.63-1.69a22.22,22.22,0,0,0,1.61-1.81,9.15,9.15,0,0,0,1.29-2.21,6.61,6.61,0,0,0,.5-2.51,1.71,1.71,0,0,0-.57-1.33,2,2,0,0,0-1.4-.51,2.46,2.46,0,0,0-1.75.78,4.32,4.32,0,0,0-1.13,2.36l-.84-.3a3.84,3.84,0,0,1,1.18-2.8,3.7,3.7,0,0,1,2.56-1,3.28,3.28,0,0,1,2.23.82,2.9,2.9,0,0,1,.93,2.29,7.5,7.5,0,0,1-.37,2.35,8.13,8.13,0,0,1-1.08,2.14,21,21,0,0,1-1.32,1.72c-.41.48-.92,1-1.53,1.66s-1,1.07-1.29,1.34c.42,0,.78,0,1.07,0l1.45,0,1.47,0Z"/><path class="cls-4" d="M197.37,78.58c0-2.68.36-4.61,1-5.79a3.58,3.58,0,0,1,3.1-1.89,2.74,2.74,0,0,1,1.61.5,3.74,3.74,0,0,1,1.12,1.28,8.13,8.13,0,0,1,.7,1.84,14.8,14.8,0,0,1,.38,2c.07.64.11,1.32.14,2a11,11,0,0,1-.44,3,7.61,7.61,0,0,1-1.33,2.67,2.55,2.55,0,0,1-2,1.15C198.81,85.4,197.37,83.12,197.37,78.58Zm3.89-6.25a2.46,2.46,0,0,0-.8.3,2.57,2.57,0,0,0-.59.46,2.51,2.51,0,0,0-.4.69,7,7,0,0,0-.25.79c-.05.24-.1.56-.15.94s-.07.72-.08,1,0,.65-.05,1.1,0,.82-.06,1.11a13.88,13.88,0,0,0,.09,1.62,10.09,10.09,0,0,0,.34,1.61,3.2,3.2,0,0,0,.79,1.36,2.17,2.17,0,0,0,1.31.59c.76,0,1.4-.53,1.9-1.6a7.51,7.51,0,0,0,.75-3.23Q204.06,72.4,201.26,72.33Z"/><path class="cls-4" d="M207.09,84.71v-1c.3,0,.67-.1,1.11-.19l1-.19c0-.89.06-1.79.06-2.69,0-.57,0-1.43,0-2.58s0-2,0-2.59c0-1.37,0-2.41.05-3.12a23.59,23.59,0,0,0-2.47,1.56l-.59-.61,1-.85,1.3-1.1c.39-.32.68-.59.89-.8.2,0,.41,0,.62,0a6,6,0,0,1,.61,0q.1,2.16.11,7.9c0,2.28,0,3.91.06,4.9l.81.14c.42.08.76.14,1,.16l.3,1h-5.23A4.61,4.61,0,0,1,207.09,84.71Z"/><path class="cls-4" d="M221.61,81a4,4,0,0,1-1,3,4.11,4.11,0,0,1-3,1q-3.9,0-3.9-4.05a5.33,5.33,0,0,1,.59-2.55,2.25,2.25,0,0,1,1.64-1.26,1.89,1.89,0,0,1-1.6-.79,3.15,3.15,0,0,1-.54-1.89,3.82,3.82,0,0,1,1-2.75,3.59,3.59,0,0,1,2.72-1,4.33,4.33,0,0,1,2.92.92,3.61,3.61,0,0,1,1.06,2.87,3.2,3.2,0,0,1-.54,1.89,1.86,1.86,0,0,1-1.6.78A2.26,2.26,0,0,1,221,78.47,5.18,5.18,0,0,1,221.61,81Zm-3.8,2.64a2.16,2.16,0,0,0,1.72-.81,2.86,2.86,0,0,0,.68-1.92,2.68,2.68,0,0,0-2.79-2.75,3.18,3.18,0,0,0-1.67,1,2.53,2.53,0,0,0-.55,1.6,2.88,2.88,0,0,0,.74,2A2.36,2.36,0,0,0,217.81,83.67Zm0-11.93a2.73,2.73,0,0,0-1.9.81,2.53,2.53,0,0,0,0,3.35,2.12,2.12,0,0,0,1.67.71A2.6,2.6,0,0,0,219.4,76,2.14,2.14,0,0,0,220,74.4a2.69,2.69,0,0,0-.61-1.7A2.5,2.5,0,0,0,217.82,71.74Z"/><path class="cls-4" d="M228.8,75.23l2.42-.25c1.07-.12,1.84-.19,2.28-.23a1.15,1.15,0,0,1,.79.34,1,1,0,0,1,.33.7c0,.37-.25.58-.74.63l-2.08-.18-2.11-.19c0,.76.09,2,.23,3.68s.2,3,.2,3.88-.31,1.16-.92,1.16-.77-.35-.77-1,0-1.7,0-2.63.1-2,.17-3.22S228.78,75.79,228.8,75.23Z"/><path class="cls-4" d="M235.36,80.81a9.36,9.36,0,0,1,.16-1.66,14.31,14.31,0,0,1,.47-1.91,4.2,4.2,0,0,1,.95-1.67,2,2,0,0,1,1.47-.67,3.29,3.29,0,0,1,2.86,1.6,6.31,6.31,0,0,1,1.08,3.58,7.9,7.9,0,0,1-.18,1.67,7.56,7.56,0,0,1-.55,1.62,3.45,3.45,0,0,1-1.06,1.33,3.08,3.08,0,0,1-1.63.6,3.73,3.73,0,0,1-2.64-1.45A4.93,4.93,0,0,1,235.36,80.81Zm3.16-5c-.43,0-.8.45-1.1,1.19a8.84,8.84,0,0,0-.57,2.17,14.54,14.54,0,0,0-.13,1.85,3.19,3.19,0,0,0,.64,1.92,1.8,1.8,0,0,0,1.44.88,1.46,1.46,0,0,0,1-.44,3.2,3.2,0,0,0,.73-1.11A7.27,7.27,0,0,0,241,81a5.38,5.38,0,0,0,.14-1.19,5.07,5.07,0,0,0-.68-2.65A2.52,2.52,0,0,0,238.52,75.86Z"/><path class="cls-4" d="M244.06,87.2l-.82-.19c0-.13,0-.53-.07-1.2s-.08-1.16-.08-1.45a5.7,5.7,0,0,1,.06-.8h1.21c.06-.21.16-.53.3-1s.24-.72.29-.89l.22-.77a6.89,6.89,0,0,0,.18-.88q0-.36.09-.9c0-.36.05-.74.05-1.13,0-.93,0-2-.11-3.14.69,0,1.43.06,2.2.07s1.41,0,1.91.06a13.78,13.78,0,0,1,1.52.16c0,.85.08,2.23.12,4.16s.08,3.31.12,4.15h1.45v.56c0,.32,0,.78,0,1.37s0,1,0,1.19a8.51,8.51,0,0,1,0,.86l-.84-.19c0-.17-.09-.39-.14-.66s-.09-.55-.14-.86-.08-.53-.11-.67l-3.38-.22c-1.55-.11-2.75-.19-3.62-.23Zm2.88-11.15c0,.19,0,.57,0,1.16s0,1,0,1.35-.06.75-.11,1.3a11.14,11.14,0,0,1-.22,1.38,9,9,0,0,1-.38,1.19,4.83,4.83,0,0,1-.59,1.11h4.06L250,76.2l-1.36-.06C247.9,76.12,247.33,76.09,246.94,76.05Z"/><path class="cls-4" d="M254.56,76.74l-.37-.95a3.49,3.49,0,0,1,1.22-.77,4.13,4.13,0,0,1,1.47-.29c2.1,0,3.14,1.81,3.14,5.43,0,.49,0,1.22-.08,2.19s-.08,1.69-.08,2.17-.3.58-.58.58a.79.79,0,0,1-.61-.33,1.15,1.15,0,0,1-.28-.75.42.42,0,0,1,0-.18A3.52,3.52,0,0,1,256,85a2.42,2.42,0,0,1-1.72-.71,2.34,2.34,0,0,1-.73-1.74,4.38,4.38,0,0,1,1.35-3.12,4.14,4.14,0,0,1,3-1.4h.15l.18,0,.16,0c-.1-1.44-.68-2.16-1.73-2.16A3.71,3.71,0,0,0,254.56,76.74Zm3.88,5.81c0-.86,0-1.52,0-2s0-.89,0-1.56h-.15a3.58,3.58,0,0,0-2.4,1,3,3,0,0,0-1.09,2.34,1.27,1.27,0,0,0,.36,1,1.25,1.25,0,0,0,.89.35A5,5,0,0,0,258.44,82.55Z"/></g></g></svg>