<svg xmlns="http://www.w3.org/2000/svg" viewBox="0 0 401.53 144.64"><defs><style>.cls-1{fill:#d0f2fc;}.cls-2{fill:#fff;}</style></defs><title>top_cloud</title><g id="Слой_2" data-name="Слой 2"><g id="OBJECTS"><g id="Layer0_9_FILL" data-name="Layer0 9 FILL"><path class="cls-1" d="M386.35,79.44l-.58.68a14.21,14.21,0,0,1-4.39,3.47,11,11,0,0,1,.09,1.45,10.54,10.54,0,0,1-3.37,7.82,12.05,12.05,0,0,1-8.74,3.42,15,15,0,0,1-7.09-1.35,12.41,12.41,0,0,1-4.49-4.49,8.85,8.85,0,0,1-.63.77A17.71,17.71,0,0,1,343,98c-2.73,0-4.74-.44-6-1.3a5.19,5.19,0,0,1-2.12-4.06c-.58.58-1.16,1.14-1.74,1.69q-9.4,8.84-18.77,8.83A22.55,22.55,0,0,1,304,100.67a23.8,23.8,0,0,1-5.69-4,14.35,14.35,0,0,1,.19,2.55q0,6.77-1.69,10-2.65,5.17-10.18,5.17-6.33,0-9.7-3.86a13,13,0,0,1-3-8.93,9.51,9.51,0,0,1,0-1.31,27.43,27.43,0,0,1-15.54,4.59,25.1,25.1,0,0,1-11.92-2.9,36.1,36.1,0,0,1-7.82-5.88A57.32,57.32,0,0,1,227,111.68q-12.73,12.25-27.55,12.25a37.78,37.78,0,0,1-17-4.48,34.42,34.42,0,0,1-15.82-15.74,27,27,0,0,1-2.08,6.42q-3.48,6.95-10.66,7a14.25,14.25,0,0,1-11.54-5.16c-2.64-3.16-4.2-7.51-4.68-13.08a35,35,0,0,1-3.67,2.85,30.57,30.57,0,0,1-17.66,5.45q-18.19,0-26.35-7A17,17,0,0,1,85,93.24c-1.06,1.22-2.3,2.53-3.71,3.91q-8.88,8.68-16.46,8.69-5.31,0-7.38-1.55a11.65,11.65,0,0,1-3.38-4.73,20.84,20.84,0,0,1-2.85,2.71,17.2,17.2,0,0,1-10.76,4c-4.22,0-7.46-1-9.75-3s-3.42-5-3.42-8.83c0-.29,0-.6,0-.92a20,20,0,0,1-2.75,2.46q-4,3-7.48,3a20.58,20.58,0,0,1-9.94-3A14.83,14.83,0,0,1,3.33,93.1a4.23,4.23,0,0,0-.48.58A15,15,0,0,0,0,102.41q0,5,6.08,5.07c1.48,0,4-.77,7.48-2.42,1.87-.86,3.28-1.49,4.25-1.88a17.27,17.27,0,0,0,4,12,15,15,0,0,0,11.78,5.45q7.66.1,14.28-6.32a35.51,35.51,0,0,0,4-4.58,32.18,32.18,0,0,0,6.66,8.39,15.85,15.85,0,0,0,10,3.48,16.12,16.12,0,0,0,10.18-3.91,18.32,18.32,0,0,0,5.45-6.18l0,.24q0,10.91,8.5,19.06,8,7.72,17.51,7.82,12.16.19,21.72-11.34a49.05,49.05,0,0,0,5.07-7.24q5.31,7.64,16,7.77a25.71,25.71,0,0,0,12.55-3.42,38.8,38.8,0,0,0,5.5-3.62q9.21,14.56,16.21,19.54,5.9,4.16,16.17,4.3,16.11.24,26.78-14.77a52.89,52.89,0,0,0,6-10.86,60.12,60.12,0,0,0,8.79,5.41,18.1,18.1,0,0,0,7.33,1.59q9,.09,15.64-7.43a44.77,44.77,0,0,0,3.28-4.35,72.06,72.06,0,0,0,6.75,8.83,16.7,16.7,0,0,0,11.92,5.26,14.85,14.85,0,0,0,13.32-6.8A24.51,24.51,0,0,0,307,111a16.14,16.14,0,0,0,6.47,1.16q5.94,0,12.26-4.1a26.28,26.28,0,0,0,4.53-3.77,12.37,12.37,0,0,0,3.57,7.63q3.44,3.33,9.41,3.42,8.44.1,12.65-4.82a12.6,12.6,0,0,0,2.8-6l.43.43a12.79,12.79,0,0,0,7.77,2.27,22.49,22.49,0,0,0,14.57-6.51q14.58,4.29,18.29-2.37t-.29-10.81q-4-4.2-13.12-3.57,0-2.66,0-4.44M340,108.73a3.52,3.52,0,0,1-.53-2c0-2.42,1.67-3.51,5-3.29s5,1.32,5,3.38a3.39,3.39,0,0,1-.77,2.17c-.81,1-2.17,1.55-4.1,1.55q-3.44,0-4.59-1.79m-42.95,6.52q3.48-2.13,3.48,1.49c0,.74-.61,1.59-1.84,2.56a5.32,5.32,0,0,1-2.84,1.4,2.14,2.14,0,0,1-2-1,2.43,2.43,0,0,1-.29-1.16c0-.77,1.17-1.87,3.52-3.28m98.64-21.09q0,3.42-4.29,3.42c-2.16,0-3.46-.59-3.91-1.78l-.05-1.64c0-2.7,1.38-3.93,4.15-3.67s4.1,1.48,4.1,3.67m-12.3,3.76q-2.13,0-2.13-2.31c0-1.52.71-2.27,2.13-2.27s2.12.75,2.12,2.27a2.66,2.66,0,0,1-.34,1.3,1.86,1.86,0,0,1-1.78,1M260.54,110.71c1.51-.06,2.27.69,2.27,2.27a2.88,2.88,0,0,1-.53,1.54,2.21,2.21,0,0,1-1.93,1.11,1.9,1.9,0,0,1-2.13-2.17c0-1.74.78-2.65,2.32-2.75M248.19,117c-.36-1.12-.53-1.72-.53-1.78,0-2.93,1.57-4.54,4.73-4.83a4.87,4.87,0,0,1,3.23.68,3,3,0,0,1,1.45,2.7,4.9,4.9,0,0,1-1,2.94,4.46,4.46,0,0,1-3.91,1.93c-1.89,0-3.21-.54-3.95-1.64M197,131.37a14.18,14.18,0,0,1,5.35-1.16q7.73-.39,7.72,3.52a5.13,5.13,0,0,1-1,3.14,5.63,5.63,0,0,1-4.73,1.93,14.44,14.44,0,0,1-7.62-1.69c-1.42-.9-2.13-1.9-2.13-3s.81-2,2.42-2.75m18.38,2.7a1.83,1.83,0,0,1-1.83-1,2.37,2.37,0,0,1-.29-1.2c0-1.35.88-2.27,2.65-2.75s2.61.16,2.61,1.93a3.17,3.17,0,0,1-.77,1.83,2.94,2.94,0,0,1-2.37,1.21M23,109.89q0-4.2,4.3-3.09t4.29,4.78a4.47,4.47,0,0,1-.34,2,2.82,2.82,0,0,1-2.8,1.35A5,5,0,0,1,24,112.45l-1-2.56m13.46,6.76a2.16,2.16,0,0,1-2-1,2.3,2.3,0,0,1-.29-1.16c0-1.35.77-2.1,2.31-2.27s2.27.52,2.27,2.13a2,2,0,0,1-2.27,2.27m56.51,5.26c0-2,.73-3.28,2.18-3.86a6.53,6.53,0,0,1,4.72.24,12.2,12.2,0,0,1,4.73,2.84,5.86,5.86,0,0,1,2.18,4.11,5.3,5.3,0,0,1-.54,2.65c-.61,1.13-1.78,1.69-3.52,1.69a9.38,9.38,0,0,1-7.53-3.81q-2.22-3.81-2.22-3.86m19.89,5.84a4.59,4.59,0,0,1-.83,2.41c-.61,1-1.27,1.45-2,1.45-1.42,0-2.13-.76-2.13-2.27,0-2.29.82-3.57,2.46-3.86s2.47.46,2.47,2.27m-44.55-12.5a2,2,0,0,1-.57,1.4,1.93,1.93,0,0,1-1.5.72q-2.7,0-3.72-1.5L62,114.33q0-3,3.14-1.93C67.24,113.08,68.28,114,68.28,115.25Z"/><path class="cls-2" d="M67.71,116.65a2,2,0,0,0,.57-1.4c0-1.23-1-2.17-3.13-2.85S62,112.33,62,114.33l.48,1.54q1,1.5,3.72,1.5a1.93,1.93,0,0,0,1.5-.72M112,130.16a4.59,4.59,0,0,0,.83-2.41c0-1.81-.83-2.56-2.47-2.27s-2.46,1.57-2.46,3.86c0,1.51.71,2.27,2.13,2.27.7,0,1.36-.49,2-1.45M95.12,118.05c-1.45.58-2.18,1.86-2.18,3.86t2.22,3.86a9.38,9.38,0,0,0,7.53,3.81c1.74,0,2.91-.56,3.52-1.69a5.3,5.3,0,0,0,.54-2.65,5.86,5.86,0,0,0-2.18-4.11,12.2,12.2,0,0,0-4.73-2.84,6.53,6.53,0,0,0-4.72-.24m-60.71-2.37a2.16,2.16,0,0,0,2,1,2,2,0,0,0,2.27-2.27c0-1.61-.75-2.32-2.27-2.13s-2.31.92-2.31,2.27a2.3,2.3,0,0,0,.29,1.16m-7.14-8.88Q23,105.69,23,109.89l1,2.56A5,5,0,0,0,28.42,115a2.82,2.82,0,0,0,2.8-1.35,4.47,4.47,0,0,0,.34-2q0-3.67-4.29-4.78m186.32,26.25a1.83,1.83,0,0,0,1.83,1,2.94,2.94,0,0,0,2.37-1.21,3.17,3.17,0,0,0,.77-1.83c0-1.77-.87-2.42-2.61-1.93s-2.65,1.4-2.65,2.75a2.37,2.37,0,0,0,.29,1.2m-11.2-2.84a14.18,14.18,0,0,0-5.35,1.16c-1.61.73-2.42,1.65-2.42,2.75s.71,2.09,2.13,3a14.44,14.44,0,0,0,7.62,1.69,5.63,5.63,0,0,0,4.73-1.93,5.13,5.13,0,0,0,1-3.14q0-3.91-7.72-3.52m45.27-15c0,.06.17.66.53,1.78.74,1.1,2.06,1.64,3.95,1.64a4.46,4.46,0,0,0,3.91-1.93,4.9,4.9,0,0,0,1-2.94,3,3,0,0,0-1.45-2.7,4.87,4.87,0,0,0-3.23-.68c-3.16.29-4.73,1.9-4.73,4.83M262.81,113c0-1.58-.76-2.33-2.27-2.27s-2.32,1-2.32,2.75a1.9,1.9,0,0,0,2.13,2.17,2.21,2.21,0,0,0,1.93-1.11,2.88,2.88,0,0,0,.53-1.54M381.28,95.61q0,2.31,2.13,2.31a1.86,1.86,0,0,0,1.78-1,2.66,2.66,0,0,0,.34-1.3c0-1.52-.71-2.27-2.12-2.27s-2.13.75-2.13,2.27m10.14,2q4.29,0,4.29-3.42t-4.1-3.67c-2.77-.26-4.15,1-4.15,3.67l.05,1.64c.45,1.19,1.75,1.78,3.91,1.78m-90.87,19.16q0-3.61-3.48-1.49c-2.35,1.41-3.52,2.51-3.52,3.28a2.43,2.43,0,0,0,.29,1.16,2.14,2.14,0,0,0,2,1,5.32,5.32,0,0,0,2.84-1.4c1.23-1,1.84-1.82,1.84-2.56m38.94-10a3.52,3.52,0,0,0,.53,2q1.16,1.78,4.59,1.79c1.93,0,3.29-.52,4.1-1.55a3.39,3.39,0,0,0,.77-2.17c0-2.06-1.66-3.18-5-3.38s-5,.87-5,3.29m46.86-27.27v-.1a33.46,33.46,0,0,0-.68-7.33q-2-8.69-10.23-8.78a19.08,19.08,0,0,0-7.48,1.4,22.16,22.16,0,0,0-2.07,1,14.19,14.19,0,0,0-4-7.14q-5.7-5.89-16.31-6a16.51,16.51,0,0,0-7.38,1.69,80.24,80.24,0,0,0-1.26-9.6q-4-20.89-16.94-21a26.27,26.27,0,0,0-18.43,7,32.72,32.72,0,0,0-5.16,5.79A38.49,38.49,0,0,0,289,15.5Q277.73.35,252,0,224-.38,210.5,18.1a43.6,43.6,0,0,0-4.92,8.79,27.76,27.76,0,0,0-8.5-7,39.11,39.11,0,0,0-18.48-4.63Q160.6,15,149.21,24a34.88,34.88,0,0,0-3.52,3.23A53.41,53.41,0,0,0,136.57,17Q124.08,5.84,111.72,5.7q-8-.13-17.52,4.2A66,66,0,0,0,75.86,22.35Q61.43,36,57.28,53.33,53.08,47.06,46.09,47q-4.87,0-8.26,5.17a22.44,22.44,0,0,0-4,11.82q-.19,6,1,9a15.31,15.31,0,0,0-9.17-3.71q-7.09-.39-9.31,9A36.14,36.14,0,0,0,15.59,91a12.62,12.62,0,0,1-3.14-.72,12.47,12.47,0,0,0-3-.77q-3.33-.06-6.08,3.57A14.83,14.83,0,0,0,7.14,96a20.58,20.58,0,0,0,9.94,3q3.48,0,7.48-3a20,20,0,0,0,2.75-2.46c0,.32,0,.63,0,.92q0,5.75,3.42,8.83c2.29,2,5.53,3,9.75,3a17.2,17.2,0,0,0,10.76-4,20.84,20.84,0,0,0,2.85-2.71,11.65,11.65,0,0,0,3.38,4.73q2.07,1.54,7.38,1.55,7.57,0,16.46-8.69c1.41-1.38,2.65-2.69,3.71-3.91a17,17,0,0,0,4.92,6.85q8.16,7.05,26.35,7a30.57,30.57,0,0,0,17.66-5.45,35,35,0,0,0,3.67-2.85c.48,5.57,2,9.92,4.68,13.08a14.25,14.25,0,0,0,11.54,5.16q7.19,0,10.66-7a27,27,0,0,0,2.08-6.42,34.42,34.42,0,0,0,15.82,15.74,37.78,37.78,0,0,0,17,4.48q14.82,0,27.55-12.25a57.32,57.32,0,0,0,11.68-15.54,36.1,36.1,0,0,0,7.82,5.88,25.1,25.1,0,0,0,11.92,2.9,27.43,27.43,0,0,0,15.54-4.59,9.51,9.51,0,0,0,0,1.31,13,13,0,0,0,3,8.93q3.38,3.86,9.7,3.86,7.53,0,10.18-5.17,1.69-3.23,1.69-10a14.35,14.35,0,0,0-.19-2.55,23.8,23.8,0,0,0,5.69,4,22.55,22.55,0,0,0,10.33,2.51q9.36,0,18.77-8.83c.58-.55,1.16-1.11,1.74-1.69A5.19,5.19,0,0,0,337,96.72c1.29.86,3.3,1.3,6,1.3a17.71,17.71,0,0,0,14.14-6.81,8.85,8.85,0,0,0,.63-.77,12.41,12.41,0,0,0,4.49,4.49,15,15,0,0,0,7.09,1.35,12.05,12.05,0,0,0,8.74-3.42A10.54,10.54,0,0,0,381.47,85a11,11,0,0,0-.09-1.45,14.21,14.21,0,0,0,4.39-3.47Z"/></g></g></g></svg>